M48
; DRILL file {KiCad 9.0.0} date 2026-01-25T00:23:44-0500
; FORMAT={-:-/ absolute / inch / decimal}
; #@! TF.CreationDate,2026-01-25T00:23:44-05:00
; #@! TF.GenerationSoftware,Kicad,Pcbnew,9.0.0
; #@! TF.FileFunction,Plated,1,2,PTH
FMAT,2
INCH
; #@! TA.AperFunction,Plated,PTH,ViaDrill
T1C0.0118
; #@! TA.AperFunction,Plated,PTH,ComponentDrill
T2C0.0236
; #@! TA.AperFunction,Plated,PTH,ComponentDrill
T3C0.0295
; #@! TA.AperFunction,Plated,PTH,ComponentDrill
T4C0.0394
%
G90
G05
T1
X6.6339Y-3.0768
X6.6929Y-2.7559
X6.6929Y-2.8543
X6.6929Y-3.6417
X6.6929Y-3.7402
X6.7913Y-3.6417
X6.7913Y-3.7402
X6.7913Y-3.8386
X6.7913Y-3.937
X6.7913Y-4.0354
X6.8071Y-3.122
X6.8465Y-3.2047
X6.8898Y-2.7559
X6.8898Y-3.5433
X6.8898Y-3.6417
X6.9173Y-2.5079
X6.9548Y-3.3346
X6.9882Y-3.5433
X6.9882Y-4.2323
X7.0Y-3.7283
X7.0237Y-2.5043
X7.0433Y-3.689
X7.0827Y-3.6457
X7.0866Y-3.2618
X7.0866Y-4.2323
X7.1193Y-2.4949
X7.185Y-3.1496
X7.2205Y-3.2441
X7.2598Y-3.4094
X7.2835Y-3.0512
X7.2835Y-3.3071
X7.3012Y-4.0709
X7.3189Y-2.5039
X7.3228Y-3.7008
X7.3248Y-2.3366
X7.3386Y-3.4882
X7.3622Y-2.9528
X7.3622Y-3.6614
X7.3819Y-2.0669
X7.3819Y-2.1654
X7.3819Y-2.5591
X7.3819Y-4.0709
X7.3819Y-4.3307
X7.3902Y-2.9326
X7.3937Y-3.4291
X7.3976Y-3.6299
X7.4016Y-3.7008
X7.4016Y-2.8974
X7.4085Y-2.3268
X7.4331Y-2.5335
X7.4366Y-3.6142
X7.4488Y-3.3858
X7.4744Y-2.3268
X7.4803Y-2.0669
X7.4803Y-2.1654
X7.4803Y-4.0709
X7.4803Y-4.3307
X7.5039Y-3.3268
X7.5079Y-2.5335
X7.5314Y-3.6339
X7.5325Y-2.3298
X7.5522Y-3.3258
X7.5591Y-2.9528
X7.5591Y-3.5039
X7.5787Y-2.0669
X7.5787Y-2.1654
X7.5787Y-2.4606
X7.5787Y-2.6575
X7.5787Y-3.5433
X7.5787Y-3.937
X7.5787Y-4.0689
X7.5787Y-4.3307
X7.5846Y-3.3268
X7.626Y-3.1614
X7.6311Y-3.4445
X7.6547Y-3.3954
X7.6594Y-2.9823
X7.6614Y-2.7402
X7.6673Y-3.6142
X7.6772Y-2.8543
X7.6909Y-4.0689
X7.6997Y-3.0944
X7.7087Y-3.6575
X7.7205Y-3.1181
X7.7487Y-3.2956
X7.7539Y-2.5768
X7.7579Y-3.1594
X7.7756Y-2.0669
X7.7756Y-2.1654
X7.7756Y-2.2638
X7.7756Y-2.3622
X7.7894Y-3.5295
X7.7894Y-3.966
X7.7992Y-2.9547
X7.8051Y-2.9154
X7.8051Y-3.9134
X7.8346Y-3.6654
X7.8366Y-3.0827
X7.8583Y-2.5925
X7.8602Y-3.0571
X7.8661Y-2.9803
X7.8701Y-3.4764
X7.874Y-2.1654
X7.874Y-3.1496
X7.874Y-3.248
X7.874Y-3.3465
X7.874Y-3.4449
X7.874Y-4.0354
X7.874Y-4.2323
X7.878Y-3.0311
X7.8976Y-2.8268
X7.9232Y-2.8937
X7.9444Y-2.6299
X7.9448Y-3.7126
X7.9724Y-2.3622
X7.9724Y-3.937
X7.9724Y-4.0354
X7.9724Y-4.2323
X7.9764Y-2.6299
X7.9771Y-2.7638
X7.9961Y-3.5098
X8.0118Y-3.4744
X8.0328Y-2.6122
X8.0709Y-2.3622
X8.0709Y-2.6575
X8.0709Y-2.7559
X8.0709Y-3.1496
X8.0709Y-3.248
X8.0709Y-3.3465
X8.0709Y-3.5433
X8.0709Y-3.8386
X8.0709Y-3.937
X8.0709Y-4.0354
X8.0728Y-2.5866
X8.1437Y-2.8327
X8.1437Y-2.8957
X8.1457Y-3.6752
X8.1654Y-3.5709
X8.1693Y-2.4606
X8.1693Y-2.5591
X8.1693Y-3.0512
X8.1693Y-3.1496
X8.1693Y-3.248
X8.1693Y-3.4449
X8.1693Y-3.8386
X8.1693Y-3.937
X8.1693Y-4.0354
X8.2677Y-3.3465
X8.2677Y-3.4449
X8.3327Y-2.8406
X8.3346Y-2.9665
T3
X7.6181Y-2.5413
X7.6969Y-2.5413
T4
X6.7106Y-2.9762
X6.7106Y-3.0762
X6.7106Y-3.1762
X6.7106Y-3.2762
X6.7106Y-3.3762
X6.7106Y-3.4762
X6.7106Y-3.5762
X6.9602Y-3.8035
X6.9602Y-3.9035
X7.0602Y-3.8035
X7.0602Y-3.9035
X7.1602Y-3.8035
X7.1602Y-3.9035
X7.2602Y-3.8035
X7.2602Y-3.9035
X7.3602Y-3.8035
X7.3602Y-3.9035
X7.4602Y-3.8035
X7.4602Y-3.9035
T2
G00X7.3093Y-2.0695
M15
G01X7.3093Y-2.0459
M16
G05
G00X7.3093Y-2.2439
M15
G01X7.3093Y-2.2006
M16
G05
G00X7.6494Y-2.0695
M15
G01X7.6494Y-2.0459
M16
G05
G00X7.6494Y-2.2439
M15
G01X7.6494Y-2.2006
M16
G05
M30
