%TF.GenerationSoftware,KiCad,Pcbnew,9.0.0*%
%TF.CreationDate,2026-01-18T15:38:31-05:00*%
%TF.ProjectId,hackapet_v4,6861636b-6170-4657-945f-76342e6b6963,rev?*%
%TF.SameCoordinates,Original*%
%TF.FileFunction,Soldermask,Bot*%
%TF.FilePolarity,Negative*%
%FSLAX46Y46*%
G04 Gerber Fmt 4.6, Leading zero omitted, Abs format (unit mm)*
G04 Created by KiCad (PCBNEW 9.0.0) date 2026-01-18 15:38:31*
%MOMM*%
%LPD*%
G01*
G04 APERTURE LIST*
G04 Aperture macros list*
%AMRoundRect*
0 Rectangle with rounded corners*
0 $1 Rounding radius*
0 $2 $3 $4 $5 $6 $7 $8 $9 X,Y pos of 4 corners*
0 Add a 4 corners polygon primitive as box body*
4,1,4,$2,$3,$4,$5,$6,$7,$8,$9,$2,$3,0*
0 Add four circle primitives for the rounded corners*
1,1,$1+$1,$2,$3*
1,1,$1+$1,$4,$5*
1,1,$1+$1,$6,$7*
1,1,$1+$1,$8,$9*
0 Add four rect primitives between the rounded corners*
20,1,$1+$1,$2,$3,$4,$5,0*
20,1,$1+$1,$4,$5,$6,$7,0*
20,1,$1+$1,$6,$7,$8,$9,0*
20,1,$1+$1,$8,$9,$2,$3,0*%
G04 Aperture macros list end*
%ADD10O,1.000000X1.600000*%
%ADD11O,1.000000X2.100000*%
%ADD12C,0.650000*%
%ADD13C,3.200000*%
%ADD14RoundRect,0.150000X0.825000X0.150000X-0.825000X0.150000X-0.825000X-0.150000X0.825000X-0.150000X0*%
%ADD15C,2.100000*%
%ADD16R,1.000000X0.750000*%
%ADD17R,1.700000X1.700000*%
%ADD18O,1.700000X1.700000*%
%ADD19RoundRect,0.250000X-0.475000X0.250000X-0.475000X-0.250000X0.475000X-0.250000X0.475000X0.250000X0*%
%ADD20R,1.500000X1.000000*%
%ADD21RoundRect,0.250000X0.350000X0.625000X-0.350000X0.625000X-0.350000X-0.625000X0.350000X-0.625000X0*%
%ADD22O,1.200000X1.750000*%
G04 APERTURE END LIST*
%TO.C,J1*%
G36*
X208450000Y-91100000D02*
G01*
X209950000Y-91100000D01*
X209950000Y-91400000D01*
X208450000Y-91400000D01*
X208450000Y-91100000D01*
G37*
%TD*%
D10*
%TO.C,J4*%
X185655000Y-52265000D03*
D11*
X185655000Y-56445000D03*
D10*
X194295000Y-52265000D03*
D11*
X194295000Y-56445000D03*
D12*
X187085000Y-55945000D03*
X192865000Y-55945000D03*
%TD*%
D13*
%TO.C,REF\u002A\u002A*%
X180500000Y-55300000D03*
%TD*%
D14*
%TO.C,U2*%
X204925000Y-71545000D03*
X204925000Y-72815000D03*
X204925000Y-74085000D03*
X204925000Y-75355000D03*
X209875000Y-75355000D03*
X209875000Y-74085000D03*
X209875000Y-72815000D03*
X209875000Y-71545000D03*
%TD*%
D15*
%TO.C,REF\u002A\u002A*%
X170500000Y-99300000D03*
%TD*%
D16*
%TO.C,BOOT1*%
X176225000Y-109075000D03*
X182225000Y-109075000D03*
X176225000Y-105325000D03*
X182225000Y-105325000D03*
%TD*%
D17*
%TO.C,DISPLAY_SSD1351*%
X170450000Y-90835000D03*
D18*
X170450000Y-88295000D03*
X170450000Y-85755000D03*
X170450000Y-83215000D03*
X170450000Y-80675000D03*
X170450000Y-78135000D03*
X170450000Y-75595000D03*
%TD*%
D17*
%TO.C,BREAKOUT_PINS1*%
X189490000Y-96610000D03*
D18*
X189490000Y-99150000D03*
X186950000Y-96610000D03*
X186950000Y-99150000D03*
X184410000Y-96610000D03*
X184410000Y-99150000D03*
X181870000Y-96610000D03*
X181870000Y-99150000D03*
X179330000Y-96610000D03*
X179330000Y-99150000D03*
X176790000Y-96610000D03*
X176790000Y-99150000D03*
%TD*%
D19*
%TO.C,C9*%
X174250000Y-105200000D03*
X174250000Y-107100000D03*
%TD*%
D16*
%TO.C,RESET1*%
X198675000Y-108950000D03*
X204675000Y-108950000D03*
X198675000Y-105200000D03*
X204675000Y-105200000D03*
%TD*%
D15*
%TO.C,REF\u002A\u002A*%
X210000000Y-99300000D03*
%TD*%
%TO.C,REF\u002A\u002A*%
X210000000Y-67300000D03*
%TD*%
%TO.C,REF\u002A\u002A*%
X170500000Y-67300000D03*
%TD*%
D20*
%TO.C,J1*%
X209200000Y-90600000D03*
X209200000Y-91900000D03*
%TD*%
D21*
%TO.C,J7*%
X195500000Y-64550000D03*
D22*
X193500000Y-64550000D03*
%TD*%
M02*
