%TF.GenerationSoftware,KiCad,Pcbnew,9.0.0*%
%TF.CreationDate,2026-01-18T15:38:31-05:00*%
%TF.ProjectId,hackapet_v4,6861636b-6170-4657-945f-76342e6b6963,rev?*%
%TF.SameCoordinates,Original*%
%TF.FileFunction,Copper,L1,Top*%
%TF.FilePolarity,Positive*%
%FSLAX46Y46*%
G04 Gerber Fmt 4.6, Leading zero omitted, Abs format (unit mm)*
G04 Created by KiCad (PCBNEW 9.0.0) date 2026-01-18 15:38:31*
%MOMM*%
%LPD*%
G01*
G04 APERTURE LIST*
G04 Aperture macros list*
%AMRoundRect*
0 Rectangle with rounded corners*
0 $1 Rounding radius*
0 $2 $3 $4 $5 $6 $7 $8 $9 X,Y pos of 4 corners*
0 Add a 4 corners polygon primitive as box body*
4,1,4,$2,$3,$4,$5,$6,$7,$8,$9,$2,$3,0*
0 Add four circle primitives for the rounded corners*
1,1,$1+$1,$2,$3*
1,1,$1+$1,$4,$5*
1,1,$1+$1,$6,$7*
1,1,$1+$1,$8,$9*
0 Add four rect primitives between the rounded corners*
20,1,$1+$1,$2,$3,$4,$5,0*
20,1,$1+$1,$4,$5,$6,$7,0*
20,1,$1+$1,$6,$7,$8,$9,0*
20,1,$1+$1,$8,$9,$2,$3,0*%
%AMRotRect*
0 Rectangle, with rotation*
0 The origin of the aperture is its center*
0 $1 length*
0 $2 width*
0 $3 Rotation angle, in degrees counterclockwise*
0 Add horizontal line*
21,1,$1,$2,0,0,$3*%
%AMFreePoly0*
4,1,14,0.603536,0.603536,0.605001,0.600000,0.605001,-0.600000,0.603536,-0.603536,0.600000,-0.605001,-0.600000,-0.605001,-0.603536,-0.603536,-0.605001,-0.600000,-0.605001,0.000000,-0.603536,0.003536,-0.003536,0.603536,0.000000,0.605001,0.600000,0.605001,0.603536,0.603536,0.603536,0.603536,$1*%
G04 Aperture macros list end*
%TA.AperFunction,ComponentPad*%
%ADD10O,1.000000X1.600000*%
%TD*%
%TA.AperFunction,ComponentPad*%
%ADD11O,1.000000X2.100000*%
%TD*%
%TA.AperFunction,SMDPad,CuDef*%
%ADD12RoundRect,0.150000X0.150000X0.500000X-0.150000X0.500000X-0.150000X-0.500000X0.150000X-0.500000X0*%
%TD*%
%TA.AperFunction,SMDPad,CuDef*%
%ADD13RoundRect,0.075000X0.075000X0.575000X-0.075000X0.575000X-0.075000X-0.575000X0.075000X-0.575000X0*%
%TD*%
%TA.AperFunction,SMDPad,CuDef*%
%ADD14RoundRect,0.243750X0.150260X-0.494975X0.494975X-0.150260X-0.150260X0.494975X-0.494975X0.150260X0*%
%TD*%
%TA.AperFunction,SMDPad,CuDef*%
%ADD15RoundRect,0.250000X0.132583X-0.503814X0.503814X-0.132583X-0.132583X0.503814X-0.503814X0.132583X0*%
%TD*%
%TA.AperFunction,SMDPad,CuDef*%
%ADD16RoundRect,0.250000X-0.450000X0.262500X-0.450000X-0.262500X0.450000X-0.262500X0.450000X0.262500X0*%
%TD*%
%TA.AperFunction,SMDPad,CuDef*%
%ADD17RoundRect,0.250000X0.262500X0.450000X-0.262500X0.450000X-0.262500X-0.450000X0.262500X-0.450000X0*%
%TD*%
%TA.AperFunction,SMDPad,CuDef*%
%ADD18RoundRect,0.150000X-0.587500X-0.150000X0.587500X-0.150000X0.587500X0.150000X-0.587500X0.150000X0*%
%TD*%
%TA.AperFunction,SMDPad,CuDef*%
%ADD19RoundRect,0.250000X-0.250000X-0.475000X0.250000X-0.475000X0.250000X0.475000X-0.250000X0.475000X0*%
%TD*%
%TA.AperFunction,SMDPad,CuDef*%
%ADD20RoundRect,0.250000X0.250000X0.475000X-0.250000X0.475000X-0.250000X-0.475000X0.250000X-0.475000X0*%
%TD*%
%TA.AperFunction,SMDPad,CuDef*%
%ADD21RoundRect,0.150000X-0.512500X-0.150000X0.512500X-0.150000X0.512500X0.150000X-0.512500X0.150000X0*%
%TD*%
%TA.AperFunction,SMDPad,CuDef*%
%ADD22RoundRect,0.250000X-0.262500X-0.450000X0.262500X-0.450000X0.262500X0.450000X-0.262500X0.450000X0*%
%TD*%
%TA.AperFunction,SMDPad,CuDef*%
%ADD23RoundRect,0.250000X-0.475000X0.250000X-0.475000X-0.250000X0.475000X-0.250000X0.475000X0.250000X0*%
%TD*%
%TA.AperFunction,SMDPad,CuDef*%
%ADD24RoundRect,0.062500X0.375000X0.062500X-0.375000X0.062500X-0.375000X-0.062500X0.375000X-0.062500X0*%
%TD*%
%TA.AperFunction,SMDPad,CuDef*%
%ADD25RoundRect,0.062500X0.062500X0.375000X-0.062500X0.375000X-0.062500X-0.375000X0.062500X-0.375000X0*%
%TD*%
%TA.AperFunction,HeatsinkPad*%
%ADD26R,1.600000X1.600000*%
%TD*%
%TA.AperFunction,SMDPad,CuDef*%
%ADD27RoundRect,0.243750X0.243750X0.456250X-0.243750X0.456250X-0.243750X-0.456250X0.243750X-0.456250X0*%
%TD*%
%TA.AperFunction,SMDPad,CuDef*%
%ADD28R,1.550000X1.300000*%
%TD*%
%TA.AperFunction,ComponentPad*%
%ADD29R,1.700000X1.700000*%
%TD*%
%TA.AperFunction,ComponentPad*%
%ADD30O,1.700000X1.700000*%
%TD*%
%TA.AperFunction,SMDPad,CuDef*%
%ADD31RoundRect,0.250000X0.450000X-0.262500X0.450000X0.262500X-0.450000X0.262500X-0.450000X-0.262500X0*%
%TD*%
%TA.AperFunction,SMDPad,CuDef*%
%ADD32RotRect,0.800000X0.400000X45.000000*%
%TD*%
%TA.AperFunction,SMDPad,CuDef*%
%ADD33RotRect,0.400000X0.800000X45.000000*%
%TD*%
%TA.AperFunction,SMDPad,CuDef*%
%ADD34RotRect,1.200000X1.200000X45.000000*%
%TD*%
%TA.AperFunction,SMDPad,CuDef*%
%ADD35FreePoly0,45.000000*%
%TD*%
%TA.AperFunction,SMDPad,CuDef*%
%ADD36RotRect,0.800000X0.800000X45.000000*%
%TD*%
%TA.AperFunction,SMDPad,CuDef*%
%ADD37R,1.000000X2.500000*%
%TD*%
%TA.AperFunction,SMDPad,CuDef*%
%ADD38R,0.900000X2.500000*%
%TD*%
%TA.AperFunction,SMDPad,CuDef*%
%ADD39RoundRect,0.250000X0.512652X0.159099X0.159099X0.512652X-0.512652X-0.159099X-0.159099X-0.512652X0*%
%TD*%
%TA.AperFunction,ComponentPad*%
%ADD40RoundRect,0.250000X0.350000X0.625000X-0.350000X0.625000X-0.350000X-0.625000X0.350000X-0.625000X0*%
%TD*%
%TA.AperFunction,ComponentPad*%
%ADD41O,1.200000X1.750000*%
%TD*%
%TA.AperFunction,SMDPad,CuDef*%
%ADD42RoundRect,0.150000X-0.150000X0.512500X-0.150000X-0.512500X0.150000X-0.512500X0.150000X0.512500X0*%
%TD*%
%TA.AperFunction,ViaPad*%
%ADD43C,0.600000*%
%TD*%
%TA.AperFunction,Conductor*%
%ADD44C,0.200000*%
%TD*%
%TA.AperFunction,Conductor*%
%ADD45C,0.500000*%
%TD*%
%TA.AperFunction,Conductor*%
%ADD46C,0.300000*%
%TD*%
G04 APERTURE END LIST*
D10*
%TO.P,J4,S1,SHIELD*%
%TO.N,GND*%
X185655000Y-52265000D03*
D11*
X185655000Y-56445000D03*
D10*
X194295000Y-52265000D03*
D11*
X194295000Y-56445000D03*
D12*
%TO.P,J4,B12,GND*%
X193175000Y-57085000D03*
%TO.P,J4,B9,VBUS*%
%TO.N,VBUS*%
X192375000Y-57085000D03*
D13*
%TO.P,J4,B8,SBU2*%
%TO.N,unconnected-(J4-SBU2-PadB8)*%
X191725000Y-57085000D03*
%TO.P,J4,B7,D-*%
%TO.N,D-*%
X190725000Y-57085000D03*
%TO.P,J4,B6,D+*%
%TO.N,D+*%
X189225000Y-57085000D03*
%TO.P,J4,B5,CC2*%
%TO.N,Net-(J4-CC2)*%
X188225000Y-57085000D03*
D12*
%TO.P,J4,B4,VBUS*%
%TO.N,VBUS*%
X187575000Y-57085000D03*
%TO.P,J4,B1,GND*%
%TO.N,GND*%
X186775000Y-57085000D03*
%TO.P,J4,A12,GND*%
X186775000Y-57085000D03*
%TO.P,J4,A9,VBUS*%
%TO.N,VBUS*%
X187575000Y-57085000D03*
D13*
%TO.P,J4,A8,SBU1*%
%TO.N,unconnected-(J4-SBU1-PadA8)*%
X188725000Y-57085000D03*
%TO.P,J4,A7,D-*%
%TO.N,D-*%
X189725000Y-57085000D03*
%TO.P,J4,A6,D+*%
%TO.N,D+*%
X190225000Y-57085000D03*
%TO.P,J4,A5,CC1*%
%TO.N,Net-(J4-CC1)*%
X191225000Y-57085000D03*
D12*
%TO.P,J4,A4,VBUS*%
%TO.N,VBUS*%
X192375000Y-57085000D03*
%TO.P,J4,A1,GND*%
%TO.N,GND*%
X193175000Y-57085000D03*
%TD*%
D14*
%TO.P,D5,1,K*%
%TO.N,GND*%
X179862087Y-61237913D03*
%TO.P,D5,2,A*%
%TO.N,Net-(D5-A)*%
X181187913Y-59912087D03*
%TD*%
%TO.P,D3,1,K*%
%TO.N,GND*%
X173987087Y-61287913D03*
%TO.P,D3,2,A*%
%TO.N,Net-(D3-A)*%
X175312913Y-59962087D03*
%TD*%
D15*
%TO.P,R2,1*%
%TO.N,LED2*%
X177354765Y-63745235D03*
%TO.P,R2,2*%
%TO.N,Net-(D4-A)*%
X178645235Y-62454765D03*
%TD*%
%TO.P,R3,1*%
%TO.N,LED3*%
X180154765Y-63845235D03*
%TO.P,R3,2*%
%TO.N,Net-(D5-A)*%
X181445235Y-62554765D03*
%TD*%
%TO.P,R1,1*%
%TO.N,LED1*%
X174454765Y-63745235D03*
%TO.P,R1,2*%
%TO.N,Net-(D3-A)*%
X175745235Y-62454765D03*
%TD*%
D14*
%TO.P,D4,1,K*%
%TO.N,GND*%
X176937087Y-61237913D03*
%TO.P,D4,2,A*%
%TO.N,Net-(D4-A)*%
X178262913Y-59912087D03*
%TD*%
D16*
%TO.P,R6,2*%
%TO.N,Net-(D7-A)*%
X206250000Y-96562500D03*
%TO.P,R6,1*%
%TO.N,Net-(J1-Pin_2)*%
X206250000Y-94737500D03*
%TD*%
D17*
%TO.P,R8,2*%
%TO.N,Net-(U4-~{CHG})*%
X195837500Y-91062500D03*
%TO.P,R8,1*%
%TO.N,Net-(D1-K)*%
X197662500Y-91062500D03*
%TD*%
D18*
%TO.P,Q2,3,D*%
%TO.N,SYSOFF*%
X202981250Y-71743750D03*
%TO.P,Q2,2,S*%
%TO.N,GND*%
X201106250Y-72693750D03*
%TO.P,Q2,1,G*%
%TO.N,Net-(Q2-G)*%
X201106250Y-70793750D03*
%TD*%
D19*
%TO.P,C4,1*%
%TO.N,+3V3*%
X197206250Y-72493750D03*
%TO.P,C4,2*%
%TO.N,GND*%
X199106250Y-72493750D03*
%TD*%
D20*
%TO.P,C6,2*%
%TO.N,GND*%
X195056250Y-66793750D03*
%TO.P,C6,1*%
%TO.N,+5V*%
X196956250Y-66793750D03*
%TD*%
D19*
%TO.P,C1,2*%
%TO.N,GND*%
X200606250Y-66743750D03*
%TO.P,C1,1*%
%TO.N,VBUS*%
X198706250Y-66743750D03*
%TD*%
D21*
%TO.P,U1,3,VI*%
%TO.N,+5V*%
X196793750Y-69643750D03*
%TO.P,U1,2,VO*%
%TO.N,+3V3*%
X194518750Y-70593750D03*
%TO.P,U1,1,GND*%
%TO.N,GND*%
X194518750Y-68693750D03*
%TD*%
D16*
%TO.P,R13,2*%
%TO.N,Net-(Q2-G)*%
X198856250Y-70556250D03*
%TO.P,R13,1*%
%TO.N,VBUS*%
X198856250Y-68731250D03*
%TD*%
D22*
%TO.P,R14,2*%
%TO.N,GND*%
X202618750Y-68893750D03*
%TO.P,R14,1*%
%TO.N,Net-(Q2-G)*%
X200793750Y-68893750D03*
%TD*%
D19*
%TO.P,C5,1*%
%TO.N,+3V3*%
X197206250Y-74593750D03*
%TO.P,C5,2*%
%TO.N,GND*%
X199106250Y-74593750D03*
%TD*%
%TO.P,C7,1*%
%TO.N,+BATT*%
X200347500Y-93210000D03*
%TO.P,C7,2*%
%TO.N,GND*%
X202247500Y-93210000D03*
%TD*%
D23*
%TO.P,C8,1*%
%TO.N,VBUS*%
X195197500Y-97460000D03*
%TO.P,C8,2*%
%TO.N,GND*%
X195197500Y-99360000D03*
%TD*%
D20*
%TO.P,C3,1*%
%TO.N,+5V*%
X194147500Y-93310000D03*
%TO.P,C3,2*%
%TO.N,GND*%
X192247500Y-93310000D03*
%TD*%
D22*
%TO.P,R9,1*%
%TO.N,Net-(U4-TS)*%
X200385000Y-95410000D03*
%TO.P,R9,2*%
%TO.N,GND*%
X202210000Y-95410000D03*
%TD*%
D17*
%TO.P,R11,1*%
%TO.N,Net-(U4-ILIM)*%
X194110000Y-95510000D03*
%TO.P,R11,2*%
%TO.N,GND*%
X192285000Y-95510000D03*
%TD*%
D16*
%TO.P,R12,1*%
%TO.N,Net-(U4-ISET)*%
X199297500Y-97497500D03*
%TO.P,R12,2*%
%TO.N,GND*%
X199297500Y-99322500D03*
%TD*%
D24*
%TO.P,U4,1,TS*%
%TO.N,Net-(U4-TS)*%
X198687500Y-95050000D03*
%TO.P,U4,2,BAT*%
%TO.N,+BATT*%
X198687500Y-94550000D03*
%TO.P,U4,3,BAT*%
X198687500Y-94050000D03*
%TO.P,U4,4,~{CE}*%
%TO.N,GND*%
X198687500Y-93550000D03*
D25*
%TO.P,U4,5,EN2*%
X198000000Y-92862500D03*
%TO.P,U4,6,EN1*%
%TO.N,+5V*%
X197500000Y-92862500D03*
%TO.P,U4,7,~{PGOOD}*%
%TO.N,unconnected-(U4-~{PGOOD}-Pad7)*%
X197000000Y-92862500D03*
%TO.P,U4,8,VSS*%
%TO.N,GND*%
X196500000Y-92862500D03*
D24*
%TO.P,U4,9,~{CHG}*%
%TO.N,Net-(U4-~{CHG})*%
X195812500Y-93550000D03*
%TO.P,U4,10,OUT*%
%TO.N,+5V*%
X195812500Y-94050000D03*
%TO.P,U4,11,OUT*%
X195812500Y-94550000D03*
%TO.P,U4,12,ILIM*%
%TO.N,Net-(U4-ILIM)*%
X195812500Y-95050000D03*
D25*
%TO.P,U4,13,IN*%
%TO.N,VBUS*%
X196500000Y-95737500D03*
%TO.P,U4,14,TMR*%
%TO.N,unconnected-(U4-TMR-Pad14)*%
X197000000Y-95737500D03*
%TO.P,U4,15,SYSOFF*%
%TO.N,SYSOFF*%
X197500000Y-95737500D03*
%TO.P,U4,16,ISET*%
%TO.N,Net-(U4-ISET)*%
X198000000Y-95737500D03*
D26*
%TO.P,U4,17,VSS*%
%TO.N,GND*%
X197250000Y-94300000D03*
%TD*%
D27*
%TO.P,D1,2,A*%
%TO.N,+5V*%
X208212500Y-71900000D03*
%TO.P,D1,1,K*%
%TO.N,Net-(D1-K)*%
X210087500Y-71900000D03*
%TD*%
D22*
%TO.P,R15,1*%
%TO.N,+BATT*%
X199437500Y-91050000D03*
%TO.P,R15,2*%
%TO.N,Net-(R15-Pad2)*%
X201262500Y-91050000D03*
%TD*%
D28*
%TO.P,SW3,1,1*%
%TO.N,GND*%
X205650000Y-109325000D03*
X197700000Y-109325000D03*
%TO.P,SW3,2,2*%
%TO.N,PUSH3*%
X205650000Y-104825000D03*
X197700000Y-104825000D03*
%TD*%
%TO.P,SW1,1,1*%
%TO.N,GND*%
X183200000Y-109450000D03*
X175250000Y-109450000D03*
%TO.P,SW1,2,2*%
%TO.N,PUSH1*%
X183200000Y-104950000D03*
X175250000Y-104950000D03*
%TD*%
D29*
%TO.P,DISPLAY_SSD1351,1,Pin_1*%
%TO.N,RST*%
X170450000Y-90835000D03*
D30*
%TO.P,DISPLAY_SSD1351,2,Pin_2*%
%TO.N,DC*%
X170450000Y-88295000D03*
%TO.P,DISPLAY_SSD1351,3,Pin_3*%
%TO.N,CS*%
X170450000Y-85755000D03*
%TO.P,DISPLAY_SSD1351,4,Pin_4*%
%TO.N,SLK*%
X170450000Y-83215000D03*
%TO.P,DISPLAY_SSD1351,5,Pin_5*%
%TO.N,DIN*%
X170450000Y-80675000D03*
%TO.P,DISPLAY_SSD1351,6,Pin_6*%
%TO.N,GND*%
X170450000Y-78135000D03*
%TO.P,DISPLAY_SSD1351,7,Pin_7*%
%TO.N,+3V3*%
X170450000Y-75595000D03*
%TD*%
D29*
%TO.P,BREAKOUT_PINS1,1,Pin_1*%
%TO.N,IO14*%
X189490000Y-96610000D03*
D30*
%TO.P,BREAKOUT_PINS1,2,Pin_2*%
%TO.N,IO15*%
X189490000Y-99150000D03*
%TO.P,BREAKOUT_PINS1,3,Pin_3*%
%TO.N,IO21*%
X186950000Y-96610000D03*
%TO.P,BREAKOUT_PINS1,4,Pin_4*%
%TO.N,IO33*%
X186950000Y-99150000D03*
%TO.P,BREAKOUT_PINS1,5,Pin_5*%
%TO.N,IO34*%
X184410000Y-96610000D03*
%TO.P,BREAKOUT_PINS1,6,Pin_6*%
%TO.N,IO35*%
X184410000Y-99150000D03*
%TO.P,BREAKOUT_PINS1,7,Pin_7*%
%TO.N,IO36*%
X181870000Y-96610000D03*
%TO.P,BREAKOUT_PINS1,8,Pin_8*%
%TO.N,IO37*%
X181870000Y-99150000D03*
%TO.P,BREAKOUT_PINS1,9,Pin_9*%
%TO.N,IO38*%
X179330000Y-96610000D03*
%TO.P,BREAKOUT_PINS1,10,Pin_10*%
%TO.N,+3V3*%
X179330000Y-99150000D03*
%TO.P,BREAKOUT_PINS1,11,Pin_11*%
%TO.N,GND*%
X176790000Y-96610000D03*
%TO.P,BREAKOUT_PINS1,12,Pin_12*%
X176790000Y-99150000D03*
%TD*%
D31*
%TO.P,R7,1*%
%TO.N,Net-(U3-EN)*%
X192600000Y-70512500D03*
%TO.P,R7,2*%
%TO.N,+3V3*%
X192600000Y-68687500D03*
%TD*%
D27*
%TO.P,D7,1,K*%
%TO.N,GND*%
X209937500Y-94950000D03*
%TO.P,D7,2,A*%
%TO.N,Net-(D7-A)*%
X208062500Y-94950000D03*
%TD*%
D32*
%TO.P,U3,1,GND*%
%TO.N,GND*%
X178096878Y-82296878D03*
%TO.P,U3,2,GND*%
X178697919Y-82897919D03*
%TO.P,U3,3,3V3*%
%TO.N,+3V3*%
X179298960Y-83498960D03*
%TO.P,U3,4,IO0*%
%TO.N,GPIO1*%
X179900000Y-84100000D03*
%TO.P,U3,5,IO1*%
%TO.N,DIN*%
X180501041Y-84701041D03*
%TO.P,U3,6,IO2*%
%TO.N,SLK*%
X181102082Y-85302082D03*
%TO.P,U3,7,IO3*%
%TO.N,CS*%
X181703123Y-85903123D03*
%TO.P,U3,8,IO4*%
%TO.N,DC*%
X182304164Y-86504163D03*
%TO.P,U3,9,IO5*%
%TO.N,RST*%
X182905204Y-87105204D03*
%TO.P,U3,10,IO6*%
%TO.N,PUSH1*%
X183506245Y-87706245D03*
%TO.P,U3,11,IO7*%
%TO.N,PUSH2*%
X184107286Y-88307286D03*
%TO.P,U3,12,IO8*%
%TO.N,PUSH3*%
X184708327Y-88908327D03*
%TO.P,U3,13,IO9*%
%TO.N,unconnected-(U3-IO9-Pad13)*%
X185309367Y-89509367D03*
%TO.P,U3,14,IO10*%
%TO.N,unconnected-(U3-IO10-Pad14)*%
X185910408Y-90110408D03*
%TO.P,U3,15,IO11*%
%TO.N,unconnected-(U3-IO11-Pad15)*%
X186511449Y-90711449D03*
D33*
%TO.P,U3,16,IO12*%
%TO.N,unconnected-(U3-IO12-Pad16)*%
X187996373Y-90711449D03*
%TO.P,U3,17,IO13*%
%TO.N,unconnected-(U3-IO13-Pad17)*%
X188597414Y-90110408D03*
%TO.P,U3,18,IO14*%
%TO.N,IO14*%
X189198455Y-89509367D03*
%TO.P,U3,19,IO15*%
%TO.N,IO15*%
X189799495Y-88908327D03*
%TO.P,U3,20,IO16*%
%TO.N,unconnected-(U3-IO16-Pad20)*%
X190400536Y-88307286D03*
%TO.P,U3,21,IO17*%
%TO.N,unconnected-(U3-IO17-Pad21)*%
X191001577Y-87706245D03*
%TO.P,U3,22,IO18*%
%TO.N,unconnected-(U3-IO18-Pad22)*%
X191602618Y-87105204D03*
%TO.P,U3,23,IO19*%
%TO.N,D-*%
X192203658Y-86504163D03*
%TO.P,U3,24,IO20*%
%TO.N,D+*%
X192804699Y-85903123D03*
%TO.P,U3,25,IO21*%
%TO.N,IO21*%
X193405740Y-85302082D03*
%TO.P,U3,26,IO26*%
%TO.N,unconnected-(U3-IO26-Pad26)*%
X194006781Y-84701041D03*
%TO.P,U3,27,NC*%
%TO.N,unconnected-(U3-NC-Pad27)*%
X194607822Y-84100000D03*
%TO.P,U3,28,IO33*%
%TO.N,IO33*%
X195208862Y-83498960D03*
%TO.P,U3,29,IO34*%
%TO.N,IO34*%
X195809903Y-82897919D03*
%TO.P,U3,30,GND*%
%TO.N,GND*%
X196410944Y-82296878D03*
D32*
%TO.P,U3,31,IO35*%
%TO.N,IO35*%
X196410944Y-80811954D03*
%TO.P,U3,32,IO36*%
%TO.N,IO36*%
X195809903Y-80210913D03*
%TO.P,U3,33,IO37*%
%TO.N,IO37*%
X195208862Y-79609872D03*
%TO.P,U3,34,IO38*%
%TO.N,IO38*%
X194607822Y-79008832D03*
%TO.P,U3,35,IO39*%
%TO.N,IO39*%
X194006781Y-78407791D03*
%TO.P,U3,36,IO40*%
%TO.N,IO40*%
X193405740Y-77806750D03*
%TO.P,U3,37,IO41*%
%TO.N,IO41*%
X192804699Y-77205709D03*
%TO.P,U3,38,IO42*%
%TO.N,IO42*%
X192203658Y-76604669D03*
%TO.P,U3,39,TXD0*%
%TO.N,unconnected-(U3-TXD0-Pad39)*%
X191602618Y-76003628D03*
%TO.P,U3,40,RXD0*%
%TO.N,LED1*%
X191001577Y-75402587D03*
%TO.P,U3,41,IO45*%
%TO.N,LED2*%
X190400536Y-74801546D03*
%TO.P,U3,42,GND*%
%TO.N,GND*%
X189799495Y-74200505D03*
%TO.P,U3,43,GND*%
X189198455Y-73599465D03*
%TO.P,U3,44,IO46*%
%TO.N,LED3*%
X188597414Y-72998424D03*
%TO.P,U3,45,EN*%
%TO.N,Net-(U3-EN)*%
X187996373Y-72397383D03*
D33*
%TO.P,U3,46,GND*%
%TO.N,GND*%
X186511449Y-72397383D03*
%TO.P,U3,47,GND*%
X185910408Y-72998424D03*
%TO.P,U3,48,GND*%
X185309367Y-73599465D03*
%TO.P,U3,49,GND*%
X184708327Y-74200505D03*
%TO.P,U3,50,GND*%
X184107286Y-74801546D03*
%TO.P,U3,51,GND*%
X183506245Y-75402587D03*
%TO.P,U3,52,GND*%
X182905204Y-76003628D03*
%TO.P,U3,53,GND*%
X182304164Y-76604669D03*
%TO.P,U3,54,GND*%
X181703123Y-77205709D03*
%TO.P,U3,55,GND*%
X181102082Y-77806750D03*
%TO.P,U3,56,GND*%
X180501041Y-78407791D03*
%TO.P,U3,57,GND*%
X179900000Y-79008832D03*
%TO.P,U3,58,GND*%
X179298960Y-79609872D03*
%TO.P,U3,59,GND*%
X178697919Y-80210913D03*
%TO.P,U3,60,GND*%
X178096878Y-80811954D03*
D34*
%TO.P,U3,61,GND*%
X187253911Y-81554416D03*
%TO.P,U3,61_1,GND*%
X186087185Y-82721142D03*
%TO.P,U3,61_2,GND*%
X187253911Y-83887868D03*
%TO.P,U3,61_3,GND*%
X188420637Y-82721142D03*
%TO.P,U3,61_4,GND*%
X189587363Y-81554416D03*
%TO.P,U3,61_5,GND*%
X188420637Y-80387690D03*
%TO.P,U3,61_6,GND*%
X187253911Y-79220964D03*
%TO.P,U3,61_7,GND*%
X186087185Y-80387690D03*
D35*
%TO.P,U3,61_8,GND*%
X184920459Y-81554416D03*
D36*
%TO.P,U3,62,GND*%
X177354416Y-81554416D03*
%TO.P,U3,63,GND*%
X187253911Y-91453911D03*
%TO.P,U3,64,GND*%
X197153406Y-81554416D03*
%TO.P,U3,65,GND*%
X187253911Y-71654921D03*
%TD*%
D28*
%TO.P,SW2,1,1*%
%TO.N,GND*%
X194475000Y-111650000D03*
X186525000Y-111650000D03*
%TO.P,SW2,2,2*%
%TO.N,PUSH2*%
X194475000Y-107150000D03*
X186525000Y-107150000D03*
%TD*%
D16*
%TO.P,R4,1*%
%TO.N,Net-(J4-CC1)*%
X194100000Y-60387500D03*
%TO.P,R4,2*%
%TO.N,GND*%
X194100000Y-62212500D03*
%TD*%
D37*
%TO.P,SW4,1,A*%
%TO.N,Net-(R15-Pad2)*%
X200250000Y-63050000D03*
%TO.P,SW4,2,B*%
%TO.N,SYSOFF*%
X202750000Y-63050000D03*
%TO.P,SW4,3,C*%
%TO.N,GND*%
X205250000Y-63050000D03*
%TO.P,SW4,4,A*%
X200250000Y-57550000D03*
D38*
%TO.P,SW4,5,B*%
X202700000Y-57550000D03*
D37*
%TO.P,SW4,6,C*%
X205250000Y-57550000D03*
%TD*%
D16*
%TO.P,R5,1*%
%TO.N,Net-(J4-CC2)*%
X185950000Y-60387500D03*
%TO.P,R5,2*%
%TO.N,GND*%
X185950000Y-62212500D03*
%TD*%
D39*
%TO.P,C2,1*%
%TO.N,+3V3*%
X176175662Y-83642715D03*
%TO.P,C2,2*%
%TO.N,GND*%
X174832160Y-82299213D03*
%TD*%
D40*
%TO.P,J7,1,Pin_1*%
%TO.N,+BATT*%
X195500000Y-64550000D03*
D41*
%TO.P,J7,2,Pin_2*%
%TO.N,GND*%
X193500000Y-64550000D03*
%TD*%
D42*
%TO.P,U11,1,IO1*%
%TO.N,D-*%
X190712500Y-60212500D03*
%TO.P,U11,2,VN*%
%TO.N,GND*%
X189762500Y-60212500D03*
%TO.P,U11,3,IO2*%
%TO.N,D+*%
X188812500Y-60212500D03*
%TO.P,U11,4,IO3*%
X188812500Y-62487500D03*
%TO.P,U11,5,VP*%
%TO.N,VBUS*%
X189762500Y-62487500D03*
%TO.P,U11,6,IO4*%
%TO.N,D-*%
X190712500Y-62487500D03*
%TD*%
D43*
%TO.N,GND*%
X211700000Y-75350000D03*
X211650000Y-72150000D03*
X198250000Y-74050000D03*
X206850000Y-71950000D03*
X206850000Y-73550000D03*
X194600000Y-69600000D03*
X200600000Y-71800000D03*
X202600000Y-66800000D03*
X202618750Y-70200000D03*
X185900000Y-63600000D03*
X172900000Y-79300000D03*
X173900000Y-81400000D03*
%TO.N,+3V3*%
X207400000Y-90700000D03*
%TO.N,LED1*%
X175700000Y-63700000D03*
%TO.N,LED2*%
X178402245Y-63609647D03*
%TO.N,LED3*%
X180829289Y-63370711D03*
%TO.N,GND*%
X186400000Y-88600000D03*
X187800000Y-87100000D03*
X189200000Y-86000000D03*
X190600000Y-84500000D03*
%TO.N,LED3*%
X188001000Y-73594838D03*
%TO.N,LED2*%
X187711650Y-74488350D03*
%TO.N,LED1*%
X187000000Y-75000000D03*
%TO.N,GND*%
X192000000Y-89000000D03*
X179900000Y-92600000D03*
X178900000Y-93700000D03*
X177800000Y-94700000D03*
X187000000Y-93000000D03*
X186000000Y-94000000D03*
X188000000Y-94000000D03*
X183400000Y-82400000D03*
X185000000Y-84000000D03*
X192000000Y-75000000D03*
X184400000Y-86600000D03*
X187500000Y-110000000D03*
X190000000Y-110000000D03*
X192500000Y-110000000D03*
X202500000Y-107500000D03*
X200000000Y-107500000D03*
X180000000Y-107500000D03*
X177500000Y-107500000D03*
X207500000Y-62500000D03*
X207500000Y-65000000D03*
X205000000Y-60000000D03*
X200000000Y-60000000D03*
X202500000Y-60000000D03*
X200000000Y-55000000D03*
X197500000Y-55000000D03*
X197500000Y-52500000D03*
X192500000Y-52500000D03*
X190000000Y-52500000D03*
X187500000Y-52500000D03*
X187500000Y-55000000D03*
X190000000Y-55000000D03*
X192500000Y-55000000D03*
X182500000Y-80000000D03*
X185000000Y-77500000D03*
X192500000Y-90000000D03*
X172500000Y-97500000D03*
X172500000Y-100000000D03*
X172500000Y-102500000D03*
X170000000Y-72500000D03*
X170000000Y-70000000D03*
X175000000Y-70000000D03*
X197500000Y-57500000D03*
X197500000Y-60000000D03*
X192500000Y-62500000D03*
X192500000Y-67500000D03*
X205000000Y-67500000D03*
X205000000Y-70000000D03*
X195000000Y-72500000D03*
X187500000Y-65000000D03*
X170000000Y-92500000D03*
X170000000Y-95000000D03*
X172500000Y-95000000D03*
X172500000Y-92500000D03*
X175000000Y-92500000D03*
X177500000Y-90000000D03*
X175000000Y-90000000D03*
X185450000Y-103400000D03*
X187500000Y-103400000D03*
X190000000Y-103400000D03*
X192500000Y-100000000D03*
X192500000Y-103350000D03*
X195350000Y-103350000D03*
X200000000Y-102500000D03*
X207500000Y-102500000D03*
X205000000Y-102500000D03*
X202500000Y-102500000D03*
X202500000Y-100000000D03*
X205000000Y-100000000D03*
X207500000Y-100000000D03*
X207500000Y-97500000D03*
X205000000Y-97500000D03*
X205000000Y-90000000D03*
X210000000Y-85000000D03*
X210000000Y-87500000D03*
X207500000Y-87500000D03*
X200000000Y-87500000D03*
X200000000Y-82500000D03*
X200000000Y-80000000D03*
X200000000Y-85000000D03*
X205000000Y-85000000D03*
X205000000Y-82500000D03*
X207500000Y-82500000D03*
X207500000Y-77500000D03*
X207500000Y-80000000D03*
X205000000Y-80000000D03*
X189850000Y-59100000D03*
X191325000Y-59177351D03*
X187900000Y-92200000D03*
X191297000Y-92300000D03*
X198250000Y-99400000D03*
X197850000Y-100736000D03*
X201798500Y-94300000D03*
X199000000Y-93100000D03*
%TO.N,+3V3*%
X198100000Y-75050000D03*
X180000000Y-82850000D03*
%TO.N,SLK*%
X193700000Y-80300000D03*
%TO.N,Net-(U3-EN)*%
X194550000Y-75750000D03*
%TO.N,IO38*%
X195573194Y-78597937D03*
%TO.N,IO37*%
X196100000Y-79200000D03*
%TO.N,IO36*%
X191825734Y-84475737D03*
%TO.N,IO35*%
X197050000Y-80250000D03*
%TO.N,IO34*%
X196817510Y-83708429D03*
%TO.N,IO21*%
X188890000Y-91800000D03*
X192650000Y-84500000D03*
%TO.N,VBUS*%
X199600000Y-65850000D03*
X204032250Y-66350000D03*
%TO.N,+5V*%
X203500000Y-88250000D03*
%TO.N,Net-(J4-CC2)*%
X186050000Y-59350000D03*
X188175000Y-59100000D03*
%TO.N,+5V*%
X199900000Y-88300000D03*
%TO.N,IO41*%
X200100000Y-76989977D03*
%TO.N,IO39*%
X199050000Y-78300000D03*
%TO.N,IO40*%
X199647929Y-77650000D03*
%TO.N,IO42*%
X199800000Y-75700000D03*
%TO.N,Net-(D1-K)*%
X197850000Y-89650000D03*
X203100000Y-89150000D03*
%TO.N,+5V*%
X205050000Y-65700000D03*
X196950000Y-65450000D03*
%TO.N,D+*%
X194430246Y-86243246D03*
%TO.N,D-*%
X193829391Y-87490047D03*
%TO.N,D+*%
X188800000Y-64350000D03*
%TO.N,D-*%
X190700000Y-64350000D03*
%TO.N,Net-(J1-Pin_2)*%
X206900000Y-93350000D03*
%TO.N,Net-(R15-Pad2)*%
X201787555Y-66800000D03*
X201250000Y-73500000D03*
%TO.N,GPIO1*%
X176651473Y-84700000D03*
%TO.N,Net-(U4-~{CHG})*%
X194750000Y-91800000D03*
X195800000Y-92900000D03*
%TD*%
D44*
%TO.N,PUSH3*%
X197700000Y-104825000D02*
X197625000Y-104900000D01*
X197625000Y-104900000D02*
X185744100Y-104900000D01*
X179684200Y-91500000D02*
X182116654Y-91500000D01*
X184243100Y-103399000D02*
X183910900Y-103399000D01*
X185744100Y-104900000D02*
X184478000Y-103633900D01*
X176266100Y-103399000D02*
X174800000Y-101932900D01*
X184478000Y-103633900D02*
X184243100Y-103399000D01*
X183910900Y-103399000D02*
X176266100Y-103399000D01*
X182116654Y-91500000D02*
X184708327Y-88908327D01*
X174800000Y-101932900D02*
X174800000Y-96384200D01*
X174800000Y-96384200D02*
X179684200Y-91500000D01*
%TO.N,PUSH1*%
X180700000Y-90512490D02*
X179537510Y-90512490D01*
X179537510Y-90512490D02*
X179451000Y-90599000D01*
X183506245Y-87706245D02*
X180700000Y-90512490D01*
X179451000Y-90599000D02*
X179216100Y-90833900D01*
X179216100Y-90833900D02*
X174232900Y-95817100D01*
X174232900Y-95817100D02*
X173998000Y-96052000D01*
X173998000Y-96052000D02*
X173998000Y-96384200D01*
X173998000Y-96384200D02*
X173998000Y-101932900D01*
X173998000Y-101932900D02*
X173998000Y-102265100D01*
X173998000Y-102265100D02*
X174232900Y-102500000D01*
X174232900Y-102500000D02*
X175250000Y-103517100D01*
X175250000Y-103517100D02*
X175250000Y-104950000D01*
%TO.N,PUSH2*%
X186525000Y-107150000D02*
X186525000Y-106248000D01*
X174399000Y-96218100D02*
X179617100Y-91000000D01*
X186525000Y-106248000D02*
X184077000Y-103800000D01*
X184077000Y-103800000D02*
X176100000Y-103800000D01*
X176100000Y-103800000D02*
X174399000Y-102099000D01*
X174399000Y-102099000D02*
X174399000Y-96218100D01*
X179617100Y-91000000D02*
X181414572Y-91000000D01*
X181414572Y-91000000D02*
X184107286Y-88307286D01*
%TO.N,GND*%
X176790000Y-96610000D02*
X177800000Y-95600000D01*
X177800000Y-95600000D02*
X177800000Y-94700000D01*
X198000000Y-92862500D02*
X198762500Y-92862500D01*
X198762500Y-92862500D02*
X199000000Y-93100000D01*
X193175000Y-57825000D02*
X193850000Y-58500000D01*
X193175000Y-57085000D02*
X193175000Y-57825000D01*
D45*
%TO.N,+3V3*%
X179947920Y-82850000D02*
X179298960Y-83498960D01*
X176175662Y-83642715D02*
X176382947Y-83850000D01*
X176382947Y-83850000D02*
X178947920Y-83850000D01*
X178947920Y-83850000D02*
X179155205Y-83642715D01*
X197662500Y-75050000D02*
X197206250Y-74593750D01*
X198100000Y-75050000D02*
X197662500Y-75050000D01*
D44*
%TO.N,GND*%
X198250000Y-74050000D02*
X198562500Y-74050000D01*
X198562500Y-74050000D02*
X199106250Y-74593750D01*
%TO.N,+BATT*%
X199437500Y-91050000D02*
X200700000Y-89787500D01*
X200700000Y-89787500D02*
X200700000Y-74100000D01*
X200700000Y-74100000D02*
X200150000Y-73550000D01*
X200150000Y-73550000D02*
X199561160Y-73550000D01*
X198305250Y-72081590D02*
X196823660Y-70600000D01*
X199561160Y-73550000D02*
X198651340Y-73550000D01*
X196823660Y-70600000D02*
X196445532Y-70600000D01*
X198651340Y-73550000D02*
X198305250Y-73203910D01*
X198305250Y-73203910D02*
X198305250Y-72081590D01*
X196445532Y-70600000D02*
X195830250Y-69984718D01*
X195830250Y-69984718D02*
X195830250Y-67530910D01*
X195830250Y-67530910D02*
X195857250Y-67503910D01*
X195857250Y-67503910D02*
X195857250Y-64907250D01*
X195857250Y-64907250D02*
X195500000Y-64550000D01*
%TO.N,Net-(R15-Pad2)*%
X201250000Y-73500000D02*
X201250000Y-73900000D01*
X201250000Y-73900000D02*
X201262500Y-73912500D01*
X201262500Y-73912500D02*
X201262500Y-91050000D01*
D45*
%TO.N,+3V3*%
X179330000Y-99150000D02*
X181919967Y-101739967D01*
X204249000Y-96951000D02*
X204249000Y-93801000D01*
X181919967Y-101739967D02*
X199460033Y-101739967D01*
X199460033Y-101739967D02*
X204249000Y-96951000D01*
X204249000Y-93801000D02*
X207350000Y-90700000D01*
X207350000Y-90700000D02*
X207400000Y-90700000D01*
D44*
%TO.N,Net-(D7-A)*%
X206250000Y-96562500D02*
X206450000Y-96562500D01*
X206450000Y-96562500D02*
X208062500Y-94950000D01*
%TO.N,Net-(J1-Pin_2)*%
X206900000Y-93350000D02*
X206200000Y-94050000D01*
X206200000Y-94050000D02*
X206200000Y-94687500D01*
X206200000Y-94687500D02*
X206250000Y-94737500D01*
%TO.N,GND*%
X186775000Y-57085000D02*
X186295000Y-57085000D01*
X186295000Y-57085000D02*
X185655000Y-56445000D01*
%TO.N,VBUS*%
X192375000Y-57085000D02*
X192375000Y-56435001D01*
X192375000Y-56435001D02*
X191672999Y-55733000D01*
X191672999Y-55733000D02*
X188277001Y-55733000D01*
X188277001Y-55733000D02*
X187575000Y-56435001D01*
X187575000Y-56435001D02*
X187575000Y-57085000D01*
%TO.N,D-*%
X189725000Y-57085000D02*
X189725000Y-57768824D01*
X189725000Y-57768824D02*
X189992176Y-58036000D01*
X189992176Y-58036000D02*
X190457824Y-58036000D01*
X190457824Y-58036000D02*
X190725000Y-57768824D01*
X190725000Y-57768824D02*
X190725000Y-57085000D01*
X190725000Y-58228824D02*
X190725000Y-57545000D01*
X190725000Y-57545000D02*
X190725000Y-60200000D01*
X190725000Y-60200000D02*
X190712500Y-60212500D01*
%TO.N,D+*%
X190225000Y-57085000D02*
X190225000Y-56401176D01*
X189957824Y-56134000D02*
X189466000Y-56134000D01*
X190225000Y-56401176D02*
X189957824Y-56134000D01*
X189466000Y-56134000D02*
X189225000Y-56375000D01*
X189225000Y-56375000D02*
X189225000Y-57085000D01*
%TO.N,GND*%
X193175000Y-57085000D02*
X193655000Y-57085000D01*
X193655000Y-57085000D02*
X194295000Y-56445000D01*
X194518750Y-68693750D02*
X193325000Y-67500000D01*
X193325000Y-67500000D02*
X192500000Y-67500000D01*
X200600000Y-71800000D02*
X199800000Y-71800000D01*
X199800000Y-71800000D02*
X199106250Y-72493750D01*
X202618750Y-70200000D02*
X202618750Y-70726782D01*
X199106250Y-72493750D02*
X200906250Y-72493750D01*
X200906250Y-72493750D02*
X201106250Y-72693750D01*
X202618750Y-68893750D02*
X202618750Y-70200000D01*
X202618750Y-70726782D02*
X201106250Y-72239282D01*
X201106250Y-72239282D02*
X201106250Y-72693750D01*
X200606250Y-66743750D02*
X202618750Y-68756250D01*
X202618750Y-68756250D02*
X202618750Y-68893750D01*
%TO.N,Net-(R15-Pad2)*%
X201787555Y-64587555D02*
X200250000Y-63050000D01*
X201787555Y-66800000D02*
X201787555Y-64587555D01*
%TO.N,GND*%
X195056250Y-66793750D02*
X195056250Y-68156250D01*
X195056250Y-68156250D02*
X194518750Y-68693750D01*
%TO.N,LED1*%
X187000000Y-75000000D02*
X187600000Y-75600000D01*
X187600000Y-75600000D02*
X190804164Y-75600000D01*
X190804164Y-75600000D02*
X191001577Y-75402587D01*
%TO.N,LED2*%
X190202082Y-75000000D02*
X190400536Y-74801546D01*
X187711650Y-74488350D02*
X188223300Y-75000000D01*
X188223300Y-75000000D02*
X190202082Y-75000000D01*
%TO.N,GND*%
X179862087Y-61237913D02*
X179862087Y-59462087D01*
X179862087Y-59462087D02*
X179000000Y-58600000D01*
X179000000Y-58600000D02*
X177700000Y-58600000D01*
X177700000Y-58600000D02*
X176937087Y-59362913D01*
X176937087Y-59362913D02*
X176937087Y-61237913D01*
X176937087Y-61237913D02*
X176937087Y-59437087D01*
X176937087Y-59437087D02*
X176100000Y-58600000D01*
X176100000Y-58600000D02*
X174800000Y-58600000D01*
X174800000Y-58600000D02*
X173987087Y-59412913D01*
X173987087Y-59412913D02*
X173987087Y-61287913D01*
%TO.N,Net-(D4-A)*%
X178262913Y-59912087D02*
X178262913Y-62072443D01*
X178262913Y-62072443D02*
X178645235Y-62454765D01*
%TO.N,Net-(D3-A)*%
X175312913Y-59962087D02*
X175312913Y-62022443D01*
X175312913Y-62022443D02*
X175745235Y-62454765D01*
%TO.N,Net-(D5-A)*%
X181187913Y-59912087D02*
X181187913Y-62297443D01*
X181187913Y-62297443D02*
X181445235Y-62554765D01*
D45*
%TO.N,+3V3*%
X171800000Y-76945000D02*
X171800000Y-81700000D01*
X171800000Y-81700000D02*
X173742715Y-83642715D01*
X170450000Y-75595000D02*
X171800000Y-76945000D01*
X173742715Y-83642715D02*
X176175662Y-83642715D01*
D44*
%TO.N,LED1*%
X174454765Y-63745235D02*
X175654765Y-63745235D01*
X175654765Y-63745235D02*
X175700000Y-63700000D01*
%TO.N,LED2*%
X178402245Y-63609647D02*
X178266657Y-63745235D01*
X178266657Y-63745235D02*
X177354765Y-63745235D01*
%TO.N,LED3*%
X180829289Y-63370711D02*
X180354765Y-63845235D01*
X180354765Y-63845235D02*
X180154765Y-63845235D01*
X188001000Y-73594838D02*
X188597414Y-72998424D01*
%TO.N,SLK*%
X193700000Y-80300000D02*
X187900000Y-86100000D01*
X187900000Y-86100000D02*
X186500000Y-86100000D01*
X181304164Y-85100000D02*
X181102082Y-85302082D01*
X186500000Y-86100000D02*
X185500000Y-85100000D01*
X185500000Y-85100000D02*
X181304164Y-85100000D01*
%TO.N,Net-(U3-EN)*%
X192600000Y-70512500D02*
X192600000Y-73800000D01*
X192600000Y-73800000D02*
X194550000Y-75750000D01*
X192600000Y-70512500D02*
X189881256Y-70512500D01*
X189881256Y-70512500D02*
X187996373Y-72397383D01*
%TO.N,+3V3*%
X194518750Y-70593750D02*
X194506250Y-70593750D01*
D45*
X194506250Y-70593750D02*
X192600000Y-68687500D01*
D44*
%TO.N,GND*%
X189762500Y-60212500D02*
X189762500Y-59187500D01*
X189762500Y-59187500D02*
X189850000Y-59100000D01*
X184920459Y-81554416D02*
X189587363Y-81554416D01*
X187253911Y-79220964D02*
X187253911Y-83887868D01*
X186087185Y-80387690D02*
X188420637Y-82721142D01*
X186087185Y-82721142D02*
X188420637Y-80387690D01*
X184920459Y-81554416D02*
X187253911Y-83887868D01*
X187253911Y-79220964D02*
X184920459Y-81554416D01*
X189587363Y-81554416D02*
X187253911Y-79220964D01*
X187253911Y-83887868D02*
X189587363Y-81554416D01*
X192247500Y-93310000D02*
X192247500Y-93250500D01*
X192247500Y-93250500D02*
X191297000Y-92300000D01*
X187900000Y-92100000D02*
X187253911Y-91453911D01*
X187900000Y-92200000D02*
X187900000Y-92100000D01*
X198000000Y-92862500D02*
X198000000Y-93550000D01*
X198000000Y-93550000D02*
X197250000Y-94300000D01*
X196500000Y-92862500D02*
X196574000Y-92936500D01*
X196574000Y-92936500D02*
X196574000Y-93624000D01*
X196574000Y-93624000D02*
X197250000Y-94300000D01*
X198250000Y-99400000D02*
X199220000Y-99400000D01*
X199220000Y-99400000D02*
X199297500Y-99322500D01*
X197850000Y-100736000D02*
X196573500Y-100736000D01*
X196573500Y-100736000D02*
X195197500Y-99360000D01*
X199297500Y-99322500D02*
X199997500Y-99322500D01*
X199997500Y-99322500D02*
X202210000Y-97110000D01*
X202210000Y-97110000D02*
X202210000Y-95410000D01*
X192247500Y-93310000D02*
X192247500Y-95472500D01*
X192247500Y-95472500D02*
X192285000Y-95510000D01*
X202247500Y-94150000D02*
X202247500Y-94450000D01*
X202097500Y-94300000D02*
X202247500Y-94450000D01*
X201798500Y-94300000D02*
X202097500Y-94300000D01*
X202097500Y-94300000D02*
X202247500Y-94150000D01*
X198687500Y-93412500D02*
X199000000Y-93100000D01*
X202247500Y-93210000D02*
X202247500Y-94150000D01*
X198687500Y-93550000D02*
X198687500Y-93412500D01*
X202247500Y-94450000D02*
X202247500Y-95372500D01*
X202247500Y-95372500D02*
X202210000Y-95410000D01*
%TO.N,VBUS*%
X204032250Y-66350000D02*
X204050000Y-66367750D01*
X203048500Y-97070160D02*
X199982660Y-100136000D01*
X199982660Y-100136000D02*
X197873500Y-100136000D01*
X204050000Y-73300000D02*
X202400000Y-74950000D01*
X202400000Y-89732900D02*
X202651000Y-89983900D01*
X204050000Y-66367750D02*
X204050000Y-73300000D01*
X202400000Y-74950000D02*
X202400000Y-89732900D01*
X202651000Y-92102340D02*
X203048500Y-92499840D01*
X202651000Y-89983900D02*
X202651000Y-92102340D01*
X203048500Y-92499840D02*
X203048500Y-97070160D01*
X197873500Y-100136000D02*
X195197500Y-97460000D01*
%TO.N,+3V3*%
X180000000Y-82850000D02*
X179947920Y-82850000D01*
%TO.N,IO40*%
X199647929Y-77650000D02*
X199248529Y-77650000D01*
X193762490Y-77450000D02*
X193405740Y-77806750D01*
X199248529Y-77650000D02*
X199048529Y-77450000D01*
X199048529Y-77450000D02*
X193762490Y-77450000D01*
%TO.N,IO41*%
X200100000Y-76989977D02*
X200010023Y-76900000D01*
X200010023Y-76900000D02*
X193110408Y-76900000D01*
X193110408Y-76900000D02*
X192804699Y-77205709D01*
%TO.N,IO42*%
X199800000Y-75700000D02*
X199150000Y-76350000D01*
X199150000Y-76350000D02*
X192458327Y-76350000D01*
X192458327Y-76350000D02*
X192203658Y-76604669D01*
%TO.N,IO39*%
X199050000Y-78300000D02*
X198700000Y-77950000D01*
X198700000Y-77950000D02*
X194464572Y-77950000D01*
X194464572Y-77950000D02*
X194006781Y-78407791D01*
%TO.N,IO38*%
X195573194Y-78597937D02*
X195018717Y-78597937D01*
X195018717Y-78597937D02*
X194607822Y-79008832D01*
%TO.N,IO37*%
X196100000Y-79200000D02*
X195618734Y-79200000D01*
X195618734Y-79200000D02*
X195208862Y-79609872D01*
%TO.N,IO21*%
X188890000Y-91800000D02*
X188890000Y-94670000D01*
X188890000Y-94670000D02*
X186950000Y-96610000D01*
%TO.N,IO14*%
X189490000Y-96610000D02*
X189750000Y-96350000D01*
X189750000Y-96350000D02*
X189750000Y-90060912D01*
X189750000Y-90060912D02*
X189198455Y-89509367D01*
%TO.N,IO15*%
X189490000Y-99150000D02*
X190641000Y-97999000D01*
X190641000Y-97999000D02*
X190641000Y-89749832D01*
X190641000Y-89749832D02*
X189799495Y-88908327D01*
%TO.N,IO36*%
X195809903Y-80210913D02*
X195809903Y-80491568D01*
X195809903Y-80491568D02*
X191825734Y-84475737D01*
%TO.N,IO35*%
X184410000Y-99150000D02*
X184650000Y-99150000D01*
X197050000Y-80250000D02*
X196972898Y-80250000D01*
X196972898Y-80250000D02*
X196410944Y-80811954D01*
%TO.N,IO34*%
X196620413Y-83708429D02*
X195809903Y-82897919D01*
X196817510Y-83708429D02*
X196620413Y-83708429D01*
%TO.N,IO33*%
X186950000Y-99150000D02*
X188101000Y-100301000D01*
X188101000Y-100301000D02*
X189966760Y-100301000D01*
X189966760Y-100301000D02*
X193296500Y-96971260D01*
X193296500Y-96971260D02*
X193296500Y-88872881D01*
X193296500Y-88872881D02*
X195491705Y-86677676D01*
X195491705Y-86677676D02*
X195491705Y-83781803D01*
X195491705Y-83781803D02*
X195208862Y-83498960D01*
%TO.N,IO21*%
X192650000Y-84500000D02*
X192650000Y-84546342D01*
X192650000Y-84546342D02*
X193405740Y-85302082D01*
%TO.N,+5V*%
X205050000Y-65700000D02*
X208212500Y-68862500D01*
X208212500Y-68862500D02*
X208212500Y-71900000D01*
%TO.N,VBUS*%
X199600000Y-65850000D02*
X198706250Y-66743750D01*
%TO.N,+5V*%
X204250000Y-88250000D02*
X208212500Y-84287500D01*
X208212500Y-84287500D02*
X208212500Y-71900000D01*
X203500000Y-88250000D02*
X204250000Y-88250000D01*
%TO.N,Net-(D1-K)*%
X203900000Y-89250000D02*
X210087500Y-83062500D01*
X203100000Y-89150000D02*
X203200000Y-89250000D01*
X203200000Y-89250000D02*
X203900000Y-89250000D01*
X210087500Y-83062500D02*
X210087500Y-71900000D01*
%TO.N,Net-(J4-CC2)*%
X188225000Y-57545000D02*
X188225000Y-59050000D01*
X186050000Y-59350000D02*
X186050000Y-60287500D01*
X188225000Y-59050000D02*
X188175000Y-59100000D01*
X186050000Y-60287500D02*
X185950000Y-60387500D01*
%TO.N,VBUS*%
X187575000Y-57545000D02*
X187575000Y-56975000D01*
X189762500Y-62487500D02*
X189762500Y-64237443D01*
X189762500Y-64237443D02*
X189048943Y-64951000D01*
X189048943Y-64951000D02*
X188551057Y-64951000D01*
X188551057Y-64951000D02*
X187575000Y-63974943D01*
X187575000Y-63974943D02*
X187575000Y-57545000D01*
X194785160Y-59574000D02*
X198706250Y-63495090D01*
%TO.N,+5V*%
X199900000Y-88300000D02*
X196200000Y-88300000D01*
X196200000Y-88300000D02*
X194147500Y-90352500D01*
X194147500Y-90352500D02*
X194147500Y-93310000D01*
%TO.N,Net-(D1-K)*%
X197850000Y-89650000D02*
X197850000Y-90875000D01*
X197850000Y-90875000D02*
X197662500Y-91062500D01*
%TO.N,+5V*%
X196950000Y-65450000D02*
X196950000Y-66787500D01*
X196950000Y-66787500D02*
X196956250Y-66793750D01*
D46*
%TO.N,D+*%
X193401576Y-86500000D02*
X192804699Y-85903123D01*
X194173492Y-86500000D02*
X194430246Y-86243246D01*
X193401576Y-86500000D02*
X194173492Y-86500000D01*
%TO.N,D-*%
X193829391Y-87490047D02*
X193189542Y-87490047D01*
X193189542Y-87490047D02*
X192203658Y-86504163D01*
D44*
%TO.N,D+*%
X188812500Y-64337500D02*
X188800000Y-64350000D01*
X188812500Y-62487500D02*
X188812500Y-64337500D01*
%TO.N,D-*%
X190712500Y-64337500D02*
X190700000Y-64350000D01*
X190712500Y-62487500D02*
X190712500Y-64337500D01*
%TO.N,D+*%
X189225000Y-57545000D02*
X189225000Y-59445532D01*
X189225000Y-59445532D02*
X188812500Y-59858032D01*
X188812500Y-59858032D02*
X188812500Y-60212500D01*
X188812500Y-60212500D02*
X188812500Y-62487500D01*
%TO.N,D-*%
X190712500Y-60212500D02*
X190712500Y-62487500D01*
X190712500Y-59858032D02*
X190712500Y-60212500D01*
%TO.N,VBUS*%
X192375000Y-57545000D02*
X192375000Y-58194999D01*
X192375000Y-58194999D02*
X193754001Y-59574000D01*
X193754001Y-59574000D02*
X194785160Y-59574000D01*
X198706250Y-63495090D02*
X198706250Y-66743750D01*
%TO.N,SYSOFF*%
X202981250Y-71743750D02*
X202981250Y-73468750D01*
X202981250Y-73468750D02*
X201850000Y-74600000D01*
X201850000Y-74600000D02*
X201850000Y-89750000D01*
X201850000Y-89750000D02*
X202250000Y-90150000D01*
X202250000Y-91561160D02*
X201198500Y-92612660D01*
X202250000Y-90150000D02*
X202250000Y-91561160D01*
X201198500Y-92612660D02*
X201198500Y-97095160D01*
X199982660Y-98311000D02*
X198612340Y-98311000D01*
X201198500Y-97095160D02*
X199982660Y-98311000D01*
X198612340Y-98311000D02*
X197500000Y-97198660D01*
X197500000Y-97198660D02*
X197500000Y-95737500D01*
%TO.N,RST*%
X170450000Y-90835000D02*
X170915000Y-90835000D01*
X170915000Y-90835000D02*
X174450000Y-87300000D01*
X174450000Y-87300000D02*
X182710408Y-87300000D01*
X182710408Y-87300000D02*
X182905204Y-87105204D01*
%TO.N,GPIO1*%
X176651473Y-84700000D02*
X179300000Y-84700000D01*
X179300000Y-84700000D02*
X179900000Y-84100000D01*
%TO.N,+5V*%
X196956250Y-66793750D02*
X196956250Y-69481250D01*
X196956250Y-69481250D02*
X196793750Y-69643750D01*
%TO.N,SYSOFF*%
X202981250Y-71743750D02*
X203432250Y-71292750D01*
X203432250Y-71292750D02*
X203432250Y-63732250D01*
X203432250Y-63732250D02*
X202750000Y-63050000D01*
D45*
%TO.N,+3V3*%
X197206250Y-74593750D02*
X197206250Y-72493750D01*
X197206250Y-72493750D02*
X195306250Y-70593750D01*
X195306250Y-70593750D02*
X194518750Y-70593750D01*
D44*
%TO.N,Net-(J4-CC1)*%
X194100000Y-60387500D02*
X193383676Y-60387500D01*
X193383676Y-60387500D02*
X191225000Y-58228824D01*
X191225000Y-58228824D02*
X191225000Y-57545000D01*
%TO.N,Net-(U4-~{CHG})*%
X194750000Y-91800000D02*
X195487500Y-91062500D01*
X195487500Y-91062500D02*
X195837500Y-91062500D01*
X195812500Y-93550000D02*
X195812500Y-92912500D01*
X195812500Y-92912500D02*
X195800000Y-92900000D01*
%TO.N,+5V*%
X197500000Y-92862500D02*
X197500000Y-92409202D01*
X197500000Y-92409202D02*
X197214798Y-92124000D01*
X197214798Y-92124000D02*
X195333500Y-92124000D01*
X195333500Y-92124000D02*
X194147500Y-93310000D01*
%TO.N,GND*%
X198687500Y-93550000D02*
X198000000Y-93550000D01*
X198000000Y-92862500D02*
X198687500Y-93550000D01*
%TO.N,+BATT*%
X199437500Y-91050000D02*
X199437500Y-92300000D01*
X199437500Y-92300000D02*
X200347500Y-93210000D01*
%TO.N,VBUS*%
X198856250Y-68681250D02*
X198856250Y-66893750D01*
X198856250Y-66893750D02*
X198706250Y-66743750D01*
%TO.N,Net-(Q2-G)*%
X201056250Y-70743750D02*
X201106250Y-70793750D01*
X198856250Y-70556250D02*
X199043750Y-70743750D01*
X199043750Y-70743750D02*
X201056250Y-70743750D01*
X200856250Y-68956250D02*
X200856250Y-70543750D01*
X200793750Y-68893750D02*
X200856250Y-68956250D01*
X200856250Y-70543750D02*
X201106250Y-70793750D01*
%TO.N,+BATT*%
X200347500Y-93210000D02*
X199007500Y-94550000D01*
X199007500Y-94550000D02*
X198687500Y-94550000D01*
X200347500Y-93210000D02*
X199507500Y-94050000D01*
X199507500Y-94050000D02*
X198687500Y-94050000D01*
%TO.N,Net-(U4-TS)*%
X200385000Y-95410000D02*
X199047500Y-95410000D01*
X199047500Y-95410000D02*
X198687500Y-95050000D01*
%TO.N,Net-(U4-ISET)*%
X199297500Y-97497500D02*
X198000000Y-96200000D01*
X198000000Y-96200000D02*
X198000000Y-95737500D01*
%TO.N,VBUS*%
X195197500Y-97460000D02*
X196500000Y-96157500D01*
X196500000Y-96157500D02*
X196500000Y-95737500D01*
%TO.N,+5V*%
X194147500Y-93310000D02*
X194887500Y-94050000D01*
X194887500Y-94050000D02*
X195812500Y-94050000D01*
%TO.N,Net-(U4-ILIM)*%
X195352500Y-95510000D02*
X195812500Y-95050000D01*
X194110000Y-95510000D02*
X195352500Y-95510000D01*
%TO.N,+5V*%
X195812500Y-94550000D02*
X195312500Y-94050000D01*
X195312500Y-94050000D02*
X194887500Y-94050000D01*
%TO.N,CS*%
X170450000Y-85755000D02*
X170995000Y-86300000D01*
X181306246Y-86300000D02*
X181703123Y-85903123D01*
X170995000Y-86300000D02*
X181306246Y-86300000D01*
%TO.N,DC*%
X170450000Y-88295000D02*
X171705000Y-88295000D01*
X171705000Y-88295000D02*
X173200000Y-86800000D01*
X173200000Y-86800000D02*
X182008327Y-86800000D01*
X182008327Y-86800000D02*
X182304164Y-86504163D01*
%TO.N,SLK*%
X170450000Y-83215000D02*
X172985000Y-85750000D01*
X172985000Y-85750000D02*
X180654164Y-85750000D01*
X180654164Y-85750000D02*
X181102082Y-85302082D01*
%TO.N,DIN*%
X170450000Y-80675000D02*
X170450000Y-81200000D01*
X170450000Y-81200000D02*
X174550000Y-85300000D01*
X174550000Y-85300000D02*
X179902082Y-85300000D01*
X179902082Y-85300000D02*
X180501041Y-84701041D01*
%TO.N,+3V3*%
X179155205Y-83642715D02*
X179298960Y-83498960D01*
%TO.N,PUSH1*%
X175250000Y-104950000D02*
X183200000Y-104950000D01*
%TO.N,PUSH3*%
X197700000Y-104825000D02*
X205650000Y-104825000D01*
%TO.N,PUSH2*%
X186525000Y-107150000D02*
X194475000Y-107150000D01*
%TO.N,GND*%
X199481382Y-74593750D02*
X199106250Y-74593750D01*
%TD*%
%TA.AperFunction,Conductor*%
%TO.N,GND*%
G36*
X193891333Y-97328175D02*
G01*
X193947267Y-97370046D01*
X193971684Y-97435510D01*
X193972000Y-97444357D01*
X193972000Y-97760000D01*
X193972001Y-97760019D01*
X193982500Y-97862796D01*
X193982501Y-97862799D01*
X194037685Y-98029331D01*
X194037687Y-98029336D01*
X194039036Y-98031523D01*
X194129788Y-98178656D01*
X194253844Y-98302712D01*
X194257128Y-98304737D01*
X194257153Y-98304753D01*
X194258945Y-98306746D01*
X194259511Y-98307193D01*
X194259434Y-98307289D01*
X194303879Y-98356699D01*
X194315103Y-98425661D01*
X194287261Y-98489744D01*
X194257165Y-98515826D01*
X194254160Y-98517679D01*
X194254155Y-98517683D01*
X194130184Y-98641654D01*
X194038143Y-98790875D01*
X194038141Y-98790880D01*
X193982994Y-98957302D01*
X193982993Y-98957309D01*
X193972500Y-99060013D01*
X193972500Y-99110000D01*
X195073500Y-99110000D01*
X195140539Y-99129685D01*
X195186294Y-99182489D01*
X195197500Y-99234000D01*
X195197500Y-99360000D01*
X195323500Y-99360000D01*
X195390539Y-99379685D01*
X195436294Y-99432489D01*
X195447500Y-99484000D01*
X195447500Y-100359999D01*
X195722472Y-100359999D01*
X195722486Y-100359998D01*
X195825197Y-100349505D01*
X195991619Y-100294358D01*
X195991624Y-100294356D01*
X196140845Y-100202315D01*
X196264815Y-100078345D01*
X196356856Y-99929124D01*
X196356858Y-99929119D01*
X196408245Y-99774044D01*
X196448017Y-99716599D01*
X196512533Y-99689776D01*
X196581309Y-99702091D01*
X196613632Y-99725367D01*
X197388639Y-100500374D01*
X197388649Y-100500385D01*
X197392979Y-100504715D01*
X197392980Y-100504716D01*
X197504784Y-100616520D01*
X197504786Y-100616521D01*
X197504790Y-100616524D01*
X197596923Y-100669716D01*
X197641716Y-100695577D01*
X197753519Y-100725534D01*
X197794442Y-100736500D01*
X197794443Y-100736500D01*
X199102770Y-100736500D01*
X199124015Y-100742738D01*
X199146104Y-100744318D01*
X199156887Y-100752390D01*
X199169809Y-100756185D01*
X199184308Y-100772918D01*
X199202037Y-100786190D01*
X199206744Y-100798810D01*
X199215564Y-100808989D01*
X199218715Y-100830906D01*
X199226454Y-100851654D01*
X199223591Y-100864814D01*
X199225508Y-100878147D01*
X199216308Y-100898290D01*
X199211602Y-100919927D01*
X199198333Y-100937652D01*
X199196483Y-100941703D01*
X199190451Y-100948181D01*
X199185484Y-100953148D01*
X199124161Y-100986633D01*
X199097803Y-100989467D01*
X190426892Y-100989467D01*
X190359853Y-100969782D01*
X190314098Y-100916978D01*
X190304154Y-100847820D01*
X190333179Y-100784264D01*
X190339210Y-100777786D01*
X190391467Y-100725529D01*
X190447280Y-100669716D01*
X190447280Y-100669714D01*
X190457488Y-100659507D01*
X190457490Y-100659504D01*
X191457008Y-99659986D01*
X193972501Y-99659986D01*
X193982994Y-99762697D01*
X194038141Y-99929119D01*
X194038143Y-99929124D01*
X194130184Y-100078345D01*
X194254154Y-100202315D01*
X194403375Y-100294356D01*
X194403380Y-100294358D01*
X194569802Y-100349505D01*
X194569809Y-100349506D01*
X194672519Y-100359999D01*
X194947499Y-100359999D01*
X194947500Y-100359998D01*
X194947500Y-99610000D01*
X193972501Y-99610000D01*
X193972501Y-99659986D01*
X191457008Y-99659986D01*
X193665213Y-97451781D01*
X193665216Y-97451780D01*
X193760322Y-97356673D01*
X193821641Y-97323191D01*
X193891333Y-97328175D01*
G37*
%TD.AperFunction*%
%TA.AperFunction,Conductor*%
G36*
X196805398Y-96789453D02*
G01*
X196818834Y-96790414D01*
X196836560Y-96803684D01*
X196856703Y-96812883D01*
X196863985Y-96824214D01*
X196874767Y-96832286D01*
X196882504Y-96853031D01*
X196894477Y-96871661D01*
X196897628Y-96893579D01*
X196899184Y-96897750D01*
X196899500Y-96906596D01*
X196899500Y-97111990D01*
X196899499Y-97112008D01*
X196899499Y-97277714D01*
X196899498Y-97277714D01*
X196920656Y-97356676D01*
X196940423Y-97430445D01*
X196945286Y-97438868D01*
X196945289Y-97438878D01*
X196945291Y-97438877D01*
X197019475Y-97567369D01*
X197019481Y-97567377D01*
X197138349Y-97686245D01*
X197138355Y-97686250D01*
X198116486Y-98664381D01*
X198149971Y-98725704D01*
X198146511Y-98791065D01*
X198107995Y-98907299D01*
X198107993Y-98907309D01*
X198097500Y-99010013D01*
X198097500Y-99072500D01*
X199173500Y-99072500D01*
X199182185Y-99075050D01*
X199191147Y-99073762D01*
X199215187Y-99084740D01*
X199240539Y-99092185D01*
X199246466Y-99099025D01*
X199254703Y-99102787D01*
X199268992Y-99125021D01*
X199286294Y-99144989D01*
X199288581Y-99155503D01*
X199292477Y-99161565D01*
X199297500Y-99196500D01*
X199297500Y-99411500D01*
X199277815Y-99478539D01*
X199225011Y-99524294D01*
X199173500Y-99535500D01*
X198173597Y-99535500D01*
X198106558Y-99515815D01*
X198085916Y-99499181D01*
X196457597Y-97870862D01*
X196424112Y-97809539D01*
X196421920Y-97770577D01*
X196423000Y-97760009D01*
X196422999Y-97159992D01*
X196421919Y-97149420D01*
X196434688Y-97080728D01*
X196457593Y-97049140D01*
X196687819Y-96818915D01*
X196707255Y-96808302D01*
X196723989Y-96793802D01*
X196737320Y-96791885D01*
X196749142Y-96785430D01*
X196771228Y-96787009D01*
X196793147Y-96783858D01*
X196805398Y-96789453D01*
G37*
%TD.AperFunction*%
%TA.AperFunction,Conductor*%
G36*
X177040000Y-98716988D02*
G01*
X176982993Y-98684075D01*
X176855826Y-98650000D01*
X176724174Y-98650000D01*
X176597007Y-98684075D01*
X176540000Y-98716988D01*
X176540000Y-97043012D01*
X176597007Y-97075925D01*
X176724174Y-97110000D01*
X176855826Y-97110000D01*
X176982993Y-97075925D01*
X177040000Y-97043012D01*
X177040000Y-98716988D01*
G37*
%TD.AperFunction*%
%TA.AperFunction,Conductor*%
G36*
X192423767Y-87660065D02*
G01*
X192468115Y-87688566D01*
X192767830Y-87988282D01*
X192767832Y-87988283D01*
X192774873Y-87995324D01*
X192881416Y-88066513D01*
X192944597Y-88092683D01*
X192953361Y-88096313D01*
X192973159Y-88104514D01*
X193027563Y-88148354D01*
X193049628Y-88214648D01*
X193032349Y-88282348D01*
X193013389Y-88306756D01*
X192927786Y-88392359D01*
X192815981Y-88504163D01*
X192815979Y-88504166D01*
X192807843Y-88518258D01*
X192779068Y-88568099D01*
X192736923Y-88641096D01*
X192695999Y-88793824D01*
X192695999Y-88793826D01*
X192695999Y-88961927D01*
X192696000Y-88961940D01*
X192696000Y-91962859D01*
X192676315Y-92029898D01*
X192623511Y-92075653D01*
X192559401Y-92086217D01*
X192547496Y-92085001D01*
X192547474Y-92085000D01*
X192497500Y-92085000D01*
X192497500Y-94180000D01*
X192498681Y-94181181D01*
X192532166Y-94242504D01*
X192535000Y-94268862D01*
X192535000Y-96710763D01*
X192567566Y-96770403D01*
X192562582Y-96840095D01*
X192534081Y-96884442D01*
X191453181Y-97965343D01*
X191391858Y-97998828D01*
X191322166Y-97993844D01*
X191266233Y-97951972D01*
X191241816Y-97886508D01*
X191241500Y-97877662D01*
X191241500Y-96539023D01*
X191261185Y-96471984D01*
X191313989Y-96426229D01*
X191383147Y-96416285D01*
X191446703Y-96445310D01*
X191453181Y-96451342D01*
X191554154Y-96552315D01*
X191703375Y-96644356D01*
X191703380Y-96644358D01*
X191869802Y-96699505D01*
X191869809Y-96699506D01*
X191972519Y-96709999D01*
X192034999Y-96709998D01*
X192035000Y-96709998D01*
X192035000Y-94665000D01*
X192033819Y-94663819D01*
X192000334Y-94602496D01*
X191997500Y-94576138D01*
X191997500Y-92085000D01*
X191997499Y-92084999D01*
X191947529Y-92085000D01*
X191947511Y-92085001D01*
X191844802Y-92095494D01*
X191678380Y-92150641D01*
X191678375Y-92150643D01*
X191529154Y-92242684D01*
X191453181Y-92318658D01*
X191391858Y-92352143D01*
X191322166Y-92347159D01*
X191266233Y-92305287D01*
X191241816Y-92239823D01*
X191241500Y-92230977D01*
X191241500Y-89838892D01*
X191241501Y-89838879D01*
X191241501Y-89670777D01*
X191241501Y-89670775D01*
X191200577Y-89518047D01*
X191121520Y-89381116D01*
X190948543Y-89208139D01*
X190915058Y-89146816D01*
X190920042Y-89077124D01*
X190948541Y-89032779D01*
X191212557Y-88768763D01*
X191250177Y-88722080D01*
X191283069Y-88650057D01*
X191328822Y-88597256D01*
X191344340Y-88588781D01*
X191416371Y-88555886D01*
X191463054Y-88518267D01*
X191813598Y-88167722D01*
X191851218Y-88121039D01*
X191884110Y-88049016D01*
X191929863Y-87996215D01*
X191945381Y-87987740D01*
X192017412Y-87954845D01*
X192064095Y-87917226D01*
X192292755Y-87688564D01*
X192354075Y-87655081D01*
X192423767Y-87660065D01*
G37*
%TD.AperFunction*%
%TA.AperFunction,Conductor*%
G36*
X202391039Y-93229685D02*
G01*
X202436794Y-93282489D01*
X202448000Y-93334000D01*
X202448000Y-96770062D01*
X202428315Y-96837101D01*
X202411681Y-96857743D01*
X202010681Y-97258743D01*
X201949358Y-97292228D01*
X201879666Y-97287244D01*
X201823733Y-97245372D01*
X201799316Y-97179908D01*
X201799000Y-97171062D01*
X201799000Y-96733999D01*
X201818685Y-96666960D01*
X201871489Y-96621205D01*
X201922999Y-96609999D01*
X201959999Y-96609998D01*
X201960000Y-96609998D01*
X201960000Y-94168862D01*
X201979685Y-94101823D01*
X201996319Y-94081181D01*
X201997500Y-94080000D01*
X201997500Y-93334000D01*
X202000050Y-93325314D01*
X201998762Y-93316353D01*
X202009740Y-93292312D01*
X202017185Y-93266961D01*
X202024025Y-93261033D01*
X202027787Y-93252797D01*
X202050021Y-93238507D01*
X202069989Y-93221206D01*
X202080503Y-93218918D01*
X202086565Y-93215023D01*
X202121500Y-93210000D01*
X202324000Y-93210000D01*
X202391039Y-93229685D01*
G37*
%TD.AperFunction*%
%TA.AperFunction,Conductor*%
G36*
X184539528Y-90028873D02*
G01*
X184583875Y-90057374D01*
X184716207Y-90189705D01*
X184847890Y-90321388D01*
X184894573Y-90359008D01*
X184930403Y-90375371D01*
X184966593Y-90391900D01*
X185019397Y-90437655D01*
X185027873Y-90453178D01*
X185033959Y-90466503D01*
X185060767Y-90525202D01*
X185098386Y-90571885D01*
X185098389Y-90571888D01*
X185098394Y-90571894D01*
X185361705Y-90835203D01*
X185448931Y-90922429D01*
X185495614Y-90960049D01*
X185531444Y-90976412D01*
X185567634Y-90992941D01*
X185620438Y-91038696D01*
X185628914Y-91054219D01*
X185645870Y-91091344D01*
X185661808Y-91126243D01*
X185699427Y-91172926D01*
X185699430Y-91172929D01*
X185699435Y-91172935D01*
X185980412Y-91453910D01*
X186049972Y-91523470D01*
X186096655Y-91561090D01*
X186127493Y-91575173D01*
X186169369Y-91594299D01*
X186222173Y-91640054D01*
X186230650Y-91655579D01*
X186263272Y-91727010D01*
X186300851Y-91773643D01*
X186440738Y-91913530D01*
X186989453Y-91364815D01*
X187050776Y-91331330D01*
X187120468Y-91336314D01*
X187164815Y-91364815D01*
X187253910Y-91453910D01*
X187343005Y-91364815D01*
X187404328Y-91331330D01*
X187474020Y-91336314D01*
X187518368Y-91364815D01*
X188077081Y-91923528D01*
X188110566Y-91984851D01*
X188111017Y-91987017D01*
X188120261Y-92033490D01*
X188120263Y-92033498D01*
X188180602Y-92179172D01*
X188180609Y-92179185D01*
X188268602Y-92310874D01*
X188289480Y-92377551D01*
X188289500Y-92379765D01*
X188289500Y-94369902D01*
X188269815Y-94436941D01*
X188253181Y-94457583D01*
X187434522Y-95276241D01*
X187373199Y-95309726D01*
X187308523Y-95306491D01*
X187266245Y-95292754D01*
X187126272Y-95270584D01*
X187056287Y-95259500D01*
X186843713Y-95259500D01*
X186795042Y-95267208D01*
X186633760Y-95292753D01*
X186431585Y-95358444D01*
X186242179Y-95454951D01*
X186070213Y-95579890D01*
X185919890Y-95730213D01*
X185794949Y-95902182D01*
X185790484Y-95910946D01*
X185742509Y-95961742D01*
X185674688Y-95978536D01*
X185608553Y-95955998D01*
X185569516Y-95910946D01*
X185565050Y-95902182D01*
X185440109Y-95730213D01*
X185289786Y-95579890D01*
X185117820Y-95454951D01*
X184928414Y-95358444D01*
X184928413Y-95358443D01*
X184928412Y-95358443D01*
X184726243Y-95292754D01*
X184726241Y-95292753D01*
X184726240Y-95292753D01*
X184564957Y-95267208D01*
X184516287Y-95259500D01*
X184303713Y-95259500D01*
X184255042Y-95267208D01*
X184093760Y-95292753D01*
X183891585Y-95358444D01*
X183702179Y-95454951D01*
X183530213Y-95579890D01*
X183379890Y-95730213D01*
X183254949Y-95902182D01*
X183250484Y-95910946D01*
X183202509Y-95961742D01*
X183134688Y-95978536D01*
X183068553Y-95955998D01*
X183029516Y-95910946D01*
X183025050Y-95902182D01*
X182900109Y-95730213D01*
X182749786Y-95579890D01*
X182577820Y-95454951D01*
X182388414Y-95358444D01*
X182388413Y-95358443D01*
X182388412Y-95358443D01*
X182186243Y-95292754D01*
X182186241Y-95292753D01*
X182186240Y-95292753D01*
X182024957Y-95267208D01*
X181976287Y-95259500D01*
X181763713Y-95259500D01*
X181715042Y-95267208D01*
X181553760Y-95292753D01*
X181351585Y-95358444D01*
X181162179Y-95454951D01*
X180990213Y-95579890D01*
X180839890Y-95730213D01*
X180714949Y-95902182D01*
X180710484Y-95910946D01*
X180662509Y-95961742D01*
X180594688Y-95978536D01*
X180528553Y-95955998D01*
X180489516Y-95910946D01*
X180485050Y-95902182D01*
X180360109Y-95730213D01*
X180209786Y-95579890D01*
X180037820Y-95454951D01*
X179848414Y-95358444D01*
X179848413Y-95358443D01*
X179848412Y-95358443D01*
X179646243Y-95292754D01*
X179646241Y-95292753D01*
X179646240Y-95292753D01*
X179484957Y-95267208D01*
X179436287Y-95259500D01*
X179223713Y-95259500D01*
X179175042Y-95267208D01*
X179013760Y-95292753D01*
X178811585Y-95358444D01*
X178622179Y-95454951D01*
X178450213Y-95579890D01*
X178299890Y-95730213D01*
X178174949Y-95902182D01*
X178170202Y-95911499D01*
X178122227Y-95962293D01*
X178054405Y-95979087D01*
X177988271Y-95956548D01*
X177949234Y-95911495D01*
X177944622Y-95902444D01*
X177819727Y-95730540D01*
X177819723Y-95730535D01*
X177669464Y-95580276D01*
X177669459Y-95580272D01*
X177497557Y-95455379D01*
X177308217Y-95358904D01*
X177106129Y-95293242D01*
X177030592Y-95281278D01*
X176967458Y-95251348D01*
X176930527Y-95192036D01*
X176931525Y-95122174D01*
X176962308Y-95071126D01*
X179766351Y-92267084D01*
X186794292Y-92267084D01*
X186934178Y-92406970D01*
X186980813Y-92444550D01*
X187111592Y-92504276D01*
X187111597Y-92504277D01*
X187253911Y-92524737D01*
X187396224Y-92504277D01*
X187396229Y-92504276D01*
X187527008Y-92444550D01*
X187573643Y-92406970D01*
X187573647Y-92406966D01*
X187713530Y-92267084D01*
X187253911Y-91807465D01*
X186794292Y-92267084D01*
X179766351Y-92267084D01*
X179896616Y-92136819D01*
X179957939Y-92103334D01*
X179984297Y-92100500D01*
X182037593Y-92100500D01*
X182037597Y-92100501D01*
X182195711Y-92100501D01*
X182348439Y-92059577D01*
X182398558Y-92030639D01*
X182485370Y-91980520D01*
X182597174Y-91868716D01*
X182597174Y-91868714D01*
X182607382Y-91858507D01*
X182607384Y-91858504D01*
X184408515Y-90057372D01*
X184469836Y-90023889D01*
X184539528Y-90028873D01*
G37*
%TD.AperFunction*%
%TA.AperFunction,Conductor*%
G36*
X197282514Y-93784501D02*
G01*
X197282674Y-93783905D01*
X197290524Y-93786008D01*
X197290526Y-93786008D01*
X197290528Y-93786009D01*
X197400599Y-93800500D01*
X197599400Y-93800499D01*
X197612039Y-93798835D01*
X197681073Y-93809600D01*
X197733329Y-93855980D01*
X197752215Y-93923249D01*
X197751164Y-93937952D01*
X197749500Y-93950596D01*
X197749500Y-94149403D01*
X197763989Y-94259468D01*
X197766094Y-94267322D01*
X197762814Y-94268200D01*
X197768581Y-94322073D01*
X197765517Y-94332522D01*
X197766095Y-94332677D01*
X197763990Y-94340529D01*
X197749500Y-94450598D01*
X197749500Y-94649400D01*
X197751165Y-94662045D01*
X197740396Y-94731080D01*
X197694013Y-94783333D01*
X197626743Y-94802215D01*
X197612046Y-94801164D01*
X197599401Y-94799500D01*
X197400596Y-94799500D01*
X197290531Y-94813989D01*
X197282678Y-94816094D01*
X197281802Y-94812824D01*
X197227853Y-94818567D01*
X197217477Y-94815518D01*
X197217323Y-94816095D01*
X197209470Y-94813990D01*
X197099401Y-94799500D01*
X196900598Y-94799500D01*
X196887953Y-94801165D01*
X196818918Y-94790395D01*
X196766665Y-94744012D01*
X196747784Y-94676742D01*
X196748836Y-94662039D01*
X196750500Y-94649401D01*
X196750499Y-94450600D01*
X196749654Y-94444184D01*
X196746105Y-94417224D01*
X196736009Y-94340528D01*
X196736008Y-94340525D01*
X196733905Y-94332674D01*
X196737207Y-94331789D01*
X196731392Y-94278075D01*
X196734501Y-94267485D01*
X196733905Y-94267326D01*
X196736008Y-94259475D01*
X196736008Y-94259474D01*
X196736009Y-94259472D01*
X196750500Y-94149401D01*
X196750499Y-93950600D01*
X196750498Y-93950596D01*
X196748835Y-93937960D01*
X196759601Y-93868925D01*
X196805981Y-93816669D01*
X196873249Y-93797784D01*
X196887959Y-93798836D01*
X196888945Y-93798965D01*
X196900599Y-93800500D01*
X197099400Y-93800499D01*
X197099401Y-93800499D01*
X197120024Y-93797784D01*
X197209472Y-93786009D01*
X197209475Y-93786007D01*
X197217326Y-93783905D01*
X197218210Y-93787207D01*
X197271925Y-93781392D01*
X197282514Y-93784501D01*
G37*
%TD.AperFunction*%
%TA.AperFunction,Conductor*%
G36*
X198830203Y-92436024D02*
G01*
X198867977Y-92494802D01*
X198868770Y-92497628D01*
X198877923Y-92531785D01*
X198878973Y-92533603D01*
X198881471Y-92537929D01*
X198881474Y-92537936D01*
X198956977Y-92668712D01*
X198956981Y-92668717D01*
X199001583Y-92713319D01*
X199035068Y-92774642D01*
X199030084Y-92844334D01*
X198988212Y-92900267D01*
X198922748Y-92924684D01*
X198913902Y-92925000D01*
X198812500Y-92925000D01*
X198812500Y-93300500D01*
X198809949Y-93309185D01*
X198811238Y-93318147D01*
X198800259Y-93342187D01*
X198792815Y-93367539D01*
X198785974Y-93373466D01*
X198782213Y-93381703D01*
X198759978Y-93395992D01*
X198740011Y-93413294D01*
X198729496Y-93415581D01*
X198723435Y-93419477D01*
X198688500Y-93424500D01*
X198686500Y-93424500D01*
X198619461Y-93404815D01*
X198573706Y-93352011D01*
X198562500Y-93300500D01*
X198562500Y-92987500D01*
X198249500Y-92987500D01*
X198240844Y-92984958D01*
X198231914Y-92986247D01*
X198207838Y-92975266D01*
X198182461Y-92967815D01*
X198176554Y-92960998D01*
X198168344Y-92957254D01*
X198154026Y-92935000D01*
X198136706Y-92915011D01*
X198134423Y-92904529D01*
X198130540Y-92898494D01*
X198125500Y-92863562D01*
X198125499Y-92861562D01*
X198145150Y-92794513D01*
X198197931Y-92748731D01*
X198249499Y-92737500D01*
X198625000Y-92737500D01*
X198625000Y-92529737D01*
X198644685Y-92462698D01*
X198697489Y-92416943D01*
X198766647Y-92406999D01*
X198830203Y-92436024D01*
G37*
%TD.AperFunction*%
%TA.AperFunction,Conductor*%
G36*
X191089409Y-83862339D02*
G01*
X191145342Y-83904211D01*
X191169759Y-83969675D01*
X191154907Y-84037948D01*
X191149178Y-84047411D01*
X191116342Y-84096553D01*
X191116336Y-84096564D01*
X191055998Y-84242235D01*
X191055995Y-84242247D01*
X191025234Y-84396890D01*
X191025234Y-84554583D01*
X191055995Y-84709226D01*
X191055998Y-84709238D01*
X191116336Y-84854909D01*
X191116343Y-84854922D01*
X191203944Y-84986025D01*
X191203947Y-84986029D01*
X191315441Y-85097523D01*
X191315445Y-85097526D01*
X191446548Y-85185127D01*
X191446561Y-85185134D01*
X191570777Y-85236585D01*
X191592237Y-85245474D01*
X191746887Y-85276236D01*
X191746890Y-85276237D01*
X191866796Y-85276237D01*
X191933835Y-85295922D01*
X191979590Y-85348726D01*
X191989534Y-85417884D01*
X191976415Y-85458201D01*
X191970838Y-85468746D01*
X191955058Y-85488329D01*
X191920676Y-85563611D01*
X191918991Y-85566799D01*
X191897029Y-85589356D01*
X191876409Y-85613152D01*
X191870970Y-85616121D01*
X191870251Y-85616861D01*
X191869149Y-85617116D01*
X191860887Y-85621628D01*
X191788862Y-85654523D01*
X191742171Y-85692149D01*
X191391644Y-86042678D01*
X191391638Y-86042685D01*
X191354017Y-86089369D01*
X191321123Y-86161392D01*
X191275366Y-86214194D01*
X191259844Y-86222670D01*
X191187826Y-86255561D01*
X191141131Y-86293190D01*
X190790604Y-86643719D01*
X190790598Y-86643726D01*
X190752977Y-86690410D01*
X190720083Y-86762432D01*
X190674326Y-86815235D01*
X190658805Y-86823710D01*
X190586783Y-86856604D01*
X190540090Y-86894231D01*
X190189563Y-87244760D01*
X190189557Y-87244766D01*
X190189556Y-87244768D01*
X190173336Y-87264896D01*
X190151936Y-87291451D01*
X190119042Y-87363473D01*
X190073285Y-87416276D01*
X190057764Y-87424751D01*
X189985742Y-87457645D01*
X189939049Y-87495272D01*
X189588522Y-87845801D01*
X189588516Y-87845808D01*
X189550895Y-87892492D01*
X189518001Y-87964514D01*
X189472244Y-88017317D01*
X189456723Y-88025792D01*
X189384701Y-88058686D01*
X189338008Y-88096313D01*
X188987481Y-88446842D01*
X188987475Y-88446849D01*
X188956044Y-88485852D01*
X188949854Y-88493533D01*
X188944998Y-88504166D01*
X188916961Y-88565555D01*
X188871205Y-88618357D01*
X188855681Y-88626833D01*
X188783665Y-88659722D01*
X188783664Y-88659723D01*
X188736968Y-88697353D01*
X188386441Y-89047882D01*
X188386435Y-89047888D01*
X188386434Y-89047890D01*
X188356289Y-89085297D01*
X188348814Y-89094573D01*
X188315920Y-89166595D01*
X188270163Y-89219398D01*
X188254642Y-89227873D01*
X188182620Y-89260767D01*
X188135927Y-89298394D01*
X187785400Y-89648923D01*
X187785394Y-89648929D01*
X187785393Y-89648931D01*
X187779054Y-89656797D01*
X187747773Y-89695614D01*
X187714879Y-89767636D01*
X187669122Y-89820439D01*
X187653601Y-89828914D01*
X187581579Y-89861808D01*
X187534886Y-89899435D01*
X187341591Y-90092731D01*
X187280268Y-90126216D01*
X187210576Y-90121232D01*
X187166230Y-90092732D01*
X186972926Y-89899428D01*
X186926243Y-89861808D01*
X186926241Y-89861807D01*
X186854220Y-89828914D01*
X186801417Y-89783158D01*
X186792940Y-89767633D01*
X186760050Y-89695616D01*
X186760049Y-89695615D01*
X186760049Y-89695614D01*
X186722430Y-89648931D01*
X186722425Y-89648926D01*
X186722421Y-89648921D01*
X186371892Y-89298394D01*
X186371885Y-89298387D01*
X186325202Y-89260767D01*
X186325200Y-89260766D01*
X186253179Y-89227873D01*
X186200376Y-89182117D01*
X186191899Y-89166592D01*
X186159009Y-89094575D01*
X186159008Y-89094574D01*
X186159008Y-89094573D01*
X186121389Y-89047890D01*
X186121384Y-89047885D01*
X186121380Y-89047880D01*
X185770851Y-88697353D01*
X185770844Y-88697346D01*
X185724161Y-88659726D01*
X185724159Y-88659725D01*
X185724157Y-88659723D01*
X185652140Y-88626834D01*
X185599336Y-88581079D01*
X185590858Y-88565552D01*
X185573794Y-88528187D01*
X185557968Y-88493533D01*
X185520349Y-88446850D01*
X185520344Y-88446845D01*
X185520340Y-88446840D01*
X185169811Y-88096313D01*
X185169804Y-88096306D01*
X185123121Y-88058686D01*
X185123119Y-88058685D01*
X185051098Y-88025792D01*
X184998295Y-87980036D01*
X184989818Y-87964511D01*
X184956928Y-87892494D01*
X184956927Y-87892493D01*
X184956927Y-87892492D01*
X184919308Y-87845809D01*
X184919303Y-87845804D01*
X184919299Y-87845799D01*
X184568770Y-87495272D01*
X184568763Y-87495265D01*
X184522080Y-87457645D01*
X184504246Y-87449500D01*
X184450057Y-87424751D01*
X184397254Y-87378995D01*
X184388777Y-87363470D01*
X184355887Y-87291453D01*
X184355886Y-87291452D01*
X184355886Y-87291451D01*
X184318267Y-87244768D01*
X184318262Y-87244763D01*
X184318258Y-87244758D01*
X183967729Y-86894231D01*
X183967722Y-86894224D01*
X183921039Y-86856604D01*
X183921037Y-86856603D01*
X183849016Y-86823710D01*
X183796213Y-86777954D01*
X183787736Y-86762429D01*
X183754846Y-86690412D01*
X183754845Y-86690411D01*
X183754845Y-86690410D01*
X183717226Y-86643727D01*
X183717221Y-86643722D01*
X183717217Y-86643717D01*
X183366688Y-86293190D01*
X183366681Y-86293183D01*
X183319998Y-86255563D01*
X183319994Y-86255561D01*
X183247976Y-86222670D01*
X183195173Y-86176914D01*
X183186696Y-86161389D01*
X183153806Y-86089371D01*
X183153805Y-86089370D01*
X183153805Y-86089369D01*
X183116186Y-86042686D01*
X182985680Y-85912180D01*
X182952196Y-85850859D01*
X182957180Y-85781167D01*
X182999051Y-85725233D01*
X183064515Y-85700816D01*
X183073362Y-85700500D01*
X185199903Y-85700500D01*
X185266942Y-85720185D01*
X185287583Y-85736818D01*
X186131284Y-86580520D01*
X186131286Y-86580521D01*
X186131290Y-86580524D01*
X186268209Y-86659573D01*
X186268216Y-86659577D01*
X186420943Y-86700501D01*
X186420945Y-86700501D01*
X186586654Y-86700501D01*
X186586670Y-86700500D01*
X187813331Y-86700500D01*
X187813347Y-86700501D01*
X187820943Y-86700501D01*
X187979054Y-86700501D01*
X187979057Y-86700501D01*
X188131785Y-86659577D01*
X188192219Y-86624685D01*
X188268716Y-86580520D01*
X188380520Y-86468716D01*
X188380520Y-86468714D01*
X188390724Y-86458511D01*
X188390727Y-86458506D01*
X190958396Y-83890838D01*
X191019717Y-83857355D01*
X191089409Y-83862339D01*
G37*
%TD.AperFunction*%
%TA.AperFunction,Conductor*%
G36*
X200059998Y-78424234D02*
G01*
X200095649Y-78484324D01*
X200099500Y-78514987D01*
X200099500Y-87375500D01*
X200079815Y-87442539D01*
X200027011Y-87488294D01*
X199975500Y-87499500D01*
X199821155Y-87499500D01*
X199666510Y-87530261D01*
X199666498Y-87530264D01*
X199520827Y-87590602D01*
X199520814Y-87590609D01*
X199389125Y-87678602D01*
X199322447Y-87699480D01*
X199320234Y-87699500D01*
X196120939Y-87699500D01*
X196093753Y-87706784D01*
X196093754Y-87706785D01*
X195968214Y-87740423D01*
X195968209Y-87740426D01*
X195831290Y-87819475D01*
X195831282Y-87819481D01*
X194108681Y-89542083D01*
X194047358Y-89575568D01*
X193977666Y-89570584D01*
X193921733Y-89528712D01*
X193897316Y-89463248D01*
X193897000Y-89454402D01*
X193897000Y-89172978D01*
X193916685Y-89105939D01*
X193933319Y-89085297D01*
X194925933Y-88092683D01*
X195972225Y-87046392D01*
X196051282Y-86909460D01*
X196092206Y-86756733D01*
X196092206Y-86598618D01*
X196092206Y-86591023D01*
X196092205Y-86591005D01*
X196092205Y-84414565D01*
X196111890Y-84347526D01*
X196164694Y-84301771D01*
X196233852Y-84291827D01*
X196297408Y-84320852D01*
X196303886Y-84326884D01*
X196307217Y-84330215D01*
X196307221Y-84330218D01*
X196438324Y-84417819D01*
X196438337Y-84417826D01*
X196555986Y-84466557D01*
X196584013Y-84478166D01*
X196738663Y-84508928D01*
X196738666Y-84508929D01*
X196738668Y-84508929D01*
X196896354Y-84508929D01*
X196896355Y-84508928D01*
X197051007Y-84478166D01*
X197168418Y-84429533D01*
X197196682Y-84417826D01*
X197196682Y-84417825D01*
X197196689Y-84417823D01*
X197327799Y-84330218D01*
X197439299Y-84218718D01*
X197526904Y-84087608D01*
X197587247Y-83941926D01*
X197618010Y-83787271D01*
X197618010Y-83629587D01*
X197618010Y-83629584D01*
X197618009Y-83629582D01*
X197600791Y-83543021D01*
X197587247Y-83474932D01*
X197587245Y-83474927D01*
X197526907Y-83329256D01*
X197526900Y-83329243D01*
X197439299Y-83198140D01*
X197439296Y-83198136D01*
X197327802Y-83086642D01*
X197327798Y-83086639D01*
X197193370Y-82996816D01*
X197148565Y-82943203D01*
X197139858Y-82873878D01*
X197161048Y-82822076D01*
X197304680Y-82619148D01*
X197323301Y-82604417D01*
X197338852Y-82586471D01*
X197354382Y-82577991D01*
X197426505Y-82545053D01*
X197473138Y-82507475D01*
X197473142Y-82507471D01*
X197613025Y-82367589D01*
X197153406Y-81907970D01*
X196675402Y-82385974D01*
X196614079Y-82419459D01*
X196544387Y-82414475D01*
X196500040Y-82385974D01*
X196321848Y-82207782D01*
X196288363Y-82146459D01*
X196293347Y-82076767D01*
X196321848Y-82032420D01*
X196799852Y-81554416D01*
X197506960Y-81554416D01*
X197966579Y-82014035D01*
X198106461Y-81874152D01*
X198106465Y-81874148D01*
X198144045Y-81827513D01*
X198203771Y-81696734D01*
X198203772Y-81696729D01*
X198224232Y-81554416D01*
X198203772Y-81412102D01*
X198203771Y-81412097D01*
X198144045Y-81281318D01*
X198106465Y-81234683D01*
X197966579Y-81094797D01*
X197506960Y-81554416D01*
X196799852Y-81554416D01*
X196976629Y-81377639D01*
X197353174Y-81001092D01*
X197393399Y-80974214D01*
X197429179Y-80959394D01*
X197560289Y-80871789D01*
X197671789Y-80760289D01*
X197759394Y-80629179D01*
X197819737Y-80483497D01*
X197850500Y-80328842D01*
X197850500Y-80171158D01*
X197850500Y-80171155D01*
X197850499Y-80171153D01*
X197829971Y-80067952D01*
X197819737Y-80016503D01*
X197799309Y-79967184D01*
X197759397Y-79870827D01*
X197759390Y-79870814D01*
X197671789Y-79739711D01*
X197671786Y-79739707D01*
X197560292Y-79628213D01*
X197560288Y-79628210D01*
X197429185Y-79540609D01*
X197429172Y-79540602D01*
X197283501Y-79480264D01*
X197283489Y-79480261D01*
X197128845Y-79449500D01*
X197128842Y-79449500D01*
X197017649Y-79449500D01*
X196950610Y-79429815D01*
X196904855Y-79377011D01*
X196894911Y-79307853D01*
X196896031Y-79301310D01*
X196900500Y-79278841D01*
X196900500Y-79121155D01*
X196900499Y-79121153D01*
X196896391Y-79100499D01*
X196869737Y-78966503D01*
X196851215Y-78921786D01*
X196809397Y-78820827D01*
X196809395Y-78820823D01*
X196809394Y-78820821D01*
X196757657Y-78743391D01*
X196736779Y-78676714D01*
X196755263Y-78609334D01*
X196807242Y-78562643D01*
X196860759Y-78550500D01*
X198204452Y-78550500D01*
X198271491Y-78570185D01*
X198317246Y-78622989D01*
X198319013Y-78627048D01*
X198340606Y-78679179D01*
X198340607Y-78679182D01*
X198428210Y-78810288D01*
X198428213Y-78810292D01*
X198539707Y-78921786D01*
X198539711Y-78921789D01*
X198670814Y-79009390D01*
X198670827Y-79009397D01*
X198733878Y-79035513D01*
X198816503Y-79069737D01*
X198971153Y-79100499D01*
X198971156Y-79100500D01*
X198971158Y-79100500D01*
X199128844Y-79100500D01*
X199128845Y-79100499D01*
X199283497Y-79069737D01*
X199429179Y-79009394D01*
X199560289Y-78921789D01*
X199671789Y-78810289D01*
X199759394Y-78679179D01*
X199819737Y-78533497D01*
X199825927Y-78502375D01*
X199829606Y-78495341D01*
X199829890Y-78487404D01*
X199845568Y-78464824D01*
X199858309Y-78440466D01*
X199866226Y-78435072D01*
X199869740Y-78430013D01*
X199900091Y-78412005D01*
X199928050Y-78400425D01*
X199997519Y-78392958D01*
X200059998Y-78424234D01*
G37*
%TD.AperFunction*%
%TA.AperFunction,Conductor*%
G36*
X204945583Y-66495412D02*
G01*
X204971158Y-66500500D01*
X204971159Y-66500500D01*
X204971853Y-66500638D01*
X205033763Y-66533025D01*
X205035339Y-66534574D01*
X207575681Y-69074916D01*
X207609166Y-69136239D01*
X207612000Y-69162597D01*
X207612000Y-70720149D01*
X207592315Y-70787188D01*
X207553099Y-70825686D01*
X207503998Y-70855972D01*
X207380971Y-70979000D01*
X207289642Y-71127066D01*
X207289637Y-71127077D01*
X207234913Y-71292223D01*
X207224500Y-71394144D01*
X207224500Y-72405855D01*
X207234913Y-72507776D01*
X207289637Y-72672922D01*
X207289642Y-72672933D01*
X207380971Y-72820999D01*
X207380974Y-72821003D01*
X207503997Y-72944026D01*
X207553097Y-72974311D01*
X207599821Y-73026257D01*
X207612000Y-73079849D01*
X207612000Y-83987402D01*
X207592315Y-84054441D01*
X207575681Y-84075083D01*
X204089599Y-87561164D01*
X204028276Y-87594649D01*
X203958584Y-87589665D01*
X203933028Y-87576586D01*
X203879183Y-87540608D01*
X203879172Y-87540602D01*
X203733501Y-87480264D01*
X203733489Y-87480261D01*
X203578845Y-87449500D01*
X203578842Y-87449500D01*
X203421158Y-87449500D01*
X203421155Y-87449500D01*
X203266510Y-87480261D01*
X203266507Y-87480261D01*
X203171952Y-87519427D01*
X203102482Y-87526895D01*
X203040003Y-87495619D01*
X203004351Y-87435530D01*
X203000500Y-87404865D01*
X203000500Y-75250096D01*
X203020185Y-75183057D01*
X203036814Y-75162420D01*
X204408506Y-73790727D01*
X204408511Y-73790724D01*
X204418714Y-73780520D01*
X204418716Y-73780520D01*
X204530520Y-73668716D01*
X204609577Y-73531784D01*
X204641347Y-73413218D01*
X204650500Y-73379058D01*
X204650500Y-73220943D01*
X204650500Y-66903201D01*
X204670185Y-66836162D01*
X204671398Y-66834310D01*
X204741640Y-66729185D01*
X204741640Y-66729184D01*
X204741644Y-66729179D01*
X204801987Y-66583497D01*
X204801989Y-66583485D01*
X204802733Y-66581035D01*
X204803476Y-66579900D01*
X204804318Y-66577869D01*
X204804703Y-66578028D01*
X204841030Y-66522596D01*
X204904842Y-66494140D01*
X204945583Y-66495412D01*
G37*
%TD.AperFunction*%
%TA.AperFunction,Conductor*%
G36*
X191417282Y-71115874D02*
G01*
X191427408Y-71114610D01*
X191450239Y-71125552D01*
X191474531Y-71132685D01*
X191482890Y-71141200D01*
X191490416Y-71144807D01*
X191513029Y-71171900D01*
X191557288Y-71243656D01*
X191681344Y-71367712D01*
X191830666Y-71459814D01*
X191914505Y-71487595D01*
X191971948Y-71527366D01*
X191998772Y-71591882D01*
X191999500Y-71605300D01*
X191999500Y-73713330D01*
X191999499Y-73713348D01*
X191999499Y-73879054D01*
X191999498Y-73879054D01*
X192029101Y-73989532D01*
X192040423Y-74031785D01*
X192062054Y-74069250D01*
X192085102Y-74109171D01*
X192119479Y-74168715D01*
X192238349Y-74287585D01*
X192238355Y-74287590D01*
X193488584Y-75537819D01*
X193522069Y-75599142D01*
X193517085Y-75668834D01*
X193475213Y-75724767D01*
X193409749Y-75749184D01*
X193400903Y-75749500D01*
X192633323Y-75749500D01*
X192622805Y-75747211D01*
X192615673Y-75748237D01*
X192581809Y-75738293D01*
X192546430Y-75722135D01*
X192493627Y-75676379D01*
X192485150Y-75660854D01*
X192452260Y-75588836D01*
X192452259Y-75588835D01*
X192452259Y-75588834D01*
X192414640Y-75542151D01*
X192414635Y-75542146D01*
X192414631Y-75542141D01*
X192064102Y-75191614D01*
X192064095Y-75191607D01*
X192017412Y-75153987D01*
X191995422Y-75143944D01*
X191945389Y-75121093D01*
X191892586Y-75075337D01*
X191884109Y-75059812D01*
X191851219Y-74987795D01*
X191851218Y-74987794D01*
X191851218Y-74987793D01*
X191813599Y-74941110D01*
X191813594Y-74941105D01*
X191813590Y-74941100D01*
X191463061Y-74590573D01*
X191463054Y-74590566D01*
X191416371Y-74552946D01*
X191416369Y-74552945D01*
X191344348Y-74520052D01*
X191291545Y-74474296D01*
X191283068Y-74458771D01*
X191250178Y-74386754D01*
X191250177Y-74386753D01*
X191250177Y-74386752D01*
X191212558Y-74340069D01*
X191212553Y-74340064D01*
X191212549Y-74340059D01*
X190862020Y-73989532D01*
X190862013Y-73989525D01*
X190815330Y-73951905D01*
X190815328Y-73951904D01*
X190815326Y-73951902D01*
X190742615Y-73918696D01*
X190689811Y-73872941D01*
X190681332Y-73857412D01*
X190648713Y-73785985D01*
X190648712Y-73785984D01*
X190611135Y-73739354D01*
X190577311Y-73705530D01*
X190399169Y-73883672D01*
X190363002Y-73908784D01*
X190268587Y-73951903D01*
X190268581Y-73951907D01*
X190221903Y-73989522D01*
X190221899Y-73989526D01*
X189992889Y-74218537D01*
X189931566Y-74252022D01*
X189922940Y-74253582D01*
X189675805Y-74289290D01*
X189645386Y-74284937D01*
X189614739Y-74282746D01*
X189610349Y-74279924D01*
X189606640Y-74279394D01*
X189598315Y-74272190D01*
X189570392Y-74254245D01*
X189144714Y-73828567D01*
X189111229Y-73767244D01*
X189116213Y-73697552D01*
X189144714Y-73653204D01*
X189198454Y-73599464D01*
X189198453Y-73599463D01*
X189481297Y-73599463D01*
X189481297Y-73599464D01*
X189636861Y-73755028D01*
X189799494Y-73917662D01*
X189799495Y-73917662D01*
X190294470Y-73422688D01*
X190260653Y-73388871D01*
X190260646Y-73388865D01*
X190214015Y-73351287D01*
X190214013Y-73351286D01*
X190141892Y-73318349D01*
X190089088Y-73272594D01*
X190080610Y-73257067D01*
X190047672Y-73184943D01*
X190010095Y-73138314D01*
X189976271Y-73104490D01*
X189481297Y-73599463D01*
X189198453Y-73599463D01*
X189180422Y-73581432D01*
X189146937Y-73520109D01*
X189151921Y-73450417D01*
X189180419Y-73406073D01*
X189409435Y-73177058D01*
X189447055Y-73130376D01*
X189490175Y-73035955D01*
X189515286Y-72999789D01*
X189693429Y-72821647D01*
X189659613Y-72787831D01*
X189659606Y-72787825D01*
X189612975Y-72750247D01*
X189612973Y-72750246D01*
X189541544Y-72717625D01*
X189488740Y-72671870D01*
X189480265Y-72656349D01*
X189447055Y-72583630D01*
X189409436Y-72536947D01*
X189409431Y-72536942D01*
X189409427Y-72536937D01*
X189145420Y-72272931D01*
X189111935Y-72211608D01*
X189116919Y-72141917D01*
X189145418Y-72097572D01*
X190093672Y-71149319D01*
X190154995Y-71115834D01*
X190181353Y-71113000D01*
X191407492Y-71113000D01*
X191417282Y-71115874D01*
G37*
%TD.AperFunction*%
%TA.AperFunction,Conductor*%
G36*
X193680049Y-71308831D02*
G01*
X193699836Y-71318280D01*
X193745852Y-71345494D01*
X193787474Y-71357586D01*
X193903676Y-71391347D01*
X193903679Y-71391347D01*
X193903681Y-71391348D01*
X193940556Y-71394250D01*
X194994020Y-71394250D01*
X195061059Y-71413935D01*
X195081701Y-71430569D01*
X196169431Y-72518299D01*
X196202916Y-72579622D01*
X196205750Y-72605980D01*
X196205750Y-73018751D01*
X196205751Y-73018769D01*
X196216250Y-73121546D01*
X196216251Y-73121549D01*
X196257690Y-73246601D01*
X196271436Y-73288084D01*
X196353516Y-73421158D01*
X196363539Y-73437407D01*
X196382201Y-73456069D01*
X196415686Y-73517392D01*
X196410702Y-73587084D01*
X196382201Y-73631431D01*
X196363539Y-73650092D01*
X196271437Y-73799413D01*
X196271436Y-73799416D01*
X196216251Y-73965953D01*
X196216251Y-73965954D01*
X196216250Y-73965954D01*
X196205750Y-74068733D01*
X196205750Y-75118751D01*
X196205751Y-75118769D01*
X196216250Y-75221546D01*
X196216251Y-75221549D01*
X196271435Y-75388081D01*
X196271437Y-75388086D01*
X196363539Y-75537407D01*
X196363951Y-75537819D01*
X196364143Y-75538171D01*
X196368016Y-75543069D01*
X196367179Y-75543730D01*
X196397436Y-75599142D01*
X196392452Y-75668834D01*
X196350580Y-75724767D01*
X196285116Y-75749184D01*
X196276270Y-75749500D01*
X195467848Y-75749500D01*
X195400809Y-75729815D01*
X195355054Y-75677011D01*
X195346231Y-75649692D01*
X195319738Y-75516508D01*
X195319737Y-75516507D01*
X195319737Y-75516503D01*
X195308226Y-75488713D01*
X195259397Y-75370827D01*
X195259390Y-75370814D01*
X195171789Y-75239710D01*
X195060292Y-75128213D01*
X195060288Y-75128210D01*
X194929185Y-75040609D01*
X194929172Y-75040602D01*
X194783501Y-74980264D01*
X194783491Y-74980261D01*
X194628149Y-74949361D01*
X194566238Y-74916976D01*
X194564660Y-74915425D01*
X193236819Y-73587584D01*
X193203334Y-73526261D01*
X193200500Y-73499903D01*
X193200500Y-71605300D01*
X193220185Y-71538261D01*
X193272989Y-71492506D01*
X193285482Y-71487599D01*
X193369334Y-71459814D01*
X193518656Y-71367712D01*
X193549035Y-71337333D01*
X193610357Y-71303847D01*
X193680049Y-71308831D01*
G37*
%TD.AperFunction*%
%TA.AperFunction,Conductor*%
G36*
X199299289Y-74170185D02*
G01*
X199345044Y-74222989D01*
X199356250Y-74274500D01*
X199356250Y-74469750D01*
X199336565Y-74536789D01*
X199283761Y-74582544D01*
X199232250Y-74593750D01*
X198980250Y-74593750D01*
X198971564Y-74591199D01*
X198962603Y-74592488D01*
X198938562Y-74581509D01*
X198913211Y-74574065D01*
X198907283Y-74567224D01*
X198899047Y-74563463D01*
X198884757Y-74541228D01*
X198867456Y-74521261D01*
X198865168Y-74510746D01*
X198861273Y-74504685D01*
X198856250Y-74469750D01*
X198856250Y-74274500D01*
X198875935Y-74207461D01*
X198928739Y-74161706D01*
X198980250Y-74150500D01*
X199232250Y-74150500D01*
X199299289Y-74170185D01*
G37*
%TD.AperFunction*%
%TA.AperFunction,Conductor*%
G36*
X200170691Y-71499965D02*
G01*
X200178539Y-71500531D01*
X200184425Y-71504942D01*
X200198261Y-71509956D01*
X200258352Y-71545494D01*
X200266052Y-71547731D01*
X200416176Y-71591347D01*
X200416179Y-71591347D01*
X200416181Y-71591348D01*
X200453056Y-71594250D01*
X201619250Y-71594250D01*
X201627935Y-71596800D01*
X201636897Y-71595512D01*
X201660937Y-71606490D01*
X201686289Y-71613935D01*
X201692216Y-71620775D01*
X201700453Y-71624537D01*
X201714742Y-71646771D01*
X201732044Y-71666739D01*
X201734331Y-71677253D01*
X201738227Y-71683315D01*
X201743250Y-71718250D01*
X201743250Y-71769750D01*
X201723565Y-71836789D01*
X201670761Y-71882544D01*
X201619250Y-71893750D01*
X201356250Y-71893750D01*
X201356250Y-72569750D01*
X201336565Y-72636789D01*
X201283761Y-72682544D01*
X201251474Y-72692251D01*
X201205281Y-72699500D01*
X201171158Y-72699500D01*
X201043616Y-72724869D01*
X201043583Y-72724875D01*
X201016507Y-72730261D01*
X201016498Y-72730264D01*
X200870827Y-72790602D01*
X200870814Y-72790609D01*
X200739711Y-72878210D01*
X200739707Y-72878213D01*
X200710490Y-72907431D01*
X200649167Y-72940916D01*
X200622809Y-72943750D01*
X199862750Y-72943750D01*
X199795711Y-72924065D01*
X199749956Y-72871261D01*
X199738750Y-72819750D01*
X199738750Y-72743750D01*
X199356250Y-72743750D01*
X199356250Y-72825500D01*
X199353699Y-72834185D01*
X199354988Y-72843147D01*
X199344009Y-72867187D01*
X199336565Y-72892539D01*
X199329724Y-72898466D01*
X199325963Y-72906703D01*
X199303728Y-72920992D01*
X199283761Y-72938294D01*
X199273246Y-72940581D01*
X199267185Y-72944477D01*
X199232250Y-72949500D01*
X199029750Y-72949500D01*
X198962711Y-72929815D01*
X198916956Y-72877011D01*
X198905750Y-72825500D01*
X198905750Y-72617750D01*
X198925435Y-72550711D01*
X198978239Y-72504956D01*
X199029750Y-72493750D01*
X199106250Y-72493750D01*
X199106250Y-72367750D01*
X199125935Y-72300711D01*
X199178739Y-72254956D01*
X199230250Y-72243750D01*
X200112250Y-72243750D01*
X200179289Y-72263435D01*
X200225044Y-72316239D01*
X200236250Y-72367750D01*
X200236250Y-72443750D01*
X200856250Y-72443750D01*
X200856250Y-71893750D01*
X200453100Y-71893750D01*
X200416260Y-71896649D01*
X200416254Y-71896650D01*
X200251060Y-71944644D01*
X200250365Y-71942254D01*
X200239700Y-71948071D01*
X200216440Y-71946394D01*
X200193297Y-71949248D01*
X200182245Y-71943929D01*
X200170011Y-71943048D01*
X200151350Y-71929062D01*
X200130338Y-71918951D01*
X200122542Y-71907471D01*
X200114101Y-71901145D01*
X200100339Y-71874777D01*
X200097203Y-71870159D01*
X200018935Y-71659958D01*
X200017291Y-71636793D01*
X200011162Y-71614395D01*
X200014864Y-71602598D01*
X200013989Y-71590264D01*
X200025130Y-71569886D01*
X200032084Y-71547731D01*
X200041575Y-71539809D01*
X200047508Y-71528959D01*
X200067897Y-71517840D01*
X200085725Y-71502961D01*
X200097993Y-71501428D01*
X200108850Y-71495508D01*
X200132014Y-71497177D01*
X200155056Y-71494299D01*
X200170691Y-71499965D01*
G37*
%TD.AperFunction*%
%TA.AperFunction,Conductor*%
G36*
X202774789Y-64820184D02*
G01*
X202820544Y-64872988D01*
X202831750Y-64924499D01*
X202831750Y-66687301D01*
X202812065Y-66754340D01*
X202759261Y-66800095D01*
X202755719Y-66800604D01*
X202805675Y-66836628D01*
X202831256Y-66901646D01*
X202831750Y-66912698D01*
X202831750Y-70819250D01*
X202812065Y-70886289D01*
X202759261Y-70932044D01*
X202707750Y-70943250D01*
X202468250Y-70943250D01*
X202401211Y-70923565D01*
X202355456Y-70870761D01*
X202344250Y-70819250D01*
X202344250Y-70578063D01*
X202344249Y-70578048D01*
X202341348Y-70541182D01*
X202341347Y-70541176D01*
X202305448Y-70417614D01*
X202295494Y-70383352D01*
X202234885Y-70280868D01*
X202217703Y-70213146D01*
X202239863Y-70146884D01*
X202294329Y-70103120D01*
X202341616Y-70093749D01*
X202368749Y-70093748D01*
X202368750Y-70093748D01*
X202368750Y-67693750D01*
X202368749Y-67693749D01*
X202306259Y-67693750D01*
X202305588Y-67693785D01*
X202305445Y-67693750D01*
X202303116Y-67693751D01*
X202303115Y-67693193D01*
X202237638Y-67677521D01*
X202189267Y-67627102D01*
X202175834Y-67558536D01*
X202201603Y-67493592D01*
X202230415Y-67466843D01*
X202297844Y-67421789D01*
X202409344Y-67310289D01*
X202496949Y-67179179D01*
X202557292Y-67033497D01*
X202583519Y-66901646D01*
X202586133Y-66888507D01*
X202618518Y-66826596D01*
X202666512Y-66799265D01*
X202626547Y-66781014D01*
X202588773Y-66722236D01*
X202586133Y-66711493D01*
X202557293Y-66566508D01*
X202557292Y-66566507D01*
X202557292Y-66566503D01*
X202554347Y-66559394D01*
X202496952Y-66420827D01*
X202496945Y-66420814D01*
X202408953Y-66289125D01*
X202388075Y-66222447D01*
X202388055Y-66220234D01*
X202388055Y-64924499D01*
X202390605Y-64915813D01*
X202389317Y-64906852D01*
X202400295Y-64882811D01*
X202407740Y-64857460D01*
X202414580Y-64851532D01*
X202418342Y-64843296D01*
X202440576Y-64829006D01*
X202460544Y-64811705D01*
X202471058Y-64809417D01*
X202477120Y-64805522D01*
X202512055Y-64800499D01*
X202707750Y-64800499D01*
X202774789Y-64820184D01*
G37*
%TD.AperFunction*%
%TA.AperFunction,Conductor*%
G36*
X195099364Y-69494529D02*
G01*
X195109613Y-69496679D01*
X195123397Y-69494698D01*
X195143132Y-69503710D01*
X195164366Y-69508165D01*
X195174285Y-69517937D01*
X195186953Y-69523723D01*
X195198683Y-69541976D01*
X195214137Y-69557202D01*
X195217968Y-69571985D01*
X195224727Y-69582501D01*
X195229750Y-69617436D01*
X195229750Y-69669559D01*
X195210065Y-69736598D01*
X195157261Y-69782353D01*
X195099411Y-69792586D01*
X195099382Y-69793346D01*
X195096951Y-69793250D01*
X195096944Y-69793250D01*
X195096936Y-69793250D01*
X194818479Y-69793250D01*
X194789038Y-69784605D01*
X194759052Y-69778082D01*
X194754036Y-69774327D01*
X194751440Y-69773565D01*
X194730798Y-69756931D01*
X194679298Y-69705431D01*
X194645813Y-69644108D01*
X194650797Y-69574416D01*
X194692669Y-69518483D01*
X194758133Y-69494066D01*
X194766979Y-69493750D01*
X195096884Y-69493750D01*
X195099330Y-69493654D01*
X195099364Y-69494529D01*
G37*
%TD.AperFunction*%
%TA.AperFunction,Conductor*%
G36*
X201609072Y-67580680D02*
G01*
X201708710Y-67600500D01*
X201857495Y-67600500D01*
X201924534Y-67620185D01*
X201970289Y-67672989D01*
X201980233Y-67742147D01*
X201951208Y-67805703D01*
X201939443Y-67817562D01*
X201788551Y-67950435D01*
X201760305Y-67963607D01*
X201732960Y-67978539D01*
X201728910Y-67978249D01*
X201725230Y-67979966D01*
X201694354Y-67975778D01*
X201663269Y-67973555D01*
X201659337Y-67971028D01*
X201655994Y-67970575D01*
X201647917Y-67963689D01*
X201618922Y-67945054D01*
X201524905Y-67851037D01*
X201501892Y-67836843D01*
X201495838Y-67830112D01*
X201487533Y-67826504D01*
X201472838Y-67804542D01*
X201455167Y-67784896D01*
X201453712Y-67775958D01*
X201448678Y-67768434D01*
X201448189Y-67742018D01*
X201443944Y-67715933D01*
X201447518Y-67705779D01*
X201447385Y-67698577D01*
X201461450Y-67666206D01*
X201479342Y-67637199D01*
X201531290Y-67590475D01*
X201600253Y-67579254D01*
X201609072Y-67580680D01*
G37*
%TD.AperFunction*%
%TA.AperFunction,Conductor*%
G36*
X199499817Y-64739672D02*
G01*
X199499886Y-64739546D01*
X199501059Y-64740186D01*
X199505063Y-64741845D01*
X199507669Y-64743796D01*
X199507670Y-64743796D01*
X199507671Y-64743797D01*
X199642517Y-64794091D01*
X199642516Y-64794091D01*
X199649083Y-64794797D01*
X199702127Y-64800500D01*
X200797872Y-64800499D01*
X200857483Y-64794091D01*
X200992128Y-64743871D01*
X201009907Y-64742600D01*
X201026611Y-64736370D01*
X201044032Y-64740159D01*
X201061815Y-64738888D01*
X201077463Y-64747432D01*
X201094884Y-64751222D01*
X201123133Y-64772369D01*
X201123135Y-64772370D01*
X201123138Y-64772373D01*
X201150736Y-64799971D01*
X201184221Y-64861294D01*
X201187055Y-64887652D01*
X201187055Y-65416543D01*
X201167370Y-65483582D01*
X201114566Y-65529337D01*
X201045408Y-65539281D01*
X201024054Y-65534250D01*
X201008949Y-65529245D01*
X201008940Y-65529243D01*
X200906236Y-65518750D01*
X200856250Y-65518750D01*
X200856250Y-66619750D01*
X200836565Y-66686789D01*
X200783761Y-66732544D01*
X200732250Y-66743750D01*
X200480250Y-66743750D01*
X200413211Y-66724065D01*
X200367456Y-66671261D01*
X200356250Y-66619750D01*
X200356250Y-66140722D01*
X200365689Y-66093269D01*
X200369737Y-66083497D01*
X200400500Y-65928842D01*
X200400500Y-65771158D01*
X200400500Y-65771155D01*
X200400499Y-65771153D01*
X200369739Y-65616511D01*
X200369738Y-65616508D01*
X200369737Y-65616503D01*
X200309394Y-65470821D01*
X200284887Y-65434144D01*
X200221789Y-65339711D01*
X200221786Y-65339707D01*
X200110292Y-65228213D01*
X200110288Y-65228210D01*
X199979185Y-65140609D01*
X199979172Y-65140602D01*
X199833501Y-65080264D01*
X199833489Y-65080261D01*
X199678845Y-65049500D01*
X199678842Y-65049500D01*
X199521158Y-65049500D01*
X199454940Y-65062671D01*
X199433955Y-65060792D01*
X199413103Y-65063791D01*
X199399853Y-65057740D01*
X199385349Y-65056442D01*
X199368713Y-65043518D01*
X199349547Y-65034766D01*
X199341672Y-65022512D01*
X199330172Y-65013579D01*
X199323163Y-64993712D01*
X199311773Y-64975988D01*
X199308238Y-64951402D01*
X199306928Y-64947689D01*
X199306750Y-64941053D01*
X199306750Y-64841110D01*
X199326435Y-64774071D01*
X199379239Y-64728316D01*
X199448397Y-64718372D01*
X199499817Y-64739672D01*
G37*
%TD.AperFunction*%
%TA.AperFunction,Conductor*%
G36*
X193368039Y-57104685D02*
G01*
X193413794Y-57157489D01*
X193425000Y-57209000D01*
X193425000Y-58096402D01*
X193405315Y-58163441D01*
X193352511Y-58209196D01*
X193283353Y-58219140D01*
X193219797Y-58190115D01*
X193213319Y-58184083D01*
X193101067Y-58071831D01*
X193067582Y-58010508D01*
X193072566Y-57940816D01*
X193082016Y-57921029D01*
X193126744Y-57845398D01*
X193172598Y-57687569D01*
X193175500Y-57650694D01*
X193175500Y-57209000D01*
X193178050Y-57200314D01*
X193176762Y-57191353D01*
X193187740Y-57167312D01*
X193195185Y-57141961D01*
X193202025Y-57136033D01*
X193205787Y-57127797D01*
X193228021Y-57113507D01*
X193247989Y-57096206D01*
X193258503Y-57093918D01*
X193264565Y-57090023D01*
X193299500Y-57085000D01*
X193301000Y-57085000D01*
X193368039Y-57104685D01*
G37*
%TD.AperFunction*%
%TA.AperFunction,Conductor*%
G36*
X195913590Y-50111912D02*
G01*
X196599342Y-50292244D01*
X196605262Y-50293959D01*
X197632228Y-50619368D01*
X197638882Y-50621688D01*
X198900913Y-51102482D01*
X198908142Y-51105503D01*
X200364435Y-51769177D01*
X200372159Y-51773028D01*
X201987488Y-52650093D01*
X201993429Y-52653536D01*
X202838447Y-53175157D01*
X202842514Y-53177779D01*
X203704714Y-53758067D01*
X203715314Y-53765201D01*
X203719445Y-53768105D01*
X204140683Y-54077256D01*
X204610403Y-54421988D01*
X204614504Y-54425134D01*
X204962682Y-54703900D01*
X205518398Y-55148831D01*
X205522505Y-55152267D01*
X205546708Y-55173423D01*
X206434432Y-55949384D01*
X206438451Y-55953056D01*
X207353360Y-56827100D01*
X207357311Y-56831049D01*
X207483719Y-56963226D01*
X208270154Y-57785551D01*
X208273991Y-57789752D01*
X209179763Y-58828308D01*
X209183445Y-58832733D01*
X210077142Y-59958980D01*
X210080641Y-59963608D01*
X210160824Y-60074983D01*
X210940488Y-61157946D01*
X210957186Y-61181139D01*
X210960471Y-61185937D01*
X211135089Y-61454191D01*
X211814825Y-62498429D01*
X211817882Y-62503374D01*
X212644978Y-63914523D01*
X212647784Y-63919577D01*
X213118019Y-64815094D01*
X213442035Y-65432152D01*
X213442485Y-65433008D01*
X213445026Y-65438132D01*
X213458291Y-65466502D01*
X214202226Y-67057589D01*
X214204499Y-67062754D01*
X214919005Y-68791843D01*
X214921006Y-68797009D01*
X215587677Y-70639524D01*
X215589409Y-70644659D01*
X215860364Y-71509957D01*
X216187483Y-72554618D01*
X216202989Y-72604135D01*
X216204460Y-72609209D01*
X216759756Y-74689411D01*
X216760977Y-74694396D01*
X217252724Y-76898907D01*
X217253708Y-76903779D01*
X217676647Y-79236201D01*
X217677412Y-79240942D01*
X218026269Y-81704836D01*
X218026833Y-81709429D01*
X218294458Y-84290241D01*
X218295114Y-84301947D01*
X218312432Y-86283387D01*
X218312226Y-86291709D01*
X218184178Y-88481776D01*
X218183433Y-88489908D01*
X217890464Y-90835203D01*
X217889144Y-90843484D01*
X217412200Y-93298180D01*
X217410194Y-93306833D01*
X216730561Y-95825552D01*
X216727700Y-95834725D01*
X215824590Y-98379119D01*
X215821770Y-98386342D01*
X215285207Y-99642768D01*
X215282925Y-99647797D01*
X214681815Y-100898078D01*
X214679180Y-100903246D01*
X214013732Y-102136140D01*
X214010709Y-102141426D01*
X213278648Y-103351537D01*
X213275202Y-103356915D01*
X212474290Y-104538809D01*
X212470392Y-104544241D01*
X211598304Y-105692633D01*
X211593929Y-105698068D01*
X210648389Y-106807609D01*
X210643525Y-106812991D01*
X209622077Y-107878531D01*
X209616720Y-107883790D01*
X208516948Y-108900087D01*
X208511113Y-108905152D01*
X207330444Y-109867061D01*
X207324161Y-109871854D01*
X207121039Y-110016837D01*
X207055038Y-110039763D01*
X206987119Y-110023366D01*
X206938848Y-109972853D01*
X206925000Y-109915910D01*
X206925000Y-109575000D01*
X205900000Y-109575000D01*
X205900000Y-110475000D01*
X206091987Y-110475000D01*
X206122717Y-110484023D01*
X206153868Y-110491544D01*
X206156028Y-110493804D01*
X206159026Y-110494685D01*
X206179994Y-110518884D01*
X206202140Y-110542058D01*
X206202735Y-110545127D01*
X206204781Y-110547489D01*
X206209340Y-110579199D01*
X206215438Y-110610651D01*
X206214280Y-110613552D01*
X206214725Y-110616647D01*
X206201413Y-110645795D01*
X206189542Y-110675544D01*
X206186500Y-110678450D01*
X206185700Y-110680203D01*
X206164031Y-110699923D01*
X206082797Y-110757906D01*
X206060032Y-110774155D01*
X206053351Y-110778604D01*
X204702958Y-111616154D01*
X204695944Y-111620194D01*
X203256527Y-112387725D01*
X203249259Y-112391300D01*
X201717975Y-113083486D01*
X201710558Y-113086554D01*
X200084498Y-113697999D01*
X200077001Y-113700548D01*
X198353274Y-114225754D01*
X198345793Y-114227780D01*
X196521538Y-114661159D01*
X196514164Y-114662676D01*
X194586511Y-114998569D01*
X194579319Y-114999606D01*
X192545505Y-115232282D01*
X192538557Y-115232880D01*
X190413690Y-115355535D01*
X190399398Y-115355535D01*
X188274530Y-115232880D01*
X188267582Y-115232282D01*
X186233768Y-114999606D01*
X186226576Y-114998569D01*
X184298923Y-114662676D01*
X184291549Y-114661159D01*
X182467289Y-114227779D01*
X182459808Y-114225753D01*
X180736103Y-113700553D01*
X180728600Y-113698003D01*
X179102530Y-113086554D01*
X179095098Y-113083480D01*
X177563827Y-112391300D01*
X177556559Y-112387725D01*
X177481767Y-112347844D01*
X185250000Y-112347844D01*
X185256401Y-112407372D01*
X185256403Y-112407379D01*
X185306645Y-112542086D01*
X185306649Y-112542093D01*
X185392809Y-112657187D01*
X185392812Y-112657190D01*
X185507906Y-112743350D01*
X185507913Y-112743354D01*
X185642620Y-112793596D01*
X185642627Y-112793598D01*
X185702155Y-112799999D01*
X185702172Y-112800000D01*
X186275000Y-112800000D01*
X186775000Y-112800000D01*
X187347828Y-112800000D01*
X187347844Y-112799999D01*
X187407372Y-112793598D01*
X187407379Y-112793596D01*
X187542086Y-112743354D01*
X187542093Y-112743350D01*
X187657187Y-112657190D01*
X187657190Y-112657187D01*
X187743350Y-112542093D01*
X187743354Y-112542086D01*
X187793596Y-112407379D01*
X187793598Y-112407372D01*
X187799999Y-112347844D01*
X193200000Y-112347844D01*
X193206401Y-112407372D01*
X193206403Y-112407379D01*
X193256645Y-112542086D01*
X193256649Y-112542093D01*
X193342809Y-112657187D01*
X193342812Y-112657190D01*
X193457906Y-112743350D01*
X193457913Y-112743354D01*
X193592620Y-112793596D01*
X193592627Y-112793598D01*
X193652155Y-112799999D01*
X193652172Y-112800000D01*
X194225000Y-112800000D01*
X194725000Y-112800000D01*
X195297828Y-112800000D01*
X195297844Y-112799999D01*
X195357372Y-112793598D01*
X195357379Y-112793596D01*
X195492086Y-112743354D01*
X195492093Y-112743350D01*
X195607187Y-112657190D01*
X195607190Y-112657187D01*
X195693350Y-112542093D01*
X195693354Y-112542086D01*
X195743596Y-112407379D01*
X195743598Y-112407372D01*
X195749999Y-112347844D01*
X195750000Y-112347827D01*
X195750000Y-111900000D01*
X194725000Y-111900000D01*
X194725000Y-112800000D01*
X194225000Y-112800000D01*
X194225000Y-111900000D01*
X193200000Y-111900000D01*
X193200000Y-112347844D01*
X187799999Y-112347844D01*
X187800000Y-112347827D01*
X187800000Y-111900000D01*
X186775000Y-111900000D01*
X186775000Y-112800000D01*
X186275000Y-112800000D01*
X186275000Y-111900000D01*
X185250000Y-111900000D01*
X185250000Y-112347844D01*
X177481767Y-112347844D01*
X176750761Y-111958055D01*
X176117137Y-111620192D01*
X176110123Y-111616152D01*
X175204125Y-111054228D01*
X175039551Y-110952155D01*
X185250000Y-110952155D01*
X185250000Y-111400000D01*
X186275000Y-111400000D01*
X186775000Y-111400000D01*
X187800000Y-111400000D01*
X187800000Y-110952172D01*
X187799999Y-110952155D01*
X193200000Y-110952155D01*
X193200000Y-111400000D01*
X194225000Y-111400000D01*
X194725000Y-111400000D01*
X195750000Y-111400000D01*
X195750000Y-110952172D01*
X195749999Y-110952155D01*
X195743598Y-110892627D01*
X195743596Y-110892620D01*
X195693354Y-110757913D01*
X195693350Y-110757906D01*
X195607190Y-110642812D01*
X195607187Y-110642809D01*
X195492093Y-110556649D01*
X195492086Y-110556645D01*
X195357379Y-110506403D01*
X195357372Y-110506401D01*
X195297844Y-110500000D01*
X194725000Y-110500000D01*
X194725000Y-111400000D01*
X194225000Y-111400000D01*
X194225000Y-110500000D01*
X193652155Y-110500000D01*
X193592627Y-110506401D01*
X193592620Y-110506403D01*
X193457913Y-110556645D01*
X193457906Y-110556649D01*
X193342812Y-110642809D01*
X193342809Y-110642812D01*
X193256649Y-110757906D01*
X193256645Y-110757913D01*
X193206403Y-110892620D01*
X193206401Y-110892627D01*
X193200000Y-110952155D01*
X187799999Y-110952155D01*
X187793598Y-110892627D01*
X187793596Y-110892620D01*
X187743354Y-110757913D01*
X187743350Y-110757906D01*
X187657190Y-110642812D01*
X187657187Y-110642809D01*
X187542093Y-110556649D01*
X187542086Y-110556645D01*
X187407379Y-110506403D01*
X187407372Y-110506401D01*
X187347844Y-110500000D01*
X186775000Y-110500000D01*
X186775000Y-111400000D01*
X186275000Y-111400000D01*
X186275000Y-110500000D01*
X185702155Y-110500000D01*
X185642627Y-110506401D01*
X185642620Y-110506403D01*
X185507913Y-110556645D01*
X185507906Y-110556649D01*
X185392812Y-110642809D01*
X185392809Y-110642812D01*
X185306649Y-110757906D01*
X185306645Y-110757913D01*
X185256403Y-110892620D01*
X185256401Y-110892627D01*
X185250000Y-110952155D01*
X175039551Y-110952155D01*
X174841595Y-110829377D01*
X174794999Y-110777314D01*
X174783948Y-110708324D01*
X174811950Y-110644311D01*
X174870114Y-110605598D01*
X174906953Y-110600000D01*
X175000000Y-110600000D01*
X175500000Y-110600000D01*
X176072828Y-110600000D01*
X176072844Y-110599999D01*
X176132372Y-110593598D01*
X176132379Y-110593596D01*
X176267086Y-110543354D01*
X176267093Y-110543350D01*
X176382187Y-110457190D01*
X176382190Y-110457187D01*
X176468350Y-110342093D01*
X176468354Y-110342086D01*
X176518596Y-110207379D01*
X176518598Y-110207372D01*
X176524999Y-110147844D01*
X181925000Y-110147844D01*
X181931401Y-110207372D01*
X181931403Y-110207379D01*
X181981645Y-110342086D01*
X181981649Y-110342093D01*
X182067809Y-110457187D01*
X182067812Y-110457190D01*
X182182906Y-110543350D01*
X182182913Y-110543354D01*
X182317620Y-110593596D01*
X182317627Y-110593598D01*
X182377155Y-110599999D01*
X182377172Y-110600000D01*
X182950000Y-110600000D01*
X183450000Y-110600000D01*
X184022828Y-110600000D01*
X184022844Y-110599999D01*
X184082372Y-110593598D01*
X184082379Y-110593596D01*
X184217086Y-110543354D01*
X184217093Y-110543350D01*
X184332187Y-110457190D01*
X184332190Y-110457187D01*
X184418350Y-110342093D01*
X184418354Y-110342086D01*
X184468596Y-110207379D01*
X184468598Y-110207372D01*
X184474999Y-110147844D01*
X184475000Y-110147827D01*
X184475000Y-110022844D01*
X196425000Y-110022844D01*
X196431401Y-110082372D01*
X196431403Y-110082379D01*
X196481645Y-110217086D01*
X196481649Y-110217093D01*
X196567809Y-110332187D01*
X196567812Y-110332190D01*
X196682906Y-110418350D01*
X196682913Y-110418354D01*
X196817620Y-110468596D01*
X196817627Y-110468598D01*
X196877155Y-110474999D01*
X196877172Y-110475000D01*
X197450000Y-110475000D01*
X197950000Y-110475000D01*
X198522828Y-110475000D01*
X198522844Y-110474999D01*
X198582372Y-110468598D01*
X198582379Y-110468596D01*
X198717086Y-110418354D01*
X198717093Y-110418350D01*
X198832187Y-110332190D01*
X198832190Y-110332187D01*
X198918350Y-110217093D01*
X198918354Y-110217086D01*
X198968596Y-110082379D01*
X198968598Y-110082372D01*
X198974999Y-110022844D01*
X204375000Y-110022844D01*
X204381401Y-110082372D01*
X204381403Y-110082379D01*
X204431645Y-110217086D01*
X204431649Y-110217093D01*
X204517809Y-110332187D01*
X204517812Y-110332190D01*
X204632906Y-110418350D01*
X204632913Y-110418354D01*
X204767620Y-110468596D01*
X204767627Y-110468598D01*
X204827155Y-110474999D01*
X204827172Y-110475000D01*
X205400000Y-110475000D01*
X205400000Y-109575000D01*
X204375000Y-109575000D01*
X204375000Y-110022844D01*
X198974999Y-110022844D01*
X198975000Y-110022827D01*
X198975000Y-109575000D01*
X197950000Y-109575000D01*
X197950000Y-110475000D01*
X197450000Y-110475000D01*
X197450000Y-109575000D01*
X196425000Y-109575000D01*
X196425000Y-110022844D01*
X184475000Y-110022844D01*
X184475000Y-109700000D01*
X183450000Y-109700000D01*
X183450000Y-110600000D01*
X182950000Y-110600000D01*
X182950000Y-109700000D01*
X181925000Y-109700000D01*
X181925000Y-110147844D01*
X176524999Y-110147844D01*
X176525000Y-110147827D01*
X176525000Y-109700000D01*
X175500000Y-109700000D01*
X175500000Y-110600000D01*
X175000000Y-110600000D01*
X175000000Y-109700000D01*
X173975000Y-109700000D01*
X173975000Y-109977946D01*
X173955315Y-110044985D01*
X173902511Y-110090740D01*
X173833353Y-110100684D01*
X173778961Y-110078874D01*
X173488919Y-109871851D01*
X173482636Y-109867057D01*
X173179113Y-109619772D01*
X172301974Y-108905153D01*
X172296139Y-108900088D01*
X172231029Y-108839920D01*
X172136055Y-108752155D01*
X173975000Y-108752155D01*
X173975000Y-109200000D01*
X175000000Y-109200000D01*
X175500000Y-109200000D01*
X176525000Y-109200000D01*
X176525000Y-108752172D01*
X176524999Y-108752155D01*
X181925000Y-108752155D01*
X181925000Y-109200000D01*
X182950000Y-109200000D01*
X183450000Y-109200000D01*
X184475000Y-109200000D01*
X184475000Y-108752172D01*
X184474999Y-108752155D01*
X184468598Y-108692627D01*
X184468596Y-108692616D01*
X184459110Y-108667183D01*
X184444180Y-108627155D01*
X196425000Y-108627155D01*
X196425000Y-109075000D01*
X197450000Y-109075000D01*
X197950000Y-109075000D01*
X198975000Y-109075000D01*
X198975000Y-108627172D01*
X198974999Y-108627155D01*
X204375000Y-108627155D01*
X204375000Y-109075000D01*
X205400000Y-109075000D01*
X205900000Y-109075000D01*
X206925000Y-109075000D01*
X206925000Y-108627172D01*
X206924999Y-108627155D01*
X206918598Y-108567627D01*
X206918596Y-108567620D01*
X206868354Y-108432913D01*
X206868350Y-108432906D01*
X206782190Y-108317812D01*
X206782187Y-108317809D01*
X206667093Y-108231649D01*
X206667086Y-108231645D01*
X206532379Y-108181403D01*
X206532372Y-108181401D01*
X206472844Y-108175000D01*
X205900000Y-108175000D01*
X205900000Y-109075000D01*
X205400000Y-109075000D01*
X205400000Y-108175000D01*
X204827155Y-108175000D01*
X204767627Y-108181401D01*
X204767620Y-108181403D01*
X204632913Y-108231645D01*
X204632906Y-108231649D01*
X204517812Y-108317809D01*
X204517809Y-108317812D01*
X204431649Y-108432906D01*
X204431645Y-108432913D01*
X204381403Y-108567620D01*
X204381401Y-108567627D01*
X204375000Y-108627155D01*
X198974999Y-108627155D01*
X198968598Y-108567627D01*
X198968596Y-108567620D01*
X198918354Y-108432913D01*
X198918350Y-108432906D01*
X198832190Y-108317812D01*
X198832187Y-108317809D01*
X198717093Y-108231649D01*
X198717086Y-108231645D01*
X198582379Y-108181403D01*
X198582372Y-108181401D01*
X198522844Y-108175000D01*
X197950000Y-108175000D01*
X197950000Y-109075000D01*
X197450000Y-109075000D01*
X197450000Y-108175000D01*
X196877155Y-108175000D01*
X196817627Y-108181401D01*
X196817620Y-108181403D01*
X196682913Y-108231645D01*
X196682906Y-108231649D01*
X196567812Y-108317809D01*
X196567809Y-108317812D01*
X196481649Y-108432906D01*
X196481645Y-108432913D01*
X196431403Y-108567620D01*
X196431401Y-108567627D01*
X196425000Y-108627155D01*
X184444180Y-108627155D01*
X184418354Y-108557913D01*
X184418350Y-108557906D01*
X184332190Y-108442812D01*
X184332187Y-108442809D01*
X184217093Y-108356649D01*
X184217086Y-108356645D01*
X184082379Y-108306403D01*
X184082372Y-108306401D01*
X184022844Y-108300000D01*
X183450000Y-108300000D01*
X183450000Y-109200000D01*
X182950000Y-109200000D01*
X182950000Y-108300000D01*
X182377155Y-108300000D01*
X182317627Y-108306401D01*
X182317620Y-108306403D01*
X182182913Y-108356645D01*
X182182906Y-108356649D01*
X182067812Y-108442809D01*
X182067809Y-108442812D01*
X181981649Y-108557906D01*
X181981645Y-108557913D01*
X181931403Y-108692620D01*
X181931401Y-108692627D01*
X181925000Y-108752155D01*
X176524999Y-108752155D01*
X176518598Y-108692627D01*
X176518596Y-108692620D01*
X176468354Y-108557913D01*
X176468350Y-108557906D01*
X176382190Y-108442812D01*
X176382187Y-108442809D01*
X176267093Y-108356649D01*
X176267086Y-108356645D01*
X176132379Y-108306403D01*
X176132372Y-108306401D01*
X176072844Y-108300000D01*
X175500000Y-108300000D01*
X175500000Y-109200000D01*
X175000000Y-109200000D01*
X175000000Y-108300000D01*
X174427155Y-108300000D01*
X174367627Y-108306401D01*
X174367620Y-108306403D01*
X174232913Y-108356645D01*
X174232906Y-108356649D01*
X174117812Y-108442809D01*
X174117809Y-108442812D01*
X174031649Y-108557906D01*
X174031645Y-108557913D01*
X173981403Y-108692620D01*
X173981401Y-108692627D01*
X173975000Y-108752155D01*
X172136055Y-108752155D01*
X171666038Y-108317812D01*
X171196375Y-107883797D01*
X171191018Y-107878538D01*
X170169562Y-106812991D01*
X170164698Y-106807609D01*
X169861767Y-106452135D01*
X169219143Y-105698050D01*
X169214783Y-105692633D01*
X168342674Y-104544211D01*
X168338784Y-104538790D01*
X167537885Y-103356911D01*
X167534457Y-103351562D01*
X166802379Y-102141425D01*
X166799358Y-102136141D01*
X166799357Y-102136140D01*
X166378028Y-101355530D01*
X166133902Y-100903230D01*
X166131267Y-100898062D01*
X165530165Y-99647798D01*
X165527883Y-99642769D01*
X165452497Y-99466243D01*
X165337792Y-99197648D01*
X169199500Y-99197648D01*
X169199500Y-99402351D01*
X169231522Y-99604534D01*
X169294781Y-99799223D01*
X169387715Y-99981613D01*
X169508028Y-100147213D01*
X169652786Y-100291971D01*
X169803621Y-100401557D01*
X169818390Y-100412287D01*
X169899291Y-100453508D01*
X170000776Y-100505218D01*
X170000778Y-100505218D01*
X170000781Y-100505220D01*
X170046808Y-100520175D01*
X170195465Y-100568477D01*
X170296557Y-100584488D01*
X170397648Y-100600500D01*
X170397649Y-100600500D01*
X170602351Y-100600500D01*
X170602352Y-100600500D01*
X170804534Y-100568477D01*
X170999219Y-100505220D01*
X171181610Y-100412287D01*
X171274590Y-100344732D01*
X171347213Y-100291971D01*
X171347215Y-100291968D01*
X171347219Y-100291966D01*
X171491966Y-100147219D01*
X171491968Y-100147215D01*
X171491971Y-100147213D01*
X171577523Y-100029459D01*
X171612287Y-99981610D01*
X171705220Y-99799219D01*
X171768477Y-99604534D01*
X171800500Y-99402352D01*
X171800500Y-99197648D01*
X171793825Y-99155503D01*
X171768477Y-98995465D01*
X171727898Y-98870577D01*
X171705220Y-98800781D01*
X171705218Y-98800778D01*
X171705218Y-98800776D01*
X171647933Y-98688349D01*
X171612287Y-98618390D01*
X171604556Y-98607749D01*
X171491971Y-98452786D01*
X171347213Y-98308028D01*
X171181613Y-98187715D01*
X171181612Y-98187714D01*
X171181610Y-98187713D01*
X171120691Y-98156673D01*
X170999223Y-98094781D01*
X170804534Y-98031522D01*
X170629995Y-98003878D01*
X170602352Y-97999500D01*
X170397648Y-97999500D01*
X170373329Y-98003351D01*
X170195465Y-98031522D01*
X170000776Y-98094781D01*
X169818386Y-98187715D01*
X169652786Y-98308028D01*
X169508028Y-98452786D01*
X169387715Y-98618386D01*
X169294781Y-98800776D01*
X169231522Y-98995465D01*
X169199500Y-99197648D01*
X165337792Y-99197648D01*
X164991317Y-98386334D01*
X164988501Y-98379120D01*
X164963005Y-98307289D01*
X164097144Y-95867838D01*
X164085393Y-95834730D01*
X164082532Y-95825557D01*
X163402897Y-93306828D01*
X163400891Y-93298175D01*
X163365594Y-93116510D01*
X162923946Y-90843469D01*
X162922631Y-90835221D01*
X162629659Y-88489889D01*
X162628917Y-88481797D01*
X162500868Y-86291696D01*
X162500663Y-86283388D01*
X162517984Y-84301789D01*
X162518632Y-84290175D01*
X162785170Y-81708941D01*
X162785713Y-81704482D01*
X162786800Y-81696734D01*
X163131306Y-79239939D01*
X163132044Y-79235323D01*
X163146995Y-79151787D01*
X163549597Y-76902364D01*
X163550541Y-76897626D01*
X163860013Y-75488713D01*
X169099500Y-75488713D01*
X169099500Y-75701287D01*
X169105361Y-75738293D01*
X169120229Y-75832167D01*
X169132754Y-75911243D01*
X169154439Y-75977983D01*
X169198444Y-76113414D01*
X169294951Y-76302820D01*
X169419890Y-76474786D01*
X169570213Y-76625109D01*
X169742179Y-76750048D01*
X169742181Y-76750049D01*
X169742184Y-76750051D01*
X169751493Y-76754794D01*
X169802290Y-76802766D01*
X169819087Y-76870587D01*
X169796552Y-76936722D01*
X169751502Y-76975762D01*
X169742443Y-76980378D01*
X169570540Y-77105272D01*
X169570535Y-77105276D01*
X169420276Y-77255535D01*
X169420272Y-77255540D01*
X169295379Y-77427442D01*
X169198904Y-77616782D01*
X169133242Y-77818870D01*
X169133242Y-77818873D01*
X169122769Y-77885000D01*
X170016988Y-77885000D01*
X169984075Y-77942007D01*
X169950000Y-78069174D01*
X169950000Y-78200826D01*
X169984075Y-78327993D01*
X170016988Y-78385000D01*
X169122769Y-78385000D01*
X169133242Y-78451126D01*
X169133242Y-78451129D01*
X169198904Y-78653217D01*
X169295379Y-78842557D01*
X169420272Y-79014459D01*
X169420276Y-79014464D01*
X169570535Y-79164723D01*
X169570540Y-79164727D01*
X169742444Y-79289622D01*
X169751495Y-79294234D01*
X169802292Y-79342208D01*
X169819087Y-79410029D01*
X169796550Y-79476164D01*
X169751499Y-79515202D01*
X169742182Y-79519949D01*
X169570213Y-79644890D01*
X169419890Y-79795213D01*
X169294951Y-79967179D01*
X169198444Y-80156585D01*
X169132753Y-80358760D01*
X169101939Y-80553311D01*
X169099500Y-80568713D01*
X169099500Y-80781287D01*
X169104357Y-80811953D01*
X169132398Y-80989000D01*
X169132754Y-80991243D01*
X169187319Y-81159177D01*
X169198444Y-81193414D01*
X169294951Y-81382820D01*
X169419890Y-81554786D01*
X169570213Y-81705109D01*
X169742182Y-81830050D01*
X169750946Y-81834516D01*
X169801742Y-81882491D01*
X169818536Y-81950312D01*
X169795998Y-82016447D01*
X169750946Y-82055484D01*
X169742182Y-82059949D01*
X169570213Y-82184890D01*
X169419890Y-82335213D01*
X169294951Y-82507179D01*
X169198444Y-82696585D01*
X169132753Y-82898760D01*
X169099500Y-83108713D01*
X169099500Y-83321286D01*
X169125867Y-83487765D01*
X169132754Y-83531243D01*
X169189536Y-83706000D01*
X169198444Y-83733414D01*
X169294951Y-83922820D01*
X169419890Y-84094786D01*
X169570213Y-84245109D01*
X169742182Y-84370050D01*
X169750946Y-84374516D01*
X169801742Y-84422491D01*
X169818536Y-84490312D01*
X169795998Y-84556447D01*
X169750946Y-84595484D01*
X169742182Y-84599949D01*
X169570213Y-84724890D01*
X169419890Y-84875213D01*
X169294951Y-85047179D01*
X169198444Y-85236585D01*
X169132753Y-85438760D01*
X169099500Y-85648713D01*
X169099500Y-85861286D01*
X169128229Y-86042678D01*
X169132754Y-86071243D01*
X169192643Y-86255563D01*
X169198444Y-86273414D01*
X169294951Y-86462820D01*
X169419890Y-86634786D01*
X169570213Y-86785109D01*
X169742182Y-86910050D01*
X169750946Y-86914516D01*
X169801742Y-86962491D01*
X169818536Y-87030312D01*
X169795998Y-87096447D01*
X169750946Y-87135484D01*
X169742182Y-87139949D01*
X169570213Y-87264890D01*
X169419890Y-87415213D01*
X169294951Y-87587179D01*
X169198444Y-87776585D01*
X169132753Y-87978760D01*
X169099500Y-88188713D01*
X169099500Y-88401286D01*
X169132238Y-88607990D01*
X169132754Y-88611243D01*
X169192078Y-88793824D01*
X169198444Y-88813414D01*
X169294951Y-89002820D01*
X169419890Y-89174786D01*
X169533430Y-89288326D01*
X169566915Y-89349649D01*
X169561931Y-89419341D01*
X169520059Y-89475274D01*
X169489083Y-89492189D01*
X169357669Y-89541203D01*
X169357664Y-89541206D01*
X169242455Y-89627452D01*
X169242452Y-89627455D01*
X169156206Y-89742664D01*
X169156202Y-89742671D01*
X169105908Y-89877517D01*
X169099501Y-89937116D01*
X169099500Y-89937135D01*
X169099500Y-91732870D01*
X169099501Y-91732876D01*
X169105908Y-91792483D01*
X169156202Y-91927328D01*
X169156206Y-91927335D01*
X169242452Y-92042544D01*
X169242455Y-92042547D01*
X169357664Y-92128793D01*
X169357671Y-92128797D01*
X169492517Y-92179091D01*
X169492516Y-92179091D01*
X169499444Y-92179835D01*
X169552127Y-92185500D01*
X171347872Y-92185499D01*
X171407483Y-92179091D01*
X171542331Y-92128796D01*
X171657546Y-92042546D01*
X171743796Y-91927331D01*
X171794091Y-91792483D01*
X171800500Y-91732873D01*
X171800499Y-90850095D01*
X171820183Y-90783057D01*
X171836813Y-90762420D01*
X174662416Y-87936819D01*
X174723739Y-87903334D01*
X174750097Y-87900500D01*
X182163391Y-87900500D01*
X182230430Y-87920185D01*
X182276185Y-87972989D01*
X182286129Y-88042147D01*
X182257104Y-88105703D01*
X182251072Y-88112181D01*
X180487584Y-89875671D01*
X180426261Y-89909156D01*
X180399903Y-89911990D01*
X179624180Y-89911990D01*
X179624164Y-89911989D01*
X179616568Y-89911989D01*
X179458453Y-89911989D01*
X179429538Y-89919737D01*
X179314733Y-89950498D01*
X179314734Y-89950499D01*
X179305728Y-89952912D01*
X179305719Y-89952916D01*
X179168800Y-90031965D01*
X179168792Y-90031971D01*
X179082284Y-90118480D01*
X178847384Y-90353381D01*
X173864186Y-95336578D01*
X173517481Y-95683282D01*
X173517477Y-95683287D01*
X173478674Y-95750498D01*
X173478674Y-95750499D01*
X173438423Y-95820214D01*
X173433863Y-95837234D01*
X173397499Y-95972943D01*
X173397499Y-95972945D01*
X173397499Y-96141046D01*
X173397500Y-96141059D01*
X173397500Y-102178430D01*
X173397499Y-102178448D01*
X173397499Y-102344154D01*
X173397498Y-102344154D01*
X173438424Y-102496889D01*
X173438425Y-102496890D01*
X173459504Y-102533399D01*
X173459505Y-102533400D01*
X173517477Y-102633812D01*
X173517481Y-102633817D01*
X173646720Y-102763056D01*
X173646725Y-102763060D01*
X173802143Y-102918479D01*
X173871249Y-102987585D01*
X173871255Y-102987590D01*
X174475044Y-103591379D01*
X174508529Y-103652702D01*
X174503545Y-103722394D01*
X174461673Y-103778327D01*
X174400619Y-103802349D01*
X174367519Y-103805907D01*
X174232671Y-103856202D01*
X174232664Y-103856206D01*
X174117455Y-103942452D01*
X174117452Y-103942455D01*
X174031206Y-104057664D01*
X174031202Y-104057671D01*
X173980908Y-104192517D01*
X173974501Y-104252116D01*
X173974500Y-104252135D01*
X173974500Y-105647870D01*
X173974501Y-105647876D01*
X173980908Y-105707483D01*
X174031202Y-105842328D01*
X174031206Y-105842335D01*
X174117452Y-105957544D01*
X174117455Y-105957547D01*
X174232664Y-106043793D01*
X174232671Y-106043797D01*
X174367517Y-106094091D01*
X174367516Y-106094091D01*
X174374444Y-106094835D01*
X174427127Y-106100500D01*
X176072872Y-106100499D01*
X176132483Y-106094091D01*
X176267331Y-106043796D01*
X176382546Y-105957546D01*
X176468796Y-105842331D01*
X176519091Y-105707483D01*
X176524062Y-105661242D01*
X176550799Y-105596694D01*
X176608191Y-105556846D01*
X176647351Y-105550500D01*
X181802649Y-105550500D01*
X181869688Y-105570185D01*
X181915443Y-105622989D01*
X181925939Y-105661248D01*
X181930908Y-105707483D01*
X181981202Y-105842328D01*
X181981206Y-105842335D01*
X182067452Y-105957544D01*
X182067455Y-105957547D01*
X182182664Y-106043793D01*
X182182671Y-106043797D01*
X182317517Y-106094091D01*
X182317516Y-106094091D01*
X182324444Y-106094835D01*
X182377127Y-106100500D01*
X184022872Y-106100499D01*
X184082483Y-106094091D01*
X184217331Y-106043796D01*
X184332546Y-105957546D01*
X184418796Y-105842331D01*
X184469091Y-105707483D01*
X184475500Y-105647873D01*
X184475499Y-105347094D01*
X184495183Y-105280057D01*
X184547987Y-105234302D01*
X184617146Y-105224358D01*
X184680701Y-105253383D01*
X184687176Y-105259412D01*
X185050753Y-105622989D01*
X185393654Y-105965890D01*
X185427139Y-106027213D01*
X185422155Y-106096905D01*
X185397552Y-106135193D01*
X185397768Y-106135355D01*
X185395509Y-106138371D01*
X185393666Y-106141241D01*
X185392454Y-106142452D01*
X185306206Y-106257664D01*
X185306202Y-106257671D01*
X185255908Y-106392517D01*
X185249501Y-106452116D01*
X185249501Y-106452123D01*
X185249500Y-106452135D01*
X185249500Y-107847870D01*
X185249501Y-107847876D01*
X185255908Y-107907483D01*
X185306202Y-108042328D01*
X185306206Y-108042335D01*
X185392452Y-108157544D01*
X185392455Y-108157547D01*
X185507664Y-108243793D01*
X185507671Y-108243797D01*
X185642517Y-108294091D01*
X185642516Y-108294091D01*
X185649444Y-108294835D01*
X185702127Y-108300500D01*
X187347872Y-108300499D01*
X187407483Y-108294091D01*
X187542331Y-108243796D01*
X187657546Y-108157546D01*
X187743796Y-108042331D01*
X187794091Y-107907483D01*
X187799062Y-107861242D01*
X187825799Y-107796694D01*
X187883191Y-107756846D01*
X187922351Y-107750500D01*
X193077649Y-107750500D01*
X193144688Y-107770185D01*
X193190443Y-107822989D01*
X193200939Y-107861248D01*
X193205908Y-107907483D01*
X193256202Y-108042328D01*
X193256206Y-108042335D01*
X193342452Y-108157544D01*
X193342455Y-108157547D01*
X193457664Y-108243793D01*
X193457671Y-108243797D01*
X193592517Y-108294091D01*
X193592516Y-108294091D01*
X193599444Y-108294835D01*
X193652127Y-108300500D01*
X195297872Y-108300499D01*
X195357483Y-108294091D01*
X195492331Y-108243796D01*
X195607546Y-108157546D01*
X195693796Y-108042331D01*
X195744091Y-107907483D01*
X195750500Y-107847873D01*
X195750499Y-106452128D01*
X195744091Y-106392517D01*
X195736894Y-106373222D01*
X195693797Y-106257671D01*
X195693793Y-106257664D01*
X195607547Y-106142455D01*
X195607544Y-106142452D01*
X195492335Y-106056206D01*
X195492328Y-106056202D01*
X195357482Y-106005908D01*
X195357483Y-106005908D01*
X195297883Y-105999501D01*
X195297881Y-105999500D01*
X195297873Y-105999500D01*
X195297864Y-105999500D01*
X193652129Y-105999500D01*
X193652123Y-105999501D01*
X193592516Y-106005908D01*
X193457671Y-106056202D01*
X193457664Y-106056206D01*
X193342455Y-106142452D01*
X193342452Y-106142455D01*
X193256206Y-106257664D01*
X193256202Y-106257671D01*
X193205910Y-106392513D01*
X193205909Y-106392517D01*
X193200937Y-106438757D01*
X193174201Y-106503306D01*
X193116809Y-106543154D01*
X193077649Y-106549500D01*
X187922351Y-106549500D01*
X187855312Y-106529815D01*
X187809557Y-106477011D01*
X187799061Y-106438752D01*
X187794091Y-106392516D01*
X187743797Y-106257671D01*
X187743793Y-106257664D01*
X187657547Y-106142455D01*
X187657544Y-106142452D01*
X187542335Y-106056206D01*
X187542328Y-106056202D01*
X187407482Y-106005908D01*
X187407483Y-106005908D01*
X187347883Y-105999501D01*
X187347881Y-105999500D01*
X187347873Y-105999500D01*
X187347865Y-105999500D01*
X187146518Y-105999500D01*
X187079479Y-105979815D01*
X187039131Y-105937499D01*
X187005524Y-105879290D01*
X187005518Y-105879282D01*
X186838417Y-105712181D01*
X186804932Y-105650858D01*
X186809916Y-105581166D01*
X186851788Y-105525233D01*
X186917252Y-105500816D01*
X186926098Y-105500500D01*
X196314236Y-105500500D01*
X196381275Y-105520185D01*
X196427030Y-105572989D01*
X196430418Y-105581167D01*
X196481202Y-105717328D01*
X196481206Y-105717335D01*
X196567452Y-105832544D01*
X196567455Y-105832547D01*
X196682664Y-105918793D01*
X196682671Y-105918797D01*
X196817517Y-105969091D01*
X196817516Y-105969091D01*
X196824444Y-105969835D01*
X196877127Y-105975500D01*
X198522872Y-105975499D01*
X198582483Y-105969091D01*
X198717331Y-105918796D01*
X198832546Y-105832546D01*
X198918796Y-105717331D01*
X198969091Y-105582483D01*
X198974062Y-105536242D01*
X199000799Y-105471694D01*
X199058191Y-105431846D01*
X199097351Y-105425500D01*
X204252649Y-105425500D01*
X204319688Y-105445185D01*
X204365443Y-105497989D01*
X204375939Y-105536248D01*
X204380908Y-105582483D01*
X204431202Y-105717328D01*
X204431206Y-105717335D01*
X204517452Y-105832544D01*
X204517455Y-105832547D01*
X204632664Y-105918793D01*
X204632671Y-105918797D01*
X204767517Y-105969091D01*
X204767516Y-105969091D01*
X204774444Y-105969835D01*
X204827127Y-105975500D01*
X206472872Y-105975499D01*
X206532483Y-105969091D01*
X206667331Y-105918796D01*
X206782546Y-105832546D01*
X206868796Y-105717331D01*
X206919091Y-105582483D01*
X206925500Y-105522873D01*
X206925499Y-104127128D01*
X206919091Y-104067517D01*
X206874832Y-103948853D01*
X206868797Y-103932671D01*
X206868793Y-103932664D01*
X206782547Y-103817455D01*
X206782544Y-103817452D01*
X206667335Y-103731206D01*
X206667328Y-103731202D01*
X206532482Y-103680908D01*
X206532483Y-103680908D01*
X206472883Y-103674501D01*
X206472881Y-103674500D01*
X206472873Y-103674500D01*
X206472864Y-103674500D01*
X204827129Y-103674500D01*
X204827123Y-103674501D01*
X204767516Y-103680908D01*
X204632671Y-103731202D01*
X204632664Y-103731206D01*
X204517455Y-103817452D01*
X204517452Y-103817455D01*
X204431206Y-103932664D01*
X204431202Y-103932671D01*
X204384582Y-104057669D01*
X204380909Y-104067517D01*
X204375937Y-104113757D01*
X204349201Y-104178306D01*
X204291809Y-104218154D01*
X204252649Y-104224500D01*
X199097351Y-104224500D01*
X199030312Y-104204815D01*
X198984557Y-104152011D01*
X198974061Y-104113752D01*
X198969091Y-104067516D01*
X198918797Y-103932671D01*
X198918793Y-103932664D01*
X198832547Y-103817455D01*
X198832544Y-103817452D01*
X198717335Y-103731206D01*
X198717328Y-103731202D01*
X198582482Y-103680908D01*
X198582483Y-103680908D01*
X198522883Y-103674501D01*
X198522881Y-103674500D01*
X198522873Y-103674500D01*
X198522864Y-103674500D01*
X196877129Y-103674500D01*
X196877123Y-103674501D01*
X196817516Y-103680908D01*
X196682671Y-103731202D01*
X196682664Y-103731206D01*
X196567455Y-103817452D01*
X196567452Y-103817455D01*
X196481206Y-103932664D01*
X196481202Y-103932671D01*
X196430908Y-104067517D01*
X196424501Y-104127116D01*
X196424501Y-104127123D01*
X196424500Y-104127135D01*
X196424500Y-104175500D01*
X196404815Y-104242539D01*
X196352011Y-104288294D01*
X196300500Y-104299500D01*
X186044198Y-104299500D01*
X185977159Y-104279815D01*
X185956517Y-104263181D01*
X184965590Y-103272255D01*
X184965588Y-103272252D01*
X184741061Y-103047726D01*
X184741059Y-103047723D01*
X184611817Y-102918481D01*
X184611816Y-102918480D01*
X184520224Y-102865600D01*
X184520223Y-102865599D01*
X184474883Y-102839422D01*
X184418981Y-102824443D01*
X184322157Y-102798499D01*
X184164043Y-102798499D01*
X184156447Y-102798499D01*
X184156431Y-102798500D01*
X176566198Y-102798500D01*
X176499159Y-102778815D01*
X176478517Y-102762181D01*
X175436819Y-101720483D01*
X175403334Y-101659160D01*
X175400500Y-101632802D01*
X175400500Y-99913079D01*
X175420185Y-99846040D01*
X175472989Y-99800285D01*
X175542147Y-99790341D01*
X175605703Y-99819366D01*
X175632497Y-99853606D01*
X175632832Y-99853402D01*
X175634618Y-99856317D01*
X175634986Y-99856787D01*
X175635377Y-99857556D01*
X175760272Y-100029459D01*
X175760276Y-100029464D01*
X175910535Y-100179723D01*
X175910540Y-100179727D01*
X176082442Y-100304620D01*
X176271782Y-100401095D01*
X176473871Y-100466757D01*
X176540000Y-100477231D01*
X176540000Y-99583012D01*
X176597007Y-99615925D01*
X176724174Y-99650000D01*
X176855826Y-99650000D01*
X176982993Y-99615925D01*
X177040000Y-99583012D01*
X177040000Y-100477230D01*
X177106126Y-100466757D01*
X177106129Y-100466757D01*
X177308217Y-100401095D01*
X177497557Y-100304620D01*
X177669459Y-100179727D01*
X177669464Y-100179723D01*
X177819723Y-100029464D01*
X177819727Y-100029459D01*
X177944620Y-99857558D01*
X177949232Y-99848507D01*
X177997205Y-99797709D01*
X178065025Y-99780912D01*
X178131161Y-99803447D01*
X178170204Y-99848504D01*
X178174949Y-99857817D01*
X178299890Y-100029786D01*
X178450213Y-100180109D01*
X178622179Y-100305048D01*
X178622181Y-100305049D01*
X178622184Y-100305051D01*
X178811588Y-100401557D01*
X179013757Y-100467246D01*
X179223713Y-100500500D01*
X179223714Y-100500500D01*
X179436286Y-100500500D01*
X179436287Y-100500500D01*
X179531728Y-100485383D01*
X179601021Y-100494337D01*
X179638807Y-100520175D01*
X180522995Y-101404362D01*
X181337015Y-102218382D01*
X181337016Y-102218383D01*
X181441551Y-102322918D01*
X181441552Y-102322919D01*
X181564465Y-102405047D01*
X181564478Y-102405054D01*
X181701049Y-102461623D01*
X181701054Y-102461625D01*
X181701058Y-102461625D01*
X181701059Y-102461626D01*
X181846046Y-102490467D01*
X181846049Y-102490467D01*
X199533953Y-102490467D01*
X199631495Y-102471063D01*
X199678946Y-102461625D01*
X199815528Y-102405051D01*
X199906663Y-102344157D01*
X199906665Y-102344156D01*
X199938442Y-102322924D01*
X199938443Y-102322922D01*
X199938449Y-102322919D01*
X202348289Y-99913079D01*
X203063721Y-99197648D01*
X208699500Y-99197648D01*
X208699500Y-99402351D01*
X208731522Y-99604534D01*
X208794781Y-99799223D01*
X208887715Y-99981613D01*
X209008028Y-100147213D01*
X209152786Y-100291971D01*
X209303621Y-100401557D01*
X209318390Y-100412287D01*
X209399291Y-100453508D01*
X209500776Y-100505218D01*
X209500778Y-100505218D01*
X209500781Y-100505220D01*
X209546808Y-100520175D01*
X209695465Y-100568477D01*
X209796557Y-100584488D01*
X209897648Y-100600500D01*
X209897649Y-100600500D01*
X210102351Y-100600500D01*
X210102352Y-100600500D01*
X210304534Y-100568477D01*
X210499219Y-100505220D01*
X210681610Y-100412287D01*
X210774590Y-100344732D01*
X210847213Y-100291971D01*
X210847215Y-100291968D01*
X210847219Y-100291966D01*
X210991966Y-100147219D01*
X210991968Y-100147215D01*
X210991971Y-100147213D01*
X211077523Y-100029459D01*
X211112287Y-99981610D01*
X211205220Y-99799219D01*
X211268477Y-99604534D01*
X211300500Y-99402352D01*
X211300500Y-99197648D01*
X211293825Y-99155503D01*
X211268477Y-98995465D01*
X211227898Y-98870577D01*
X211205220Y-98800781D01*
X211205218Y-98800778D01*
X211205218Y-98800776D01*
X211147933Y-98688349D01*
X211112287Y-98618390D01*
X211104556Y-98607749D01*
X210991971Y-98452786D01*
X210847213Y-98308028D01*
X210681613Y-98187715D01*
X210681612Y-98187714D01*
X210681610Y-98187713D01*
X210620691Y-98156673D01*
X210499223Y-98094781D01*
X210304534Y-98031522D01*
X210129995Y-98003878D01*
X210102352Y-97999500D01*
X209897648Y-97999500D01*
X209873329Y-98003351D01*
X209695465Y-98031522D01*
X209500776Y-98094781D01*
X209318386Y-98187715D01*
X209152786Y-98308028D01*
X209008028Y-98452786D01*
X208887715Y-98618386D01*
X208794781Y-98800776D01*
X208731522Y-98995465D01*
X208699500Y-99197648D01*
X203063721Y-99197648D01*
X203156274Y-99105095D01*
X204831947Y-97429421D01*
X204831950Y-97429418D01*
X204831952Y-97429416D01*
X204891713Y-97339976D01*
X204914084Y-97306495D01*
X204942263Y-97238465D01*
X204986103Y-97184061D01*
X205052397Y-97161996D01*
X205120097Y-97179275D01*
X205162362Y-97220819D01*
X205207288Y-97293656D01*
X205331344Y-97417712D01*
X205480666Y-97509814D01*
X205647203Y-97564999D01*
X205749991Y-97575500D01*
X206750008Y-97575499D01*
X206750016Y-97575498D01*
X206750019Y-97575498D01*
X206828480Y-97567483D01*
X206852797Y-97564999D01*
X207019334Y-97509814D01*
X207168656Y-97417712D01*
X207292712Y-97293656D01*
X207384814Y-97144334D01*
X207439999Y-96977797D01*
X207450500Y-96875009D01*
X207450499Y-96462595D01*
X207470183Y-96395557D01*
X207486813Y-96374920D01*
X207675081Y-96186652D01*
X207736402Y-96153169D01*
X207765995Y-96150748D01*
X207765995Y-96150500D01*
X207769027Y-96150500D01*
X207769076Y-96150496D01*
X207769149Y-96150499D01*
X207769152Y-96150500D01*
X207769154Y-96150500D01*
X208355843Y-96150500D01*
X208355848Y-96150500D01*
X208457775Y-96140087D01*
X208622925Y-96085362D01*
X208771003Y-95994026D01*
X208894026Y-95871003D01*
X208894755Y-95869821D01*
X208895466Y-95869181D01*
X208898507Y-95865336D01*
X208899163Y-95865855D01*
X208946701Y-95823097D01*
X209015664Y-95811873D01*
X209079746Y-95839715D01*
X209101761Y-95865123D01*
X209101888Y-95865023D01*
X209104113Y-95867838D01*
X209105833Y-95869822D01*
X209106365Y-95870685D01*
X209106369Y-95870690D01*
X209229308Y-95993629D01*
X209377285Y-96084903D01*
X209377290Y-96084905D01*
X209542326Y-96139592D01*
X209644184Y-96149999D01*
X209644197Y-96150000D01*
X209687500Y-96150000D01*
X210187500Y-96150000D01*
X210230803Y-96150000D01*
X210230815Y-96149999D01*
X210332673Y-96139592D01*
X210497709Y-96084905D01*
X210497714Y-96084903D01*
X210645691Y-95993629D01*
X210768629Y-95870691D01*
X210859903Y-95722714D01*
X210859905Y-95722709D01*
X210914592Y-95557673D01*
X210924999Y-95455815D01*
X210925000Y-95455802D01*
X210925000Y-95200000D01*
X210187500Y-95200000D01*
X210187500Y-96150000D01*
X209687500Y-96150000D01*
X209687500Y-94700000D01*
X210187500Y-94700000D01*
X210925000Y-94700000D01*
X210925000Y-94444197D01*
X210924999Y-94444184D01*
X210914592Y-94342326D01*
X210859905Y-94177290D01*
X210859903Y-94177285D01*
X210768629Y-94029308D01*
X210645691Y-93906370D01*
X210497714Y-93815096D01*
X210497709Y-93815094D01*
X210332673Y-93760407D01*
X210230815Y-93750000D01*
X210187500Y-93750000D01*
X210187500Y-94700000D01*
X209687500Y-94700000D01*
X209687500Y-93750000D01*
X209644184Y-93750000D01*
X209542326Y-93760407D01*
X209377290Y-93815094D01*
X209377285Y-93815096D01*
X209229308Y-93906370D01*
X209106369Y-94029309D01*
X209106364Y-94029315D01*
X209105829Y-94030184D01*
X209105306Y-94030654D01*
X209101888Y-94034977D01*
X209101149Y-94034392D01*
X209053879Y-94076906D01*
X208984916Y-94088125D01*
X208920835Y-94060278D01*
X208898586Y-94034601D01*
X208898507Y-94034664D01*
X208897111Y-94032898D01*
X208894758Y-94030183D01*
X208894028Y-94028999D01*
X208771003Y-93905974D01*
X208770999Y-93905971D01*
X208622933Y-93814642D01*
X208622927Y-93814639D01*
X208622925Y-93814638D01*
X208578750Y-93800000D01*
X208457776Y-93759913D01*
X208355855Y-93749500D01*
X208355848Y-93749500D01*
X207786555Y-93749500D01*
X207719516Y-93729815D01*
X207673761Y-93677011D01*
X207663817Y-93607853D01*
X207668840Y-93589588D01*
X207667969Y-93589324D01*
X207669731Y-93583509D01*
X207669737Y-93583497D01*
X207700500Y-93428842D01*
X207700500Y-93271158D01*
X207700500Y-93271155D01*
X207700499Y-93271153D01*
X207688335Y-93210000D01*
X207669737Y-93116503D01*
X207615250Y-92984958D01*
X207609397Y-92970827D01*
X207609390Y-92970814D01*
X207521789Y-92839711D01*
X207521786Y-92839707D01*
X207410292Y-92728213D01*
X207410288Y-92728210D01*
X207279185Y-92640609D01*
X207279172Y-92640602D01*
X207133501Y-92580264D01*
X207133489Y-92580261D01*
X206978845Y-92549500D01*
X206978842Y-92549500D01*
X206861228Y-92549500D01*
X206794189Y-92529815D01*
X206748434Y-92477011D01*
X206738490Y-92407853D01*
X206767515Y-92344297D01*
X206773547Y-92337819D01*
X207197836Y-91913530D01*
X207629941Y-91481424D01*
X207670161Y-91454549D01*
X207779179Y-91409394D01*
X207910289Y-91321789D01*
X208021789Y-91210289D01*
X208109394Y-91079179D01*
X208169737Y-90933497D01*
X208200500Y-90778842D01*
X208200500Y-90621158D01*
X208200500Y-90621155D01*
X208200499Y-90621153D01*
X208169738Y-90466510D01*
X208169737Y-90466503D01*
X208157788Y-90437655D01*
X208109397Y-90320827D01*
X208109390Y-90320814D01*
X208021789Y-90189711D01*
X208021786Y-90189707D01*
X207910292Y-90078213D01*
X207910288Y-90078210D01*
X207779185Y-89990609D01*
X207779172Y-89990602D01*
X207633501Y-89930264D01*
X207633489Y-89930261D01*
X207478845Y-89899500D01*
X207478842Y-89899500D01*
X207321158Y-89899500D01*
X207321155Y-89899500D01*
X207166510Y-89930261D01*
X207166498Y-89930264D01*
X207020827Y-89990602D01*
X207020814Y-89990609D01*
X206889711Y-90078210D01*
X206889707Y-90078213D01*
X206778215Y-90189705D01*
X206778208Y-90189713D01*
X206743289Y-90241973D01*
X206727869Y-90260762D01*
X203860681Y-93127950D01*
X203799358Y-93161435D01*
X203729666Y-93156451D01*
X203673733Y-93114579D01*
X203649316Y-93049115D01*
X203649000Y-93040269D01*
X203649000Y-92588899D01*
X203649001Y-92588886D01*
X203649001Y-92420785D01*
X203649001Y-92420783D01*
X203608077Y-92268055D01*
X203567234Y-92197314D01*
X203556767Y-92179185D01*
X203529021Y-92131126D01*
X203529020Y-92131124D01*
X203417216Y-92019320D01*
X203417215Y-92019319D01*
X203412885Y-92014989D01*
X203412874Y-92014979D01*
X203287819Y-91889924D01*
X203254334Y-91828601D01*
X203251500Y-91802243D01*
X203251500Y-90072960D01*
X203251501Y-90072947D01*
X203251501Y-90036554D01*
X203271186Y-89969515D01*
X203323990Y-89923760D01*
X203328049Y-89921993D01*
X203333494Y-89919737D01*
X203333497Y-89919737D01*
X203462516Y-89866296D01*
X203477864Y-89859939D01*
X203525316Y-89850500D01*
X203813331Y-89850500D01*
X203813347Y-89850501D01*
X203820943Y-89850501D01*
X203979054Y-89850501D01*
X203979057Y-89850501D01*
X204131785Y-89809577D01*
X204197235Y-89771789D01*
X204268716Y-89730520D01*
X204380520Y-89618716D01*
X204380520Y-89618714D01*
X204390724Y-89608511D01*
X204390728Y-89608506D01*
X210446006Y-83553228D01*
X210446011Y-83553224D01*
X210456214Y-83543020D01*
X210456216Y-83543020D01*
X210568020Y-83431216D01*
X210647077Y-83294284D01*
X210683560Y-83158127D01*
X210688000Y-83141558D01*
X210688000Y-82983443D01*
X210688000Y-73079849D01*
X210707685Y-73012810D01*
X210746902Y-72974311D01*
X210796003Y-72944026D01*
X210919026Y-72821003D01*
X211010362Y-72672925D01*
X211065087Y-72507775D01*
X211075500Y-72405848D01*
X211075500Y-71394152D01*
X211065087Y-71292225D01*
X211010362Y-71127075D01*
X211010358Y-71127069D01*
X211010357Y-71127066D01*
X210919028Y-70979000D01*
X210919025Y-70978996D01*
X210796003Y-70855974D01*
X210795999Y-70855971D01*
X210647933Y-70764642D01*
X210647927Y-70764639D01*
X210647925Y-70764638D01*
X210647922Y-70764637D01*
X210482776Y-70709913D01*
X210380855Y-70699500D01*
X210380848Y-70699500D01*
X209794152Y-70699500D01*
X209794144Y-70699500D01*
X209692223Y-70709913D01*
X209527077Y-70764637D01*
X209527066Y-70764642D01*
X209379000Y-70855971D01*
X209378996Y-70855974D01*
X209255974Y-70978996D01*
X209255971Y-70979000D01*
X209255538Y-70979703D01*
X209255114Y-70980083D01*
X209251493Y-70984664D01*
X209250710Y-70984045D01*
X209203590Y-71026428D01*
X209134628Y-71037649D01*
X209070546Y-71009806D01*
X209048657Y-70984544D01*
X209048507Y-70984664D01*
X209045859Y-70981315D01*
X209044462Y-70979703D01*
X209044028Y-70979000D01*
X209044027Y-70978999D01*
X209044026Y-70978997D01*
X208921003Y-70855974D01*
X208921002Y-70855973D01*
X208921001Y-70855972D01*
X208871901Y-70825686D01*
X208825178Y-70773738D01*
X208813000Y-70720149D01*
X208813000Y-68783445D01*
X208813000Y-68783443D01*
X208772077Y-68630716D01*
X208699623Y-68505220D01*
X208693024Y-68493790D01*
X208693021Y-68493786D01*
X208693020Y-68493784D01*
X208581216Y-68381980D01*
X208581215Y-68381979D01*
X208576885Y-68377649D01*
X208576874Y-68377639D01*
X207396883Y-67197648D01*
X208699500Y-67197648D01*
X208699500Y-67402351D01*
X208731522Y-67604534D01*
X208794781Y-67799223D01*
X208855446Y-67918283D01*
X208886875Y-67979966D01*
X208887715Y-67981613D01*
X209008028Y-68147213D01*
X209152786Y-68291971D01*
X209279720Y-68384192D01*
X209318390Y-68412287D01*
X209434607Y-68471503D01*
X209500776Y-68505218D01*
X209500778Y-68505218D01*
X209500781Y-68505220D01*
X209605137Y-68539127D01*
X209695465Y-68568477D01*
X209796557Y-68584488D01*
X209897648Y-68600500D01*
X209897649Y-68600500D01*
X210102351Y-68600500D01*
X210102352Y-68600500D01*
X210304534Y-68568477D01*
X210499219Y-68505220D01*
X210681610Y-68412287D01*
X210774590Y-68344732D01*
X210847213Y-68291971D01*
X210847215Y-68291968D01*
X210847219Y-68291966D01*
X210991966Y-68147219D01*
X210991968Y-68147215D01*
X210991971Y-68147213D01*
X211084631Y-68019675D01*
X211112287Y-67981610D01*
X211205220Y-67799219D01*
X211268477Y-67604534D01*
X211300500Y-67402352D01*
X211300500Y-67197648D01*
X211278558Y-67059111D01*
X211268477Y-66995465D01*
X211233724Y-66888507D01*
X211205220Y-66800781D01*
X211205218Y-66800778D01*
X211205218Y-66800776D01*
X211159054Y-66710176D01*
X211112287Y-66618390D01*
X211103592Y-66606422D01*
X210991971Y-66452786D01*
X210847213Y-66308028D01*
X210681613Y-66187715D01*
X210681612Y-66187714D01*
X210681610Y-66187713D01*
X210624653Y-66158691D01*
X210499223Y-66094781D01*
X210304534Y-66031522D01*
X210129995Y-66003878D01*
X210102352Y-65999500D01*
X209897648Y-65999500D01*
X209873329Y-66003351D01*
X209695465Y-66031522D01*
X209500776Y-66094781D01*
X209318386Y-66187715D01*
X209152786Y-66308028D01*
X209008028Y-66452786D01*
X208887715Y-66618386D01*
X208794781Y-66800776D01*
X208731522Y-66995465D01*
X208699500Y-67197648D01*
X207396883Y-67197648D01*
X205884574Y-65685339D01*
X205851089Y-65624016D01*
X205850638Y-65621849D01*
X205828504Y-65510577D01*
X205819737Y-65466503D01*
X205805863Y-65433008D01*
X205759397Y-65320827D01*
X205759390Y-65320814D01*
X205671789Y-65189711D01*
X205671786Y-65189707D01*
X205560292Y-65078213D01*
X205560288Y-65078210D01*
X205429185Y-64990609D01*
X205429172Y-64990602D01*
X205283501Y-64930264D01*
X205283489Y-64930261D01*
X205128845Y-64899500D01*
X205128842Y-64899500D01*
X204971158Y-64899500D01*
X204971155Y-64899500D01*
X204816510Y-64930261D01*
X204816498Y-64930264D01*
X204670827Y-64990602D01*
X204670814Y-64990609D01*
X204539711Y-65078210D01*
X204539707Y-65078213D01*
X204428213Y-65189707D01*
X204428210Y-65189711D01*
X204340609Y-65320814D01*
X204340602Y-65320827D01*
X204280262Y-65466502D01*
X204279512Y-65468977D01*
X204278767Y-65470112D01*
X204277932Y-65472130D01*
X204277900Y-65472117D01*
X204277787Y-65474235D01*
X204258902Y-65500417D01*
X204241208Y-65527411D01*
X204238591Y-65528577D01*
X204236915Y-65530902D01*
X204206866Y-65542720D01*
X204177393Y-65555861D01*
X204173750Y-65555746D01*
X204171894Y-65556477D01*
X204136651Y-65554584D01*
X204132546Y-65553767D01*
X204070638Y-65521375D01*
X204036070Y-65460655D01*
X204032750Y-65432152D01*
X204032750Y-63653193D01*
X204032032Y-63650513D01*
X204025097Y-63624632D01*
X203991827Y-63500465D01*
X203962433Y-63449553D01*
X203912770Y-63363534D01*
X203800966Y-63251730D01*
X203800965Y-63251729D01*
X203796635Y-63247399D01*
X203796624Y-63247389D01*
X203786818Y-63237583D01*
X203753333Y-63176260D01*
X203750499Y-63149902D01*
X203750499Y-61752129D01*
X203750498Y-61752123D01*
X203750497Y-61752116D01*
X203744091Y-61692517D01*
X203720224Y-61628527D01*
X203693797Y-61557671D01*
X203693793Y-61557664D01*
X203607547Y-61442455D01*
X203607544Y-61442452D01*
X203492335Y-61356206D01*
X203492328Y-61356202D01*
X203357482Y-61305908D01*
X203357483Y-61305908D01*
X203297883Y-61299501D01*
X203297881Y-61299500D01*
X203297873Y-61299500D01*
X203297864Y-61299500D01*
X202202129Y-61299500D01*
X202202123Y-61299501D01*
X202142516Y-61305908D01*
X202007671Y-61356202D01*
X202007664Y-61356206D01*
X201892455Y-61442452D01*
X201892452Y-61442455D01*
X201806206Y-61557664D01*
X201806202Y-61557671D01*
X201755908Y-61692517D01*
X201749501Y-61752116D01*
X201749501Y-61752123D01*
X201749500Y-61752135D01*
X201749500Y-63400903D01*
X201729815Y-63467942D01*
X201677011Y-63513697D01*
X201607853Y-63523641D01*
X201544297Y-63494616D01*
X201537819Y-63488584D01*
X201286818Y-63237583D01*
X201253333Y-63176260D01*
X201250499Y-63149902D01*
X201250499Y-61752129D01*
X201250498Y-61752123D01*
X201250497Y-61752116D01*
X201244091Y-61692517D01*
X201220224Y-61628527D01*
X201193797Y-61557671D01*
X201193793Y-61557664D01*
X201107547Y-61442455D01*
X201107544Y-61442452D01*
X200992335Y-61356206D01*
X200992328Y-61356202D01*
X200857482Y-61305908D01*
X200857483Y-61305908D01*
X200797883Y-61299501D01*
X200797881Y-61299500D01*
X200797873Y-61299500D01*
X200797864Y-61299500D01*
X199702129Y-61299500D01*
X199702123Y-61299501D01*
X199642516Y-61305908D01*
X199507671Y-61356202D01*
X199507664Y-61356206D01*
X199392455Y-61442452D01*
X199392452Y-61442455D01*
X199306206Y-61557664D01*
X199306202Y-61557671D01*
X199255908Y-61692517D01*
X199249501Y-61752116D01*
X199249501Y-61752123D01*
X199249500Y-61752135D01*
X199249500Y-62889742D01*
X199229815Y-62956781D01*
X199177011Y-63002536D01*
X199107853Y-63012480D01*
X199044297Y-62983455D01*
X199037819Y-62977423D01*
X195272750Y-59212355D01*
X195272748Y-59212352D01*
X195153877Y-59093481D01*
X195153876Y-59093480D01*
X195064489Y-59041873D01*
X195064488Y-59041872D01*
X195016943Y-59014422D01*
X194951060Y-58996769D01*
X194864217Y-58973499D01*
X194706103Y-58973499D01*
X194698507Y-58973499D01*
X194698491Y-58973500D01*
X194054098Y-58973500D01*
X193987059Y-58953815D01*
X193966417Y-58937181D01*
X193447002Y-58417766D01*
X193413517Y-58356443D01*
X193418501Y-58286751D01*
X193460373Y-58230818D01*
X193500089Y-58211008D01*
X193585197Y-58186281D01*
X193726552Y-58102685D01*
X193726561Y-58102678D01*
X193848200Y-57981040D01*
X193849533Y-57982373D01*
X193897966Y-57947382D01*
X193967732Y-57943580D01*
X193986777Y-57949722D01*
X194003308Y-57956569D01*
X194045000Y-57964862D01*
X194045000Y-57161988D01*
X194054940Y-57179205D01*
X194110795Y-57235060D01*
X194179204Y-57274556D01*
X194255504Y-57295000D01*
X194334496Y-57295000D01*
X194410796Y-57274556D01*
X194479205Y-57235060D01*
X194535060Y-57179205D01*
X194545000Y-57161988D01*
X194545000Y-57964862D01*
X194586690Y-57956569D01*
X194586692Y-57956569D01*
X194768671Y-57881192D01*
X194768684Y-57881185D01*
X194932462Y-57771751D01*
X194932466Y-57771748D01*
X195071748Y-57632466D01*
X195071751Y-57632462D01*
X195181185Y-57468684D01*
X195181192Y-57468671D01*
X195256569Y-57286693D01*
X195256572Y-57286681D01*
X195294999Y-57093495D01*
X195295000Y-57093492D01*
X195295000Y-56695000D01*
X194595000Y-56695000D01*
X194595000Y-56195000D01*
X195295000Y-56195000D01*
X195295000Y-55796508D01*
X195294999Y-55796504D01*
X195256572Y-55603318D01*
X195256569Y-55603306D01*
X195181192Y-55421328D01*
X195181185Y-55421315D01*
X195071751Y-55257537D01*
X195071748Y-55257533D01*
X194932466Y-55118251D01*
X194932462Y-55118248D01*
X194768684Y-55008814D01*
X194768671Y-55008807D01*
X194586691Y-54933429D01*
X194586683Y-54933427D01*
X194545000Y-54925135D01*
X194545000Y-55728011D01*
X194535060Y-55710795D01*
X194479205Y-55654940D01*
X194410796Y-55615444D01*
X194334496Y-55595000D01*
X194255504Y-55595000D01*
X194179204Y-55615444D01*
X194110795Y-55654940D01*
X194054940Y-55710795D01*
X194045000Y-55728011D01*
X194045000Y-54925136D01*
X194044999Y-54925135D01*
X194003316Y-54933427D01*
X194003308Y-54933429D01*
X193821328Y-55008807D01*
X193821315Y-55008814D01*
X193657537Y-55118248D01*
X193657533Y-55118251D01*
X193518251Y-55257533D01*
X193518248Y-55257537D01*
X193408814Y-55421315D01*
X193408809Y-55421324D01*
X193404866Y-55430845D01*
X193361023Y-55485247D01*
X193294728Y-55507310D01*
X193227030Y-55490029D01*
X193221597Y-55486351D01*
X193087136Y-55408719D01*
X193013950Y-55389109D01*
X192940766Y-55369500D01*
X192789234Y-55369500D01*
X192642863Y-55408719D01*
X192511635Y-55484485D01*
X192480355Y-55515764D01*
X192472409Y-55520102D01*
X192466986Y-55527347D01*
X192442228Y-55536581D01*
X192419031Y-55549247D01*
X192410002Y-55548601D01*
X192401522Y-55551764D01*
X192375701Y-55546147D01*
X192349339Y-55544261D01*
X192340286Y-55538442D01*
X192333249Y-55536912D01*
X192304995Y-55515761D01*
X192160589Y-55371355D01*
X192160587Y-55371352D01*
X192041716Y-55252481D01*
X192041715Y-55252480D01*
X191948128Y-55198448D01*
X191904784Y-55173423D01*
X191752056Y-55132499D01*
X191593942Y-55132499D01*
X191586346Y-55132499D01*
X191586330Y-55132500D01*
X188197941Y-55132500D01*
X188157020Y-55143464D01*
X188157020Y-55143465D01*
X188130732Y-55150509D01*
X188045215Y-55173423D01*
X188045210Y-55173426D01*
X187908291Y-55252475D01*
X187908283Y-55252481D01*
X187796481Y-55364283D01*
X187796481Y-55364284D01*
X187796479Y-55364286D01*
X187716671Y-55444094D01*
X187645003Y-55515762D01*
X187583680Y-55549246D01*
X187513988Y-55544262D01*
X187469641Y-55515761D01*
X187438367Y-55484487D01*
X187438365Y-55484485D01*
X187368406Y-55444094D01*
X187307136Y-55408719D01*
X187233950Y-55389109D01*
X187160766Y-55369500D01*
X187009234Y-55369500D01*
X186862863Y-55408719D01*
X186771428Y-55461510D01*
X186731635Y-55484485D01*
X186731633Y-55484486D01*
X186724597Y-55488549D01*
X186723327Y-55486349D01*
X186669995Y-55506960D01*
X186601552Y-55492914D01*
X186551568Y-55444094D01*
X186545131Y-55430838D01*
X186541192Y-55421328D01*
X186541185Y-55421315D01*
X186431751Y-55257537D01*
X186431748Y-55257533D01*
X186292466Y-55118251D01*
X186292462Y-55118248D01*
X186128684Y-55008814D01*
X186128671Y-55008807D01*
X185946691Y-54933429D01*
X185946683Y-54933427D01*
X185905000Y-54925135D01*
X185905000Y-55728011D01*
X185895060Y-55710795D01*
X185839205Y-55654940D01*
X185770796Y-55615444D01*
X185694496Y-55595000D01*
X185615504Y-55595000D01*
X185539204Y-55615444D01*
X185470795Y-55654940D01*
X185414940Y-55710795D01*
X185405000Y-55728011D01*
X185405000Y-54925136D01*
X185404999Y-54925135D01*
X185363316Y-54933427D01*
X185363308Y-54933429D01*
X185181328Y-55008807D01*
X185181315Y-55008814D01*
X185017537Y-55118248D01*
X185017533Y-55118251D01*
X184878251Y-55257533D01*
X184878248Y-55257537D01*
X184768814Y-55421315D01*
X184768807Y-55421328D01*
X184693430Y-55603306D01*
X184693427Y-55603318D01*
X184655000Y-55796504D01*
X184655000Y-56195000D01*
X185355000Y-56195000D01*
X185355000Y-56695000D01*
X184655000Y-56695000D01*
X184655000Y-57093495D01*
X184693427Y-57286681D01*
X184693430Y-57286693D01*
X184768807Y-57468671D01*
X184768814Y-57468684D01*
X184878248Y-57632462D01*
X184878251Y-57632466D01*
X185017533Y-57771748D01*
X185017537Y-57771751D01*
X185181315Y-57881185D01*
X185181328Y-57881192D01*
X185363308Y-57956569D01*
X185405000Y-57964862D01*
X185905000Y-57964862D01*
X185946689Y-57956570D01*
X185963218Y-57949723D01*
X186032687Y-57942251D01*
X186095168Y-57973523D01*
X186104553Y-57983793D01*
X186223438Y-58102678D01*
X186223447Y-58102685D01*
X186364801Y-58186281D01*
X186522514Y-58232100D01*
X186522511Y-58232100D01*
X186524998Y-58232295D01*
X186525000Y-58232295D01*
X186525000Y-57335000D01*
X185905000Y-57335000D01*
X185905000Y-57964862D01*
X185405000Y-57964862D01*
X185405000Y-57161988D01*
X185414940Y-57179205D01*
X185470795Y-57235060D01*
X185539204Y-57274556D01*
X185615504Y-57295000D01*
X185694496Y-57295000D01*
X185770796Y-57274556D01*
X185839205Y-57235060D01*
X185895060Y-57179205D01*
X185934556Y-57110796D01*
X185955000Y-57034496D01*
X185955000Y-56835000D01*
X186650500Y-56835000D01*
X186717539Y-56854685D01*
X186763294Y-56907489D01*
X186774500Y-56959000D01*
X186774500Y-57650701D01*
X186777401Y-57687567D01*
X186777402Y-57687573D01*
X186823254Y-57845393D01*
X186823255Y-57845396D01*
X186823256Y-57845398D01*
X186860681Y-57908681D01*
X186906917Y-57986862D01*
X186906923Y-57986870D01*
X186938180Y-58018126D01*
X186971666Y-58079448D01*
X186974500Y-58105808D01*
X186974500Y-58883975D01*
X186954815Y-58951014D01*
X186902011Y-58996769D01*
X186832853Y-59006713D01*
X186769297Y-58977688D01*
X186747398Y-58952866D01*
X186671789Y-58839711D01*
X186671786Y-58839707D01*
X186560292Y-58728213D01*
X186560288Y-58728210D01*
X186429185Y-58640609D01*
X186429172Y-58640602D01*
X186283501Y-58580264D01*
X186283489Y-58580261D01*
X186128845Y-58549500D01*
X186128842Y-58549500D01*
X185971158Y-58549500D01*
X185971155Y-58549500D01*
X185816510Y-58580261D01*
X185816498Y-58580264D01*
X185670827Y-58640602D01*
X185670814Y-58640609D01*
X185539711Y-58728210D01*
X185539707Y-58728213D01*
X185428213Y-58839707D01*
X185428210Y-58839711D01*
X185340609Y-58970814D01*
X185340602Y-58970827D01*
X185280264Y-59116498D01*
X185280261Y-59116510D01*
X185249500Y-59271153D01*
X185249500Y-59329091D01*
X185229815Y-59396130D01*
X185185731Y-59434641D01*
X185186813Y-59436395D01*
X185180667Y-59440185D01*
X185180666Y-59440186D01*
X185082419Y-59500784D01*
X185031342Y-59532289D01*
X184907289Y-59656342D01*
X184815187Y-59805663D01*
X184815185Y-59805668D01*
X184815053Y-59806066D01*
X184760001Y-59972203D01*
X184760001Y-59972204D01*
X184760000Y-59972204D01*
X184749500Y-60074983D01*
X184749500Y-60700001D01*
X184749501Y-60700019D01*
X184760000Y-60802796D01*
X184760001Y-60802799D01*
X184815185Y-60969331D01*
X184815187Y-60969336D01*
X184907289Y-61118657D01*
X185001304Y-61212672D01*
X185034789Y-61273995D01*
X185029805Y-61343687D01*
X185001305Y-61388034D01*
X184907682Y-61481657D01*
X184815643Y-61630875D01*
X184815641Y-61630880D01*
X184760494Y-61797302D01*
X184760493Y-61797309D01*
X184750000Y-61900013D01*
X184750000Y-61962500D01*
X185826000Y-61962500D01*
X185893039Y-61982185D01*
X185938794Y-62034989D01*
X185950000Y-62086500D01*
X185950000Y-62212500D01*
X186076000Y-62212500D01*
X186143039Y-62232185D01*
X186188794Y-62284989D01*
X186200000Y-62336500D01*
X186200000Y-63224999D01*
X186449972Y-63224999D01*
X186449986Y-63224998D01*
X186552697Y-63214505D01*
X186719119Y-63159358D01*
X186719126Y-63159355D01*
X186785402Y-63118475D01*
X186852794Y-63100034D01*
X186919458Y-63120956D01*
X186964228Y-63174597D01*
X186974500Y-63224013D01*
X186974500Y-63888273D01*
X186974499Y-63888291D01*
X186974499Y-64053997D01*
X186974498Y-64053997D01*
X186991247Y-64116503D01*
X187015423Y-64206728D01*
X187040363Y-64249925D01*
X187044358Y-64256843D01*
X187044359Y-64256847D01*
X187044360Y-64256847D01*
X187094479Y-64343657D01*
X187094481Y-64343660D01*
X187213349Y-64462528D01*
X187213355Y-64462533D01*
X188066196Y-65315374D01*
X188066206Y-65315385D01*
X188070536Y-65319715D01*
X188070537Y-65319716D01*
X188182341Y-65431520D01*
X188250413Y-65470821D01*
X188319272Y-65510577D01*
X188472000Y-65551501D01*
X188472003Y-65551501D01*
X188637710Y-65551501D01*
X188637726Y-65551500D01*
X188962274Y-65551500D01*
X188962290Y-65551501D01*
X188969886Y-65551501D01*
X189127997Y-65551501D01*
X189128000Y-65551501D01*
X189280728Y-65510577D01*
X189349587Y-65470821D01*
X189417659Y-65431520D01*
X189529463Y-65319716D01*
X189529463Y-65319714D01*
X189539667Y-65309511D01*
X189539671Y-65309506D01*
X189945868Y-64903309D01*
X190007191Y-64869824D01*
X190076883Y-64874808D01*
X190121230Y-64903309D01*
X190189707Y-64971786D01*
X190189711Y-64971789D01*
X190320814Y-65059390D01*
X190320827Y-65059397D01*
X190466498Y-65119735D01*
X190466503Y-65119737D01*
X190621153Y-65150499D01*
X190621156Y-65150500D01*
X190621158Y-65150500D01*
X190778844Y-65150500D01*
X190778845Y-65150499D01*
X190933497Y-65119737D01*
X191051592Y-65070821D01*
X191079172Y-65059397D01*
X191079172Y-65059396D01*
X191079179Y-65059394D01*
X191210289Y-64971789D01*
X191321789Y-64860289D01*
X191409394Y-64729179D01*
X191469737Y-64583497D01*
X191500500Y-64428842D01*
X191500500Y-64271158D01*
X191500500Y-64271155D01*
X191500499Y-64271153D01*
X191493656Y-64236753D01*
X191469737Y-64116503D01*
X191443848Y-64054000D01*
X191409397Y-63970827D01*
X191409390Y-63970814D01*
X191333898Y-63857832D01*
X191313020Y-63791154D01*
X191313000Y-63788941D01*
X191313000Y-63520808D01*
X191332685Y-63453769D01*
X191349320Y-63433126D01*
X191380576Y-63401870D01*
X191380581Y-63401865D01*
X191464244Y-63260398D01*
X191505477Y-63118475D01*
X191510097Y-63102573D01*
X191510098Y-63102567D01*
X191510098Y-63102563D01*
X191513000Y-63065694D01*
X191513000Y-61909306D01*
X191510098Y-61872431D01*
X191464244Y-61714602D01*
X191380581Y-61573135D01*
X191380579Y-61573133D01*
X191380576Y-61573129D01*
X191349319Y-61541872D01*
X191334615Y-61514944D01*
X191318023Y-61489126D01*
X191317131Y-61482925D01*
X191315834Y-61480549D01*
X191313000Y-61454191D01*
X191313000Y-61245808D01*
X191332685Y-61178769D01*
X191349320Y-61158126D01*
X191380576Y-61126870D01*
X191380581Y-61126865D01*
X191464244Y-60985398D01*
X191510098Y-60827569D01*
X191513000Y-60790694D01*
X191513000Y-59665421D01*
X191532685Y-59598382D01*
X191585489Y-59552627D01*
X191654647Y-59542683D01*
X191718203Y-59571708D01*
X191724681Y-59577740D01*
X192874285Y-60727344D01*
X192907770Y-60788667D01*
X192909961Y-60802410D01*
X192910000Y-60802796D01*
X192965185Y-60969331D01*
X192965187Y-60969336D01*
X193057289Y-61118657D01*
X193151304Y-61212672D01*
X193184789Y-61273995D01*
X193179805Y-61343687D01*
X193151305Y-61388034D01*
X193057682Y-61481657D01*
X192965643Y-61630875D01*
X192965641Y-61630880D01*
X192910494Y-61797302D01*
X192910493Y-61797309D01*
X192900000Y-61900013D01*
X192900000Y-61962500D01*
X195299999Y-61962500D01*
X195299999Y-61900028D01*
X195299998Y-61900013D01*
X195289505Y-61797302D01*
X195234358Y-61630880D01*
X195234356Y-61630875D01*
X195142315Y-61481654D01*
X195048695Y-61388034D01*
X195047247Y-61385382D01*
X195044666Y-61383811D01*
X195030609Y-61354913D01*
X195015210Y-61326711D01*
X195015425Y-61323696D01*
X195014104Y-61320980D01*
X195017901Y-61289074D01*
X195020194Y-61257019D01*
X195022112Y-61253693D01*
X195022362Y-61251600D01*
X195028887Y-61241953D01*
X195040716Y-61221454D01*
X195044491Y-61216876D01*
X195142712Y-61118656D01*
X195193747Y-61035913D01*
X195199157Y-61029355D01*
X195221317Y-61014339D01*
X195241225Y-60996433D01*
X195249804Y-60995036D01*
X195256999Y-60990162D01*
X195283760Y-60989510D01*
X195310187Y-60985210D01*
X195318158Y-60988673D01*
X195326848Y-60988462D01*
X195349718Y-61002385D01*
X195374269Y-61013053D01*
X195382498Y-61020573D01*
X198069431Y-63707506D01*
X198102916Y-63768829D01*
X198105750Y-63795187D01*
X198105750Y-65533951D01*
X198086065Y-65600990D01*
X198046848Y-65639489D01*
X197987594Y-65676037D01*
X197987592Y-65676039D01*
X197944123Y-65719507D01*
X197882800Y-65752991D01*
X197813108Y-65748005D01*
X197757175Y-65706132D01*
X197732760Y-65640668D01*
X197734826Y-65607636D01*
X197747339Y-65544729D01*
X197750500Y-65528843D01*
X197750500Y-65371155D01*
X197750499Y-65371153D01*
X197739404Y-65315374D01*
X197719737Y-65216503D01*
X197719735Y-65216498D01*
X197659397Y-65070827D01*
X197659390Y-65070814D01*
X197571789Y-64939711D01*
X197571786Y-64939707D01*
X197460292Y-64828213D01*
X197460288Y-64828210D01*
X197329185Y-64740609D01*
X197329172Y-64740602D01*
X197183501Y-64680264D01*
X197183489Y-64680261D01*
X197028845Y-64649500D01*
X197028842Y-64649500D01*
X196871158Y-64649500D01*
X196871155Y-64649500D01*
X196748690Y-64673860D01*
X196679099Y-64667633D01*
X196623921Y-64624770D01*
X196600677Y-64558880D01*
X196600499Y-64552243D01*
X196600499Y-63874998D01*
X196600498Y-63874981D01*
X196589999Y-63772203D01*
X196589998Y-63772200D01*
X196566197Y-63700373D01*
X196534814Y-63605666D01*
X196442712Y-63456344D01*
X196318656Y-63332288D01*
X196188047Y-63251728D01*
X196169336Y-63240187D01*
X196169331Y-63240185D01*
X196153765Y-63235027D01*
X196002797Y-63185001D01*
X196002795Y-63185000D01*
X195900016Y-63174500D01*
X195210522Y-63174500D01*
X195143483Y-63154815D01*
X195097728Y-63102011D01*
X195087784Y-63032853D01*
X195116809Y-62969297D01*
X195122843Y-62962817D01*
X195142316Y-62943344D01*
X195234356Y-62794124D01*
X195234358Y-62794119D01*
X195289505Y-62627697D01*
X195289506Y-62627690D01*
X195299999Y-62524986D01*
X195300000Y-62524973D01*
X195300000Y-62462500D01*
X192900001Y-62462500D01*
X192900001Y-62524986D01*
X192910494Y-62627697D01*
X192965641Y-62794119D01*
X192965643Y-62794124D01*
X193057684Y-62943345D01*
X193155192Y-63040853D01*
X193188677Y-63102176D01*
X193183693Y-63171868D01*
X193141821Y-63227801D01*
X193105832Y-63246464D01*
X193077745Y-63255590D01*
X192923475Y-63334195D01*
X192783397Y-63435967D01*
X192660967Y-63558397D01*
X192559195Y-63698475D01*
X192480591Y-63852742D01*
X192427085Y-64017415D01*
X192400000Y-64188428D01*
X192400000Y-64300000D01*
X193219670Y-64300000D01*
X193199925Y-64319745D01*
X193150556Y-64405255D01*
X193125000Y-64500630D01*
X193125000Y-64599370D01*
X193150556Y-64694745D01*
X193199925Y-64780255D01*
X193219670Y-64800000D01*
X192400000Y-64800000D01*
X192400000Y-64911571D01*
X192427085Y-65082584D01*
X192480591Y-65247257D01*
X192559195Y-65401524D01*
X192660967Y-65541602D01*
X192783397Y-65664032D01*
X192923475Y-65765804D01*
X193077744Y-65844408D01*
X193242415Y-65897914D01*
X193242414Y-65897914D01*
X193249999Y-65899115D01*
X193250000Y-65899114D01*
X193250000Y-64830330D01*
X193269745Y-64850075D01*
X193355255Y-64899444D01*
X193450630Y-64925000D01*
X193549370Y-64925000D01*
X193644745Y-64899444D01*
X193730255Y-64850075D01*
X193750000Y-64830330D01*
X193750000Y-65899115D01*
X193757584Y-65897914D01*
X193922254Y-65844409D01*
X193959066Y-65825652D01*
X194027735Y-65812755D01*
X194092476Y-65839030D01*
X194132734Y-65896136D01*
X194135728Y-65965941D01*
X194124429Y-65992839D01*
X194124946Y-65993080D01*
X194121891Y-65999630D01*
X194066744Y-66166052D01*
X194066743Y-66166059D01*
X194056250Y-66268763D01*
X194056250Y-66543750D01*
X194932250Y-66543750D01*
X194999289Y-66563435D01*
X195045044Y-66616239D01*
X195056250Y-66667750D01*
X195056250Y-66919750D01*
X195036565Y-66986789D01*
X194983761Y-67032544D01*
X194932250Y-67043750D01*
X194056251Y-67043750D01*
X194056251Y-67318736D01*
X194066744Y-67421447D01*
X194121891Y-67587869D01*
X194121893Y-67587874D01*
X194193924Y-67704653D01*
X194212364Y-67772045D01*
X194191442Y-67838709D01*
X194137800Y-67883479D01*
X194088385Y-67893750D01*
X193940600Y-67893750D01*
X193903760Y-67896649D01*
X193903754Y-67896650D01*
X193746050Y-67942468D01*
X193741574Y-67944405D01*
X193672231Y-67952962D01*
X193609269Y-67922670D01*
X193604651Y-67918283D01*
X193518657Y-67832289D01*
X193518656Y-67832288D01*
X193399733Y-67758936D01*
X193369336Y-67740187D01*
X193369331Y-67740185D01*
X193367862Y-67739698D01*
X193202797Y-67685001D01*
X193202795Y-67685000D01*
X193100010Y-67674500D01*
X192099998Y-67674500D01*
X192099980Y-67674501D01*
X191997203Y-67685000D01*
X191997200Y-67685001D01*
X191830668Y-67740185D01*
X191830663Y-67740187D01*
X191681342Y-67832289D01*
X191557289Y-67956342D01*
X191465187Y-68105663D01*
X191465185Y-68105668D01*
X191437349Y-68189670D01*
X191410001Y-68272203D01*
X191410001Y-68272204D01*
X191410000Y-68272204D01*
X191399500Y-68374983D01*
X191399500Y-69000001D01*
X191399501Y-69000019D01*
X191410000Y-69102796D01*
X191410001Y-69102799D01*
X191465185Y-69269331D01*
X191465186Y-69269334D01*
X191541931Y-69393759D01*
X191557289Y-69418657D01*
X191650951Y-69512319D01*
X191652468Y-69515097D01*
X191655169Y-69516750D01*
X191669103Y-69545563D01*
X191684436Y-69573642D01*
X191684210Y-69576799D01*
X191685589Y-69579650D01*
X191681734Y-69611416D01*
X191679452Y-69643334D01*
X191677439Y-69646812D01*
X191677173Y-69649011D01*
X191670326Y-69659108D01*
X191658751Y-69679116D01*
X191655052Y-69683579D01*
X191557288Y-69781344D01*
X191508491Y-69860456D01*
X191502973Y-69867116D01*
X191480888Y-69882007D01*
X191461083Y-69899821D01*
X191451107Y-69902087D01*
X191445042Y-69906178D01*
X191431827Y-69906469D01*
X191407492Y-69912000D01*
X189960313Y-69912000D01*
X189802199Y-69912000D01*
X189649471Y-69952923D01*
X189649470Y-69952923D01*
X189649468Y-69952924D01*
X189649467Y-69952924D01*
X189603876Y-69979247D01*
X189512543Y-70031977D01*
X189512538Y-70031981D01*
X189400734Y-70143786D01*
X188295831Y-71248687D01*
X188234508Y-71282172D01*
X188164816Y-71277188D01*
X188120469Y-71248687D01*
X188067084Y-71195302D01*
X186829647Y-72432739D01*
X187078499Y-72681591D01*
X187103612Y-72717760D01*
X187146730Y-72812174D01*
X187146731Y-72812175D01*
X187146732Y-72812177D01*
X187184351Y-72858860D01*
X187184354Y-72858863D01*
X187184359Y-72858869D01*
X187319600Y-72994110D01*
X187353085Y-73055433D01*
X187348101Y-73125125D01*
X187335022Y-73150681D01*
X187291608Y-73215654D01*
X187291602Y-73215665D01*
X187231264Y-73361336D01*
X187231261Y-73361348D01*
X187200500Y-73515991D01*
X187200500Y-73515996D01*
X187200500Y-73673680D01*
X187200500Y-73673682D01*
X187200499Y-73673682D01*
X187219713Y-73770271D01*
X187213486Y-73839863D01*
X187185777Y-73882144D01*
X187089863Y-73978057D01*
X187089860Y-73978061D01*
X187002258Y-74109166D01*
X186994127Y-74128797D01*
X186950285Y-74183200D01*
X186903758Y-74202960D01*
X186766508Y-74230261D01*
X186766498Y-74230264D01*
X186620827Y-74290602D01*
X186620814Y-74290609D01*
X186489711Y-74378210D01*
X186489707Y-74378213D01*
X186378213Y-74489707D01*
X186378210Y-74489711D01*
X186290609Y-74620814D01*
X186290602Y-74620827D01*
X186230264Y-74766498D01*
X186230261Y-74766510D01*
X186199500Y-74921153D01*
X186199500Y-75078846D01*
X186230261Y-75233489D01*
X186230264Y-75233501D01*
X186290602Y-75379172D01*
X186290609Y-75379185D01*
X186378210Y-75510288D01*
X186378213Y-75510292D01*
X186489707Y-75621786D01*
X186489711Y-75621789D01*
X186620814Y-75709390D01*
X186620827Y-75709397D01*
X186716883Y-75749184D01*
X186766503Y-75769737D01*
X186831147Y-75782595D01*
X186921849Y-75800638D01*
X186938605Y-75809402D01*
X186957085Y-75813423D01*
X186982123Y-75832167D01*
X186983760Y-75833023D01*
X186985339Y-75834574D01*
X187115139Y-75964374D01*
X187115149Y-75964385D01*
X187119479Y-75968715D01*
X187119480Y-75968716D01*
X187231284Y-76080520D01*
X187296576Y-76118216D01*
X187368215Y-76159577D01*
X187520943Y-76200500D01*
X190478849Y-76200500D01*
X190540382Y-76216844D01*
X190548955Y-76221744D01*
X190586783Y-76252228D01*
X190663933Y-76287462D01*
X190668823Y-76290257D01*
X190689295Y-76311542D01*
X190711607Y-76330875D01*
X190716487Y-76339812D01*
X190717258Y-76340614D01*
X190717446Y-76341569D01*
X190720083Y-76346398D01*
X190737039Y-76383523D01*
X190752977Y-76418422D01*
X190790596Y-76465105D01*
X190790599Y-76465108D01*
X190790604Y-76465114D01*
X191075540Y-76750048D01*
X191141141Y-76815649D01*
X191187824Y-76853269D01*
X191225745Y-76870587D01*
X191259842Y-76886159D01*
X191312646Y-76931914D01*
X191321124Y-76947440D01*
X191354017Y-77019463D01*
X191391636Y-77066146D01*
X191391639Y-77066149D01*
X191391644Y-77066155D01*
X191707976Y-77382485D01*
X191742181Y-77416690D01*
X191788864Y-77454310D01*
X191854495Y-77484283D01*
X191860884Y-77487201D01*
X191913688Y-77532956D01*
X191922166Y-77548482D01*
X191955058Y-77620503D01*
X191992677Y-77667186D01*
X191992680Y-77667189D01*
X191992685Y-77667195D01*
X192267499Y-77942007D01*
X192343222Y-78017730D01*
X192389905Y-78055350D01*
X192420175Y-78069174D01*
X192461925Y-78088242D01*
X192514729Y-78133997D01*
X192523205Y-78149520D01*
X192529588Y-78163496D01*
X192556099Y-78221544D01*
X192593718Y-78268227D01*
X192593721Y-78268230D01*
X192593726Y-78268236D01*
X192858986Y-78533494D01*
X192944263Y-78618771D01*
X192990946Y-78656391D01*
X193026776Y-78672754D01*
X193062966Y-78689283D01*
X193115770Y-78735038D01*
X193124246Y-78750561D01*
X193141202Y-78787686D01*
X193157140Y-78822585D01*
X193194759Y-78869268D01*
X193194762Y-78869271D01*
X193194767Y-78869277D01*
X193459818Y-79134326D01*
X193545304Y-79219812D01*
X193591987Y-79257432D01*
X193617179Y-79268937D01*
X193620807Y-79270594D01*
X193673610Y-79316350D01*
X193693293Y-79383390D01*
X193673607Y-79450429D01*
X193620802Y-79496182D01*
X193593485Y-79505004D01*
X193466508Y-79530261D01*
X193466498Y-79530264D01*
X193320827Y-79590602D01*
X193320814Y-79590609D01*
X193189711Y-79678210D01*
X193189707Y-79678213D01*
X193078213Y-79789707D01*
X193078210Y-79789711D01*
X192990609Y-79920814D01*
X192990602Y-79920827D01*
X192930264Y-80066498D01*
X192930261Y-80066508D01*
X192899362Y-80221848D01*
X192866977Y-80283759D01*
X192865426Y-80285337D01*
X187687584Y-85463181D01*
X187626261Y-85496666D01*
X187599903Y-85499500D01*
X186800098Y-85499500D01*
X186733059Y-85479815D01*
X186712417Y-85463181D01*
X186424479Y-85175243D01*
X186091697Y-84842462D01*
X186652870Y-84842462D01*
X186934178Y-85123770D01*
X186980813Y-85161350D01*
X187111592Y-85221076D01*
X187111597Y-85221077D01*
X187253911Y-85241537D01*
X187396224Y-85221077D01*
X187396229Y-85221076D01*
X187527008Y-85161350D01*
X187573643Y-85123770D01*
X187854951Y-84842462D01*
X187854951Y-84842461D01*
X187253912Y-84241421D01*
X187253911Y-84241421D01*
X186652870Y-84842462D01*
X186091697Y-84842462D01*
X185987589Y-84738354D01*
X185987588Y-84738352D01*
X185868717Y-84619481D01*
X185868716Y-84619480D01*
X185775219Y-84565500D01*
X185731785Y-84540423D01*
X185579057Y-84499499D01*
X185420943Y-84499499D01*
X185413347Y-84499499D01*
X185413331Y-84499500D01*
X181619016Y-84499500D01*
X181558387Y-84483667D01*
X181549313Y-84478581D01*
X181516876Y-84452441D01*
X181440209Y-84417427D01*
X181435738Y-84414921D01*
X181414740Y-84393453D01*
X181392050Y-84373791D01*
X181387678Y-84365785D01*
X181386883Y-84364972D01*
X181386670Y-84363938D01*
X181383573Y-84358266D01*
X181350683Y-84286249D01*
X181350682Y-84286248D01*
X181350682Y-84286247D01*
X181313063Y-84239564D01*
X181313058Y-84239559D01*
X181313054Y-84239554D01*
X180962525Y-83889027D01*
X180962518Y-83889020D01*
X180915835Y-83851400D01*
X180915833Y-83851399D01*
X180843812Y-83818506D01*
X180824011Y-83801347D01*
X180801915Y-83787263D01*
X180794504Y-83775779D01*
X180791009Y-83772750D01*
X180782724Y-83757643D01*
X180782590Y-83757352D01*
X180749641Y-83685206D01*
X180742010Y-83675736D01*
X185486144Y-83675736D01*
X185767452Y-83957044D01*
X185814086Y-83994624D01*
X185886208Y-84027561D01*
X185939012Y-84073316D01*
X185947490Y-84088842D01*
X185980429Y-84160967D01*
X186018008Y-84207600D01*
X186018012Y-84207604D01*
X186299315Y-84488908D01*
X186299316Y-84488908D01*
X186900357Y-83887868D01*
X187607464Y-83887868D01*
X188208505Y-84488908D01*
X188489813Y-84207600D01*
X188527391Y-84160967D01*
X188560329Y-84088844D01*
X188606084Y-84036040D01*
X188621613Y-84027560D01*
X188693736Y-83994622D01*
X188740369Y-83957044D01*
X189021677Y-83675736D01*
X189021677Y-83675735D01*
X188420638Y-83074695D01*
X188420637Y-83074695D01*
X187607464Y-83887868D01*
X186900357Y-83887868D01*
X186900357Y-83887867D01*
X186087185Y-83074695D01*
X185486144Y-83675736D01*
X180742010Y-83675736D01*
X180712022Y-83638523D01*
X180615467Y-83541968D01*
X180581984Y-83480648D01*
X180586968Y-83410956D01*
X180615471Y-83366606D01*
X180621789Y-83360289D01*
X180709394Y-83229179D01*
X180769737Y-83083497D01*
X180800500Y-82928842D01*
X180800500Y-82771158D01*
X180800500Y-82771155D01*
X180800499Y-82771153D01*
X180799467Y-82765967D01*
X180769737Y-82616503D01*
X180761747Y-82597214D01*
X180729607Y-82519617D01*
X184308812Y-82519617D01*
X184556285Y-82767090D01*
X184556319Y-82767123D01*
X184596513Y-82803226D01*
X184720130Y-82876573D01*
X184724182Y-82878252D01*
X184778586Y-82922091D01*
X184789526Y-82941301D01*
X184813703Y-82994241D01*
X184851282Y-83040874D01*
X184851286Y-83040878D01*
X185132589Y-83322182D01*
X185132590Y-83322182D01*
X185733631Y-82721142D01*
X186440738Y-82721142D01*
X186703039Y-82983443D01*
X187253911Y-83534314D01*
X187804783Y-82983443D01*
X188067083Y-82721142D01*
X188774190Y-82721142D01*
X189375231Y-83322182D01*
X189656539Y-83040874D01*
X189694117Y-82994241D01*
X189727055Y-82922118D01*
X189772810Y-82869314D01*
X189788339Y-82860834D01*
X189860462Y-82827896D01*
X189907095Y-82790318D01*
X190188403Y-82509010D01*
X190188403Y-82509009D01*
X189587364Y-81907969D01*
X189587363Y-81907969D01*
X188774190Y-82721142D01*
X188067083Y-82721142D01*
X188067083Y-82721141D01*
X187253911Y-81907969D01*
X186440738Y-82721142D01*
X185733631Y-82721142D01*
X184920459Y-81907970D01*
X184308812Y-82519617D01*
X180729607Y-82519617D01*
X180727987Y-82515707D01*
X180709395Y-82470823D01*
X180709390Y-82470814D01*
X180621789Y-82339711D01*
X180621786Y-82339707D01*
X180510292Y-82228213D01*
X180510288Y-82228210D01*
X180379185Y-82140609D01*
X180379172Y-82140602D01*
X180233501Y-82080264D01*
X180233489Y-82080261D01*
X180078845Y-82049500D01*
X180078842Y-82049500D01*
X179921158Y-82049500D01*
X179921155Y-82049500D01*
X179766510Y-82080261D01*
X179766498Y-82080264D01*
X179620827Y-82140602D01*
X179620814Y-82140609D01*
X179489711Y-82228210D01*
X179489707Y-82228213D01*
X179378215Y-82339705D01*
X179378210Y-82339711D01*
X179347476Y-82385706D01*
X179332057Y-82404493D01*
X178855956Y-82880594D01*
X178807723Y-82910471D01*
X178595945Y-82981536D01*
X178588974Y-82981802D01*
X178582854Y-82985144D01*
X178554515Y-82983117D01*
X178526126Y-82984201D01*
X178520120Y-82980657D01*
X178513163Y-82980160D01*
X178468816Y-82951659D01*
X178255977Y-82738819D01*
X177987040Y-82469883D01*
X177987038Y-82469880D01*
X177987038Y-82469881D01*
X177955459Y-82438301D01*
X177941313Y-82424156D01*
X177921967Y-82424157D01*
X177892524Y-82415512D01*
X177862538Y-82408989D01*
X177857524Y-82405235D01*
X177854927Y-82404473D01*
X177834284Y-82387838D01*
X177743322Y-82296876D01*
X178379720Y-82296876D01*
X178379720Y-82296877D01*
X178535285Y-82452442D01*
X178697918Y-82615076D01*
X178697919Y-82615076D01*
X179192894Y-82120102D01*
X179159077Y-82086285D01*
X179159070Y-82086279D01*
X179112439Y-82048701D01*
X179112437Y-82048699D01*
X179040315Y-82015762D01*
X178987511Y-81970007D01*
X178979032Y-81954479D01*
X178946095Y-81882356D01*
X178908518Y-81835727D01*
X178874694Y-81801903D01*
X178379720Y-82296876D01*
X177743322Y-82296876D01*
X177354416Y-81907970D01*
X176894797Y-82367589D01*
X176894797Y-82370457D01*
X176875112Y-82437496D01*
X176822308Y-82483251D01*
X176753150Y-82493195D01*
X176715147Y-82481268D01*
X176593193Y-82420022D01*
X176422489Y-82379563D01*
X176422484Y-82379562D01*
X176422482Y-82379562D01*
X176247040Y-82379562D01*
X176247038Y-82379562D01*
X176247028Y-82379563D01*
X176243246Y-82380460D01*
X176240572Y-82380318D01*
X176239865Y-82380401D01*
X176239850Y-82380280D01*
X176173474Y-82376762D01*
X176116778Y-82335930D01*
X176091157Y-82270927D01*
X176094002Y-82231195D01*
X176094813Y-82227774D01*
X176094813Y-82052453D01*
X176054379Y-81881852D01*
X175975691Y-81725171D01*
X175910492Y-81645135D01*
X175910476Y-81645117D01*
X175875142Y-81609783D01*
X175875141Y-81609783D01*
X175096617Y-82388308D01*
X175035294Y-82421793D01*
X174965603Y-82416809D01*
X174921255Y-82388308D01*
X174832160Y-82299213D01*
X174743064Y-82388309D01*
X174681741Y-82421793D01*
X174612049Y-82416809D01*
X174567702Y-82388308D01*
X173948276Y-81768882D01*
X173753837Y-81963322D01*
X173688625Y-82043375D01*
X173606699Y-82206505D01*
X173605406Y-82205855D01*
X173568765Y-82255618D01*
X173503496Y-82280552D01*
X173435108Y-82266241D01*
X173405991Y-82244623D01*
X172586819Y-81425451D01*
X172581291Y-81415328D01*
X174301829Y-81415328D01*
X174301829Y-81415329D01*
X174832159Y-81945659D01*
X175521588Y-81256230D01*
X175486251Y-81220893D01*
X175486244Y-81220887D01*
X175406195Y-81155678D01*
X175249520Y-81076993D01*
X175078919Y-81036560D01*
X174903599Y-81036560D01*
X174732997Y-81076993D01*
X174576316Y-81155681D01*
X174496275Y-81220884D01*
X174496256Y-81220901D01*
X174301829Y-81415328D01*
X172581291Y-81415328D01*
X172553334Y-81364128D01*
X172550500Y-81337770D01*
X172550500Y-78212934D01*
X172570185Y-78145895D01*
X172622989Y-78100140D01*
X172692147Y-78090196D01*
X172755703Y-78119221D01*
X172759969Y-78123095D01*
X175920370Y-81130152D01*
X176247166Y-81441092D01*
X176282165Y-81501564D01*
X176284429Y-81548570D01*
X176283589Y-81554413D01*
X176283589Y-81554415D01*
X176304049Y-81696729D01*
X176304050Y-81696734D01*
X176363776Y-81827513D01*
X176401356Y-81874148D01*
X176541243Y-82014035D01*
X177000862Y-81554416D01*
X177707970Y-81554416D01*
X178132234Y-81978680D01*
X178556498Y-81554416D01*
X178132234Y-81130152D01*
X177707970Y-81554416D01*
X177000862Y-81554416D01*
X177177639Y-81377639D01*
X177743324Y-80811953D01*
X178379720Y-80811953D01*
X178379720Y-80811954D01*
X178874695Y-81306929D01*
X178908511Y-81273112D01*
X178908517Y-81273105D01*
X178946095Y-81226474D01*
X178946096Y-81226473D01*
X178979032Y-81154352D01*
X178992350Y-81138981D01*
X178996833Y-81130152D01*
X183981195Y-81130152D01*
X183981195Y-81978680D01*
X183984088Y-82032669D01*
X184005350Y-82115968D01*
X184005351Y-82115968D01*
X184566905Y-81554416D01*
X185274013Y-81554416D01*
X185842033Y-82122436D01*
X186087184Y-82367588D01*
X186087185Y-82367588D01*
X186627258Y-81827516D01*
X186900357Y-81554416D01*
X187607464Y-81554416D01*
X187880564Y-81827516D01*
X188420637Y-82367588D01*
X188960710Y-81827516D01*
X189233809Y-81554416D01*
X189940915Y-81554416D01*
X190541957Y-82155456D01*
X190823265Y-81874148D01*
X190860845Y-81827513D01*
X190920571Y-81696734D01*
X190920572Y-81696729D01*
X190941032Y-81554416D01*
X190920572Y-81412102D01*
X190920571Y-81412097D01*
X190860845Y-81281318D01*
X190823265Y-81234683D01*
X190541957Y-80953375D01*
X189940915Y-81554416D01*
X189233809Y-81554416D01*
X189233809Y-81554415D01*
X188420637Y-80741243D01*
X187607464Y-81554416D01*
X186900357Y-81554416D01*
X186900357Y-81554415D01*
X186348815Y-81002873D01*
X186087186Y-80741243D01*
X185934201Y-80894225D01*
X185934193Y-80894236D01*
X185274013Y-81554416D01*
X184566905Y-81554416D01*
X184001489Y-80989000D01*
X183981195Y-81130152D01*
X178996833Y-81130152D01*
X179001555Y-81120851D01*
X179018720Y-81108546D01*
X179024786Y-81101547D01*
X179029162Y-81098862D01*
X179158036Y-81023386D01*
X179159067Y-81022555D01*
X179159077Y-81022546D01*
X179192894Y-80988730D01*
X178697919Y-80493755D01*
X178697918Y-80493755D01*
X178542356Y-80649318D01*
X178379720Y-80811953D01*
X177743324Y-80811953D01*
X177834285Y-80720992D01*
X177875444Y-80693731D01*
X177970888Y-80655100D01*
X178415077Y-80210912D01*
X178980761Y-80210912D01*
X178980761Y-80210913D01*
X179475735Y-80705888D01*
X179509552Y-80672071D01*
X179509558Y-80672064D01*
X179547136Y-80625433D01*
X179547137Y-80625432D01*
X179563677Y-80589214D01*
X184308812Y-80589214D01*
X184308812Y-80589215D01*
X184920459Y-81200862D01*
X185733631Y-80387690D01*
X186440738Y-80387690D01*
X186702367Y-80649319D01*
X187253911Y-81200862D01*
X187805455Y-80649319D01*
X188067083Y-80387690D01*
X188774190Y-80387690D01*
X189035819Y-80649319D01*
X189587363Y-81200862D01*
X189587364Y-81200862D01*
X190188403Y-80599821D01*
X190188403Y-80599820D01*
X189907099Y-80318517D01*
X189907095Y-80318513D01*
X189860462Y-80280934D01*
X189788337Y-80247995D01*
X189735534Y-80202239D01*
X189727056Y-80186713D01*
X189694119Y-80114591D01*
X189656539Y-80067957D01*
X189375231Y-79786649D01*
X188774190Y-80387690D01*
X188067083Y-80387690D01*
X188067083Y-80387689D01*
X187253911Y-79574517D01*
X186440738Y-80387690D01*
X185733631Y-80387690D01*
X185132590Y-79786649D01*
X185132589Y-79786649D01*
X184851286Y-80067952D01*
X184813703Y-80114590D01*
X184789526Y-80167531D01*
X184743770Y-80220334D01*
X184724190Y-80230577D01*
X184720128Y-80232259D01*
X184720127Y-80232260D01*
X184671366Y-80255589D01*
X184556300Y-80341727D01*
X184556288Y-80341737D01*
X184308812Y-80589214D01*
X179563677Y-80589214D01*
X179580073Y-80553311D01*
X179594280Y-80536914D01*
X179604534Y-80517798D01*
X179620566Y-80506577D01*
X179625827Y-80500506D01*
X179632629Y-80496436D01*
X179743831Y-80434631D01*
X179760110Y-80421512D01*
X179760118Y-80421505D01*
X179793935Y-80387689D01*
X179793935Y-80387688D01*
X179298961Y-79892714D01*
X179298960Y-79892714D01*
X179139860Y-80051813D01*
X178980761Y-80210912D01*
X178415077Y-80210912D01*
X178542352Y-80083637D01*
X178542355Y-80083633D01*
X178554123Y-80071866D01*
X178554125Y-80071864D01*
X178556498Y-80069492D01*
X178570637Y-80055352D01*
X179016118Y-79609871D01*
X179581802Y-79609871D01*
X179581802Y-79609872D01*
X180076777Y-80104847D01*
X180110593Y-80071030D01*
X180110599Y-80071023D01*
X180148177Y-80024392D01*
X180181113Y-79952271D01*
X180226867Y-79899466D01*
X180242399Y-79890985D01*
X180314521Y-79858049D01*
X180314522Y-79858049D01*
X180361151Y-79820471D01*
X180361158Y-79820465D01*
X180394975Y-79786649D01*
X179900000Y-79291674D01*
X179899999Y-79291674D01*
X179742175Y-79449499D01*
X179581802Y-79609871D01*
X179016118Y-79609871D01*
X179143393Y-79482596D01*
X179143396Y-79482592D01*
X179155165Y-79470824D01*
X179155167Y-79470822D01*
X179157539Y-79468451D01*
X179171677Y-79454312D01*
X179617158Y-79008831D01*
X180182842Y-79008831D01*
X180182842Y-79008832D01*
X180677816Y-79503807D01*
X180711633Y-79469990D01*
X180711639Y-79469983D01*
X180741366Y-79433094D01*
X185486144Y-79433094D01*
X185486144Y-79433095D01*
X186087184Y-80034136D01*
X186087185Y-80034136D01*
X186641059Y-79480263D01*
X186900357Y-79220964D01*
X187607464Y-79220964D01*
X187866763Y-79480263D01*
X188420637Y-80034136D01*
X188420638Y-80034136D01*
X189021677Y-79433095D01*
X189021677Y-79433094D01*
X188740373Y-79151791D01*
X188740369Y-79151787D01*
X188693736Y-79114208D01*
X188621611Y-79081269D01*
X188568808Y-79035513D01*
X188560330Y-79019987D01*
X188527393Y-78947865D01*
X188489813Y-78901231D01*
X188208505Y-78619923D01*
X187607464Y-79220964D01*
X186900357Y-79220964D01*
X186900357Y-79220963D01*
X186299316Y-78619923D01*
X186299315Y-78619923D01*
X186018010Y-78901228D01*
X185980432Y-78947860D01*
X185947489Y-79019990D01*
X185901732Y-79072793D01*
X185886211Y-79081268D01*
X185814081Y-79114211D01*
X185767449Y-79151789D01*
X185486144Y-79433094D01*
X180741366Y-79433094D01*
X180749217Y-79423352D01*
X180749218Y-79423351D01*
X180782154Y-79351230D01*
X180799460Y-79331256D01*
X180813748Y-79309026D01*
X180824973Y-79301812D01*
X180827908Y-79298425D01*
X180843439Y-79289945D01*
X180889439Y-79268938D01*
X180889441Y-79268937D01*
X180915562Y-79257007D01*
X180962192Y-79219430D01*
X180962199Y-79219424D01*
X180996016Y-79185608D01*
X180996016Y-79185607D01*
X180501042Y-78690633D01*
X180501041Y-78690633D01*
X180341941Y-78849732D01*
X180182842Y-79008831D01*
X179617158Y-79008831D01*
X179744434Y-78881555D01*
X179744437Y-78881551D01*
X179756204Y-78869785D01*
X179756206Y-78869783D01*
X179758579Y-78867411D01*
X179772718Y-78853271D01*
X180218199Y-78407790D01*
X180783883Y-78407790D01*
X180783883Y-78407791D01*
X181278857Y-78902766D01*
X181312674Y-78868949D01*
X181312680Y-78868942D01*
X181350258Y-78822311D01*
X181350259Y-78822310D01*
X181383195Y-78750189D01*
X181428949Y-78697384D01*
X181444480Y-78688904D01*
X181516601Y-78655968D01*
X181516602Y-78655967D01*
X181563233Y-78618389D01*
X181563240Y-78618383D01*
X181597057Y-78584567D01*
X181597057Y-78584566D01*
X181102083Y-78089592D01*
X181102082Y-78089592D01*
X180942982Y-78248691D01*
X180783883Y-78407790D01*
X180218199Y-78407790D01*
X180345474Y-78280515D01*
X180345477Y-78280511D01*
X180357245Y-78268744D01*
X180357247Y-78268742D01*
X180359620Y-78266370D01*
X180373759Y-78252230D01*
X180819240Y-77806749D01*
X181384924Y-77806749D01*
X181384924Y-77806750D01*
X181879898Y-78301725D01*
X181913715Y-78267908D01*
X181913721Y-78267901D01*
X181914956Y-78266368D01*
X186652870Y-78266368D01*
X186652870Y-78266369D01*
X187253911Y-78867410D01*
X187253912Y-78867410D01*
X187854951Y-78266369D01*
X187854951Y-78266368D01*
X187573647Y-77985065D01*
X187573643Y-77985061D01*
X187527008Y-77947481D01*
X187396229Y-77887755D01*
X187396224Y-77887754D01*
X187253911Y-77867294D01*
X187111597Y-77887754D01*
X187111592Y-77887755D01*
X186980813Y-77947481D01*
X186934173Y-77985065D01*
X186652870Y-78266368D01*
X181914956Y-78266368D01*
X181951299Y-78221270D01*
X181951300Y-78221269D01*
X181977684Y-78163496D01*
X181984235Y-78149150D01*
X182029988Y-78096345D01*
X182045521Y-78087863D01*
X182117642Y-78054927D01*
X182117643Y-78054926D01*
X182164274Y-78017348D01*
X182164281Y-78017342D01*
X182198098Y-77983526D01*
X182198098Y-77983525D01*
X181703124Y-77488551D01*
X181703123Y-77488551D01*
X181544023Y-77647650D01*
X181384924Y-77806749D01*
X180819240Y-77806749D01*
X180946515Y-77679474D01*
X180946518Y-77679470D01*
X180958286Y-77667703D01*
X180958288Y-77667701D01*
X180960661Y-77665329D01*
X180974800Y-77651189D01*
X181420281Y-77205708D01*
X181985965Y-77205708D01*
X181985965Y-77205709D01*
X182480940Y-77700684D01*
X182514756Y-77666867D01*
X182514762Y-77666860D01*
X182552339Y-77620230D01*
X182585276Y-77548108D01*
X182631030Y-77495303D01*
X182646561Y-77486823D01*
X182718685Y-77453885D01*
X182765315Y-77416308D01*
X182765322Y-77416302D01*
X182799139Y-77382486D01*
X182799139Y-77382485D01*
X182304165Y-76887511D01*
X182304164Y-76887511D01*
X181985965Y-77205708D01*
X181420281Y-77205708D01*
X181547556Y-77078433D01*
X181547563Y-77078425D01*
X181559333Y-77066657D01*
X181559335Y-77066655D01*
X181561701Y-77064290D01*
X182021321Y-76604668D01*
X182587006Y-76604668D01*
X182587006Y-76604669D01*
X183081980Y-77099644D01*
X183115797Y-77065827D01*
X183115803Y-77065820D01*
X183153380Y-77019190D01*
X183186318Y-76947066D01*
X183232072Y-76894261D01*
X183247603Y-76885781D01*
X183319725Y-76852844D01*
X183366355Y-76815267D01*
X183366362Y-76815261D01*
X183400179Y-76781445D01*
X182905204Y-76286470D01*
X182905203Y-76286470D01*
X182587006Y-76604668D01*
X182021321Y-76604668D01*
X182148594Y-76477395D01*
X182148601Y-76477387D01*
X182160372Y-76465618D01*
X182160374Y-76465616D01*
X182162743Y-76463248D01*
X182176878Y-76449111D01*
X182176884Y-76449105D01*
X182622364Y-76003627D01*
X183188046Y-76003627D01*
X183188046Y-76003628D01*
X183683020Y-76498603D01*
X183716837Y-76464786D01*
X183716843Y-76464779D01*
X183754421Y-76418148D01*
X183754422Y-76418147D01*
X183787358Y-76346026D01*
X183833112Y-76293221D01*
X183848643Y-76284741D01*
X183920764Y-76251805D01*
X183920765Y-76251804D01*
X183967396Y-76214226D01*
X183967403Y-76214220D01*
X184001220Y-76180404D01*
X184001220Y-76180403D01*
X183506246Y-75685429D01*
X183506245Y-75685429D01*
X183347145Y-75844528D01*
X183188046Y-76003627D01*
X182622364Y-76003627D01*
X182761406Y-75864585D01*
X182763785Y-75862206D01*
X182777919Y-75848070D01*
X183223403Y-75402586D01*
X183789087Y-75402586D01*
X183789087Y-75402587D01*
X184284062Y-75897562D01*
X184317878Y-75863745D01*
X184317884Y-75863738D01*
X184355462Y-75817107D01*
X184355463Y-75817106D01*
X184388399Y-75744985D01*
X184434153Y-75692180D01*
X184449684Y-75683700D01*
X184521805Y-75650764D01*
X184521806Y-75650763D01*
X184568437Y-75613185D01*
X184568444Y-75613179D01*
X184602261Y-75579363D01*
X184107286Y-75084388D01*
X184107285Y-75084388D01*
X183951964Y-75239710D01*
X183789087Y-75402586D01*
X183223403Y-75402586D01*
X183350678Y-75275311D01*
X183350681Y-75275307D01*
X183362450Y-75263539D01*
X183362452Y-75263537D01*
X183364824Y-75261166D01*
X183378963Y-75247026D01*
X183824444Y-74801545D01*
X184390128Y-74801545D01*
X184390128Y-74801546D01*
X184885102Y-75296521D01*
X184918919Y-75262704D01*
X184918925Y-75262697D01*
X184956503Y-75216066D01*
X184956504Y-75216065D01*
X184989440Y-75143944D01*
X185035194Y-75091139D01*
X185050725Y-75082659D01*
X185122846Y-75049723D01*
X185122847Y-75049722D01*
X185169478Y-75012144D01*
X185169485Y-75012138D01*
X185203302Y-74978322D01*
X185203302Y-74978321D01*
X184708328Y-74483347D01*
X184708327Y-74483347D01*
X184549227Y-74642446D01*
X184390128Y-74801545D01*
X183824444Y-74801545D01*
X183951719Y-74674270D01*
X183951722Y-74674266D01*
X183963490Y-74662499D01*
X183963492Y-74662497D01*
X183965865Y-74660125D01*
X183980004Y-74645985D01*
X184425484Y-74200505D01*
X184991169Y-74200505D01*
X185486144Y-74695480D01*
X185519960Y-74661663D01*
X185519966Y-74661656D01*
X185557544Y-74615025D01*
X185590480Y-74542904D01*
X185636234Y-74490099D01*
X185651766Y-74481618D01*
X185723887Y-74448682D01*
X185770518Y-74411104D01*
X185770525Y-74411098D01*
X185804342Y-74377282D01*
X185309367Y-73882307D01*
X184991169Y-74200505D01*
X184425484Y-74200505D01*
X184552760Y-74073229D01*
X184552763Y-74073225D01*
X184564531Y-74061458D01*
X184564533Y-74061456D01*
X184566906Y-74059084D01*
X184581044Y-74044945D01*
X185026525Y-73599464D01*
X185592209Y-73599464D01*
X185592209Y-73599465D01*
X186087184Y-74094440D01*
X186121000Y-74060623D01*
X186121006Y-74060616D01*
X186158584Y-74013985D01*
X186158585Y-74013984D01*
X186191521Y-73941863D01*
X186237275Y-73889058D01*
X186252806Y-73880578D01*
X186324927Y-73847642D01*
X186324928Y-73847641D01*
X186371559Y-73810063D01*
X186371566Y-73810057D01*
X186405383Y-73776241D01*
X185910408Y-73281266D01*
X185910407Y-73281266D01*
X185754581Y-73437093D01*
X185592209Y-73599464D01*
X185026525Y-73599464D01*
X185153801Y-73472188D01*
X185153804Y-73472184D01*
X185165572Y-73460417D01*
X185165574Y-73460415D01*
X185167946Y-73458044D01*
X185182085Y-73443904D01*
X185627566Y-72998423D01*
X186193250Y-72998423D01*
X186193250Y-72998424D01*
X186688224Y-73493399D01*
X186722041Y-73459582D01*
X186722047Y-73459575D01*
X186759625Y-73412944D01*
X186759626Y-73412943D01*
X186792562Y-73340822D01*
X186838316Y-73288017D01*
X186853847Y-73279537D01*
X186925968Y-73246601D01*
X186925969Y-73246600D01*
X186972600Y-73209022D01*
X186972607Y-73209016D01*
X187006424Y-73175200D01*
X187006424Y-73175199D01*
X186511450Y-72680225D01*
X186511449Y-72680225D01*
X186352349Y-72839324D01*
X186193250Y-72998423D01*
X185627566Y-72998423D01*
X185754841Y-72871148D01*
X185754844Y-72871144D01*
X185766612Y-72859377D01*
X185766614Y-72859375D01*
X185768987Y-72857003D01*
X185783126Y-72842863D01*
X186355888Y-72270101D01*
X186370036Y-72255955D01*
X186384168Y-72241820D01*
X186384168Y-72222476D01*
X186403850Y-72155436D01*
X186420487Y-72134790D01*
X187077134Y-71478144D01*
X187713530Y-70841748D01*
X187573643Y-70701861D01*
X187527009Y-70664281D01*
X187470008Y-70638250D01*
X187417204Y-70592495D01*
X187397520Y-70525456D01*
X187417205Y-70458416D01*
X187438954Y-70432943D01*
X187700000Y-70200000D01*
X187700000Y-68400000D01*
X184200000Y-65000000D01*
X180997125Y-65000000D01*
X180930086Y-64980315D01*
X180884331Y-64927511D01*
X180874387Y-64858353D01*
X180903412Y-64794797D01*
X180909444Y-64788319D01*
X180979697Y-64718064D01*
X181224623Y-64473139D01*
X181289881Y-64393032D01*
X181368618Y-64236251D01*
X181369681Y-64231769D01*
X181397001Y-64116498D01*
X181409079Y-64065538D01*
X181409079Y-63974361D01*
X181415687Y-63951854D01*
X181417872Y-63928498D01*
X181426310Y-63915679D01*
X181428764Y-63907322D01*
X181435460Y-63897899D01*
X181440089Y-63891988D01*
X181451078Y-63881000D01*
X181464903Y-63860308D01*
X181467795Y-63856617D01*
X181492558Y-63838910D01*
X181515925Y-63819383D01*
X181521487Y-63818224D01*
X181524630Y-63815978D01*
X181534669Y-63815480D01*
X181565414Y-63809079D01*
X181665535Y-63809079D01*
X181665538Y-63809079D01*
X181757936Y-63787179D01*
X181836248Y-63768619D01*
X181836249Y-63768618D01*
X181836251Y-63768618D01*
X181993032Y-63689881D01*
X182073139Y-63624624D01*
X182515093Y-63182669D01*
X182580351Y-63102562D01*
X182659088Y-62945781D01*
X182659666Y-62943345D01*
X182677649Y-62867466D01*
X182699549Y-62775068D01*
X182699549Y-62599627D01*
X182681858Y-62524986D01*
X184750001Y-62524986D01*
X184760494Y-62627697D01*
X184815641Y-62794119D01*
X184815643Y-62794124D01*
X184907684Y-62943345D01*
X185031654Y-63067315D01*
X185180875Y-63159356D01*
X185180880Y-63159358D01*
X185347302Y-63214505D01*
X185347309Y-63214506D01*
X185450019Y-63224999D01*
X185699999Y-63224999D01*
X185700000Y-63224998D01*
X185700000Y-62462500D01*
X184750001Y-62462500D01*
X184750001Y-62524986D01*
X182681858Y-62524986D01*
X182659088Y-62428914D01*
X182580351Y-62272133D01*
X182515094Y-62192026D01*
X182195494Y-61872426D01*
X181824732Y-61501664D01*
X181791247Y-61440341D01*
X181788413Y-61413983D01*
X181788413Y-61060479D01*
X181808098Y-60993440D01*
X181827309Y-60970804D01*
X181827134Y-60970629D01*
X181829275Y-60968487D01*
X181829309Y-60968448D01*
X181829353Y-60968407D01*
X181829366Y-60968397D01*
X182244223Y-60553540D01*
X182308933Y-60474104D01*
X182387015Y-60318629D01*
X182427138Y-60149338D01*
X182427138Y-59975357D01*
X182387015Y-59806066D01*
X182308933Y-59650590D01*
X182244223Y-59571154D01*
X181528846Y-58855777D01*
X181449410Y-58791067D01*
X181293934Y-58712985D01*
X181124643Y-58672862D01*
X180950662Y-58672862D01*
X180837801Y-58699610D01*
X180781370Y-58712985D01*
X180751055Y-58728210D01*
X180625896Y-58791067D01*
X180586178Y-58823422D01*
X180546459Y-58855777D01*
X180131603Y-59270633D01*
X180109200Y-59298135D01*
X180066893Y-59350070D01*
X180043761Y-59396130D01*
X179988811Y-59505544D01*
X179973261Y-59571154D01*
X179950920Y-59665421D01*
X179948688Y-59674837D01*
X179948688Y-59848816D01*
X179949009Y-59850171D01*
X179948958Y-59851131D01*
X179949526Y-59855990D01*
X179948695Y-59856087D01*
X179945315Y-59919943D01*
X179904485Y-59976641D01*
X179839484Y-60002265D01*
X179827105Y-60002760D01*
X179604905Y-60000528D01*
X179578682Y-59992541D01*
X179551669Y-59987924D01*
X179545745Y-59982509D01*
X179538067Y-59980171D01*
X179520326Y-59959276D01*
X179500096Y-59940786D01*
X179495874Y-59930477D01*
X179492845Y-59926910D01*
X179492086Y-59921229D01*
X179485494Y-59905134D01*
X179462015Y-59806066D01*
X179383933Y-59650590D01*
X179319223Y-59571154D01*
X178603846Y-58855777D01*
X178524410Y-58791067D01*
X178368934Y-58712985D01*
X178199643Y-58672862D01*
X178025662Y-58672862D01*
X177912801Y-58699610D01*
X177856370Y-58712985D01*
X177826055Y-58728210D01*
X177700896Y-58791067D01*
X177661178Y-58823422D01*
X177621459Y-58855777D01*
X177206603Y-59270633D01*
X177184200Y-59298135D01*
X177141893Y-59350070D01*
X177118761Y-59396130D01*
X177063811Y-59505544D01*
X177048261Y-59571154D01*
X177025920Y-59665421D01*
X177023688Y-59674837D01*
X177023688Y-59848816D01*
X177024009Y-59850171D01*
X177023958Y-59851131D01*
X177024526Y-59855990D01*
X177023695Y-59856087D01*
X177020315Y-59919943D01*
X176979485Y-59976641D01*
X176914484Y-60002265D01*
X176880950Y-59999867D01*
X176880932Y-60000026D01*
X176877410Y-59999614D01*
X176874762Y-59999425D01*
X176873762Y-59999188D01*
X176699893Y-59999188D01*
X176674778Y-60005140D01*
X176605006Y-60001445D01*
X176548308Y-59960616D01*
X176525527Y-59913080D01*
X176512015Y-59856066D01*
X176433933Y-59700590D01*
X176369223Y-59621154D01*
X175653846Y-58905777D01*
X175574410Y-58841067D01*
X175418934Y-58762985D01*
X175249643Y-58722862D01*
X175075662Y-58722862D01*
X174962801Y-58749610D01*
X174906370Y-58762985D01*
X174850455Y-58791067D01*
X174750896Y-58841067D01*
X174711178Y-58873422D01*
X174671459Y-58905777D01*
X174256603Y-59320633D01*
X174232624Y-59350070D01*
X174191893Y-59400070D01*
X174171746Y-59440186D01*
X174113811Y-59555544D01*
X174098261Y-59621154D01*
X174079435Y-59700590D01*
X174073688Y-59724837D01*
X174073688Y-59898816D01*
X174074009Y-59900171D01*
X174073958Y-59901131D01*
X174074526Y-59905990D01*
X174073695Y-59906087D01*
X174070315Y-59969943D01*
X174029485Y-60026641D01*
X173964484Y-60052265D01*
X173930950Y-60049867D01*
X173930932Y-60050026D01*
X173927410Y-60049614D01*
X173924762Y-60049425D01*
X173923762Y-60049188D01*
X173749893Y-60049188D01*
X173580717Y-60089283D01*
X173425351Y-60167311D01*
X173425345Y-60167315D01*
X173345972Y-60231973D01*
X173345956Y-60231987D01*
X173315336Y-60262608D01*
X174076183Y-61023455D01*
X174109668Y-61084778D01*
X174104684Y-61154470D01*
X174076183Y-61198817D01*
X173987087Y-61287913D01*
X174076183Y-61377009D01*
X174109668Y-61438332D01*
X174104684Y-61508024D01*
X174076183Y-61552371D01*
X173465596Y-62162958D01*
X173646472Y-62343834D01*
X173646487Y-62343848D01*
X173725866Y-62408510D01*
X173725872Y-62408514D01*
X173819822Y-62455698D01*
X173870896Y-62503376D01*
X173888086Y-62571098D01*
X173865934Y-62637363D01*
X173842489Y-62662645D01*
X173826865Y-62675372D01*
X173826853Y-62675383D01*
X173384914Y-63117323D01*
X173384895Y-63117344D01*
X173319654Y-63197430D01*
X173319650Y-63197436D01*
X173240910Y-63354221D01*
X173200452Y-63524924D01*
X173200451Y-63524935D01*
X173200451Y-63700369D01*
X173200452Y-63700380D01*
X173240910Y-63871083D01*
X173262726Y-63914523D01*
X173319649Y-64027867D01*
X173384906Y-64107974D01*
X174092026Y-64815093D01*
X174092034Y-64815099D01*
X174092039Y-64815104D01*
X174172125Y-64880345D01*
X174172128Y-64880347D01*
X174172133Y-64880351D01*
X174313610Y-64951402D01*
X174328916Y-64959089D01*
X174471459Y-64992873D01*
X174499627Y-64999549D01*
X174499630Y-64999549D01*
X174675065Y-64999549D01*
X174675068Y-64999549D01*
X174792206Y-64971786D01*
X174845778Y-64959089D01*
X174845779Y-64959088D01*
X174845781Y-64959088D01*
X175002562Y-64880351D01*
X175082669Y-64815094D01*
X175387542Y-64510219D01*
X175448865Y-64476735D01*
X175499414Y-64476284D01*
X175621153Y-64500499D01*
X175621156Y-64500500D01*
X175621158Y-64500500D01*
X175778844Y-64500500D01*
X175778845Y-64500499D01*
X175933497Y-64469737D01*
X176077361Y-64410147D01*
X176079172Y-64409397D01*
X176079172Y-64409396D01*
X176079179Y-64409394D01*
X176210289Y-64321789D01*
X176266825Y-64265252D01*
X176328146Y-64231769D01*
X176397838Y-64236753D01*
X176442186Y-64265254D01*
X176719993Y-64543060D01*
X176992026Y-64815093D01*
X176992034Y-64815099D01*
X176992039Y-64815104D01*
X177072125Y-64880345D01*
X177072128Y-64880347D01*
X177072133Y-64880351D01*
X177213610Y-64951402D01*
X177228916Y-64959089D01*
X177371459Y-64992873D01*
X177399627Y-64999549D01*
X177399630Y-64999549D01*
X177575065Y-64999549D01*
X177575068Y-64999549D01*
X177692206Y-64971786D01*
X177745778Y-64959089D01*
X177745779Y-64959088D01*
X177745781Y-64959088D01*
X177902562Y-64880351D01*
X177982669Y-64815094D01*
X178351296Y-64446465D01*
X178412619Y-64412981D01*
X178438977Y-64410147D01*
X178481089Y-64410147D01*
X178481090Y-64410146D01*
X178635742Y-64379384D01*
X178774790Y-64321789D01*
X178781417Y-64319044D01*
X178781417Y-64319043D01*
X178781424Y-64319041D01*
X178912534Y-64231436D01*
X178922768Y-64221200D01*
X178984089Y-64187715D01*
X179053781Y-64192697D01*
X179098129Y-64221197D01*
X179792026Y-64915093D01*
X179792034Y-64915099D01*
X179792039Y-64915104D01*
X179872125Y-64980345D01*
X179872128Y-64980347D01*
X179872133Y-64980351D01*
X180019516Y-65054368D01*
X180028916Y-65059089D01*
X180166515Y-65091701D01*
X180227208Y-65126315D01*
X180259551Y-65188248D01*
X180253278Y-65257835D01*
X180229448Y-65296014D01*
X172100000Y-74190589D01*
X172100000Y-75884270D01*
X172080315Y-75951309D01*
X172027511Y-75997064D01*
X171958353Y-76007008D01*
X171894797Y-75977983D01*
X171888319Y-75971952D01*
X171867676Y-75951309D01*
X171820172Y-75903805D01*
X171786689Y-75842485D01*
X171785382Y-75796733D01*
X171800500Y-75701287D01*
X171800500Y-75488713D01*
X171767246Y-75278757D01*
X171701557Y-75076588D01*
X171605051Y-74887184D01*
X171605049Y-74887181D01*
X171605048Y-74887179D01*
X171480109Y-74715213D01*
X171329786Y-74564890D01*
X171157820Y-74439951D01*
X170968414Y-74343444D01*
X170968413Y-74343443D01*
X170968412Y-74343443D01*
X170766243Y-74277754D01*
X170766241Y-74277753D01*
X170766240Y-74277753D01*
X170603779Y-74252022D01*
X170556287Y-74244500D01*
X170343713Y-74244500D01*
X170296221Y-74252022D01*
X170133760Y-74277753D01*
X169931585Y-74343444D01*
X169742179Y-74439951D01*
X169570213Y-74564890D01*
X169419890Y-74715213D01*
X169294951Y-74887179D01*
X169198444Y-75076585D01*
X169198443Y-75076587D01*
X169198443Y-75076588D01*
X169183982Y-75121093D01*
X169132753Y-75278760D01*
X169115438Y-75388084D01*
X169099500Y-75488713D01*
X163860013Y-75488713D01*
X164034905Y-74692497D01*
X164036067Y-74687676D01*
X164582057Y-72606876D01*
X164583467Y-72601926D01*
X165185930Y-70641790D01*
X165187569Y-70636837D01*
X165841356Y-68793759D01*
X165843254Y-68788757D01*
X166487159Y-67197648D01*
X169199500Y-67197648D01*
X169199500Y-67402351D01*
X169231522Y-67604534D01*
X169294781Y-67799223D01*
X169355446Y-67918283D01*
X169386875Y-67979966D01*
X169387715Y-67981613D01*
X169508028Y-68147213D01*
X169652786Y-68291971D01*
X169779720Y-68384192D01*
X169818390Y-68412287D01*
X169934607Y-68471503D01*
X170000776Y-68505218D01*
X170000778Y-68505218D01*
X170000781Y-68505220D01*
X170105137Y-68539127D01*
X170195465Y-68568477D01*
X170296557Y-68584488D01*
X170397648Y-68600500D01*
X170397649Y-68600500D01*
X170602351Y-68600500D01*
X170602352Y-68600500D01*
X170804534Y-68568477D01*
X170999219Y-68505220D01*
X171181610Y-68412287D01*
X171274590Y-68344732D01*
X171347213Y-68291971D01*
X171347215Y-68291968D01*
X171347219Y-68291966D01*
X171491966Y-68147219D01*
X171491968Y-68147215D01*
X171491971Y-68147213D01*
X171584631Y-68019675D01*
X171612287Y-67981610D01*
X171705220Y-67799219D01*
X171768477Y-67604534D01*
X171800500Y-67402352D01*
X171800500Y-67197648D01*
X171778558Y-67059111D01*
X171768477Y-66995465D01*
X171733724Y-66888507D01*
X171705220Y-66800781D01*
X171705218Y-66800778D01*
X171705218Y-66800776D01*
X171659054Y-66710176D01*
X171612287Y-66618390D01*
X171603592Y-66606422D01*
X171491971Y-66452786D01*
X171347213Y-66308028D01*
X171181613Y-66187715D01*
X171181612Y-66187714D01*
X171181610Y-66187713D01*
X171124653Y-66158691D01*
X170999223Y-66094781D01*
X170804534Y-66031522D01*
X170629995Y-66003878D01*
X170602352Y-65999500D01*
X170397648Y-65999500D01*
X170373329Y-66003351D01*
X170195465Y-66031522D01*
X170000776Y-66094781D01*
X169818386Y-66187715D01*
X169652786Y-66308028D01*
X169508028Y-66452786D01*
X169387715Y-66618386D01*
X169294781Y-66800776D01*
X169231522Y-66995465D01*
X169199500Y-67197648D01*
X166487159Y-67197648D01*
X166543236Y-67059080D01*
X166545385Y-67054089D01*
X167286458Y-65434140D01*
X167288902Y-65429103D01*
X167344480Y-65320827D01*
X168065974Y-63915234D01*
X168068656Y-63910291D01*
X168876702Y-62498774D01*
X168879598Y-62493972D01*
X169713582Y-61181139D01*
X169716750Y-61176398D01*
X169751520Y-61126870D01*
X169804979Y-61050718D01*
X172748362Y-61050718D01*
X172748362Y-61224582D01*
X172788459Y-61393766D01*
X172866485Y-61549126D01*
X172866489Y-61549133D01*
X172931151Y-61628512D01*
X172931165Y-61628527D01*
X173112042Y-61809404D01*
X173633533Y-61287913D01*
X172961782Y-60616162D01*
X172931161Y-60646782D01*
X172931147Y-60646798D01*
X172866489Y-60726171D01*
X172866485Y-60726177D01*
X172788457Y-60881543D01*
X172748362Y-61050718D01*
X169804979Y-61050718D01*
X170571620Y-59958652D01*
X170574986Y-59954085D01*
X171441576Y-58833175D01*
X171446901Y-58826750D01*
X173221457Y-56828076D01*
X173229139Y-56820166D01*
X174971799Y-55178711D01*
X178649500Y-55178711D01*
X178649500Y-55421288D01*
X178681161Y-55661785D01*
X178743947Y-55896104D01*
X178825659Y-56093373D01*
X178836776Y-56120212D01*
X178958064Y-56330289D01*
X178958066Y-56330292D01*
X178958067Y-56330293D01*
X179105733Y-56522736D01*
X179105739Y-56522743D01*
X179277256Y-56694260D01*
X179277262Y-56694265D01*
X179469711Y-56841936D01*
X179679788Y-56963224D01*
X179903900Y-57056054D01*
X180138211Y-57118838D01*
X180313851Y-57141961D01*
X180378711Y-57150500D01*
X180378712Y-57150500D01*
X180621289Y-57150500D01*
X180686149Y-57141961D01*
X180861789Y-57118838D01*
X181096100Y-57056054D01*
X181320212Y-56963224D01*
X181530289Y-56841936D01*
X181722738Y-56694265D01*
X181722743Y-56694260D01*
X181861047Y-56555957D01*
X181894260Y-56522743D01*
X181894265Y-56522738D01*
X182041936Y-56330289D01*
X182163224Y-56120212D01*
X182256054Y-55896100D01*
X182318838Y-55661789D01*
X182350500Y-55421288D01*
X182350500Y-55178712D01*
X182318838Y-54938211D01*
X182256054Y-54703900D01*
X182163224Y-54479788D01*
X182041936Y-54269711D01*
X181894265Y-54077262D01*
X181894260Y-54077256D01*
X181722743Y-53905739D01*
X181722736Y-53905733D01*
X181530293Y-53758067D01*
X181530292Y-53758066D01*
X181530289Y-53758064D01*
X181320212Y-53636776D01*
X181301326Y-53628953D01*
X181096104Y-53543947D01*
X180861785Y-53481161D01*
X180621289Y-53449500D01*
X180621288Y-53449500D01*
X180378712Y-53449500D01*
X180378711Y-53449500D01*
X180138214Y-53481161D01*
X179903895Y-53543947D01*
X179679794Y-53636773D01*
X179679785Y-53636777D01*
X179469706Y-53758067D01*
X179277263Y-53905733D01*
X179277256Y-53905739D01*
X179105739Y-54077256D01*
X179105733Y-54077263D01*
X178958067Y-54269706D01*
X178836777Y-54479785D01*
X178836773Y-54479794D01*
X178743947Y-54703895D01*
X178681161Y-54938214D01*
X178649500Y-55178711D01*
X174971799Y-55178711D01*
X175003107Y-55149221D01*
X175011100Y-55142313D01*
X176749838Y-53765172D01*
X176757942Y-53759271D01*
X178421932Y-52647826D01*
X178429862Y-52642951D01*
X179807165Y-51866504D01*
X184655000Y-51866504D01*
X184655000Y-52015000D01*
X185355000Y-52015000D01*
X185355000Y-52515000D01*
X184655000Y-52515000D01*
X184655000Y-52663495D01*
X184693427Y-52856681D01*
X184693430Y-52856693D01*
X184768807Y-53038671D01*
X184768814Y-53038684D01*
X184878248Y-53202462D01*
X184878251Y-53202466D01*
X185017533Y-53341748D01*
X185017537Y-53341751D01*
X185181315Y-53451185D01*
X185181328Y-53451192D01*
X185363308Y-53526569D01*
X185405000Y-53534862D01*
X185405000Y-52731988D01*
X185414940Y-52749205D01*
X185470795Y-52805060D01*
X185539204Y-52844556D01*
X185615504Y-52865000D01*
X185694496Y-52865000D01*
X185770796Y-52844556D01*
X185839205Y-52805060D01*
X185895060Y-52749205D01*
X185905000Y-52731988D01*
X185905000Y-53534862D01*
X185946690Y-53526569D01*
X185946692Y-53526569D01*
X186128671Y-53451192D01*
X186128684Y-53451185D01*
X186292462Y-53341751D01*
X186292466Y-53341748D01*
X186431748Y-53202466D01*
X186431751Y-53202462D01*
X186541185Y-53038684D01*
X186541192Y-53038671D01*
X186616569Y-52856693D01*
X186616572Y-52856681D01*
X186654999Y-52663495D01*
X186655000Y-52663492D01*
X186655000Y-52515000D01*
X185955000Y-52515000D01*
X185955000Y-52015000D01*
X186655000Y-52015000D01*
X186655000Y-51866508D01*
X186654999Y-51866504D01*
X193295000Y-51866504D01*
X193295000Y-52015000D01*
X193995000Y-52015000D01*
X193995000Y-52515000D01*
X193295000Y-52515000D01*
X193295000Y-52663495D01*
X193333427Y-52856681D01*
X193333430Y-52856693D01*
X193408807Y-53038671D01*
X193408814Y-53038684D01*
X193518248Y-53202462D01*
X193518251Y-53202466D01*
X193657533Y-53341748D01*
X193657537Y-53341751D01*
X193821315Y-53451185D01*
X193821328Y-53451192D01*
X194003308Y-53526569D01*
X194045000Y-53534862D01*
X194045000Y-52731988D01*
X194054940Y-52749205D01*
X194110795Y-52805060D01*
X194179204Y-52844556D01*
X194255504Y-52865000D01*
X194334496Y-52865000D01*
X194410796Y-52844556D01*
X194479205Y-52805060D01*
X194535060Y-52749205D01*
X194545000Y-52731988D01*
X194545000Y-53534862D01*
X194586690Y-53526569D01*
X194586692Y-53526569D01*
X194768671Y-53451192D01*
X194768684Y-53451185D01*
X194932462Y-53341751D01*
X194932466Y-53341748D01*
X195071748Y-53202466D01*
X195071751Y-53202462D01*
X195181185Y-53038684D01*
X195181192Y-53038671D01*
X195256569Y-52856693D01*
X195256572Y-52856681D01*
X195294999Y-52663495D01*
X195295000Y-52663492D01*
X195295000Y-52515000D01*
X194595000Y-52515000D01*
X194595000Y-52015000D01*
X195295000Y-52015000D01*
X195295000Y-51866508D01*
X195294999Y-51866504D01*
X195256572Y-51673318D01*
X195256569Y-51673306D01*
X195181192Y-51491328D01*
X195181185Y-51491315D01*
X195071751Y-51327537D01*
X195071748Y-51327533D01*
X194932466Y-51188251D01*
X194932462Y-51188248D01*
X194768684Y-51078814D01*
X194768671Y-51078807D01*
X194586691Y-51003429D01*
X194586683Y-51003427D01*
X194545000Y-50995135D01*
X194545000Y-51798011D01*
X194535060Y-51780795D01*
X194479205Y-51724940D01*
X194410796Y-51685444D01*
X194334496Y-51665000D01*
X194255504Y-51665000D01*
X194179204Y-51685444D01*
X194110795Y-51724940D01*
X194054940Y-51780795D01*
X194045000Y-51798011D01*
X194045000Y-50995136D01*
X194044999Y-50995135D01*
X194003316Y-51003427D01*
X194003308Y-51003429D01*
X193821328Y-51078807D01*
X193821315Y-51078814D01*
X193657537Y-51188248D01*
X193657533Y-51188251D01*
X193518251Y-51327533D01*
X193518248Y-51327537D01*
X193408814Y-51491315D01*
X193408807Y-51491328D01*
X193333430Y-51673306D01*
X193333427Y-51673318D01*
X193295000Y-51866504D01*
X186654999Y-51866504D01*
X186616572Y-51673318D01*
X186616569Y-51673306D01*
X186541192Y-51491328D01*
X186541185Y-51491315D01*
X186431751Y-51327537D01*
X186431748Y-51327533D01*
X186292466Y-51188251D01*
X186292462Y-51188248D01*
X186128684Y-51078814D01*
X186128671Y-51078807D01*
X185946691Y-51003429D01*
X185946683Y-51003427D01*
X185905000Y-50995135D01*
X185905000Y-51798011D01*
X185895060Y-51780795D01*
X185839205Y-51724940D01*
X185770796Y-51685444D01*
X185694496Y-51665000D01*
X185615504Y-51665000D01*
X185539204Y-51685444D01*
X185470795Y-51724940D01*
X185414940Y-51780795D01*
X185405000Y-51798011D01*
X185405000Y-50995136D01*
X185404999Y-50995135D01*
X185363316Y-51003427D01*
X185363308Y-51003429D01*
X185181328Y-51078807D01*
X185181315Y-51078814D01*
X185017537Y-51188248D01*
X185017533Y-51188251D01*
X184878251Y-51327533D01*
X184878248Y-51327537D01*
X184768814Y-51491315D01*
X184768807Y-51491328D01*
X184693430Y-51673306D01*
X184693427Y-51673318D01*
X184655000Y-51866504D01*
X179807165Y-51866504D01*
X179979316Y-51769455D01*
X179986943Y-51765498D01*
X181381975Y-51102342D01*
X181389113Y-51099221D01*
X182584193Y-50621093D01*
X182592974Y-50617959D01*
X184194687Y-50113573D01*
X184231918Y-50107849D01*
X195882054Y-50107835D01*
X195913590Y-50111912D01*
G37*
%TD.AperFunction*%
%TD*%
M02*
