%TF.GenerationSoftware,KiCad,Pcbnew,9.0.0*%
%TF.CreationDate,2026-01-18T15:38:31-05:00*%
%TF.ProjectId,hackapet_v4,6861636b-6170-4657-945f-76342e6b6963,rev?*%
%TF.SameCoordinates,Original*%
%TF.FileFunction,Profile,NP*%
%FSLAX46Y46*%
G04 Gerber Fmt 4.6, Leading zero omitted, Abs format (unit mm)*
G04 Created by KiCad (PCBNEW 9.0.0) date 2026-01-18 15:38:31*
%MOMM*%
%LPD*%
G01*
G04 APERTURE LIST*
%TA.AperFunction,Profile*%
%ADD10C,0.100000*%
%TD*%
G04 APERTURE END LIST*
D10*
X174478763Y-111193289D02*
X173181938Y-110267653D01*
X190407975Y-115857199D02*
X190405114Y-115857199D01*
X212879173Y-104833521D02*
X211986284Y-106009305D01*
X211986284Y-106009305D02*
X211017467Y-107146161D01*
X182420156Y-50147652D02*
X184135921Y-49607351D01*
X216684602Y-72467289D02*
X217246659Y-74572818D01*
X213084136Y-63673996D02*
X213892312Y-65213091D01*
X218171273Y-79158790D02*
X218523465Y-81646242D01*
X182332608Y-114710214D02*
X180571111Y-114173499D01*
X163059081Y-76802151D02*
X163548763Y-74572819D01*
X196741649Y-49812151D02*
X197800414Y-50147636D01*
X207709283Y-56474939D02*
X208641774Y-57449985D01*
X167933917Y-104833521D02*
X167114528Y-103624359D01*
X194654391Y-115494783D02*
X192584938Y-115731536D01*
X175863663Y-112052242D02*
X174478763Y-111193289D01*
X198480481Y-114710214D02*
X196618762Y-115152493D01*
X166837196Y-65213094D02*
X167627218Y-63674000D01*
X201905680Y-113547898D02*
X200241977Y-114173499D01*
X179752454Y-51322796D02*
X181184915Y-50641848D01*
X184135921Y-49607351D02*
X195962795Y-49607335D01*
X176458927Y-53357117D02*
X178163537Y-52218539D01*
X162288484Y-81646242D02*
X162637289Y-79158790D01*
X214446883Y-102387372D02*
X213698563Y-103624359D01*
X192584938Y-115731536D02*
X190407975Y-115857199D01*
X217899247Y-93415600D02*
X217207470Y-95979323D01*
X212242285Y-62237672D02*
X213084136Y-63673996D01*
X180571111Y-114173499D02*
X178907408Y-113547898D01*
X217246659Y-74572818D02*
X217743943Y-76802150D01*
X169795622Y-107146161D02*
X168826805Y-106009305D01*
X217207470Y-95979323D02*
X216289720Y-98564961D01*
X200241977Y-114173499D02*
X198480481Y-114710214D01*
X169298835Y-60900619D02*
X170170239Y-59659323D01*
X204005349Y-53357106D02*
X204917063Y-54026222D01*
X165374201Y-68613618D02*
X166084492Y-66858466D01*
X215386905Y-68613616D02*
X216062957Y-70482057D01*
X178907408Y-113547898D02*
X177339068Y-112838962D01*
X163548763Y-74572819D02*
X164101241Y-72467290D01*
X218523465Y-81646242D02*
X218795338Y-84268013D01*
X214661629Y-66858463D02*
X215386905Y-68613616D01*
X218813097Y-86300000D02*
X218682625Y-88531532D01*
X197800414Y-50147636D02*
X199097627Y-50641833D01*
X208641774Y-57449985D02*
X209566502Y-58510276D01*
X184194327Y-115152493D02*
X182332608Y-114710214D01*
X177339068Y-112838962D02*
X175863663Y-112052242D01*
X203111786Y-52755709D02*
X204005349Y-53357106D01*
X218682625Y-88531532D02*
X218384487Y-90918201D01*
X213698563Y-103624359D02*
X212879173Y-104833521D01*
X170170239Y-59659323D02*
X171058578Y-58510282D01*
X171970759Y-109280886D02*
X170842797Y-108238538D01*
X167627218Y-63674000D02*
X168449463Y-62237676D01*
X195962795Y-49607335D02*
X196741649Y-49812151D01*
X205841745Y-54766563D02*
X206774212Y-55581634D01*
X165073059Y-99852122D02*
X164523372Y-98564961D01*
X206774212Y-55581634D02*
X207709283Y-56474939D01*
X166084492Y-66858466D02*
X166837196Y-65213094D01*
X216062957Y-70482057D02*
X216684602Y-72467289D01*
X215740032Y-99852122D02*
X215126563Y-101128109D01*
X168826805Y-106009305D02*
X167933917Y-104833521D01*
X166366208Y-102387372D02*
X165686528Y-101128109D01*
X162637289Y-79158790D02*
X163059081Y-76802151D01*
X200591829Y-51322783D02*
X202241556Y-52218526D01*
X162017760Y-84268013D02*
X162288484Y-81646242D01*
X172865684Y-56474947D02*
X174679388Y-54766573D01*
X173181938Y-110267653D02*
X171970759Y-109280886D01*
X168449463Y-62237676D02*
X169298835Y-60900619D01*
X213892312Y-65213091D02*
X214661629Y-66858463D01*
X162913847Y-93415600D02*
X162428608Y-90918201D01*
X209566502Y-58510276D02*
X210478285Y-59659317D01*
X206334326Y-111193289D02*
X204949425Y-112052242D01*
X202241556Y-52218526D02*
X203111786Y-52755709D01*
X218384487Y-90918201D02*
X217899247Y-93415600D01*
X208842330Y-109280886D02*
X207631151Y-110267653D01*
X188228151Y-115731536D02*
X186158698Y-115494783D01*
X163605623Y-95979323D02*
X162913847Y-93415600D01*
X199097627Y-50641833D02*
X200591829Y-51322783D01*
X178163537Y-52218539D02*
X179752454Y-51322796D01*
X186158698Y-115494783D02*
X184194327Y-115152493D01*
X211017467Y-107146161D02*
X209970292Y-108238538D01*
X216289720Y-98564961D02*
X215740032Y-99852122D01*
X171058578Y-58510282D02*
X172865684Y-56474947D01*
X196618762Y-115152493D02*
X194654391Y-115494783D01*
X217743943Y-76802150D02*
X218171273Y-79158790D01*
X190405114Y-115857199D02*
X188228151Y-115731536D01*
X162130471Y-88531532D02*
X162000000Y-86300000D01*
X164711419Y-70482058D02*
X165374201Y-68613618D01*
X181184915Y-50641848D02*
X182420156Y-50147652D01*
X167114528Y-103624359D02*
X166366208Y-102387372D01*
X209970292Y-108238538D02*
X208842330Y-109280886D01*
X210478285Y-59659317D02*
X211371940Y-60900614D01*
X215126563Y-101128109D02*
X214446883Y-102387372D01*
X174679388Y-54766573D02*
X176458927Y-53357117D01*
X207631151Y-110267653D02*
X206334326Y-111193289D01*
X170842797Y-108238538D02*
X169795622Y-107146161D01*
X162000000Y-86300000D02*
X162017760Y-84268013D01*
X203474020Y-112838962D02*
X201905680Y-113547898D01*
X164523372Y-98564961D02*
X163605623Y-95979323D01*
X204917063Y-54026222D02*
X205841745Y-54766563D01*
X164101241Y-72467290D02*
X164711419Y-70482058D01*
X204949425Y-112052242D02*
X203474020Y-112838962D01*
X165686528Y-101128109D02*
X165073059Y-99852122D01*
X211371940Y-60900614D02*
X212242285Y-62237672D01*
X162428608Y-90918201D02*
X162130471Y-88531532D01*
X218795338Y-84268013D02*
X218813097Y-86300000D01*
M02*
