%TF.GenerationSoftware,KiCad,Pcbnew,9.0.0*%
%TF.CreationDate,2026-01-18T15:38:31-05:00*%
%TF.ProjectId,hackapet_v4,6861636b-6170-4657-945f-76342e6b6963,rev?*%
%TF.SameCoordinates,Original*%
%TF.FileFunction,Legend,Top*%
%TF.FilePolarity,Positive*%
%FSLAX46Y46*%
G04 Gerber Fmt 4.6, Leading zero omitted, Abs format (unit mm)*
G04 Created by KiCad (PCBNEW 9.0.0) date 2026-01-18 15:38:31*
%MOMM*%
%LPD*%
G01*
G04 APERTURE LIST*
%ADD10C,0.100000*%
%ADD11C,0.150000*%
%ADD12C,0.120000*%
%ADD13C,0.127000*%
%ADD14C,0.200000*%
G04 APERTURE END LIST*
D10*
X204150000Y-74375000D02*
X211650000Y-74375000D01*
X211650000Y-91925000D01*
X204150000Y-91925000D01*
X204150000Y-74375000D01*
X178857408Y-113547898D02*
X177289068Y-112838962D01*
X162378608Y-90918201D02*
X162080471Y-88531532D01*
X210967467Y-107146161D02*
X209920292Y-108238538D01*
X190355114Y-115857199D02*
X188178151Y-115731536D01*
X204867063Y-54026222D02*
X205791745Y-54766563D01*
X166787196Y-65213094D02*
X167577218Y-63674000D01*
X208591774Y-57449985D02*
X209516502Y-58510276D01*
X201855680Y-113547898D02*
X200191977Y-114173499D01*
X169745622Y-107146161D02*
X168776805Y-106009305D01*
X196568762Y-115152493D02*
X194604391Y-115494783D01*
X163009081Y-76802151D02*
X163498763Y-74572819D01*
X200541829Y-51322783D02*
X202191556Y-52218526D01*
X163555623Y-95979323D02*
X162863847Y-93415600D01*
X195912795Y-49607335D02*
X196691649Y-49812151D01*
X162863847Y-93415600D02*
X162378608Y-90918201D01*
X180521111Y-114173499D02*
X178857408Y-113547898D01*
X172815684Y-56474947D02*
X174629388Y-54766573D01*
X177289068Y-112838962D02*
X175813663Y-112052242D01*
X203955349Y-53357106D02*
X204867063Y-54026222D01*
X167883917Y-104833521D02*
X167064528Y-103624359D01*
X162238484Y-81646242D02*
X162587289Y-79158790D01*
X179332876Y-105010165D02*
X179445139Y-105018702D01*
X179555769Y-105032759D01*
X179664629Y-105052200D01*
X179771578Y-105076883D01*
X179876479Y-105106672D01*
X179979191Y-105141426D01*
X180079577Y-105181007D01*
X180177497Y-105225275D01*
X180272813Y-105274093D01*
X180365385Y-105327321D01*
X180455075Y-105384820D01*
X180541744Y-105446452D01*
X180625253Y-105512077D01*
X180705463Y-105581556D01*
X180782235Y-105654751D01*
X180855430Y-105731523D01*
X180924909Y-105811733D01*
X180990534Y-105895242D01*
X181052166Y-105981911D01*
X181109665Y-106071601D01*
X181162893Y-106164173D01*
X181211711Y-106259489D01*
X181255979Y-106357409D01*
X181295560Y-106457795D01*
X181330314Y-106560508D01*
X181360103Y-106665408D01*
X181384786Y-106772357D01*
X181404227Y-106881217D01*
X181418284Y-106991847D01*
X181426821Y-107104110D01*
X181429697Y-107217866D01*
X181426821Y-107331622D01*
X181418284Y-107443885D01*
X181404227Y-107554516D01*
X181384786Y-107663375D01*
X181360103Y-107770324D01*
X181330314Y-107875225D01*
X181295560Y-107977937D01*
X181255979Y-108078323D01*
X181211711Y-108176243D01*
X181162893Y-108271559D01*
X181109665Y-108364131D01*
X181052166Y-108453821D01*
X180990534Y-108540490D01*
X180924909Y-108623999D01*
X180855430Y-108704209D01*
X180782235Y-108780981D01*
X180705463Y-108854176D01*
X180625253Y-108923655D01*
X180541744Y-108989280D01*
X180455075Y-109050912D01*
X180365385Y-109108411D01*
X180272813Y-109161639D01*
X180177497Y-109210457D01*
X180079577Y-109254726D01*
X179979191Y-109294306D01*
X179876479Y-109329060D01*
X179771578Y-109358849D01*
X179664629Y-109383532D01*
X179555769Y-109402973D01*
X179445139Y-109417031D01*
X179332876Y-109425567D01*
X179219120Y-109428443D01*
X179105364Y-109425567D01*
X178993101Y-109417031D01*
X178882471Y-109402973D01*
X178773611Y-109383532D01*
X178666662Y-109358849D01*
X178561761Y-109329060D01*
X178459049Y-109294306D01*
X178358663Y-109254726D01*
X178260743Y-109210457D01*
X178165427Y-109161639D01*
X178072855Y-109108411D01*
X177983165Y-109050912D01*
X177896496Y-108989280D01*
X177812987Y-108923655D01*
X177732777Y-108854176D01*
X177656005Y-108780981D01*
X177582810Y-108704209D01*
X177513331Y-108623999D01*
X177447706Y-108540490D01*
X177386074Y-108453821D01*
X177328575Y-108364131D01*
X177275347Y-108271559D01*
X177226529Y-108176243D01*
X177182261Y-108078323D01*
X177142680Y-107977937D01*
X177107926Y-107875225D01*
X177078137Y-107770324D01*
X177053454Y-107663375D01*
X177034013Y-107554516D01*
X177019956Y-107443885D01*
X177011419Y-107331622D01*
X177008543Y-107217866D01*
X177011419Y-107104110D01*
X177019956Y-106991847D01*
X177034013Y-106881217D01*
X177053454Y-106772357D01*
X177078137Y-106665408D01*
X177107926Y-106560508D01*
X177142680Y-106457795D01*
X177182261Y-106357409D01*
X177226529Y-106259489D01*
X177275347Y-106164173D01*
X177328575Y-106071601D01*
X177386074Y-105981911D01*
X177447706Y-105895242D01*
X177513331Y-105811733D01*
X177582810Y-105731523D01*
X177656005Y-105654751D01*
X177732777Y-105581556D01*
X177812987Y-105512077D01*
X177896496Y-105446452D01*
X177983165Y-105384820D01*
X178072855Y-105327321D01*
X178165427Y-105274093D01*
X178260743Y-105225275D01*
X178358663Y-105181007D01*
X178459049Y-105141426D01*
X178561761Y-105106672D01*
X178666662Y-105076883D01*
X178773611Y-105052200D01*
X178882471Y-105032759D01*
X178993101Y-105018702D01*
X179105364Y-105010165D01*
X179219120Y-105007289D01*
X179332876Y-105010165D01*
X162080471Y-88531532D02*
X161950000Y-86300000D01*
X190578814Y-106260485D02*
X190746753Y-106272859D01*
X190912228Y-106293236D01*
X191075034Y-106321413D01*
X191234963Y-106357187D01*
X191391810Y-106400357D01*
X191545368Y-106450719D01*
X191695431Y-106508073D01*
X191841792Y-106572215D01*
X191984246Y-106642943D01*
X192122586Y-106720055D01*
X192256605Y-106803348D01*
X192386098Y-106892620D01*
X192510858Y-106987670D01*
X192630679Y-107088293D01*
X192745354Y-107194290D01*
X192854678Y-107305456D01*
X192958444Y-107421589D01*
X193056445Y-107542488D01*
X193148476Y-107667950D01*
X193234329Y-107797772D01*
X193313800Y-107931753D01*
X193386681Y-108069690D01*
X193452766Y-108211381D01*
X193511849Y-108356623D01*
X193563723Y-108505214D01*
X193608183Y-108656952D01*
X193645022Y-108811635D01*
X193674034Y-108969059D01*
X193695012Y-109129024D01*
X193707750Y-109291326D01*
X193712041Y-109455763D01*
X193707750Y-109620200D01*
X193695012Y-109782503D01*
X193674034Y-109942468D01*
X193645022Y-110099893D01*
X193608183Y-110254575D01*
X193563723Y-110406314D01*
X193511849Y-110554905D01*
X193452766Y-110700147D01*
X193386681Y-110841838D01*
X193313800Y-110979775D01*
X193234329Y-111113756D01*
X193148476Y-111243579D01*
X193056445Y-111369041D01*
X192958444Y-111489940D01*
X192854678Y-111606074D01*
X192745354Y-111717240D01*
X192630679Y-111823236D01*
X192510858Y-111923860D01*
X192386098Y-112018910D01*
X192256605Y-112108182D01*
X192122586Y-112191475D01*
X191984246Y-112268587D01*
X191841792Y-112339315D01*
X191695431Y-112403457D01*
X191545368Y-112460811D01*
X191391810Y-112511174D01*
X191234963Y-112554343D01*
X191075034Y-112590118D01*
X190912228Y-112618294D01*
X190746753Y-112638671D01*
X190578814Y-112651045D01*
X190408617Y-112655215D01*
X190238406Y-112651045D01*
X190070453Y-112638671D01*
X189904964Y-112618294D01*
X189742147Y-112590118D01*
X189582206Y-112554343D01*
X189425349Y-112511174D01*
X189271781Y-112460811D01*
X189121709Y-112403457D01*
X188975339Y-112339315D01*
X188832878Y-112268587D01*
X188694531Y-112191475D01*
X188560505Y-112108182D01*
X188431006Y-112018910D01*
X188306241Y-111923860D01*
X188186416Y-111823236D01*
X188071736Y-111717240D01*
X187962409Y-111606074D01*
X187858640Y-111489940D01*
X187760636Y-111369041D01*
X187668603Y-111243579D01*
X187582747Y-111113756D01*
X187503275Y-110979775D01*
X187430393Y-110841838D01*
X187364307Y-110700147D01*
X187305223Y-110554905D01*
X187253348Y-110406314D01*
X187208887Y-110254575D01*
X187172048Y-110099893D01*
X187143037Y-109942468D01*
X187122058Y-109782503D01*
X187109320Y-109620200D01*
X187105029Y-109455763D01*
X187109320Y-109291326D01*
X187122058Y-109129024D01*
X187143037Y-108969059D01*
X187172048Y-108811635D01*
X187208887Y-108656952D01*
X187253348Y-108505214D01*
X187305223Y-108356623D01*
X187364307Y-108211381D01*
X187430393Y-108069690D01*
X187503275Y-107931753D01*
X187582747Y-107797772D01*
X187668603Y-107667950D01*
X187760636Y-107542488D01*
X187858640Y-107421589D01*
X187962409Y-107305456D01*
X188071736Y-107194290D01*
X188186416Y-107088293D01*
X188306241Y-106987670D01*
X188431006Y-106892620D01*
X188560505Y-106803348D01*
X188694531Y-106720055D01*
X188832878Y-106642943D01*
X188975339Y-106572215D01*
X189121709Y-106508073D01*
X189271781Y-106450719D01*
X189425349Y-106400357D01*
X189582206Y-106357187D01*
X189742147Y-106321413D01*
X189904964Y-106293236D01*
X190070453Y-106272859D01*
X190238406Y-106260485D01*
X190408617Y-106256315D01*
X190578814Y-106260485D01*
X215336905Y-68613616D02*
X216012957Y-70482057D01*
X168000000Y-101800000D02*
X168000000Y-64800000D01*
X164051241Y-72467290D02*
X164661419Y-70482058D01*
X208533418Y-101121708D02*
X172179671Y-101121708D01*
X172179671Y-64767960D01*
X208533418Y-64767960D01*
X208533418Y-101121708D01*
X174629388Y-54766573D02*
X176408927Y-53357117D01*
X173131938Y-110267653D02*
X171920759Y-109280886D01*
X218334487Y-90918201D02*
X217849247Y-93415600D01*
X165324201Y-68613618D02*
X166034492Y-66858466D01*
X205791745Y-54766563D02*
X206724212Y-55581634D01*
X210428285Y-59659317D02*
X211321940Y-60900614D01*
X170120239Y-59659323D02*
X171008578Y-58510282D01*
X202191556Y-52218526D02*
X203061786Y-52755709D01*
X214611629Y-66858463D02*
X215336905Y-68613616D01*
X209516502Y-58510276D02*
X210428285Y-59659317D01*
X196691649Y-49812151D02*
X197750414Y-50147636D01*
X168399463Y-62237676D02*
X169248835Y-60900619D01*
X217157470Y-95979323D02*
X216239720Y-98564961D01*
X212500000Y-101800000D02*
X168000000Y-101800000D01*
X161967760Y-84268013D02*
X162238484Y-81646242D01*
X171920759Y-109280886D02*
X170792797Y-108238538D01*
X163498763Y-74572819D02*
X164051241Y-72467290D01*
X203061786Y-52755709D02*
X203955349Y-53357106D01*
X215690032Y-99852122D02*
X215076563Y-101128109D01*
X206284326Y-111193289D02*
X204899425Y-112052242D01*
X217849247Y-93415600D02*
X217157470Y-95979323D01*
X216239720Y-98564961D02*
X215690032Y-99852122D01*
X199047627Y-50641833D02*
X200541829Y-51322783D01*
X218745338Y-84268013D02*
X218763097Y-86300000D01*
X217196659Y-74572818D02*
X217693943Y-76802150D01*
X175813663Y-112052242D02*
X174428763Y-111193289D01*
X217693943Y-76802150D02*
X218121273Y-79158790D01*
X211321940Y-60900614D02*
X212192285Y-62237672D01*
X184085921Y-49607351D02*
X195912795Y-49607335D01*
X213648563Y-103624359D02*
X212829173Y-104833521D01*
X204899425Y-112052242D02*
X203424020Y-112838962D01*
X168776805Y-106009305D02*
X167883917Y-104833521D01*
X188178151Y-115731536D02*
X186108698Y-115494783D01*
X213842312Y-65213091D02*
X214611629Y-66858463D01*
X198430481Y-114710214D02*
X196568762Y-115152493D01*
X218632625Y-88531532D02*
X218334487Y-90918201D01*
X171008578Y-58510282D02*
X172815684Y-56474947D01*
X167577218Y-63674000D02*
X168399463Y-62237676D01*
X179702454Y-51322796D02*
X181134915Y-50641848D01*
X212500000Y-64800000D02*
X212500000Y-101800000D01*
X165023059Y-99852122D02*
X164473372Y-98564961D01*
X169248835Y-60900619D02*
X170120239Y-59659323D01*
X203424020Y-112838962D02*
X201855680Y-113547898D01*
X165636528Y-101128109D02*
X165023059Y-99852122D01*
X181134915Y-50641848D02*
X182370156Y-50147652D01*
X194604391Y-115494783D02*
X192534938Y-115731536D01*
X192534938Y-115731536D02*
X190357975Y-115857199D01*
X206724212Y-55581634D02*
X207659283Y-56474939D01*
X162587289Y-79158790D02*
X163009081Y-76802151D01*
X207659283Y-56474939D02*
X208591774Y-57449985D01*
X166316208Y-102387372D02*
X165636528Y-101128109D01*
X218121273Y-79158790D02*
X218473465Y-81646242D01*
X170792797Y-108238538D02*
X169745622Y-107146161D01*
X166034492Y-66858466D02*
X166787196Y-65213094D01*
X208792330Y-109280886D02*
X207581151Y-110267653D01*
X212192285Y-62237672D02*
X213034136Y-63673996D01*
X174428763Y-111193289D02*
X173131938Y-110267653D01*
X214396883Y-102387372D02*
X213648563Y-103624359D01*
X216634602Y-72467289D02*
X217196659Y-74572818D01*
X200191977Y-114173499D02*
X198430481Y-114710214D01*
X197750414Y-50147636D02*
X199047627Y-50641833D01*
X176408927Y-53357117D02*
X178113537Y-52218539D01*
X164661419Y-70482058D02*
X165324201Y-68613618D01*
X218763097Y-86300000D02*
X218632625Y-88531532D01*
X215076563Y-101128109D02*
X214396883Y-102387372D01*
X186108698Y-115494783D02*
X184144327Y-115152493D01*
X182282608Y-114710214D02*
X180521111Y-114173499D01*
X178113537Y-52218539D02*
X179702454Y-51322796D01*
X216012957Y-70482057D02*
X216634602Y-72467289D01*
X218473465Y-81646242D02*
X218745338Y-84268013D01*
X209920292Y-108238538D02*
X208792330Y-109280886D01*
X184144327Y-115152493D02*
X182282608Y-114710214D01*
X207581151Y-110267653D02*
X206284326Y-111193289D01*
X201711862Y-105010165D02*
X201824125Y-105018702D01*
X201934755Y-105032759D01*
X202043614Y-105052200D01*
X202150564Y-105076883D01*
X202255464Y-105106672D01*
X202358177Y-105141426D01*
X202458563Y-105181007D01*
X202556483Y-105225275D01*
X202651799Y-105274093D01*
X202744371Y-105327321D01*
X202834061Y-105384820D01*
X202920730Y-105446452D01*
X203004239Y-105512077D01*
X203084448Y-105581556D01*
X203161220Y-105654751D01*
X203234416Y-105731523D01*
X203303895Y-105811733D01*
X203369520Y-105895242D01*
X203431151Y-105981911D01*
X203488651Y-106071601D01*
X203541879Y-106164173D01*
X203590696Y-106259489D01*
X203634965Y-106357409D01*
X203674546Y-106457795D01*
X203709300Y-106560508D01*
X203739088Y-106665408D01*
X203763772Y-106772357D01*
X203783212Y-106881217D01*
X203797270Y-106991847D01*
X203805807Y-107104110D01*
X203808683Y-107217866D01*
X203805807Y-107331622D01*
X203797270Y-107443885D01*
X203783212Y-107554516D01*
X203763772Y-107663375D01*
X203739088Y-107770324D01*
X203709300Y-107875225D01*
X203674546Y-107977937D01*
X203634965Y-108078323D01*
X203590696Y-108176243D01*
X203541879Y-108271559D01*
X203488651Y-108364131D01*
X203431151Y-108453821D01*
X203369520Y-108540490D01*
X203303895Y-108623999D01*
X203234416Y-108704209D01*
X203161220Y-108780981D01*
X203084448Y-108854176D01*
X203004239Y-108923655D01*
X202920730Y-108989280D01*
X202834061Y-109050912D01*
X202744371Y-109108411D01*
X202651799Y-109161639D01*
X202556483Y-109210457D01*
X202458563Y-109254726D01*
X202358177Y-109294306D01*
X202255464Y-109329060D01*
X202150564Y-109358849D01*
X202043614Y-109383532D01*
X201934755Y-109402973D01*
X201824125Y-109417031D01*
X201711862Y-109425567D01*
X201598106Y-109428443D01*
X201484349Y-109425567D01*
X201372087Y-109417031D01*
X201261456Y-109402973D01*
X201152597Y-109383532D01*
X201045647Y-109358849D01*
X200940747Y-109329060D01*
X200838034Y-109294306D01*
X200737649Y-109254726D01*
X200639728Y-109210457D01*
X200544413Y-109161639D01*
X200451840Y-109108411D01*
X200362150Y-109050912D01*
X200275481Y-108989280D01*
X200191973Y-108923655D01*
X200111763Y-108854176D01*
X200034991Y-108780981D01*
X199961796Y-108704209D01*
X199892316Y-108623999D01*
X199826691Y-108540490D01*
X199765060Y-108453821D01*
X199707561Y-108364131D01*
X199654333Y-108271559D01*
X199605515Y-108176243D01*
X199561246Y-108078323D01*
X199521665Y-107977937D01*
X199486911Y-107875225D01*
X199457123Y-107770324D01*
X199432439Y-107663375D01*
X199412999Y-107554516D01*
X199398941Y-107443885D01*
X199390405Y-107331622D01*
X199387528Y-107217866D01*
X199390405Y-107104110D01*
X199398941Y-106991847D01*
X199412999Y-106881217D01*
X199432439Y-106772357D01*
X199457123Y-106665408D01*
X199486911Y-106560508D01*
X199521665Y-106457795D01*
X199561246Y-106357409D01*
X199605515Y-106259489D01*
X199654333Y-106164173D01*
X199707561Y-106071601D01*
X199765060Y-105981911D01*
X199826691Y-105895242D01*
X199892316Y-105811733D01*
X199961796Y-105731523D01*
X200034991Y-105654751D01*
X200111763Y-105581556D01*
X200191973Y-105512077D01*
X200275481Y-105446452D01*
X200362150Y-105384820D01*
X200451840Y-105327321D01*
X200544413Y-105274093D01*
X200639728Y-105225275D01*
X200737649Y-105181007D01*
X200838034Y-105141426D01*
X200940747Y-105106672D01*
X201045647Y-105076883D01*
X201152597Y-105052200D01*
X201261456Y-105032759D01*
X201372087Y-105018702D01*
X201484349Y-105010165D01*
X201598106Y-105007289D01*
X201711862Y-105010165D01*
X161950000Y-86300000D02*
X161967760Y-84268013D01*
X211936284Y-106009305D02*
X210967467Y-107146161D01*
X212829173Y-104833521D02*
X211936284Y-106009305D01*
X164473372Y-98564961D02*
X163555623Y-95979323D01*
X213034136Y-63673996D02*
X213842312Y-65213091D01*
X190357975Y-115857199D02*
X190355114Y-115857199D01*
X167064528Y-103624359D02*
X166316208Y-102387372D01*
X182370156Y-50147652D02*
X184085921Y-49607351D01*
X172674067Y-61862668D02*
X172943441Y-61593294D01*
X175574067Y-58987668D02*
X175843441Y-58718294D01*
X175843441Y-58987668D02*
X175574067Y-58718294D01*
D11*
X166583628Y-90769173D02*
X165083628Y-90769173D01*
X166583628Y-90126316D02*
X165797914Y-90126316D01*
X165797914Y-90126316D02*
X165655057Y-90197744D01*
X165655057Y-90197744D02*
X165583628Y-90340601D01*
X165583628Y-90340601D02*
X165583628Y-90554887D01*
X165583628Y-90554887D02*
X165655057Y-90697744D01*
X165655057Y-90697744D02*
X165726485Y-90769173D01*
X166583628Y-88769173D02*
X165797914Y-88769173D01*
X165797914Y-88769173D02*
X165655057Y-88840601D01*
X165655057Y-88840601D02*
X165583628Y-88983458D01*
X165583628Y-88983458D02*
X165583628Y-89269173D01*
X165583628Y-89269173D02*
X165655057Y-89412030D01*
X166512200Y-88769173D02*
X166583628Y-88912030D01*
X166583628Y-88912030D02*
X166583628Y-89269173D01*
X166583628Y-89269173D02*
X166512200Y-89412030D01*
X166512200Y-89412030D02*
X166369342Y-89483458D01*
X166369342Y-89483458D02*
X166226485Y-89483458D01*
X166226485Y-89483458D02*
X166083628Y-89412030D01*
X166083628Y-89412030D02*
X166012200Y-89269173D01*
X166012200Y-89269173D02*
X166012200Y-88912030D01*
X166012200Y-88912030D02*
X165940771Y-88769173D01*
X166512200Y-87412030D02*
X166583628Y-87554887D01*
X166583628Y-87554887D02*
X166583628Y-87840601D01*
X166583628Y-87840601D02*
X166512200Y-87983458D01*
X166512200Y-87983458D02*
X166440771Y-88054887D01*
X166440771Y-88054887D02*
X166297914Y-88126315D01*
X166297914Y-88126315D02*
X165869342Y-88126315D01*
X165869342Y-88126315D02*
X165726485Y-88054887D01*
X165726485Y-88054887D02*
X165655057Y-87983458D01*
X165655057Y-87983458D02*
X165583628Y-87840601D01*
X165583628Y-87840601D02*
X165583628Y-87554887D01*
X165583628Y-87554887D02*
X165655057Y-87412030D01*
X166583628Y-86769173D02*
X165083628Y-86769173D01*
X166012200Y-86626316D02*
X166583628Y-86197744D01*
X165583628Y-86197744D02*
X166155057Y-86769173D01*
X166583628Y-84912030D02*
X165797914Y-84912030D01*
X165797914Y-84912030D02*
X165655057Y-84983458D01*
X165655057Y-84983458D02*
X165583628Y-85126315D01*
X165583628Y-85126315D02*
X165583628Y-85412030D01*
X165583628Y-85412030D02*
X165655057Y-85554887D01*
X166512200Y-84912030D02*
X166583628Y-85054887D01*
X166583628Y-85054887D02*
X166583628Y-85412030D01*
X166583628Y-85412030D02*
X166512200Y-85554887D01*
X166512200Y-85554887D02*
X166369342Y-85626315D01*
X166369342Y-85626315D02*
X166226485Y-85626315D01*
X166226485Y-85626315D02*
X166083628Y-85554887D01*
X166083628Y-85554887D02*
X166012200Y-85412030D01*
X166012200Y-85412030D02*
X166012200Y-85054887D01*
X166012200Y-85054887D02*
X165940771Y-84912030D01*
X165583628Y-84197744D02*
X167083628Y-84197744D01*
X165655057Y-84197744D02*
X165583628Y-84054887D01*
X165583628Y-84054887D02*
X165583628Y-83769172D01*
X165583628Y-83769172D02*
X165655057Y-83626315D01*
X165655057Y-83626315D02*
X165726485Y-83554887D01*
X165726485Y-83554887D02*
X165869342Y-83483458D01*
X165869342Y-83483458D02*
X166297914Y-83483458D01*
X166297914Y-83483458D02*
X166440771Y-83554887D01*
X166440771Y-83554887D02*
X166512200Y-83626315D01*
X166512200Y-83626315D02*
X166583628Y-83769172D01*
X166583628Y-83769172D02*
X166583628Y-84054887D01*
X166583628Y-84054887D02*
X166512200Y-84197744D01*
X166512200Y-82269172D02*
X166583628Y-82412029D01*
X166583628Y-82412029D02*
X166583628Y-82697744D01*
X166583628Y-82697744D02*
X166512200Y-82840601D01*
X166512200Y-82840601D02*
X166369342Y-82912029D01*
X166369342Y-82912029D02*
X165797914Y-82912029D01*
X165797914Y-82912029D02*
X165655057Y-82840601D01*
X165655057Y-82840601D02*
X165583628Y-82697744D01*
X165583628Y-82697744D02*
X165583628Y-82412029D01*
X165583628Y-82412029D02*
X165655057Y-82269172D01*
X165655057Y-82269172D02*
X165797914Y-82197744D01*
X165797914Y-82197744D02*
X165940771Y-82197744D01*
X165940771Y-82197744D02*
X166083628Y-82912029D01*
X165583628Y-81769172D02*
X165583628Y-81197744D01*
X165083628Y-81554887D02*
X166369342Y-81554887D01*
X166369342Y-81554887D02*
X166512200Y-81483458D01*
X166512200Y-81483458D02*
X166583628Y-81340601D01*
X166583628Y-81340601D02*
X166583628Y-81197744D01*
X165583628Y-79697744D02*
X166583628Y-79340601D01*
X166583628Y-79340601D02*
X165583628Y-78983458D01*
X165583628Y-77769173D02*
X166583628Y-77769173D01*
X165012200Y-78126315D02*
X166083628Y-78483458D01*
X166083628Y-78483458D02*
X166083628Y-77554887D01*
D10*
X175624067Y-61787668D02*
X175893441Y-61518294D01*
X181524067Y-59037668D02*
X181793441Y-58768294D01*
X181793441Y-59037668D02*
X181524067Y-58768294D01*
X178549067Y-58962668D02*
X178818441Y-58693294D01*
X178818441Y-58962668D02*
X178549067Y-58693294D01*
X178549067Y-61762668D02*
X178818441Y-61493294D01*
X168000000Y-64800000D02*
X212500000Y-64800000D01*
D11*
X189641666Y-52794819D02*
X189641666Y-53509104D01*
X189641666Y-53509104D02*
X189594047Y-53651961D01*
X189594047Y-53651961D02*
X189498809Y-53747200D01*
X189498809Y-53747200D02*
X189355952Y-53794819D01*
X189355952Y-53794819D02*
X189260714Y-53794819D01*
X190546428Y-53128152D02*
X190546428Y-53794819D01*
X190308333Y-52747200D02*
X190070238Y-53461485D01*
X190070238Y-53461485D02*
X190689285Y-53461485D01*
X179157967Y-60251791D02*
X178450861Y-59544684D01*
X178450861Y-59544684D02*
X178619219Y-59376325D01*
X178619219Y-59376325D02*
X178753906Y-59308982D01*
X178753906Y-59308982D02*
X178888593Y-59308982D01*
X178888593Y-59308982D02*
X178989609Y-59342654D01*
X178989609Y-59342654D02*
X179157967Y-59443669D01*
X179157967Y-59443669D02*
X179258983Y-59544684D01*
X179258983Y-59544684D02*
X179359998Y-59713043D01*
X179359998Y-59713043D02*
X179393670Y-59814058D01*
X179393670Y-59814058D02*
X179393670Y-59948745D01*
X179393670Y-59948745D02*
X179326326Y-60083432D01*
X179326326Y-60083432D02*
X179157967Y-60251791D01*
X179494685Y-58500860D02*
X179157967Y-58837577D01*
X179157967Y-58837577D02*
X179461013Y-59207967D01*
X179461013Y-59207967D02*
X179461013Y-59140623D01*
X179461013Y-59140623D02*
X179494685Y-59039608D01*
X179494685Y-59039608D02*
X179663044Y-58871249D01*
X179663044Y-58871249D02*
X179764059Y-58837577D01*
X179764059Y-58837577D02*
X179831402Y-58837577D01*
X179831402Y-58837577D02*
X179932418Y-58871249D01*
X179932418Y-58871249D02*
X180100776Y-59039608D01*
X180100776Y-59039608D02*
X180134448Y-59140623D01*
X180134448Y-59140623D02*
X180134448Y-59207967D01*
X180134448Y-59207967D02*
X180100776Y-59308982D01*
X180100776Y-59308982D02*
X179932418Y-59477341D01*
X179932418Y-59477341D02*
X179831402Y-59511012D01*
X179831402Y-59511012D02*
X179764059Y-59511012D01*
X173282967Y-60301791D02*
X172575861Y-59594684D01*
X172575861Y-59594684D02*
X172744219Y-59426325D01*
X172744219Y-59426325D02*
X172878906Y-59358982D01*
X172878906Y-59358982D02*
X173013593Y-59358982D01*
X173013593Y-59358982D02*
X173114609Y-59392654D01*
X173114609Y-59392654D02*
X173282967Y-59493669D01*
X173282967Y-59493669D02*
X173383983Y-59594684D01*
X173383983Y-59594684D02*
X173484998Y-59763043D01*
X173484998Y-59763043D02*
X173518670Y-59864058D01*
X173518670Y-59864058D02*
X173518670Y-59998745D01*
X173518670Y-59998745D02*
X173451326Y-60133432D01*
X173451326Y-60133432D02*
X173282967Y-60301791D01*
X173215624Y-58954921D02*
X173653357Y-58517188D01*
X173653357Y-58517188D02*
X173687028Y-59022264D01*
X173687028Y-59022264D02*
X173788044Y-58921249D01*
X173788044Y-58921249D02*
X173889059Y-58887577D01*
X173889059Y-58887577D02*
X173956402Y-58887577D01*
X173956402Y-58887577D02*
X174057418Y-58921249D01*
X174057418Y-58921249D02*
X174225776Y-59089608D01*
X174225776Y-59089608D02*
X174259448Y-59190623D01*
X174259448Y-59190623D02*
X174259448Y-59257967D01*
X174259448Y-59257967D02*
X174225776Y-59358982D01*
X174225776Y-59358982D02*
X174023746Y-59561012D01*
X174023746Y-59561012D02*
X173922731Y-59594684D01*
X173922731Y-59594684D02*
X173855387Y-59594684D01*
X176338760Y-65333739D02*
X175766341Y-65232724D01*
X175934699Y-65737800D02*
X175227593Y-65030693D01*
X175227593Y-65030693D02*
X175496967Y-64761319D01*
X175496967Y-64761319D02*
X175597982Y-64727647D01*
X175597982Y-64727647D02*
X175665325Y-64727647D01*
X175665325Y-64727647D02*
X175766341Y-64761319D01*
X175766341Y-64761319D02*
X175867356Y-64862334D01*
X175867356Y-64862334D02*
X175901028Y-64963350D01*
X175901028Y-64963350D02*
X175901028Y-65030693D01*
X175901028Y-65030693D02*
X175867356Y-65131708D01*
X175867356Y-65131708D02*
X175597982Y-65401082D01*
X175968371Y-64424602D02*
X175968371Y-64357258D01*
X175968371Y-64357258D02*
X176002043Y-64256243D01*
X176002043Y-64256243D02*
X176170402Y-64087884D01*
X176170402Y-64087884D02*
X176271417Y-64054212D01*
X176271417Y-64054212D02*
X176338760Y-64054212D01*
X176338760Y-64054212D02*
X176439776Y-64087884D01*
X176439776Y-64087884D02*
X176507119Y-64155228D01*
X176507119Y-64155228D02*
X176574463Y-64289915D01*
X176574463Y-64289915D02*
X176574463Y-65098037D01*
X176574463Y-65098037D02*
X177012195Y-64660304D01*
X179350892Y-65645871D02*
X178778473Y-65544856D01*
X178946831Y-66049932D02*
X178239725Y-65342825D01*
X178239725Y-65342825D02*
X178509099Y-65073451D01*
X178509099Y-65073451D02*
X178610114Y-65039779D01*
X178610114Y-65039779D02*
X178677457Y-65039779D01*
X178677457Y-65039779D02*
X178778473Y-65073451D01*
X178778473Y-65073451D02*
X178879488Y-65174466D01*
X178879488Y-65174466D02*
X178913160Y-65275482D01*
X178913160Y-65275482D02*
X178913160Y-65342825D01*
X178913160Y-65342825D02*
X178879488Y-65443840D01*
X178879488Y-65443840D02*
X178610114Y-65713214D01*
X178879488Y-64703062D02*
X179317221Y-64265329D01*
X179317221Y-64265329D02*
X179350892Y-64770405D01*
X179350892Y-64770405D02*
X179451908Y-64669390D01*
X179451908Y-64669390D02*
X179552923Y-64635718D01*
X179552923Y-64635718D02*
X179620266Y-64635718D01*
X179620266Y-64635718D02*
X179721282Y-64669390D01*
X179721282Y-64669390D02*
X179889640Y-64837749D01*
X179889640Y-64837749D02*
X179923312Y-64938764D01*
X179923312Y-64938764D02*
X179923312Y-65006108D01*
X179923312Y-65006108D02*
X179889640Y-65107123D01*
X179889640Y-65107123D02*
X179687610Y-65309153D01*
X179687610Y-65309153D02*
X179586595Y-65342825D01*
X179586595Y-65342825D02*
X179519251Y-65342825D01*
X173403405Y-65298384D02*
X172830986Y-65197369D01*
X172999344Y-65702445D02*
X172292238Y-64995338D01*
X172292238Y-64995338D02*
X172561612Y-64725964D01*
X172561612Y-64725964D02*
X172662627Y-64692292D01*
X172662627Y-64692292D02*
X172729970Y-64692292D01*
X172729970Y-64692292D02*
X172830986Y-64725964D01*
X172830986Y-64725964D02*
X172932001Y-64826979D01*
X172932001Y-64826979D02*
X172965673Y-64927995D01*
X172965673Y-64927995D02*
X172965673Y-64995338D01*
X172965673Y-64995338D02*
X172932001Y-65096353D01*
X172932001Y-65096353D02*
X172662627Y-65365727D01*
X174076840Y-64624949D02*
X173672779Y-65029010D01*
X173874810Y-64826979D02*
X173167703Y-64119873D01*
X173167703Y-64119873D02*
X173201375Y-64288231D01*
X173201375Y-64288231D02*
X173201375Y-64422918D01*
X173201375Y-64422918D02*
X173167703Y-64523934D01*
X176232967Y-60251791D02*
X175525861Y-59544684D01*
X175525861Y-59544684D02*
X175694219Y-59376325D01*
X175694219Y-59376325D02*
X175828906Y-59308982D01*
X175828906Y-59308982D02*
X175963593Y-59308982D01*
X175963593Y-59308982D02*
X176064609Y-59342654D01*
X176064609Y-59342654D02*
X176232967Y-59443669D01*
X176232967Y-59443669D02*
X176333983Y-59544684D01*
X176333983Y-59544684D02*
X176434998Y-59713043D01*
X176434998Y-59713043D02*
X176468670Y-59814058D01*
X176468670Y-59814058D02*
X176468670Y-59948745D01*
X176468670Y-59948745D02*
X176401326Y-60083432D01*
X176401326Y-60083432D02*
X176232967Y-60251791D01*
X176771715Y-58770234D02*
X177243120Y-59241638D01*
X176333983Y-58669219D02*
X176670700Y-59342654D01*
X176670700Y-59342654D02*
X177108433Y-58904921D01*
X206654819Y-98566666D02*
X206178628Y-98899999D01*
X206654819Y-99138094D02*
X205654819Y-99138094D01*
X205654819Y-99138094D02*
X205654819Y-98757142D01*
X205654819Y-98757142D02*
X205702438Y-98661904D01*
X205702438Y-98661904D02*
X205750057Y-98614285D01*
X205750057Y-98614285D02*
X205845295Y-98566666D01*
X205845295Y-98566666D02*
X205988152Y-98566666D01*
X205988152Y-98566666D02*
X206083390Y-98614285D01*
X206083390Y-98614285D02*
X206131009Y-98661904D01*
X206131009Y-98661904D02*
X206178628Y-98757142D01*
X206178628Y-98757142D02*
X206178628Y-99138094D01*
X205654819Y-97709523D02*
X205654819Y-97899999D01*
X205654819Y-97899999D02*
X205702438Y-97995237D01*
X205702438Y-97995237D02*
X205750057Y-98042856D01*
X205750057Y-98042856D02*
X205892914Y-98138094D01*
X205892914Y-98138094D02*
X206083390Y-98185713D01*
X206083390Y-98185713D02*
X206464342Y-98185713D01*
X206464342Y-98185713D02*
X206559580Y-98138094D01*
X206559580Y-98138094D02*
X206607200Y-98090475D01*
X206607200Y-98090475D02*
X206654819Y-97995237D01*
X206654819Y-97995237D02*
X206654819Y-97804761D01*
X206654819Y-97804761D02*
X206607200Y-97709523D01*
X206607200Y-97709523D02*
X206559580Y-97661904D01*
X206559580Y-97661904D02*
X206464342Y-97614285D01*
X206464342Y-97614285D02*
X206226247Y-97614285D01*
X206226247Y-97614285D02*
X206131009Y-97661904D01*
X206131009Y-97661904D02*
X206083390Y-97709523D01*
X206083390Y-97709523D02*
X206035771Y-97804761D01*
X206035771Y-97804761D02*
X206035771Y-97995237D01*
X206035771Y-97995237D02*
X206083390Y-98090475D01*
X206083390Y-98090475D02*
X206131009Y-98138094D01*
X206131009Y-98138094D02*
X206226247Y-98185713D01*
X193933333Y-91904819D02*
X193600000Y-91428628D01*
X193361905Y-91904819D02*
X193361905Y-90904819D01*
X193361905Y-90904819D02*
X193742857Y-90904819D01*
X193742857Y-90904819D02*
X193838095Y-90952438D01*
X193838095Y-90952438D02*
X193885714Y-91000057D01*
X193885714Y-91000057D02*
X193933333Y-91095295D01*
X193933333Y-91095295D02*
X193933333Y-91238152D01*
X193933333Y-91238152D02*
X193885714Y-91333390D01*
X193885714Y-91333390D02*
X193838095Y-91381009D01*
X193838095Y-91381009D02*
X193742857Y-91428628D01*
X193742857Y-91428628D02*
X193361905Y-91428628D01*
X194504762Y-91333390D02*
X194409524Y-91285771D01*
X194409524Y-91285771D02*
X194361905Y-91238152D01*
X194361905Y-91238152D02*
X194314286Y-91142914D01*
X194314286Y-91142914D02*
X194314286Y-91095295D01*
X194314286Y-91095295D02*
X194361905Y-91000057D01*
X194361905Y-91000057D02*
X194409524Y-90952438D01*
X194409524Y-90952438D02*
X194504762Y-90904819D01*
X194504762Y-90904819D02*
X194695238Y-90904819D01*
X194695238Y-90904819D02*
X194790476Y-90952438D01*
X194790476Y-90952438D02*
X194838095Y-91000057D01*
X194838095Y-91000057D02*
X194885714Y-91095295D01*
X194885714Y-91095295D02*
X194885714Y-91142914D01*
X194885714Y-91142914D02*
X194838095Y-91238152D01*
X194838095Y-91238152D02*
X194790476Y-91285771D01*
X194790476Y-91285771D02*
X194695238Y-91333390D01*
X194695238Y-91333390D02*
X194504762Y-91333390D01*
X194504762Y-91333390D02*
X194409524Y-91381009D01*
X194409524Y-91381009D02*
X194361905Y-91428628D01*
X194361905Y-91428628D02*
X194314286Y-91523866D01*
X194314286Y-91523866D02*
X194314286Y-91714342D01*
X194314286Y-91714342D02*
X194361905Y-91809580D01*
X194361905Y-91809580D02*
X194409524Y-91857200D01*
X194409524Y-91857200D02*
X194504762Y-91904819D01*
X194504762Y-91904819D02*
X194695238Y-91904819D01*
X194695238Y-91904819D02*
X194790476Y-91857200D01*
X194790476Y-91857200D02*
X194838095Y-91809580D01*
X194838095Y-91809580D02*
X194885714Y-91714342D01*
X194885714Y-91714342D02*
X194885714Y-91523866D01*
X194885714Y-91523866D02*
X194838095Y-91428628D01*
X194838095Y-91428628D02*
X194790476Y-91381009D01*
X194790476Y-91381009D02*
X194695238Y-91333390D01*
X201948511Y-69893807D02*
X201853273Y-69846188D01*
X201853273Y-69846188D02*
X201758035Y-69750950D01*
X201758035Y-69750950D02*
X201615178Y-69608092D01*
X201615178Y-69608092D02*
X201519940Y-69560473D01*
X201519940Y-69560473D02*
X201424702Y-69560473D01*
X201472321Y-69798569D02*
X201377083Y-69750950D01*
X201377083Y-69750950D02*
X201281845Y-69655711D01*
X201281845Y-69655711D02*
X201234226Y-69465235D01*
X201234226Y-69465235D02*
X201234226Y-69131902D01*
X201234226Y-69131902D02*
X201281845Y-68941426D01*
X201281845Y-68941426D02*
X201377083Y-68846188D01*
X201377083Y-68846188D02*
X201472321Y-68798569D01*
X201472321Y-68798569D02*
X201662797Y-68798569D01*
X201662797Y-68798569D02*
X201758035Y-68846188D01*
X201758035Y-68846188D02*
X201853273Y-68941426D01*
X201853273Y-68941426D02*
X201900892Y-69131902D01*
X201900892Y-69131902D02*
X201900892Y-69465235D01*
X201900892Y-69465235D02*
X201853273Y-69655711D01*
X201853273Y-69655711D02*
X201758035Y-69750950D01*
X201758035Y-69750950D02*
X201662797Y-69798569D01*
X201662797Y-69798569D02*
X201472321Y-69798569D01*
X202281845Y-68893807D02*
X202329464Y-68846188D01*
X202329464Y-68846188D02*
X202424702Y-68798569D01*
X202424702Y-68798569D02*
X202662797Y-68798569D01*
X202662797Y-68798569D02*
X202758035Y-68846188D01*
X202758035Y-68846188D02*
X202805654Y-68893807D01*
X202805654Y-68893807D02*
X202853273Y-68989045D01*
X202853273Y-68989045D02*
X202853273Y-69084283D01*
X202853273Y-69084283D02*
X202805654Y-69227140D01*
X202805654Y-69227140D02*
X202234226Y-69798569D01*
X202234226Y-69798569D02*
X202853273Y-69798569D01*
X200489583Y-72818330D02*
X200441964Y-72865950D01*
X200441964Y-72865950D02*
X200299107Y-72913569D01*
X200299107Y-72913569D02*
X200203869Y-72913569D01*
X200203869Y-72913569D02*
X200061012Y-72865950D01*
X200061012Y-72865950D02*
X199965774Y-72770711D01*
X199965774Y-72770711D02*
X199918155Y-72675473D01*
X199918155Y-72675473D02*
X199870536Y-72484997D01*
X199870536Y-72484997D02*
X199870536Y-72342140D01*
X199870536Y-72342140D02*
X199918155Y-72151664D01*
X199918155Y-72151664D02*
X199965774Y-72056426D01*
X199965774Y-72056426D02*
X200061012Y-71961188D01*
X200061012Y-71961188D02*
X200203869Y-71913569D01*
X200203869Y-71913569D02*
X200299107Y-71913569D01*
X200299107Y-71913569D02*
X200441964Y-71961188D01*
X200441964Y-71961188D02*
X200489583Y-72008807D01*
X201346726Y-72246902D02*
X201346726Y-72913569D01*
X201108631Y-71865950D02*
X200870536Y-72580235D01*
X200870536Y-72580235D02*
X201489583Y-72580235D01*
X195839583Y-68833330D02*
X195791964Y-68880950D01*
X195791964Y-68880950D02*
X195649107Y-68928569D01*
X195649107Y-68928569D02*
X195553869Y-68928569D01*
X195553869Y-68928569D02*
X195411012Y-68880950D01*
X195411012Y-68880950D02*
X195315774Y-68785711D01*
X195315774Y-68785711D02*
X195268155Y-68690473D01*
X195268155Y-68690473D02*
X195220536Y-68499997D01*
X195220536Y-68499997D02*
X195220536Y-68357140D01*
X195220536Y-68357140D02*
X195268155Y-68166664D01*
X195268155Y-68166664D02*
X195315774Y-68071426D01*
X195315774Y-68071426D02*
X195411012Y-67976188D01*
X195411012Y-67976188D02*
X195553869Y-67928569D01*
X195553869Y-67928569D02*
X195649107Y-67928569D01*
X195649107Y-67928569D02*
X195791964Y-67976188D01*
X195791964Y-67976188D02*
X195839583Y-68023807D01*
X196696726Y-67928569D02*
X196506250Y-67928569D01*
X196506250Y-67928569D02*
X196411012Y-67976188D01*
X196411012Y-67976188D02*
X196363393Y-68023807D01*
X196363393Y-68023807D02*
X196268155Y-68166664D01*
X196268155Y-68166664D02*
X196220536Y-68357140D01*
X196220536Y-68357140D02*
X196220536Y-68738092D01*
X196220536Y-68738092D02*
X196268155Y-68833330D01*
X196268155Y-68833330D02*
X196315774Y-68880950D01*
X196315774Y-68880950D02*
X196411012Y-68928569D01*
X196411012Y-68928569D02*
X196601488Y-68928569D01*
X196601488Y-68928569D02*
X196696726Y-68880950D01*
X196696726Y-68880950D02*
X196744345Y-68833330D01*
X196744345Y-68833330D02*
X196791964Y-68738092D01*
X196791964Y-68738092D02*
X196791964Y-68499997D01*
X196791964Y-68499997D02*
X196744345Y-68404759D01*
X196744345Y-68404759D02*
X196696726Y-68357140D01*
X196696726Y-68357140D02*
X196601488Y-68309521D01*
X196601488Y-68309521D02*
X196411012Y-68309521D01*
X196411012Y-68309521D02*
X196315774Y-68357140D01*
X196315774Y-68357140D02*
X196268155Y-68404759D01*
X196268155Y-68404759D02*
X196220536Y-68499997D01*
X196739583Y-67103330D02*
X196691964Y-67150950D01*
X196691964Y-67150950D02*
X196549107Y-67198569D01*
X196549107Y-67198569D02*
X196453869Y-67198569D01*
X196453869Y-67198569D02*
X196311012Y-67150950D01*
X196311012Y-67150950D02*
X196215774Y-67055711D01*
X196215774Y-67055711D02*
X196168155Y-66960473D01*
X196168155Y-66960473D02*
X196120536Y-66769997D01*
X196120536Y-66769997D02*
X196120536Y-66627140D01*
X196120536Y-66627140D02*
X196168155Y-66436664D01*
X196168155Y-66436664D02*
X196215774Y-66341426D01*
X196215774Y-66341426D02*
X196311012Y-66246188D01*
X196311012Y-66246188D02*
X196453869Y-66198569D01*
X196453869Y-66198569D02*
X196549107Y-66198569D01*
X196549107Y-66198569D02*
X196691964Y-66246188D01*
X196691964Y-66246188D02*
X196739583Y-66293807D01*
X197691964Y-67198569D02*
X197120536Y-67198569D01*
X197406250Y-67198569D02*
X197406250Y-66198569D01*
X197406250Y-66198569D02*
X197311012Y-66341426D01*
X197311012Y-66341426D02*
X197215774Y-66436664D01*
X197215774Y-66436664D02*
X197120536Y-66484283D01*
X194894345Y-69098569D02*
X194894345Y-69908092D01*
X194894345Y-69908092D02*
X194941964Y-70003330D01*
X194941964Y-70003330D02*
X194989583Y-70050950D01*
X194989583Y-70050950D02*
X195084821Y-70098569D01*
X195084821Y-70098569D02*
X195275297Y-70098569D01*
X195275297Y-70098569D02*
X195370535Y-70050950D01*
X195370535Y-70050950D02*
X195418154Y-70003330D01*
X195418154Y-70003330D02*
X195465773Y-69908092D01*
X195465773Y-69908092D02*
X195465773Y-69098569D01*
X196465773Y-70098569D02*
X195894345Y-70098569D01*
X196180059Y-70098569D02*
X196180059Y-69098569D01*
X196180059Y-69098569D02*
X196084821Y-69241426D01*
X196084821Y-69241426D02*
X195989583Y-69336664D01*
X195989583Y-69336664D02*
X195894345Y-69384283D01*
X200961069Y-70286607D02*
X200484878Y-70619940D01*
X200961069Y-70858035D02*
X199961069Y-70858035D01*
X199961069Y-70858035D02*
X199961069Y-70477083D01*
X199961069Y-70477083D02*
X200008688Y-70381845D01*
X200008688Y-70381845D02*
X200056307Y-70334226D01*
X200056307Y-70334226D02*
X200151545Y-70286607D01*
X200151545Y-70286607D02*
X200294402Y-70286607D01*
X200294402Y-70286607D02*
X200389640Y-70334226D01*
X200389640Y-70334226D02*
X200437259Y-70381845D01*
X200437259Y-70381845D02*
X200484878Y-70477083D01*
X200484878Y-70477083D02*
X200484878Y-70858035D01*
X200961069Y-69334226D02*
X200961069Y-69905654D01*
X200961069Y-69619940D02*
X199961069Y-69619940D01*
X199961069Y-69619940D02*
X200103926Y-69715178D01*
X200103926Y-69715178D02*
X200199164Y-69810416D01*
X200199164Y-69810416D02*
X200246783Y-69905654D01*
X199961069Y-69000892D02*
X199961069Y-68381845D01*
X199961069Y-68381845D02*
X200342021Y-68715178D01*
X200342021Y-68715178D02*
X200342021Y-68572321D01*
X200342021Y-68572321D02*
X200389640Y-68477083D01*
X200389640Y-68477083D02*
X200437259Y-68429464D01*
X200437259Y-68429464D02*
X200532497Y-68381845D01*
X200532497Y-68381845D02*
X200770592Y-68381845D01*
X200770592Y-68381845D02*
X200865830Y-68429464D01*
X200865830Y-68429464D02*
X200913450Y-68477083D01*
X200913450Y-68477083D02*
X200961069Y-68572321D01*
X200961069Y-68572321D02*
X200961069Y-68858035D01*
X200961069Y-68858035D02*
X200913450Y-68953273D01*
X200913450Y-68953273D02*
X200865830Y-69000892D01*
X201063392Y-67698569D02*
X200730059Y-67222378D01*
X200491964Y-67698569D02*
X200491964Y-66698569D01*
X200491964Y-66698569D02*
X200872916Y-66698569D01*
X200872916Y-66698569D02*
X200968154Y-66746188D01*
X200968154Y-66746188D02*
X201015773Y-66793807D01*
X201015773Y-66793807D02*
X201063392Y-66889045D01*
X201063392Y-66889045D02*
X201063392Y-67031902D01*
X201063392Y-67031902D02*
X201015773Y-67127140D01*
X201015773Y-67127140D02*
X200968154Y-67174759D01*
X200968154Y-67174759D02*
X200872916Y-67222378D01*
X200872916Y-67222378D02*
X200491964Y-67222378D01*
X202015773Y-67698569D02*
X201444345Y-67698569D01*
X201730059Y-67698569D02*
X201730059Y-66698569D01*
X201730059Y-66698569D02*
X201634821Y-66841426D01*
X201634821Y-66841426D02*
X201539583Y-66936664D01*
X201539583Y-66936664D02*
X201444345Y-66984283D01*
X202872916Y-67031902D02*
X202872916Y-67698569D01*
X202634821Y-66650950D02*
X202396726Y-67365235D01*
X202396726Y-67365235D02*
X203015773Y-67365235D01*
X200489583Y-74953330D02*
X200441964Y-75000950D01*
X200441964Y-75000950D02*
X200299107Y-75048569D01*
X200299107Y-75048569D02*
X200203869Y-75048569D01*
X200203869Y-75048569D02*
X200061012Y-75000950D01*
X200061012Y-75000950D02*
X199965774Y-74905711D01*
X199965774Y-74905711D02*
X199918155Y-74810473D01*
X199918155Y-74810473D02*
X199870536Y-74619997D01*
X199870536Y-74619997D02*
X199870536Y-74477140D01*
X199870536Y-74477140D02*
X199918155Y-74286664D01*
X199918155Y-74286664D02*
X199965774Y-74191426D01*
X199965774Y-74191426D02*
X200061012Y-74096188D01*
X200061012Y-74096188D02*
X200203869Y-74048569D01*
X200203869Y-74048569D02*
X200299107Y-74048569D01*
X200299107Y-74048569D02*
X200441964Y-74096188D01*
X200441964Y-74096188D02*
X200489583Y-74143807D01*
X201394345Y-74048569D02*
X200918155Y-74048569D01*
X200918155Y-74048569D02*
X200870536Y-74524759D01*
X200870536Y-74524759D02*
X200918155Y-74477140D01*
X200918155Y-74477140D02*
X201013393Y-74429521D01*
X201013393Y-74429521D02*
X201251488Y-74429521D01*
X201251488Y-74429521D02*
X201346726Y-74477140D01*
X201346726Y-74477140D02*
X201394345Y-74524759D01*
X201394345Y-74524759D02*
X201441964Y-74619997D01*
X201441964Y-74619997D02*
X201441964Y-74858092D01*
X201441964Y-74858092D02*
X201394345Y-74953330D01*
X201394345Y-74953330D02*
X201346726Y-75000950D01*
X201346726Y-75000950D02*
X201251488Y-75048569D01*
X201251488Y-75048569D02*
X201013393Y-75048569D01*
X201013393Y-75048569D02*
X200918155Y-75000950D01*
X200918155Y-75000950D02*
X200870536Y-74953330D01*
X201130833Y-91889580D02*
X201083214Y-91937200D01*
X201083214Y-91937200D02*
X200940357Y-91984819D01*
X200940357Y-91984819D02*
X200845119Y-91984819D01*
X200845119Y-91984819D02*
X200702262Y-91937200D01*
X200702262Y-91937200D02*
X200607024Y-91841961D01*
X200607024Y-91841961D02*
X200559405Y-91746723D01*
X200559405Y-91746723D02*
X200511786Y-91556247D01*
X200511786Y-91556247D02*
X200511786Y-91413390D01*
X200511786Y-91413390D02*
X200559405Y-91222914D01*
X200559405Y-91222914D02*
X200607024Y-91127676D01*
X200607024Y-91127676D02*
X200702262Y-91032438D01*
X200702262Y-91032438D02*
X200845119Y-90984819D01*
X200845119Y-90984819D02*
X200940357Y-90984819D01*
X200940357Y-90984819D02*
X201083214Y-91032438D01*
X201083214Y-91032438D02*
X201130833Y-91080057D01*
X201464167Y-90984819D02*
X202130833Y-90984819D01*
X202130833Y-90984819D02*
X201702262Y-91984819D01*
X197237080Y-98576666D02*
X197284700Y-98624285D01*
X197284700Y-98624285D02*
X197332319Y-98767142D01*
X197332319Y-98767142D02*
X197332319Y-98862380D01*
X197332319Y-98862380D02*
X197284700Y-99005237D01*
X197284700Y-99005237D02*
X197189461Y-99100475D01*
X197189461Y-99100475D02*
X197094223Y-99148094D01*
X197094223Y-99148094D02*
X196903747Y-99195713D01*
X196903747Y-99195713D02*
X196760890Y-99195713D01*
X196760890Y-99195713D02*
X196570414Y-99148094D01*
X196570414Y-99148094D02*
X196475176Y-99100475D01*
X196475176Y-99100475D02*
X196379938Y-99005237D01*
X196379938Y-99005237D02*
X196332319Y-98862380D01*
X196332319Y-98862380D02*
X196332319Y-98767142D01*
X196332319Y-98767142D02*
X196379938Y-98624285D01*
X196379938Y-98624285D02*
X196427557Y-98576666D01*
X196760890Y-98005237D02*
X196713271Y-98100475D01*
X196713271Y-98100475D02*
X196665652Y-98148094D01*
X196665652Y-98148094D02*
X196570414Y-98195713D01*
X196570414Y-98195713D02*
X196522795Y-98195713D01*
X196522795Y-98195713D02*
X196427557Y-98148094D01*
X196427557Y-98148094D02*
X196379938Y-98100475D01*
X196379938Y-98100475D02*
X196332319Y-98005237D01*
X196332319Y-98005237D02*
X196332319Y-97814761D01*
X196332319Y-97814761D02*
X196379938Y-97719523D01*
X196379938Y-97719523D02*
X196427557Y-97671904D01*
X196427557Y-97671904D02*
X196522795Y-97624285D01*
X196522795Y-97624285D02*
X196570414Y-97624285D01*
X196570414Y-97624285D02*
X196665652Y-97671904D01*
X196665652Y-97671904D02*
X196713271Y-97719523D01*
X196713271Y-97719523D02*
X196760890Y-97814761D01*
X196760890Y-97814761D02*
X196760890Y-98005237D01*
X196760890Y-98005237D02*
X196808509Y-98100475D01*
X196808509Y-98100475D02*
X196856128Y-98148094D01*
X196856128Y-98148094D02*
X196951366Y-98195713D01*
X196951366Y-98195713D02*
X197141842Y-98195713D01*
X197141842Y-98195713D02*
X197237080Y-98148094D01*
X197237080Y-98148094D02*
X197284700Y-98100475D01*
X197284700Y-98100475D02*
X197332319Y-98005237D01*
X197332319Y-98005237D02*
X197332319Y-97814761D01*
X197332319Y-97814761D02*
X197284700Y-97719523D01*
X197284700Y-97719523D02*
X197237080Y-97671904D01*
X197237080Y-97671904D02*
X197141842Y-97624285D01*
X197141842Y-97624285D02*
X196951366Y-97624285D01*
X196951366Y-97624285D02*
X196856128Y-97671904D01*
X196856128Y-97671904D02*
X196808509Y-97719523D01*
X196808509Y-97719523D02*
X196760890Y-97814761D01*
X193030833Y-95349580D02*
X192983214Y-95397200D01*
X192983214Y-95397200D02*
X192840357Y-95444819D01*
X192840357Y-95444819D02*
X192745119Y-95444819D01*
X192745119Y-95444819D02*
X192602262Y-95397200D01*
X192602262Y-95397200D02*
X192507024Y-95301961D01*
X192507024Y-95301961D02*
X192459405Y-95206723D01*
X192459405Y-95206723D02*
X192411786Y-95016247D01*
X192411786Y-95016247D02*
X192411786Y-94873390D01*
X192411786Y-94873390D02*
X192459405Y-94682914D01*
X192459405Y-94682914D02*
X192507024Y-94587676D01*
X192507024Y-94587676D02*
X192602262Y-94492438D01*
X192602262Y-94492438D02*
X192745119Y-94444819D01*
X192745119Y-94444819D02*
X192840357Y-94444819D01*
X192840357Y-94444819D02*
X192983214Y-94492438D01*
X192983214Y-94492438D02*
X193030833Y-94540057D01*
X193364167Y-94444819D02*
X193983214Y-94444819D01*
X193983214Y-94444819D02*
X193649881Y-94825771D01*
X193649881Y-94825771D02*
X193792738Y-94825771D01*
X193792738Y-94825771D02*
X193887976Y-94873390D01*
X193887976Y-94873390D02*
X193935595Y-94921009D01*
X193935595Y-94921009D02*
X193983214Y-95016247D01*
X193983214Y-95016247D02*
X193983214Y-95254342D01*
X193983214Y-95254342D02*
X193935595Y-95349580D01*
X193935595Y-95349580D02*
X193887976Y-95397200D01*
X193887976Y-95397200D02*
X193792738Y-95444819D01*
X193792738Y-95444819D02*
X193507024Y-95444819D01*
X193507024Y-95444819D02*
X193411786Y-95397200D01*
X193411786Y-95397200D02*
X193364167Y-95349580D01*
X201130833Y-94214819D02*
X200797500Y-93738628D01*
X200559405Y-94214819D02*
X200559405Y-93214819D01*
X200559405Y-93214819D02*
X200940357Y-93214819D01*
X200940357Y-93214819D02*
X201035595Y-93262438D01*
X201035595Y-93262438D02*
X201083214Y-93310057D01*
X201083214Y-93310057D02*
X201130833Y-93405295D01*
X201130833Y-93405295D02*
X201130833Y-93548152D01*
X201130833Y-93548152D02*
X201083214Y-93643390D01*
X201083214Y-93643390D02*
X201035595Y-93691009D01*
X201035595Y-93691009D02*
X200940357Y-93738628D01*
X200940357Y-93738628D02*
X200559405Y-93738628D01*
X201607024Y-94214819D02*
X201797500Y-94214819D01*
X201797500Y-94214819D02*
X201892738Y-94167200D01*
X201892738Y-94167200D02*
X201940357Y-94119580D01*
X201940357Y-94119580D02*
X202035595Y-93976723D01*
X202035595Y-93976723D02*
X202083214Y-93786247D01*
X202083214Y-93786247D02*
X202083214Y-93405295D01*
X202083214Y-93405295D02*
X202035595Y-93310057D01*
X202035595Y-93310057D02*
X201987976Y-93262438D01*
X201987976Y-93262438D02*
X201892738Y-93214819D01*
X201892738Y-93214819D02*
X201702262Y-93214819D01*
X201702262Y-93214819D02*
X201607024Y-93262438D01*
X201607024Y-93262438D02*
X201559405Y-93310057D01*
X201559405Y-93310057D02*
X201511786Y-93405295D01*
X201511786Y-93405295D02*
X201511786Y-93643390D01*
X201511786Y-93643390D02*
X201559405Y-93738628D01*
X201559405Y-93738628D02*
X201607024Y-93786247D01*
X201607024Y-93786247D02*
X201702262Y-93833866D01*
X201702262Y-93833866D02*
X201892738Y-93833866D01*
X201892738Y-93833866D02*
X201987976Y-93786247D01*
X201987976Y-93786247D02*
X202035595Y-93738628D01*
X202035595Y-93738628D02*
X202083214Y-93643390D01*
X192554642Y-97614819D02*
X192221309Y-97138628D01*
X191983214Y-97614819D02*
X191983214Y-96614819D01*
X191983214Y-96614819D02*
X192364166Y-96614819D01*
X192364166Y-96614819D02*
X192459404Y-96662438D01*
X192459404Y-96662438D02*
X192507023Y-96710057D01*
X192507023Y-96710057D02*
X192554642Y-96805295D01*
X192554642Y-96805295D02*
X192554642Y-96948152D01*
X192554642Y-96948152D02*
X192507023Y-97043390D01*
X192507023Y-97043390D02*
X192459404Y-97091009D01*
X192459404Y-97091009D02*
X192364166Y-97138628D01*
X192364166Y-97138628D02*
X191983214Y-97138628D01*
X193507023Y-97614819D02*
X192935595Y-97614819D01*
X193221309Y-97614819D02*
X193221309Y-96614819D01*
X193221309Y-96614819D02*
X193126071Y-96757676D01*
X193126071Y-96757676D02*
X193030833Y-96852914D01*
X193030833Y-96852914D02*
X192935595Y-96900533D01*
X194459404Y-97614819D02*
X193887976Y-97614819D01*
X194173690Y-97614819D02*
X194173690Y-96614819D01*
X194173690Y-96614819D02*
X194078452Y-96757676D01*
X194078452Y-96757676D02*
X193983214Y-96852914D01*
X193983214Y-96852914D02*
X193887976Y-96900533D01*
X201402319Y-99052857D02*
X200926128Y-99386190D01*
X201402319Y-99624285D02*
X200402319Y-99624285D01*
X200402319Y-99624285D02*
X200402319Y-99243333D01*
X200402319Y-99243333D02*
X200449938Y-99148095D01*
X200449938Y-99148095D02*
X200497557Y-99100476D01*
X200497557Y-99100476D02*
X200592795Y-99052857D01*
X200592795Y-99052857D02*
X200735652Y-99052857D01*
X200735652Y-99052857D02*
X200830890Y-99100476D01*
X200830890Y-99100476D02*
X200878509Y-99148095D01*
X200878509Y-99148095D02*
X200926128Y-99243333D01*
X200926128Y-99243333D02*
X200926128Y-99624285D01*
X201402319Y-98100476D02*
X201402319Y-98671904D01*
X201402319Y-98386190D02*
X200402319Y-98386190D01*
X200402319Y-98386190D02*
X200545176Y-98481428D01*
X200545176Y-98481428D02*
X200640414Y-98576666D01*
X200640414Y-98576666D02*
X200688033Y-98671904D01*
X200497557Y-97719523D02*
X200449938Y-97671904D01*
X200449938Y-97671904D02*
X200402319Y-97576666D01*
X200402319Y-97576666D02*
X200402319Y-97338571D01*
X200402319Y-97338571D02*
X200449938Y-97243333D01*
X200449938Y-97243333D02*
X200497557Y-97195714D01*
X200497557Y-97195714D02*
X200592795Y-97148095D01*
X200592795Y-97148095D02*
X200688033Y-97148095D01*
X200688033Y-97148095D02*
X200830890Y-97195714D01*
X200830890Y-97195714D02*
X201402319Y-97767142D01*
X201402319Y-97767142D02*
X201402319Y-97148095D01*
X196488095Y-96584819D02*
X196488095Y-97394342D01*
X196488095Y-97394342D02*
X196535714Y-97489580D01*
X196535714Y-97489580D02*
X196583333Y-97537200D01*
X196583333Y-97537200D02*
X196678571Y-97584819D01*
X196678571Y-97584819D02*
X196869047Y-97584819D01*
X196869047Y-97584819D02*
X196964285Y-97537200D01*
X196964285Y-97537200D02*
X197011904Y-97489580D01*
X197011904Y-97489580D02*
X197059523Y-97394342D01*
X197059523Y-97394342D02*
X197059523Y-96584819D01*
X197964285Y-96918152D02*
X197964285Y-97584819D01*
X197726190Y-96537200D02*
X197488095Y-97251485D01*
X197488095Y-97251485D02*
X198107142Y-97251485D01*
X208411905Y-74004819D02*
X208411905Y-73004819D01*
X208411905Y-73004819D02*
X208650000Y-73004819D01*
X208650000Y-73004819D02*
X208792857Y-73052438D01*
X208792857Y-73052438D02*
X208888095Y-73147676D01*
X208888095Y-73147676D02*
X208935714Y-73242914D01*
X208935714Y-73242914D02*
X208983333Y-73433390D01*
X208983333Y-73433390D02*
X208983333Y-73576247D01*
X208983333Y-73576247D02*
X208935714Y-73766723D01*
X208935714Y-73766723D02*
X208888095Y-73861961D01*
X208888095Y-73861961D02*
X208792857Y-73957200D01*
X208792857Y-73957200D02*
X208650000Y-74004819D01*
X208650000Y-74004819D02*
X208411905Y-74004819D01*
X209935714Y-74004819D02*
X209364286Y-74004819D01*
X209650000Y-74004819D02*
X209650000Y-73004819D01*
X209650000Y-73004819D02*
X209554762Y-73147676D01*
X209554762Y-73147676D02*
X209459524Y-73242914D01*
X209459524Y-73242914D02*
X209364286Y-73290533D01*
X199707142Y-89854819D02*
X199373809Y-89378628D01*
X199135714Y-89854819D02*
X199135714Y-88854819D01*
X199135714Y-88854819D02*
X199516666Y-88854819D01*
X199516666Y-88854819D02*
X199611904Y-88902438D01*
X199611904Y-88902438D02*
X199659523Y-88950057D01*
X199659523Y-88950057D02*
X199707142Y-89045295D01*
X199707142Y-89045295D02*
X199707142Y-89188152D01*
X199707142Y-89188152D02*
X199659523Y-89283390D01*
X199659523Y-89283390D02*
X199611904Y-89331009D01*
X199611904Y-89331009D02*
X199516666Y-89378628D01*
X199516666Y-89378628D02*
X199135714Y-89378628D01*
X200659523Y-89854819D02*
X200088095Y-89854819D01*
X200373809Y-89854819D02*
X200373809Y-88854819D01*
X200373809Y-88854819D02*
X200278571Y-88997676D01*
X200278571Y-88997676D02*
X200183333Y-89092914D01*
X200183333Y-89092914D02*
X200088095Y-89140533D01*
X201564285Y-88854819D02*
X201088095Y-88854819D01*
X201088095Y-88854819D02*
X201040476Y-89331009D01*
X201040476Y-89331009D02*
X201088095Y-89283390D01*
X201088095Y-89283390D02*
X201183333Y-89235771D01*
X201183333Y-89235771D02*
X201421428Y-89235771D01*
X201421428Y-89235771D02*
X201516666Y-89283390D01*
X201516666Y-89283390D02*
X201564285Y-89331009D01*
X201564285Y-89331009D02*
X201611904Y-89426247D01*
X201611904Y-89426247D02*
X201611904Y-89664342D01*
X201611904Y-89664342D02*
X201564285Y-89759580D01*
X201564285Y-89759580D02*
X201516666Y-89807200D01*
X201516666Y-89807200D02*
X201421428Y-89854819D01*
X201421428Y-89854819D02*
X201183333Y-89854819D01*
X201183333Y-89854819D02*
X201088095Y-89807200D01*
X201088095Y-89807200D02*
X201040476Y-89759580D01*
X200341667Y-103507200D02*
X200484524Y-103554819D01*
X200484524Y-103554819D02*
X200722619Y-103554819D01*
X200722619Y-103554819D02*
X200817857Y-103507200D01*
X200817857Y-103507200D02*
X200865476Y-103459580D01*
X200865476Y-103459580D02*
X200913095Y-103364342D01*
X200913095Y-103364342D02*
X200913095Y-103269104D01*
X200913095Y-103269104D02*
X200865476Y-103173866D01*
X200865476Y-103173866D02*
X200817857Y-103126247D01*
X200817857Y-103126247D02*
X200722619Y-103078628D01*
X200722619Y-103078628D02*
X200532143Y-103031009D01*
X200532143Y-103031009D02*
X200436905Y-102983390D01*
X200436905Y-102983390D02*
X200389286Y-102935771D01*
X200389286Y-102935771D02*
X200341667Y-102840533D01*
X200341667Y-102840533D02*
X200341667Y-102745295D01*
X200341667Y-102745295D02*
X200389286Y-102650057D01*
X200389286Y-102650057D02*
X200436905Y-102602438D01*
X200436905Y-102602438D02*
X200532143Y-102554819D01*
X200532143Y-102554819D02*
X200770238Y-102554819D01*
X200770238Y-102554819D02*
X200913095Y-102602438D01*
X201246429Y-102554819D02*
X201484524Y-103554819D01*
X201484524Y-103554819D02*
X201675000Y-102840533D01*
X201675000Y-102840533D02*
X201865476Y-103554819D01*
X201865476Y-103554819D02*
X202103572Y-102554819D01*
X202389286Y-102554819D02*
X203008333Y-102554819D01*
X203008333Y-102554819D02*
X202675000Y-102935771D01*
X202675000Y-102935771D02*
X202817857Y-102935771D01*
X202817857Y-102935771D02*
X202913095Y-102983390D01*
X202913095Y-102983390D02*
X202960714Y-103031009D01*
X202960714Y-103031009D02*
X203008333Y-103126247D01*
X203008333Y-103126247D02*
X203008333Y-103364342D01*
X203008333Y-103364342D02*
X202960714Y-103459580D01*
X202960714Y-103459580D02*
X202913095Y-103507200D01*
X202913095Y-103507200D02*
X202817857Y-103554819D01*
X202817857Y-103554819D02*
X202532143Y-103554819D01*
X202532143Y-103554819D02*
X202436905Y-103507200D01*
X202436905Y-103507200D02*
X202389286Y-103459580D01*
X177891667Y-103607200D02*
X178034524Y-103654819D01*
X178034524Y-103654819D02*
X178272619Y-103654819D01*
X178272619Y-103654819D02*
X178367857Y-103607200D01*
X178367857Y-103607200D02*
X178415476Y-103559580D01*
X178415476Y-103559580D02*
X178463095Y-103464342D01*
X178463095Y-103464342D02*
X178463095Y-103369104D01*
X178463095Y-103369104D02*
X178415476Y-103273866D01*
X178415476Y-103273866D02*
X178367857Y-103226247D01*
X178367857Y-103226247D02*
X178272619Y-103178628D01*
X178272619Y-103178628D02*
X178082143Y-103131009D01*
X178082143Y-103131009D02*
X177986905Y-103083390D01*
X177986905Y-103083390D02*
X177939286Y-103035771D01*
X177939286Y-103035771D02*
X177891667Y-102940533D01*
X177891667Y-102940533D02*
X177891667Y-102845295D01*
X177891667Y-102845295D02*
X177939286Y-102750057D01*
X177939286Y-102750057D02*
X177986905Y-102702438D01*
X177986905Y-102702438D02*
X178082143Y-102654819D01*
X178082143Y-102654819D02*
X178320238Y-102654819D01*
X178320238Y-102654819D02*
X178463095Y-102702438D01*
X178796429Y-102654819D02*
X179034524Y-103654819D01*
X179034524Y-103654819D02*
X179225000Y-102940533D01*
X179225000Y-102940533D02*
X179415476Y-103654819D01*
X179415476Y-103654819D02*
X179653572Y-102654819D01*
X180558333Y-103654819D02*
X179986905Y-103654819D01*
X180272619Y-103654819D02*
X180272619Y-102654819D01*
X180272619Y-102654819D02*
X180177381Y-102797676D01*
X180177381Y-102797676D02*
X180082143Y-102892914D01*
X180082143Y-102892914D02*
X179986905Y-102940533D01*
X191404819Y-69766666D02*
X190928628Y-70099999D01*
X191404819Y-70338094D02*
X190404819Y-70338094D01*
X190404819Y-70338094D02*
X190404819Y-69957142D01*
X190404819Y-69957142D02*
X190452438Y-69861904D01*
X190452438Y-69861904D02*
X190500057Y-69814285D01*
X190500057Y-69814285D02*
X190595295Y-69766666D01*
X190595295Y-69766666D02*
X190738152Y-69766666D01*
X190738152Y-69766666D02*
X190833390Y-69814285D01*
X190833390Y-69814285D02*
X190881009Y-69861904D01*
X190881009Y-69861904D02*
X190928628Y-69957142D01*
X190928628Y-69957142D02*
X190928628Y-70338094D01*
X190404819Y-69433332D02*
X190404819Y-68766666D01*
X190404819Y-68766666D02*
X191404819Y-69195237D01*
X208261905Y-97054819D02*
X208261905Y-96054819D01*
X208261905Y-96054819D02*
X208500000Y-96054819D01*
X208500000Y-96054819D02*
X208642857Y-96102438D01*
X208642857Y-96102438D02*
X208738095Y-96197676D01*
X208738095Y-96197676D02*
X208785714Y-96292914D01*
X208785714Y-96292914D02*
X208833333Y-96483390D01*
X208833333Y-96483390D02*
X208833333Y-96626247D01*
X208833333Y-96626247D02*
X208785714Y-96816723D01*
X208785714Y-96816723D02*
X208738095Y-96911961D01*
X208738095Y-96911961D02*
X208642857Y-97007200D01*
X208642857Y-97007200D02*
X208500000Y-97054819D01*
X208500000Y-97054819D02*
X208261905Y-97054819D01*
X209166667Y-96054819D02*
X209833333Y-96054819D01*
X209833333Y-96054819D02*
X209404762Y-97054819D01*
X173311825Y-75442696D02*
X173884245Y-76015116D01*
X173884245Y-76015116D02*
X173985260Y-76048788D01*
X173985260Y-76048788D02*
X174052604Y-76048788D01*
X174052604Y-76048788D02*
X174153619Y-76015116D01*
X174153619Y-76015116D02*
X174288306Y-75880429D01*
X174288306Y-75880429D02*
X174321978Y-75779414D01*
X174321978Y-75779414D02*
X174321978Y-75712070D01*
X174321978Y-75712070D02*
X174288306Y-75611055D01*
X174288306Y-75611055D02*
X173715886Y-75038635D01*
X173985260Y-74769261D02*
X174422993Y-74331529D01*
X174422993Y-74331529D02*
X174456665Y-74836605D01*
X174456665Y-74836605D02*
X174557680Y-74735590D01*
X174557680Y-74735590D02*
X174658695Y-74701918D01*
X174658695Y-74701918D02*
X174726039Y-74701918D01*
X174726039Y-74701918D02*
X174827054Y-74735590D01*
X174827054Y-74735590D02*
X174995413Y-74903948D01*
X174995413Y-74903948D02*
X175029085Y-75004964D01*
X175029085Y-75004964D02*
X175029085Y-75072307D01*
X175029085Y-75072307D02*
X174995413Y-75173322D01*
X174995413Y-75173322D02*
X174793382Y-75375353D01*
X174793382Y-75375353D02*
X174692367Y-75409025D01*
X174692367Y-75409025D02*
X174625024Y-75409025D01*
X189166667Y-105807200D02*
X189309524Y-105854819D01*
X189309524Y-105854819D02*
X189547619Y-105854819D01*
X189547619Y-105854819D02*
X189642857Y-105807200D01*
X189642857Y-105807200D02*
X189690476Y-105759580D01*
X189690476Y-105759580D02*
X189738095Y-105664342D01*
X189738095Y-105664342D02*
X189738095Y-105569104D01*
X189738095Y-105569104D02*
X189690476Y-105473866D01*
X189690476Y-105473866D02*
X189642857Y-105426247D01*
X189642857Y-105426247D02*
X189547619Y-105378628D01*
X189547619Y-105378628D02*
X189357143Y-105331009D01*
X189357143Y-105331009D02*
X189261905Y-105283390D01*
X189261905Y-105283390D02*
X189214286Y-105235771D01*
X189214286Y-105235771D02*
X189166667Y-105140533D01*
X189166667Y-105140533D02*
X189166667Y-105045295D01*
X189166667Y-105045295D02*
X189214286Y-104950057D01*
X189214286Y-104950057D02*
X189261905Y-104902438D01*
X189261905Y-104902438D02*
X189357143Y-104854819D01*
X189357143Y-104854819D02*
X189595238Y-104854819D01*
X189595238Y-104854819D02*
X189738095Y-104902438D01*
X190071429Y-104854819D02*
X190309524Y-105854819D01*
X190309524Y-105854819D02*
X190500000Y-105140533D01*
X190500000Y-105140533D02*
X190690476Y-105854819D01*
X190690476Y-105854819D02*
X190928572Y-104854819D01*
X191261905Y-104950057D02*
X191309524Y-104902438D01*
X191309524Y-104902438D02*
X191404762Y-104854819D01*
X191404762Y-104854819D02*
X191642857Y-104854819D01*
X191642857Y-104854819D02*
X191738095Y-104902438D01*
X191738095Y-104902438D02*
X191785714Y-104950057D01*
X191785714Y-104950057D02*
X191833333Y-105045295D01*
X191833333Y-105045295D02*
X191833333Y-105140533D01*
X191833333Y-105140533D02*
X191785714Y-105283390D01*
X191785714Y-105283390D02*
X191214286Y-105854819D01*
X191214286Y-105854819D02*
X191833333Y-105854819D01*
X196304819Y-62466666D02*
X195828628Y-62799999D01*
X196304819Y-63038094D02*
X195304819Y-63038094D01*
X195304819Y-63038094D02*
X195304819Y-62657142D01*
X195304819Y-62657142D02*
X195352438Y-62561904D01*
X195352438Y-62561904D02*
X195400057Y-62514285D01*
X195400057Y-62514285D02*
X195495295Y-62466666D01*
X195495295Y-62466666D02*
X195638152Y-62466666D01*
X195638152Y-62466666D02*
X195733390Y-62514285D01*
X195733390Y-62514285D02*
X195781009Y-62561904D01*
X195781009Y-62561904D02*
X195828628Y-62657142D01*
X195828628Y-62657142D02*
X195828628Y-63038094D01*
X195638152Y-61609523D02*
X196304819Y-61609523D01*
X195257200Y-61847618D02*
X195971485Y-62085713D01*
X195971485Y-62085713D02*
X195971485Y-61466666D01*
X201416667Y-60707200D02*
X201559524Y-60754819D01*
X201559524Y-60754819D02*
X201797619Y-60754819D01*
X201797619Y-60754819D02*
X201892857Y-60707200D01*
X201892857Y-60707200D02*
X201940476Y-60659580D01*
X201940476Y-60659580D02*
X201988095Y-60564342D01*
X201988095Y-60564342D02*
X201988095Y-60469104D01*
X201988095Y-60469104D02*
X201940476Y-60373866D01*
X201940476Y-60373866D02*
X201892857Y-60326247D01*
X201892857Y-60326247D02*
X201797619Y-60278628D01*
X201797619Y-60278628D02*
X201607143Y-60231009D01*
X201607143Y-60231009D02*
X201511905Y-60183390D01*
X201511905Y-60183390D02*
X201464286Y-60135771D01*
X201464286Y-60135771D02*
X201416667Y-60040533D01*
X201416667Y-60040533D02*
X201416667Y-59945295D01*
X201416667Y-59945295D02*
X201464286Y-59850057D01*
X201464286Y-59850057D02*
X201511905Y-59802438D01*
X201511905Y-59802438D02*
X201607143Y-59754819D01*
X201607143Y-59754819D02*
X201845238Y-59754819D01*
X201845238Y-59754819D02*
X201988095Y-59802438D01*
X202321429Y-59754819D02*
X202559524Y-60754819D01*
X202559524Y-60754819D02*
X202750000Y-60040533D01*
X202750000Y-60040533D02*
X202940476Y-60754819D01*
X202940476Y-60754819D02*
X203178572Y-59754819D01*
X203988095Y-60088152D02*
X203988095Y-60754819D01*
X203750000Y-59707200D02*
X203511905Y-60421485D01*
X203511905Y-60421485D02*
X204130952Y-60421485D01*
X184904819Y-62466666D02*
X184428628Y-62799999D01*
X184904819Y-63038094D02*
X183904819Y-63038094D01*
X183904819Y-63038094D02*
X183904819Y-62657142D01*
X183904819Y-62657142D02*
X183952438Y-62561904D01*
X183952438Y-62561904D02*
X184000057Y-62514285D01*
X184000057Y-62514285D02*
X184095295Y-62466666D01*
X184095295Y-62466666D02*
X184238152Y-62466666D01*
X184238152Y-62466666D02*
X184333390Y-62514285D01*
X184333390Y-62514285D02*
X184381009Y-62561904D01*
X184381009Y-62561904D02*
X184428628Y-62657142D01*
X184428628Y-62657142D02*
X184428628Y-63038094D01*
X183904819Y-61561904D02*
X183904819Y-62038094D01*
X183904819Y-62038094D02*
X184381009Y-62085713D01*
X184381009Y-62085713D02*
X184333390Y-62038094D01*
X184333390Y-62038094D02*
X184285771Y-61942856D01*
X184285771Y-61942856D02*
X184285771Y-61704761D01*
X184285771Y-61704761D02*
X184333390Y-61609523D01*
X184333390Y-61609523D02*
X184381009Y-61561904D01*
X184381009Y-61561904D02*
X184476247Y-61514285D01*
X184476247Y-61514285D02*
X184714342Y-61514285D01*
X184714342Y-61514285D02*
X184809580Y-61561904D01*
X184809580Y-61561904D02*
X184857200Y-61609523D01*
X184857200Y-61609523D02*
X184904819Y-61704761D01*
X184904819Y-61704761D02*
X184904819Y-61942856D01*
X184904819Y-61942856D02*
X184857200Y-62038094D01*
X184857200Y-62038094D02*
X184809580Y-62085713D01*
X176185387Y-81947720D02*
X176118043Y-81947720D01*
X176118043Y-81947720D02*
X175983356Y-81880376D01*
X175983356Y-81880376D02*
X175916013Y-81813033D01*
X175916013Y-81813033D02*
X175848669Y-81678346D01*
X175848669Y-81678346D02*
X175848669Y-81543659D01*
X175848669Y-81543659D02*
X175882341Y-81442644D01*
X175882341Y-81442644D02*
X175983356Y-81274285D01*
X175983356Y-81274285D02*
X176084371Y-81173270D01*
X176084371Y-81173270D02*
X176252730Y-81072254D01*
X176252730Y-81072254D02*
X176353745Y-81038583D01*
X176353745Y-81038583D02*
X176488432Y-81038583D01*
X176488432Y-81038583D02*
X176623119Y-81105926D01*
X176623119Y-81105926D02*
X176690463Y-81173270D01*
X176690463Y-81173270D02*
X176757806Y-81307957D01*
X176757806Y-81307957D02*
X176757806Y-81375300D01*
X177027180Y-81644674D02*
X177094524Y-81644674D01*
X177094524Y-81644674D02*
X177195539Y-81678346D01*
X177195539Y-81678346D02*
X177363898Y-81846705D01*
X177363898Y-81846705D02*
X177397570Y-81947720D01*
X177397570Y-81947720D02*
X177397570Y-82015063D01*
X177397570Y-82015063D02*
X177363898Y-82116079D01*
X177363898Y-82116079D02*
X177296554Y-82183422D01*
X177296554Y-82183422D02*
X177161867Y-82250766D01*
X177161867Y-82250766D02*
X176353745Y-82250766D01*
X176353745Y-82250766D02*
X176791478Y-82688498D01*
X191617319Y-62588094D02*
X192426842Y-62588094D01*
X192426842Y-62588094D02*
X192522080Y-62540475D01*
X192522080Y-62540475D02*
X192569700Y-62492856D01*
X192569700Y-62492856D02*
X192617319Y-62397618D01*
X192617319Y-62397618D02*
X192617319Y-62207142D01*
X192617319Y-62207142D02*
X192569700Y-62111904D01*
X192569700Y-62111904D02*
X192522080Y-62064285D01*
X192522080Y-62064285D02*
X192426842Y-62016666D01*
X192426842Y-62016666D02*
X191617319Y-62016666D01*
X192617319Y-61016666D02*
X192617319Y-61588094D01*
X192617319Y-61302380D02*
X191617319Y-61302380D01*
X191617319Y-61302380D02*
X191760176Y-61397618D01*
X191760176Y-61397618D02*
X191855414Y-61492856D01*
X191855414Y-61492856D02*
X191903033Y-61588094D01*
X192617319Y-60064285D02*
X192617319Y-60635713D01*
X192617319Y-60349999D02*
X191617319Y-60349999D01*
X191617319Y-60349999D02*
X191760176Y-60445237D01*
X191760176Y-60445237D02*
X191855414Y-60540475D01*
X191855414Y-60540475D02*
X191903033Y-60635713D01*
D12*
%TO.C,J4*%
X194675000Y-55120000D02*
X194675000Y-53340000D01*
X192775000Y-58040000D02*
X193575000Y-58040000D01*
X185275000Y-55120000D02*
X185275000Y-53340000D01*
%TO.C,D5*%
X178654703Y-61087652D02*
X180012348Y-62445297D01*
X180012348Y-62445297D02*
X181910929Y-60546716D01*
X180553284Y-59189071D02*
X178654703Y-61087652D01*
%TO.C,D3*%
X172779703Y-61137652D02*
X174137348Y-62495297D01*
X174137348Y-62495297D02*
X176035929Y-60596716D01*
X174678284Y-59239071D02*
X172779703Y-61137652D01*
%TO.C,R2*%
X177319718Y-62740835D02*
X177640835Y-62419718D01*
X178359165Y-63780282D02*
X178680282Y-63459165D01*
%TO.C,R3*%
X180119718Y-62840835D02*
X180440835Y-62519718D01*
X181159165Y-63880282D02*
X181480282Y-63559165D01*
%TO.C,R1*%
X174419718Y-62740835D02*
X174740835Y-62419718D01*
X175459165Y-63780282D02*
X175780282Y-63459165D01*
%TO.C,D4*%
X175729703Y-61087652D02*
X177087348Y-62445297D01*
X177087348Y-62445297D02*
X178985929Y-60546716D01*
X177628284Y-59189071D02*
X175729703Y-61087652D01*
%TO.C,R6*%
X205515000Y-95422936D02*
X205515000Y-95877064D01*
X206985000Y-95422936D02*
X206985000Y-95877064D01*
%TO.C,R8*%
X196977064Y-90327500D02*
X196522936Y-90327500D01*
X196977064Y-91797500D02*
X196522936Y-91797500D01*
%TO.C,Q2*%
X200881250Y-70233750D02*
X200641250Y-69903750D01*
X201121250Y-69903750D01*
X200881250Y-70233750D01*
G36*
X200881250Y-70233750D02*
G01*
X200641250Y-69903750D01*
X201121250Y-69903750D01*
X200881250Y-70233750D01*
G37*
X202043750Y-73303750D02*
X202693750Y-73303750D01*
X202043750Y-73303750D02*
X201393750Y-73303750D01*
X202043750Y-70183750D02*
X202693750Y-70183750D01*
X202043750Y-70183750D02*
X201393750Y-70183750D01*
%TO.C,C4*%
X197894998Y-71758750D02*
X198417502Y-71758750D01*
X197894998Y-73228750D02*
X198417502Y-73228750D01*
%TO.C,C6*%
X196267502Y-66058750D02*
X195744998Y-66058750D01*
X196267502Y-67528750D02*
X195744998Y-67528750D01*
%TO.C,C1*%
X199394998Y-66008750D02*
X199917502Y-66008750D01*
X199394998Y-67478750D02*
X199917502Y-67478750D01*
%TO.C,U1*%
X194356250Y-68133750D02*
X194116250Y-67803750D01*
X194596250Y-67803750D01*
X194356250Y-68133750D01*
G36*
X194356250Y-68133750D02*
G01*
X194116250Y-67803750D01*
X194596250Y-67803750D01*
X194356250Y-68133750D01*
G37*
X195656250Y-71203750D02*
X196456250Y-71203750D01*
X195656250Y-71203750D02*
X194856250Y-71203750D01*
X195656250Y-68083750D02*
X196456250Y-68083750D01*
X195656250Y-68083750D02*
X194856250Y-68083750D01*
%TO.C,R13*%
X198121250Y-69416686D02*
X198121250Y-69870814D01*
X199591250Y-69416686D02*
X199591250Y-69870814D01*
%TO.C,R14*%
X201479186Y-69628750D02*
X201933314Y-69628750D01*
X201479186Y-68158750D02*
X201933314Y-68158750D01*
%TO.C,C5*%
X197894998Y-73858750D02*
X198417502Y-73858750D01*
X197894998Y-75328750D02*
X198417502Y-75328750D01*
%TO.C,C7*%
X201036248Y-92475000D02*
X201558752Y-92475000D01*
X201036248Y-93945000D02*
X201558752Y-93945000D01*
%TO.C,C8*%
X195932500Y-98148748D02*
X195932500Y-98671252D01*
X194462500Y-98148748D02*
X194462500Y-98671252D01*
%TO.C,C3*%
X193458752Y-94045000D02*
X192936248Y-94045000D01*
X193458752Y-92575000D02*
X192936248Y-92575000D01*
%TO.C,R9*%
X201070436Y-94675000D02*
X201524564Y-94675000D01*
X201070436Y-96145000D02*
X201524564Y-96145000D01*
%TO.C,R11*%
X193424564Y-96245000D02*
X192970436Y-96245000D01*
X193424564Y-94775000D02*
X192970436Y-94775000D01*
%TO.C,R12*%
X200032500Y-98182936D02*
X200032500Y-98637064D01*
X198562500Y-98182936D02*
X198562500Y-98637064D01*
%TO.C,U4*%
X198860000Y-95435000D02*
X198860000Y-95670000D01*
X198860000Y-92690000D02*
X198860000Y-93165000D01*
X198385000Y-95910000D02*
X198560000Y-95910000D01*
X198385000Y-92690000D02*
X198860000Y-92690000D01*
X196115000Y-95910000D02*
X195640000Y-95910000D01*
X196115000Y-92690000D02*
X195640000Y-92690000D01*
X195640000Y-95910000D02*
X195640000Y-95435000D01*
X195640000Y-92690000D02*
X195640000Y-93165000D01*
X199100000Y-96240000D02*
X198620000Y-96240000D01*
X198860000Y-95910000D01*
X199100000Y-96240000D01*
G36*
X199100000Y-96240000D02*
G01*
X198620000Y-96240000D01*
X198860000Y-95910000D01*
X199100000Y-96240000D01*
G37*
%TO.C,D1*%
X208150000Y-72860000D02*
X210835000Y-72860000D01*
X210835000Y-70940000D02*
X208150000Y-70940000D01*
X210835000Y-72860000D02*
X210835000Y-70940000D01*
%TO.C,R15*%
X200122936Y-90315000D02*
X200577064Y-90315000D01*
X200122936Y-91785000D02*
X200577064Y-91785000D01*
%TO.C,SW3*%
X198445000Y-103845000D02*
X198445000Y-103875000D01*
X198445000Y-108375000D02*
X198445000Y-105775000D01*
X198445000Y-110305000D02*
X198445000Y-110275000D01*
X204905000Y-103845000D02*
X198445000Y-103845000D01*
X204905000Y-103845000D02*
X204905000Y-103875000D01*
X204905000Y-108375000D02*
X204905000Y-105775000D01*
X204905000Y-110275000D02*
X204905000Y-110305000D01*
X204905000Y-110305000D02*
X198445000Y-110305000D01*
%TO.C,SW1*%
X175995000Y-103970000D02*
X175995000Y-104000000D01*
X175995000Y-108500000D02*
X175995000Y-105900000D01*
X175995000Y-110430000D02*
X175995000Y-110400000D01*
X182455000Y-103970000D02*
X175995000Y-103970000D01*
X182455000Y-103970000D02*
X182455000Y-104000000D01*
X182455000Y-108500000D02*
X182455000Y-105900000D01*
X182455000Y-110400000D02*
X182455000Y-110430000D01*
X182455000Y-110430000D02*
X175995000Y-110430000D01*
%TO.C,DISPLAY_SSD1351*%
X169120000Y-89565000D02*
X169120000Y-74265000D01*
X169120000Y-92165000D02*
X169120000Y-90835000D01*
X170450000Y-92165000D02*
X169120000Y-92165000D01*
X171780000Y-74265000D02*
X169120000Y-74265000D01*
X171780000Y-89565000D02*
X169120000Y-89565000D01*
X171780000Y-89565000D02*
X171780000Y-74265000D01*
%TO.C,BREAKOUT_PINS1*%
X190820000Y-100480000D02*
X175460000Y-100480000D01*
X188220000Y-97880000D02*
X190820000Y-97880000D01*
X190820000Y-97880000D02*
X190820000Y-100480000D01*
X175460000Y-95280000D02*
X175460000Y-100480000D01*
X188220000Y-95280000D02*
X188220000Y-97880000D01*
X188220000Y-95280000D02*
X175460000Y-95280000D01*
X189490000Y-95280000D02*
X190820000Y-95280000D01*
X190820000Y-95280000D02*
X190820000Y-96610000D01*
%TO.C,R7*%
X191865000Y-69827064D02*
X191865000Y-69372936D01*
X193335000Y-69827064D02*
X193335000Y-69372936D01*
%TO.C,D7*%
X210685000Y-95910000D02*
X210685000Y-93990000D01*
X210685000Y-93990000D02*
X208000000Y-93990000D01*
X208000000Y-95910000D02*
X210685000Y-95910000D01*
D13*
%TO.C,U3*%
X173147131Y-78337080D02*
X184036575Y-67447636D01*
X176329111Y-81519061D02*
X173147131Y-78337080D01*
X184036575Y-67447636D02*
X187218556Y-70629616D01*
X198178711Y-81589771D02*
X187289266Y-92479216D01*
D14*
X177171573Y-83322183D02*
G75*
G02*
X176971573Y-83322183I-100000J0D01*
G01*
X176971573Y-83322183D02*
G75*
G02*
X177171573Y-83322183I100000J0D01*
G01*
D12*
%TO.C,SW2*%
X187270000Y-106170000D02*
X187270000Y-106200000D01*
X187270000Y-110700000D02*
X187270000Y-108100000D01*
X187270000Y-112630000D02*
X187270000Y-112600000D01*
X193730000Y-106170000D02*
X187270000Y-106170000D01*
X193730000Y-106170000D02*
X193730000Y-106200000D01*
X193730000Y-110700000D02*
X193730000Y-108100000D01*
X193730000Y-112600000D02*
X193730000Y-112630000D01*
X193730000Y-112630000D02*
X187270000Y-112630000D01*
%TO.C,R4*%
X193365000Y-61072936D02*
X193365000Y-61527064D01*
X194835000Y-61072936D02*
X194835000Y-61527064D01*
%TO.C,SW4*%
X198140000Y-57290000D02*
X198225000Y-63300000D01*
X198225000Y-63300000D02*
X199575000Y-63300000D01*
X199490000Y-57290000D02*
X198140000Y-57290000D01*
X201990000Y-57290000D02*
X201010000Y-57290000D01*
X201990000Y-63310000D02*
X201010000Y-63310000D01*
X204490000Y-57290000D02*
X203510000Y-57290000D01*
X204490000Y-63310000D02*
X203510000Y-63310000D01*
X207325000Y-63300000D02*
X205975000Y-63300000D01*
X207360000Y-57290000D02*
X206010000Y-57290000D01*
X207360000Y-57290000D02*
X207325000Y-63300000D01*
%TO.C,R5*%
X185215000Y-61072936D02*
X185215000Y-61527064D01*
X186685000Y-61072936D02*
X186685000Y-61527064D01*
%TO.C,C2*%
X175168921Y-83675421D02*
X174799454Y-83305954D01*
X176208368Y-82635974D02*
X175838901Y-82266507D01*
%TO.C,U11*%
X191322500Y-61350000D02*
X191322500Y-62150000D01*
X191322500Y-61350000D02*
X191322500Y-60550000D01*
X188202500Y-61350000D02*
X188202500Y-62150000D01*
X188202500Y-61350000D02*
X188202500Y-60550000D01*
X191602500Y-60290000D02*
X191272500Y-60050000D01*
X191602500Y-59810000D01*
X191602500Y-60290000D01*
G36*
X191602500Y-60290000D02*
G01*
X191272500Y-60050000D01*
X191602500Y-59810000D01*
X191602500Y-60290000D01*
G37*
%TD*%
M02*
