%TF.GenerationSoftware,KiCad,Pcbnew,9.0.0*%
%TF.CreationDate,2026-01-25T00:23:46-05:00*%
%TF.ProjectId,hackapet_v4,6861636b-6170-4657-945f-76342e6b6963,rev?*%
%TF.SameCoordinates,Original*%
%TF.FileFunction,Copper,L2,Bot*%
%TF.FilePolarity,Positive*%
%FSLAX46Y46*%
G04 Gerber Fmt 4.6, Leading zero omitted, Abs format (unit mm)*
G04 Created by KiCad (PCBNEW 9.0.0) date 2026-01-25 00:23:46*
%MOMM*%
%LPD*%
G01*
G04 APERTURE LIST*
G04 Aperture macros list*
%AMRoundRect*
0 Rectangle with rounded corners*
0 $1 Rounding radius*
0 $2 $3 $4 $5 $6 $7 $8 $9 X,Y pos of 4 corners*
0 Add a 4 corners polygon primitive as box body*
4,1,4,$2,$3,$4,$5,$6,$7,$8,$9,$2,$3,0*
0 Add four circle primitives for the rounded corners*
1,1,$1+$1,$2,$3*
1,1,$1+$1,$4,$5*
1,1,$1+$1,$6,$7*
1,1,$1+$1,$8,$9*
0 Add four rect primitives between the rounded corners*
20,1,$1+$1,$2,$3,$4,$5,0*
20,1,$1+$1,$4,$5,$6,$7,0*
20,1,$1+$1,$6,$7,$8,$9,0*
20,1,$1+$1,$8,$9,$2,$3,0*%
G04 Aperture macros list end*
%TA.AperFunction,SMDPad,CuDef*%
%ADD10R,1.000000X2.510000*%
%TD*%
%TA.AperFunction,ComponentPad*%
%ADD11O,1.000000X2.100000*%
%TD*%
%TA.AperFunction,ComponentPad*%
%ADD12O,1.000000X1.600000*%
%TD*%
%TA.AperFunction,ComponentPad*%
%ADD13R,1.700000X1.700000*%
%TD*%
%TA.AperFunction,ComponentPad*%
%ADD14O,1.700000X1.700000*%
%TD*%
%TA.AperFunction,SMDPad,CuDef*%
%ADD15R,1.000000X0.750000*%
%TD*%
%TA.AperFunction,SMDPad,CuDef*%
%ADD16R,1.500000X1.000000*%
%TD*%
%TA.AperFunction,SMDPad,CuDef*%
%ADD17RoundRect,0.150000X0.825000X0.150000X-0.825000X0.150000X-0.825000X-0.150000X0.825000X-0.150000X0*%
%TD*%
%TA.AperFunction,SMDPad,CuDef*%
%ADD18RoundRect,0.250000X-0.475000X0.250000X-0.475000X-0.250000X0.475000X-0.250000X0.475000X0.250000X0*%
%TD*%
%TA.AperFunction,ComponentPad*%
%ADD19RoundRect,0.250000X0.350000X0.625000X-0.350000X0.625000X-0.350000X-0.625000X0.350000X-0.625000X0*%
%TD*%
%TA.AperFunction,ComponentPad*%
%ADD20O,1.200000X1.750000*%
%TD*%
%TA.AperFunction,ViaPad*%
%ADD21C,0.600000*%
%TD*%
%TA.AperFunction,Conductor*%
%ADD22C,0.200000*%
%TD*%
%TA.AperFunction,Conductor*%
%ADD23C,0.500000*%
%TD*%
%TA.AperFunction,Conductor*%
%ADD24C,0.400000*%
%TD*%
%TA.AperFunction,Conductor*%
%ADD25C,0.901700*%
%TD*%
G04 APERTURE END LIST*
D10*
%TO.P,J2,1,Pin_1*%
%TO.N,+BATT*%
X202590000Y-63160000D03*
%TO.P,J2,2,Pin_2*%
%TO.N,GND*%
X200050000Y-59850000D03*
%TD*%
D11*
%TO.P,J4,S1,SHIELD*%
%TO.N,GND*%
X194295000Y-56445000D03*
D12*
X194295000Y-52265000D03*
D11*
X185655000Y-56445000D03*
D12*
X185655000Y-52265000D03*
%TD*%
D13*
%TO.P,DISPLAY_SSD1351,1,Pin_1*%
%TO.N,RST*%
X170450000Y-90835000D03*
D14*
%TO.P,DISPLAY_SSD1351,2,Pin_2*%
%TO.N,DC*%
X170450000Y-88295000D03*
%TO.P,DISPLAY_SSD1351,3,Pin_3*%
%TO.N,CS*%
X170450000Y-85755000D03*
%TO.P,DISPLAY_SSD1351,4,Pin_4*%
%TO.N,SLK*%
X170450000Y-83215000D03*
%TO.P,DISPLAY_SSD1351,5,Pin_5*%
%TO.N,DIN*%
X170450000Y-80675000D03*
%TO.P,DISPLAY_SSD1351,6,Pin_6*%
%TO.N,GND*%
X170450000Y-78135000D03*
%TO.P,DISPLAY_SSD1351,7,Pin_7*%
%TO.N,+3V3*%
X170450000Y-75595000D03*
%TD*%
D13*
%TO.P,BREAKOUT_PINS1,1,Pin_1*%
%TO.N,IO14*%
X189490000Y-96610000D03*
D14*
%TO.P,BREAKOUT_PINS1,2,Pin_2*%
%TO.N,IO15*%
X189490000Y-99150000D03*
%TO.P,BREAKOUT_PINS1,3,Pin_3*%
%TO.N,IO21*%
X186950000Y-96610000D03*
%TO.P,BREAKOUT_PINS1,4,Pin_4*%
%TO.N,IO33*%
X186950000Y-99150000D03*
%TO.P,BREAKOUT_PINS1,5,Pin_5*%
%TO.N,IO34*%
X184410000Y-96610000D03*
%TO.P,BREAKOUT_PINS1,6,Pin_6*%
%TO.N,IO35*%
X184410000Y-99150000D03*
%TO.P,BREAKOUT_PINS1,7,Pin_7*%
%TO.N,IO36*%
X181870000Y-96610000D03*
%TO.P,BREAKOUT_PINS1,8,Pin_8*%
%TO.N,IO37*%
X181870000Y-99150000D03*
%TO.P,BREAKOUT_PINS1,9,Pin_9*%
%TO.N,IO38*%
X179330000Y-96610000D03*
%TO.P,BREAKOUT_PINS1,10,Pin_10*%
%TO.N,+3V3*%
X179330000Y-99150000D03*
%TO.P,BREAKOUT_PINS1,11,Pin_11*%
%TO.N,GND*%
X176790000Y-96610000D03*
%TO.P,BREAKOUT_PINS1,12,Pin_12*%
X176790000Y-99150000D03*
%TD*%
D15*
%TO.P,BOOT1,1,1*%
%TO.N,GND*%
X176225000Y-109075000D03*
X182225000Y-109075000D03*
%TO.P,BOOT1,2,2*%
%TO.N,GPIO1*%
X176225000Y-105325000D03*
X182225000Y-105325000D03*
%TD*%
D16*
%TO.P,J1,1,Pin_1*%
%TO.N,+3V3*%
X209200000Y-90600000D03*
%TO.P,J1,2,Pin_2*%
%TO.N,Net-(J1-Pin_2)*%
X209200000Y-91900000D03*
%TD*%
D17*
%TO.P,U2,1,~{CE}*%
%TO.N,GND*%
X209875000Y-71545000D03*
%TO.P,U2,2,SO/SIO*%
%TO.N,IO39*%
X209875000Y-72815000D03*
%TO.P,U2,3,SIO2*%
%TO.N,IO40*%
X209875000Y-74085000D03*
%TO.P,U2,4,VSS*%
%TO.N,GND*%
X209875000Y-75355000D03*
%TO.P,U2,5,SI/SIO*%
%TO.N,IO41*%
X204925000Y-75355000D03*
%TO.P,U2,6,SCLK*%
%TO.N,SLK*%
X204925000Y-74085000D03*
%TO.P,U2,7,SIO3*%
%TO.N,IO42*%
X204925000Y-72815000D03*
%TO.P,U2,8,VCC*%
%TO.N,+3V3*%
X204925000Y-71545000D03*
%TD*%
D18*
%TO.P,C9,1*%
%TO.N,GPIO1*%
X174250000Y-105200000D03*
%TO.P,C9,2*%
%TO.N,GND*%
X174250000Y-107100000D03*
%TD*%
D19*
%TO.P,J7,1,Pin_1*%
%TO.N,+BATT*%
X195500000Y-64550000D03*
D20*
%TO.P,J7,2,Pin_2*%
%TO.N,GND*%
X193500000Y-64550000D03*
%TD*%
D15*
%TO.P,RESET1,1,1*%
%TO.N,GND*%
X198675000Y-108950000D03*
X204675000Y-108950000D03*
%TO.P,RESET1,2,2*%
%TO.N,Net-(U3-EN)*%
X198675000Y-105200000D03*
X204675000Y-105200000D03*
%TD*%
D21*
%TO.N,GND*%
X168500000Y-78150000D03*
%TO.N,Net-(J4-CC2)*%
X186050000Y-59350000D03*
X188175000Y-59100000D03*
%TO.N,+3V3*%
X180000000Y-82850000D03*
X198100000Y-75050000D03*
X207400000Y-90700000D03*
%TO.N,SLK*%
X193700000Y-80300000D03*
%TO.N,IO38*%
X195573194Y-78597937D03*
%TO.N,IO40*%
X199647929Y-77650000D03*
%TO.N,IO41*%
X200100000Y-76989977D03*
%TO.N,IO36*%
X191825734Y-84475737D03*
%TO.N,IO35*%
X197050000Y-80250000D03*
%TO.N,IO42*%
X199800000Y-75700000D03*
%TO.N,IO39*%
X199050000Y-78300000D03*
%TO.N,IO34*%
X196817510Y-83708429D03*
%TO.N,IO37*%
X196100000Y-79200000D03*
%TO.N,IO21*%
X188890000Y-91800000D03*
X192650000Y-84500000D03*
%TO.N,LED1*%
X175700000Y-63700000D03*
X187000000Y-75000000D03*
%TO.N,LED2*%
X178402245Y-63609647D03*
X187711650Y-74488350D03*
%TO.N,D+*%
X194430246Y-86243246D03*
X188800000Y-64350000D03*
%TO.N,D-*%
X193829391Y-87490047D03*
X190700000Y-64350000D03*
%TO.N,LED3*%
X180829289Y-63370711D03*
X188001000Y-73594838D03*
%TO.N,GPIO1*%
X176651473Y-84700000D03*
%TO.N,Net-(U3-EN)*%
X194550000Y-75750000D03*
%TO.N,+5V*%
X196950000Y-65450000D03*
X199900000Y-88300000D03*
X205050000Y-65700000D03*
X203500000Y-88250000D03*
%TO.N,GND*%
X211700000Y-75350000D03*
X170000000Y-95000000D03*
X195350000Y-103350000D03*
X197500000Y-60000000D03*
X201798500Y-94300000D03*
X172500000Y-92500000D03*
X205000000Y-60000000D03*
X185000000Y-84000000D03*
X192000000Y-89000000D03*
X207500000Y-80000000D03*
X180000000Y-107500000D03*
X210000000Y-85000000D03*
X188000000Y-94000000D03*
X205000000Y-100000000D03*
X211650000Y-72150000D03*
X172500000Y-100000000D03*
X172500000Y-97500000D03*
X202500000Y-102500000D03*
X177500000Y-107500000D03*
X191297000Y-92300000D03*
X207500000Y-100000000D03*
X200000000Y-85000000D03*
X197500000Y-52500000D03*
X192000000Y-75000000D03*
X173900000Y-81400000D03*
X199000000Y-93100000D03*
X190600000Y-84500000D03*
X186000000Y-94000000D03*
X205000000Y-67500000D03*
X189850000Y-59100000D03*
X187900000Y-92200000D03*
X202618750Y-70200000D03*
X207500000Y-97500000D03*
X192500000Y-100000000D03*
X189200000Y-86000000D03*
X207500000Y-62500000D03*
X187500000Y-52500000D03*
X177800000Y-94700000D03*
X175000000Y-92500000D03*
X200000000Y-82500000D03*
X202500000Y-107500000D03*
X170000000Y-70000000D03*
X198250000Y-99400000D03*
X200000000Y-102500000D03*
X185900000Y-63600000D03*
X205000000Y-70000000D03*
X200600000Y-71800000D03*
X200000000Y-80000000D03*
X172500000Y-95000000D03*
X170000000Y-92500000D03*
X192500000Y-90000000D03*
X187800000Y-87100000D03*
X210000000Y-87500000D03*
X200000000Y-55000000D03*
X205000000Y-102500000D03*
X207500000Y-65000000D03*
X202500000Y-100000000D03*
X190000000Y-55000000D03*
X179900000Y-92600000D03*
X206850000Y-73550000D03*
X207500000Y-77500000D03*
X185000000Y-77500000D03*
X190000000Y-110000000D03*
X172500000Y-102500000D03*
X192500000Y-55000000D03*
X185450000Y-103400000D03*
X205000000Y-90000000D03*
X190000000Y-103400000D03*
X202600000Y-66800000D03*
X172900000Y-79300000D03*
X198250000Y-74050000D03*
X192500000Y-103350000D03*
X183400000Y-82400000D03*
X191325000Y-59177351D03*
X200000000Y-87500000D03*
X195000000Y-72500000D03*
X187500000Y-110000000D03*
X187500000Y-65000000D03*
X205000000Y-80000000D03*
X175000000Y-70000000D03*
X170000000Y-72500000D03*
X192500000Y-62500000D03*
X187000000Y-93000000D03*
X205000000Y-85000000D03*
X197500000Y-55000000D03*
X207500000Y-82500000D03*
X190000000Y-52500000D03*
X184400000Y-86600000D03*
X175000000Y-90000000D03*
X207500000Y-102500000D03*
X202500000Y-60000000D03*
X187500000Y-103400000D03*
X192500000Y-110000000D03*
X194600000Y-69600000D03*
X177500000Y-90000000D03*
X186400000Y-88600000D03*
X192500000Y-52500000D03*
X206850000Y-71950000D03*
X205000000Y-97500000D03*
X182500000Y-80000000D03*
X200000000Y-107500000D03*
X178900000Y-93700000D03*
X192500000Y-67500000D03*
X207500000Y-87500000D03*
X205000000Y-82500000D03*
X197850000Y-100736000D03*
X187500000Y-55000000D03*
%TO.N,Net-(J1-Pin_2)*%
X206900000Y-93350000D03*
%TO.N,Net-(D1-K)*%
X197850000Y-89650000D03*
X203100000Y-89150000D03*
%TO.N,Net-(U4-~{CHG})*%
X195800000Y-92900000D03*
X194750000Y-91800000D03*
%TO.N,VBUS*%
X204032250Y-66350000D03*
X199600000Y-65850000D03*
%TO.N,Net-(R15-Pad2)*%
X201787555Y-66800000D03*
X201250000Y-73500000D03*
%TO.N,GND*%
X197500000Y-57500000D03*
%TD*%
D22*
%TO.N,+BATT*%
X195500000Y-64550000D02*
X196890000Y-63160000D01*
X196890000Y-63160000D02*
X202590000Y-63160000D01*
%TO.N,Net-(J4-CC2)*%
X188175000Y-59100000D02*
X186300000Y-59100000D01*
X186300000Y-59100000D02*
X186050000Y-59350000D01*
D23*
%TO.N,+3V3*%
X211500000Y-70300000D02*
X206170000Y-70300000D01*
X182199943Y-82850000D02*
X180000000Y-82850000D01*
X186199000Y-91601000D02*
X187501000Y-90299000D01*
D24*
X178050000Y-97870000D02*
X178050000Y-95850000D01*
D23*
X212800000Y-71600000D02*
X211500000Y-70300000D01*
D22*
X204454943Y-71545000D02*
X204925000Y-71545000D01*
D23*
X212800000Y-87000000D02*
X212800000Y-71600000D01*
X187501000Y-88151057D02*
X182199943Y-82850000D01*
X204354972Y-71545000D02*
X204454943Y-71545000D01*
X198199971Y-74950029D02*
X200949943Y-74950029D01*
X198100000Y-75050000D02*
X198199971Y-74950029D01*
X207400000Y-90700000D02*
X209100000Y-90700000D01*
X200949943Y-74950029D02*
X204354972Y-71545000D01*
X178050000Y-95850000D02*
X182299000Y-91601000D01*
X182299000Y-91601000D02*
X186199000Y-91601000D01*
X179330000Y-99150000D02*
X178050000Y-97870000D01*
X187501000Y-90299000D02*
X187501000Y-88151057D01*
X209200000Y-90600000D02*
X212800000Y-87000000D01*
X206170000Y-70300000D02*
X204925000Y-71545000D01*
D22*
X209100000Y-90700000D02*
X209200000Y-90600000D01*
%TO.N,SLK*%
X203950001Y-74085000D02*
X204925000Y-74085000D01*
X195199000Y-75149000D02*
X196351000Y-76301000D01*
X196351000Y-76301000D02*
X201734001Y-76301000D01*
X201734001Y-76301000D02*
X203950001Y-74085000D01*
X193700000Y-80300000D02*
X193700000Y-75500000D01*
X194051000Y-75149000D02*
X195199000Y-75149000D01*
X193700000Y-75500000D02*
X194051000Y-75149000D01*
%TO.N,IO38*%
X198354849Y-80137749D02*
X198354849Y-87145151D01*
X180481000Y-97761000D02*
X179330000Y-96610000D01*
X190132860Y-100702000D02*
X181794240Y-100702000D01*
X180481000Y-99388760D02*
X180481000Y-97761000D01*
X193100000Y-97734860D02*
X190132860Y-100702000D01*
X196817100Y-78600000D02*
X198354849Y-80137749D01*
X195573194Y-78597937D02*
X195575257Y-78600000D01*
X195575257Y-78600000D02*
X196817100Y-78600000D01*
X181794240Y-100702000D02*
X180481000Y-99388760D01*
X193100000Y-92400000D02*
X193100000Y-97734860D01*
X198354849Y-87145151D02*
X193100000Y-92400000D01*
%TO.N,IO40*%
X207811968Y-74085000D02*
X209875000Y-74085000D01*
X204196968Y-77700000D02*
X207811968Y-74085000D01*
X199697929Y-77700000D02*
X204196968Y-77700000D01*
X199647929Y-77650000D02*
X199697929Y-77700000D01*
%TO.N,IO41*%
X200100000Y-76989977D02*
X200110023Y-77000000D01*
X204250000Y-77000000D02*
X204925000Y-76325000D01*
X200110023Y-77000000D02*
X204250000Y-77000000D01*
X204925000Y-76325000D02*
X204925000Y-75355000D01*
%TO.N,IO36*%
X188250000Y-88051471D02*
X188250000Y-90550000D01*
X182190000Y-96610000D02*
X181870000Y-96610000D01*
X191825734Y-84475737D02*
X188250000Y-88051471D01*
X188250000Y-90550000D02*
X182190000Y-96610000D01*
%TO.N,IO35*%
X192298000Y-92732200D02*
X192298000Y-96104000D01*
X197552849Y-86664251D02*
X192300000Y-91917100D01*
X192298000Y-92067800D02*
X192298000Y-92400000D01*
X197050000Y-80250000D02*
X197552849Y-80752849D01*
X185560000Y-98000000D02*
X184410000Y-99150000D01*
X192298000Y-96104000D02*
X190402000Y-98000000D01*
X197552849Y-80752849D02*
X197552849Y-86664251D01*
X190402000Y-98000000D02*
X185560000Y-98000000D01*
X192300000Y-91917100D02*
X192300000Y-92065800D01*
X192300000Y-92065800D02*
X192298000Y-92067800D01*
X192298000Y-92400000D02*
X192298000Y-92732200D01*
%TO.N,IO42*%
X201450000Y-75700000D02*
X204335000Y-72815000D01*
X199800000Y-75700000D02*
X201450000Y-75700000D01*
X204335000Y-72815000D02*
X204925000Y-72815000D01*
%TO.N,IO39*%
X211151000Y-73744032D02*
X210221968Y-72815000D01*
X210221968Y-72815000D02*
X209875000Y-72815000D01*
X211151000Y-74425968D02*
X211151000Y-73744032D01*
X204214068Y-78250000D02*
X207778068Y-74686000D01*
X207778068Y-74686000D02*
X210890968Y-74686000D01*
X199100000Y-78250000D02*
X204214068Y-78250000D01*
X210890968Y-74686000D02*
X211151000Y-74425968D01*
X199050000Y-78300000D02*
X199100000Y-78250000D01*
%TO.N,IO34*%
X186020000Y-95000000D02*
X184410000Y-96610000D01*
X196817510Y-83708429D02*
X197151849Y-84042768D01*
X192133900Y-91516100D02*
X191950000Y-91700000D01*
X191899000Y-91751000D02*
X191899000Y-91899700D01*
X190250000Y-95000000D02*
X186020000Y-95000000D01*
X191897000Y-91901700D02*
X191897000Y-92233900D01*
X197151849Y-86498151D02*
X192133900Y-91516100D01*
X191950000Y-91700000D02*
X191899000Y-91751000D01*
X191897000Y-92233900D02*
X191897000Y-92566100D01*
X197151849Y-84042768D02*
X197151849Y-86498151D01*
X191899000Y-91899700D02*
X191897000Y-91901700D01*
X191897000Y-92566100D02*
X191897000Y-92898300D01*
X191897000Y-93353000D02*
X190250000Y-95000000D01*
X191897000Y-92898300D02*
X191897000Y-93353000D01*
%TO.N,IO37*%
X183021000Y-100301000D02*
X181870000Y-99150000D01*
X197953849Y-86896151D02*
X192699000Y-92151000D01*
X189966760Y-100301000D02*
X183021000Y-100301000D01*
X192699000Y-92151000D02*
X192699000Y-92300000D01*
X197953849Y-80303849D02*
X197953849Y-86896151D01*
X192699000Y-92300000D02*
X192699000Y-97568760D01*
X192700000Y-92232900D02*
X192699000Y-92233900D01*
X196100000Y-79200000D02*
X196850000Y-79200000D01*
X192699000Y-92233900D02*
X192699000Y-92300000D01*
X196850000Y-79200000D02*
X197953849Y-80303849D01*
X192699000Y-97568760D02*
X189966760Y-100301000D01*
%TO.N,IO21*%
X188890000Y-91800000D02*
X188890000Y-88260000D01*
X188890000Y-88260000D02*
X192650000Y-84500000D01*
%TO.N,LED1*%
X186999000Y-73511995D02*
X186999000Y-73179795D01*
X186999000Y-73677681D02*
X186999000Y-73511995D01*
X178533900Y-64401000D02*
X178866100Y-64401000D01*
X187469800Y-71849756D02*
X187994450Y-71325106D01*
X187000000Y-72983956D02*
X187000000Y-72651756D01*
X187000000Y-73063638D02*
X187000000Y-72983956D01*
X180926378Y-64602000D02*
X181258578Y-64602000D01*
X186999000Y-74009881D02*
X186999000Y-73677681D01*
X187994450Y-71325106D02*
X187994450Y-68228650D01*
X187000000Y-72319556D02*
X187234900Y-72084656D01*
X187000000Y-72651756D02*
X187000000Y-72319556D01*
X187234900Y-72084656D02*
X187469800Y-71849756D01*
X187000000Y-74010881D02*
X186999000Y-74009881D01*
X187000000Y-73178795D02*
X187000000Y-73063638D01*
X187994450Y-68228650D02*
X186567800Y-66802000D01*
X187000000Y-74343800D02*
X187000000Y-74011600D01*
X176400000Y-64400000D02*
X178532900Y-64400000D01*
X186999000Y-73179795D02*
X187000000Y-73178795D01*
X187000000Y-75000000D02*
X187000000Y-74343800D01*
X175700000Y-63700000D02*
X176400000Y-64400000D01*
X178866100Y-64401000D02*
X180725378Y-64401000D01*
X187000000Y-74011600D02*
X187000000Y-74010881D01*
X178532900Y-64400000D02*
X178533900Y-64401000D01*
X181258578Y-64602000D02*
X184367800Y-64602000D01*
X180725378Y-64401000D02*
X180926378Y-64602000D01*
X184367800Y-64602000D02*
X187932900Y-68167100D01*
%TO.N,LED2*%
X187401000Y-72485656D02*
X188395450Y-71491206D01*
X187401000Y-73844781D02*
X187400000Y-73843781D01*
X187400000Y-73843781D02*
X187400000Y-73345895D01*
X187401000Y-73344895D02*
X187401000Y-72485656D01*
X188395450Y-71491206D02*
X188395450Y-68062550D01*
X188395450Y-68062550D02*
X184533900Y-64201000D01*
X180891478Y-64000000D02*
X178700000Y-64000000D01*
X187400000Y-73345895D02*
X187401000Y-73344895D01*
X187401000Y-74177700D02*
X187401000Y-73844781D01*
X178402245Y-63702245D02*
X178402245Y-63609647D01*
X187711650Y-74488350D02*
X187401000Y-74177700D01*
X181092478Y-64201000D02*
X180891478Y-64000000D01*
X184533900Y-64201000D02*
X181092478Y-64201000D01*
X178700000Y-64000000D02*
X178402245Y-63702245D01*
D25*
%TO.N,D+*%
X195297300Y-85092378D02*
X189548300Y-79343378D01*
X194697300Y-86243246D02*
X195297300Y-85643246D01*
X195297300Y-85643246D02*
X195297300Y-85092378D01*
X194430246Y-86243246D02*
X194697300Y-86243246D01*
X189548300Y-65098300D02*
X188800000Y-64350000D01*
X189548300Y-79343378D02*
X189548300Y-65098300D01*
%TO.N,D-*%
X193829391Y-87490047D02*
X195009953Y-87490047D01*
X196400000Y-84635624D02*
X190700000Y-78935624D01*
X195009953Y-87490047D02*
X196400000Y-86100000D01*
X190700000Y-78935624D02*
X190700000Y-64350000D01*
X196400000Y-86100000D02*
X196400000Y-84635624D01*
D22*
%TO.N,LED3*%
X188796450Y-67896450D02*
X188796450Y-71657306D01*
X187802000Y-72651756D02*
X187802000Y-73395838D01*
X180829289Y-63370711D02*
X181258578Y-63800000D01*
X184700000Y-63800000D02*
X188796450Y-67896450D01*
X188796450Y-71657306D02*
X187802000Y-72651756D01*
X181258578Y-63800000D02*
X184700000Y-63800000D01*
X187802000Y-73395838D02*
X188001000Y-73594838D01*
%TO.N,GPIO1*%
X176225000Y-105325000D02*
X174375000Y-105325000D01*
X182225000Y-105325000D02*
X176225000Y-105325000D01*
X174250000Y-105200000D02*
X174250000Y-87101473D01*
X174250000Y-87101473D02*
X176651473Y-84700000D01*
X174375000Y-105325000D02*
X174250000Y-105200000D01*
%TO.N,Net-(U3-EN)*%
X198755849Y-79955849D02*
X198755849Y-87311251D01*
X197250000Y-103775000D02*
X198675000Y-105200000D01*
X194550000Y-75750000D02*
X198755849Y-79955849D01*
X197250000Y-88817100D02*
X197250000Y-103775000D01*
X198755849Y-87311251D02*
X197250000Y-88817100D01*
X198675000Y-105200000D02*
X204675000Y-105200000D01*
%TO.N,+5V*%
X199950000Y-88250000D02*
X199900000Y-88300000D01*
X205050000Y-65700000D02*
X204450000Y-65100000D01*
X197300000Y-65100000D02*
X196950000Y-65450000D01*
X203500000Y-88250000D02*
X199950000Y-88250000D01*
X204450000Y-65100000D02*
X197300000Y-65100000D01*
%TO.N,GND*%
X191250000Y-59100000D02*
X191250000Y-59102351D01*
X198150000Y-99500000D02*
X198150000Y-100436000D01*
X198250000Y-74050000D02*
X198350000Y-74050000D01*
X198350000Y-74050000D02*
X200600000Y-71800000D01*
X198250000Y-99400000D02*
X198150000Y-99500000D01*
X191297000Y-92300000D02*
X191196000Y-92401000D01*
X189850000Y-59100000D02*
X191250000Y-59100000D01*
X198150000Y-100436000D02*
X197850000Y-100736000D01*
X191250000Y-59102351D02*
X191325000Y-59177351D01*
X200598500Y-93100000D02*
X201798500Y-94300000D01*
X199000000Y-93100000D02*
X200598500Y-93100000D01*
X188101000Y-92401000D02*
X187900000Y-92200000D01*
X191196000Y-92401000D02*
X188101000Y-92401000D01*
%TO.N,Net-(J1-Pin_2)*%
X207750000Y-93350000D02*
X209200000Y-91900000D01*
X206900000Y-93350000D02*
X207750000Y-93350000D01*
%TO.N,Net-(D1-K)*%
X198350000Y-89150000D02*
X197850000Y-89650000D01*
X203100000Y-89150000D02*
X198350000Y-89150000D01*
%TO.N,Net-(U4-~{CHG})*%
X195800000Y-92850000D02*
X194750000Y-91800000D01*
X195800000Y-92900000D02*
X195800000Y-92850000D01*
%TO.N,VBUS*%
X199750000Y-65700000D02*
X199600000Y-65850000D01*
X204032250Y-66350000D02*
X203382250Y-65700000D01*
X203382250Y-65700000D02*
X199750000Y-65700000D01*
%TO.N,Net-(R15-Pad2)*%
X201250000Y-73500000D02*
X201800000Y-72950000D01*
X201800000Y-72950000D02*
X201800000Y-67961149D01*
X201787555Y-67948704D02*
X201787555Y-66800000D01*
X201800000Y-67961149D02*
X201787555Y-67948704D01*
%TD*%
%TA.AperFunction,Conductor*%
%TO.N,GND*%
G36*
X177040000Y-98716988D02*
G01*
X176982993Y-98684075D01*
X176855826Y-98650000D01*
X176724174Y-98650000D01*
X176597007Y-98684075D01*
X176540000Y-98716988D01*
X176540000Y-97043012D01*
X176597007Y-97075925D01*
X176724174Y-97110000D01*
X176855826Y-97110000D01*
X176982993Y-97075925D01*
X177040000Y-97043012D01*
X177040000Y-98716988D01*
G37*
%TD.AperFunction*%
%TA.AperFunction,Conductor*%
G36*
X193577301Y-84723238D02*
G01*
X193601710Y-84742200D01*
X194046426Y-85186916D01*
X194079911Y-85248239D01*
X194074927Y-85317931D01*
X194033055Y-85373864D01*
X194006201Y-85389157D01*
X193979610Y-85400171D01*
X193823800Y-85504280D01*
X193823792Y-85504286D01*
X193691286Y-85636792D01*
X193691280Y-85636800D01*
X193587171Y-85792610D01*
X193587171Y-85792611D01*
X193515456Y-85965746D01*
X193515454Y-85965754D01*
X193478896Y-86149541D01*
X193478896Y-86336950D01*
X193508393Y-86485242D01*
X193502166Y-86554834D01*
X193459303Y-86610011D01*
X193434230Y-86623993D01*
X193378766Y-86646967D01*
X193378751Y-86646975D01*
X193222940Y-86751084D01*
X193090431Y-86883593D01*
X193090425Y-86883601D01*
X192986316Y-87039411D01*
X192986316Y-87039412D01*
X192914601Y-87212547D01*
X192914599Y-87212555D01*
X192878041Y-87396342D01*
X192878041Y-87583751D01*
X192914599Y-87767538D01*
X192914601Y-87767546D01*
X192986316Y-87940681D01*
X192986316Y-87940682D01*
X193090425Y-88096492D01*
X193090431Y-88096500D01*
X193222937Y-88229006D01*
X193222945Y-88229012D01*
X193378756Y-88333121D01*
X193378757Y-88333121D01*
X193378758Y-88333122D01*
X193551892Y-88404837D01*
X193656305Y-88425606D01*
X193735686Y-88441396D01*
X193735689Y-88441397D01*
X193735691Y-88441397D01*
X194060005Y-88441397D01*
X194127044Y-88461082D01*
X194172799Y-88513886D01*
X194182743Y-88583044D01*
X194153718Y-88646600D01*
X194147686Y-88653078D01*
X191765184Y-91035581D01*
X191581286Y-91219478D01*
X191581285Y-91219480D01*
X191581284Y-91219481D01*
X191532342Y-91268422D01*
X191530285Y-91270479D01*
X191530284Y-91270480D01*
X191418481Y-91382282D01*
X191418479Y-91382284D01*
X191396235Y-91420814D01*
X191379096Y-91450500D01*
X191339423Y-91519215D01*
X191298499Y-91671943D01*
X191298499Y-91671945D01*
X191298499Y-91799326D01*
X191298492Y-91800621D01*
X191298333Y-91815796D01*
X191296499Y-91822643D01*
X191296499Y-91980757D01*
X191296500Y-91980760D01*
X191296500Y-91991383D01*
X191296500Y-93052902D01*
X191276815Y-93119941D01*
X191260181Y-93140583D01*
X190037584Y-94363181D01*
X189976261Y-94396666D01*
X189949903Y-94399500D01*
X186106669Y-94399500D01*
X186106653Y-94399499D01*
X186099057Y-94399499D01*
X185940943Y-94399499D01*
X185833587Y-94428265D01*
X185788210Y-94440424D01*
X185788209Y-94440425D01*
X185738096Y-94469359D01*
X185738095Y-94469360D01*
X185694689Y-94494420D01*
X185651285Y-94519479D01*
X185651282Y-94519481D01*
X185539478Y-94631286D01*
X184894522Y-95276241D01*
X184886464Y-95280640D01*
X184880947Y-95287980D01*
X184856282Y-95297121D01*
X184833199Y-95309726D01*
X184822304Y-95309714D01*
X184815432Y-95312262D01*
X184794497Y-95309686D01*
X184780233Y-95309672D01*
X184774298Y-95308368D01*
X184726243Y-95292754D01*
X184643767Y-95279691D01*
X184640194Y-95278906D01*
X184612652Y-95263793D01*
X184584269Y-95250338D01*
X184582264Y-95247118D01*
X184578940Y-95245294D01*
X184563944Y-95217697D01*
X184547338Y-95191026D01*
X184547392Y-95187233D01*
X184545582Y-95183902D01*
X184547887Y-95152577D01*
X184548336Y-95121164D01*
X184550458Y-95117645D01*
X184550710Y-95114221D01*
X184559870Y-95102036D01*
X184579119Y-95070115D01*
X187877819Y-91771414D01*
X187939142Y-91737930D01*
X188008834Y-91742914D01*
X188064767Y-91784786D01*
X188089184Y-91850250D01*
X188089500Y-91859096D01*
X188089500Y-91878846D01*
X188120261Y-92033489D01*
X188120264Y-92033501D01*
X188180602Y-92179172D01*
X188180609Y-92179185D01*
X188268210Y-92310288D01*
X188268213Y-92310292D01*
X188379707Y-92421786D01*
X188379711Y-92421789D01*
X188510814Y-92509390D01*
X188510827Y-92509397D01*
X188640675Y-92563181D01*
X188656503Y-92569737D01*
X188811153Y-92600499D01*
X188811156Y-92600500D01*
X188811158Y-92600500D01*
X188968844Y-92600500D01*
X188968845Y-92600499D01*
X189123497Y-92569737D01*
X189269179Y-92509394D01*
X189400289Y-92421789D01*
X189511789Y-92310289D01*
X189599394Y-92179179D01*
X189599431Y-92179091D01*
X189619655Y-92130264D01*
X189659737Y-92033497D01*
X189690500Y-91878842D01*
X189690500Y-91721158D01*
X189690500Y-91721155D01*
X189690499Y-91721153D01*
X189680710Y-91671943D01*
X189659737Y-91566503D01*
X189632398Y-91500500D01*
X189599397Y-91420827D01*
X189599390Y-91420814D01*
X189511398Y-91289125D01*
X189490520Y-91222447D01*
X189490500Y-91220234D01*
X189490500Y-88560097D01*
X189510185Y-88493058D01*
X189526819Y-88472416D01*
X191089187Y-86910048D01*
X192664662Y-85334572D01*
X192725983Y-85301089D01*
X192728150Y-85300638D01*
X192786085Y-85289113D01*
X192883497Y-85269737D01*
X193029179Y-85209394D01*
X193160289Y-85121789D01*
X193271789Y-85010289D01*
X193359394Y-84879179D01*
X193399469Y-84782426D01*
X193443307Y-84728026D01*
X193509601Y-84705960D01*
X193577301Y-84723238D01*
G37*
%TD.AperFunction*%
%TA.AperFunction,Conductor*%
G36*
X195913590Y-50111912D02*
G01*
X196599342Y-50292244D01*
X196605262Y-50293959D01*
X197632228Y-50619368D01*
X197638882Y-50621688D01*
X198900913Y-51102482D01*
X198908142Y-51105503D01*
X200364435Y-51769177D01*
X200372159Y-51773028D01*
X201987488Y-52650093D01*
X201993429Y-52653536D01*
X202838447Y-53175157D01*
X202842514Y-53177779D01*
X203704714Y-53758067D01*
X203715314Y-53765201D01*
X203719445Y-53768105D01*
X204140683Y-54077256D01*
X204610403Y-54421988D01*
X204614504Y-54425134D01*
X204962682Y-54703900D01*
X205518398Y-55148831D01*
X205522505Y-55152267D01*
X205547621Y-55174221D01*
X206434432Y-55949384D01*
X206438451Y-55953056D01*
X207353360Y-56827100D01*
X207357311Y-56831049D01*
X207483719Y-56963226D01*
X208270154Y-57785551D01*
X208273991Y-57789752D01*
X209179763Y-58828308D01*
X209183445Y-58832733D01*
X210077142Y-59958980D01*
X210080641Y-59963608D01*
X210957186Y-61181139D01*
X210960475Y-61185942D01*
X211814825Y-62498429D01*
X211817882Y-62503374D01*
X212644978Y-63914523D01*
X212647784Y-63919577D01*
X213091386Y-64764374D01*
X213324940Y-65209156D01*
X213442485Y-65433008D01*
X213445026Y-65438132D01*
X213530603Y-65621158D01*
X214202226Y-67057589D01*
X214204499Y-67062754D01*
X214919005Y-68791843D01*
X214921006Y-68797009D01*
X215587677Y-70639524D01*
X215589409Y-70644659D01*
X215794957Y-71301080D01*
X216044046Y-72096550D01*
X216202989Y-72604135D01*
X216204460Y-72609209D01*
X216759756Y-74689411D01*
X216760977Y-74694396D01*
X217252724Y-76898907D01*
X217253708Y-76903779D01*
X217676647Y-79236201D01*
X217677412Y-79240942D01*
X218026269Y-81704836D01*
X218026833Y-81709429D01*
X218294458Y-84290241D01*
X218295114Y-84301947D01*
X218312432Y-86283387D01*
X218312226Y-86291709D01*
X218184178Y-88481776D01*
X218183433Y-88489908D01*
X217890464Y-90835203D01*
X217889144Y-90843484D01*
X217412200Y-93298180D01*
X217410194Y-93306833D01*
X216730561Y-95825552D01*
X216727700Y-95834725D01*
X215824590Y-98379119D01*
X215821770Y-98386342D01*
X215285207Y-99642768D01*
X215282925Y-99647797D01*
X214681815Y-100898078D01*
X214679180Y-100903246D01*
X214013732Y-102136140D01*
X214010709Y-102141426D01*
X213278648Y-103351537D01*
X213275202Y-103356915D01*
X212474290Y-104538809D01*
X212470392Y-104544241D01*
X211598304Y-105692633D01*
X211593929Y-105698068D01*
X210648389Y-106807609D01*
X210643525Y-106812991D01*
X209622077Y-107878531D01*
X209616720Y-107883790D01*
X208516948Y-108900087D01*
X208511113Y-108905152D01*
X207330444Y-109867062D01*
X207324161Y-109871856D01*
X206060022Y-110774161D01*
X206053341Y-110778610D01*
X204702958Y-111616154D01*
X204695944Y-111620194D01*
X203256527Y-112387725D01*
X203249259Y-112391300D01*
X201717975Y-113083486D01*
X201710558Y-113086554D01*
X200084498Y-113697999D01*
X200077001Y-113700548D01*
X198353274Y-114225754D01*
X198345793Y-114227780D01*
X196521538Y-114661159D01*
X196514164Y-114662676D01*
X194586511Y-114998569D01*
X194579319Y-114999606D01*
X192545505Y-115232282D01*
X192538557Y-115232880D01*
X190413690Y-115355535D01*
X190399398Y-115355535D01*
X188274530Y-115232880D01*
X188267582Y-115232282D01*
X186233768Y-114999606D01*
X186226576Y-114998569D01*
X184298923Y-114662676D01*
X184291549Y-114661159D01*
X182467289Y-114227779D01*
X182459808Y-114225753D01*
X180736103Y-113700553D01*
X180728600Y-113698003D01*
X179102530Y-113086554D01*
X179095098Y-113083480D01*
X177563827Y-112391300D01*
X177556559Y-112387725D01*
X176117137Y-111620192D01*
X176110123Y-111616152D01*
X174759746Y-110778612D01*
X174753083Y-110774175D01*
X173488909Y-109871844D01*
X173482646Y-109867065D01*
X173029456Y-109497844D01*
X175225000Y-109497844D01*
X175231401Y-109557372D01*
X175231403Y-109557379D01*
X175281645Y-109692086D01*
X175281649Y-109692093D01*
X175367809Y-109807187D01*
X175367812Y-109807190D01*
X175482906Y-109893350D01*
X175482913Y-109893354D01*
X175617620Y-109943596D01*
X175617627Y-109943598D01*
X175677155Y-109949999D01*
X175677172Y-109950000D01*
X175975000Y-109950000D01*
X176475000Y-109950000D01*
X176772828Y-109950000D01*
X176772844Y-109949999D01*
X176832372Y-109943598D01*
X176832379Y-109943596D01*
X176967086Y-109893354D01*
X176967093Y-109893350D01*
X177082187Y-109807190D01*
X177082190Y-109807187D01*
X177168350Y-109692093D01*
X177168354Y-109692086D01*
X177218596Y-109557379D01*
X177218598Y-109557372D01*
X177224999Y-109497844D01*
X181225000Y-109497844D01*
X181231401Y-109557372D01*
X181231403Y-109557379D01*
X181281645Y-109692086D01*
X181281649Y-109692093D01*
X181367809Y-109807187D01*
X181367812Y-109807190D01*
X181482906Y-109893350D01*
X181482913Y-109893354D01*
X181617620Y-109943596D01*
X181617627Y-109943598D01*
X181677155Y-109949999D01*
X181677172Y-109950000D01*
X181975000Y-109950000D01*
X182475000Y-109950000D01*
X182772828Y-109950000D01*
X182772844Y-109949999D01*
X182832372Y-109943598D01*
X182832379Y-109943596D01*
X182967086Y-109893354D01*
X182967093Y-109893350D01*
X183082187Y-109807190D01*
X183082190Y-109807187D01*
X183168350Y-109692093D01*
X183168354Y-109692086D01*
X183218596Y-109557379D01*
X183218598Y-109557372D01*
X183224999Y-109497844D01*
X183225000Y-109497827D01*
X183225000Y-109372844D01*
X197675000Y-109372844D01*
X197681401Y-109432372D01*
X197681403Y-109432379D01*
X197731645Y-109567086D01*
X197731649Y-109567093D01*
X197817809Y-109682187D01*
X197817812Y-109682190D01*
X197932906Y-109768350D01*
X197932913Y-109768354D01*
X198067620Y-109818596D01*
X198067627Y-109818598D01*
X198127155Y-109824999D01*
X198127172Y-109825000D01*
X198425000Y-109825000D01*
X198925000Y-109825000D01*
X199222828Y-109825000D01*
X199222844Y-109824999D01*
X199282372Y-109818598D01*
X199282379Y-109818596D01*
X199417086Y-109768354D01*
X199417093Y-109768350D01*
X199532187Y-109682190D01*
X199532190Y-109682187D01*
X199618350Y-109567093D01*
X199618354Y-109567086D01*
X199668596Y-109432379D01*
X199668598Y-109432372D01*
X199674999Y-109372844D01*
X203675000Y-109372844D01*
X203681401Y-109432372D01*
X203681403Y-109432379D01*
X203731645Y-109567086D01*
X203731649Y-109567093D01*
X203817809Y-109682187D01*
X203817812Y-109682190D01*
X203932906Y-109768350D01*
X203932913Y-109768354D01*
X204067620Y-109818596D01*
X204067627Y-109818598D01*
X204127155Y-109824999D01*
X204127172Y-109825000D01*
X204425000Y-109825000D01*
X204925000Y-109825000D01*
X205222828Y-109825000D01*
X205222844Y-109824999D01*
X205282372Y-109818598D01*
X205282379Y-109818596D01*
X205417086Y-109768354D01*
X205417093Y-109768350D01*
X205532187Y-109682190D01*
X205532190Y-109682187D01*
X205618350Y-109567093D01*
X205618354Y-109567086D01*
X205668596Y-109432379D01*
X205668598Y-109432372D01*
X205674999Y-109372844D01*
X205675000Y-109372827D01*
X205675000Y-109200000D01*
X204925000Y-109200000D01*
X204925000Y-109825000D01*
X204425000Y-109825000D01*
X204425000Y-109200000D01*
X203675000Y-109200000D01*
X203675000Y-109372844D01*
X199674999Y-109372844D01*
X199675000Y-109372827D01*
X199675000Y-109200000D01*
X198925000Y-109200000D01*
X198925000Y-109825000D01*
X198425000Y-109825000D01*
X198425000Y-109200000D01*
X197675000Y-109200000D01*
X197675000Y-109372844D01*
X183225000Y-109372844D01*
X183225000Y-109325000D01*
X182475000Y-109325000D01*
X182475000Y-109950000D01*
X181975000Y-109950000D01*
X181975000Y-109325000D01*
X181225000Y-109325000D01*
X181225000Y-109497844D01*
X177224999Y-109497844D01*
X177225000Y-109497827D01*
X177225000Y-109325000D01*
X176475000Y-109325000D01*
X176475000Y-109950000D01*
X175975000Y-109950000D01*
X175975000Y-109325000D01*
X175225000Y-109325000D01*
X175225000Y-109497844D01*
X173029456Y-109497844D01*
X172872258Y-109369772D01*
X172718830Y-109244772D01*
X172301974Y-108905153D01*
X172296139Y-108900088D01*
X172122816Y-108739920D01*
X172027842Y-108652155D01*
X175225000Y-108652155D01*
X175225000Y-108825000D01*
X175975000Y-108825000D01*
X176475000Y-108825000D01*
X177225000Y-108825000D01*
X177225000Y-108652172D01*
X177224999Y-108652155D01*
X181225000Y-108652155D01*
X181225000Y-108825000D01*
X181975000Y-108825000D01*
X182475000Y-108825000D01*
X183225000Y-108825000D01*
X183225000Y-108652172D01*
X183224999Y-108652155D01*
X183218598Y-108592627D01*
X183218596Y-108592616D01*
X183209110Y-108567183D01*
X183194180Y-108527155D01*
X197675000Y-108527155D01*
X197675000Y-108700000D01*
X198425000Y-108700000D01*
X198925000Y-108700000D01*
X199675000Y-108700000D01*
X199675000Y-108527172D01*
X199674999Y-108527155D01*
X203675000Y-108527155D01*
X203675000Y-108700000D01*
X204425000Y-108700000D01*
X204925000Y-108700000D01*
X205675000Y-108700000D01*
X205675000Y-108527172D01*
X205674999Y-108527155D01*
X205668598Y-108467627D01*
X205668596Y-108467620D01*
X205618354Y-108332913D01*
X205618350Y-108332906D01*
X205532190Y-108217812D01*
X205532187Y-108217809D01*
X205417093Y-108131649D01*
X205417086Y-108131645D01*
X205282379Y-108081403D01*
X205282372Y-108081401D01*
X205222844Y-108075000D01*
X204925000Y-108075000D01*
X204925000Y-108700000D01*
X204425000Y-108700000D01*
X204425000Y-108075000D01*
X204127155Y-108075000D01*
X204067627Y-108081401D01*
X204067620Y-108081403D01*
X203932913Y-108131645D01*
X203932906Y-108131649D01*
X203817812Y-108217809D01*
X203817809Y-108217812D01*
X203731649Y-108332906D01*
X203731645Y-108332913D01*
X203681403Y-108467620D01*
X203681401Y-108467627D01*
X203675000Y-108527155D01*
X199674999Y-108527155D01*
X199668598Y-108467627D01*
X199668596Y-108467620D01*
X199618354Y-108332913D01*
X199618350Y-108332906D01*
X199532190Y-108217812D01*
X199532187Y-108217809D01*
X199417093Y-108131649D01*
X199417086Y-108131645D01*
X199282379Y-108081403D01*
X199282372Y-108081401D01*
X199222844Y-108075000D01*
X198925000Y-108075000D01*
X198925000Y-108700000D01*
X198425000Y-108700000D01*
X198425000Y-108075000D01*
X198127155Y-108075000D01*
X198067627Y-108081401D01*
X198067620Y-108081403D01*
X197932913Y-108131645D01*
X197932906Y-108131649D01*
X197817812Y-108217809D01*
X197817809Y-108217812D01*
X197731649Y-108332906D01*
X197731645Y-108332913D01*
X197681403Y-108467620D01*
X197681401Y-108467627D01*
X197675000Y-108527155D01*
X183194180Y-108527155D01*
X183168354Y-108457913D01*
X183168350Y-108457906D01*
X183082190Y-108342812D01*
X183082187Y-108342809D01*
X182967093Y-108256649D01*
X182967086Y-108256645D01*
X182832379Y-108206403D01*
X182832372Y-108206401D01*
X182772844Y-108200000D01*
X182475000Y-108200000D01*
X182475000Y-108825000D01*
X181975000Y-108825000D01*
X181975000Y-108200000D01*
X181677155Y-108200000D01*
X181617627Y-108206401D01*
X181617620Y-108206403D01*
X181482913Y-108256645D01*
X181482906Y-108256649D01*
X181367812Y-108342809D01*
X181367809Y-108342812D01*
X181281649Y-108457906D01*
X181281645Y-108457913D01*
X181231403Y-108592620D01*
X181231401Y-108592627D01*
X181225000Y-108652155D01*
X177224999Y-108652155D01*
X177218598Y-108592627D01*
X177218596Y-108592620D01*
X177168354Y-108457913D01*
X177168350Y-108457906D01*
X177082190Y-108342812D01*
X177082187Y-108342809D01*
X176967093Y-108256649D01*
X176967086Y-108256645D01*
X176832379Y-108206403D01*
X176832372Y-108206401D01*
X176772844Y-108200000D01*
X176475000Y-108200000D01*
X176475000Y-108825000D01*
X175975000Y-108825000D01*
X175975000Y-108200000D01*
X175677155Y-108200000D01*
X175617627Y-108206401D01*
X175617620Y-108206403D01*
X175482913Y-108256645D01*
X175482906Y-108256649D01*
X175367812Y-108342809D01*
X175367809Y-108342812D01*
X175281649Y-108457906D01*
X175281645Y-108457913D01*
X175231403Y-108592620D01*
X175231401Y-108592627D01*
X175225000Y-108652155D01*
X172027842Y-108652155D01*
X171196375Y-107883797D01*
X171191018Y-107878538D01*
X170732268Y-107399986D01*
X173025001Y-107399986D01*
X173035494Y-107502697D01*
X173090641Y-107669119D01*
X173090643Y-107669124D01*
X173182684Y-107818345D01*
X173306654Y-107942315D01*
X173455875Y-108034356D01*
X173455880Y-108034358D01*
X173622302Y-108089505D01*
X173622309Y-108089506D01*
X173725019Y-108099999D01*
X173999999Y-108099999D01*
X174500000Y-108099999D01*
X174774972Y-108099999D01*
X174774986Y-108099998D01*
X174877697Y-108089505D01*
X175044119Y-108034358D01*
X175044124Y-108034356D01*
X175193345Y-107942315D01*
X175317315Y-107818345D01*
X175409356Y-107669124D01*
X175409358Y-107669119D01*
X175464505Y-107502697D01*
X175464506Y-107502690D01*
X175474999Y-107399986D01*
X175475000Y-107399973D01*
X175475000Y-107350000D01*
X174500000Y-107350000D01*
X174500000Y-108099999D01*
X173999999Y-108099999D01*
X174000000Y-108099998D01*
X174000000Y-107350000D01*
X173025001Y-107350000D01*
X173025001Y-107399986D01*
X170732268Y-107399986D01*
X170717373Y-107384448D01*
X170169562Y-106812991D01*
X170164698Y-106807609D01*
X170158225Y-106800013D01*
X169219143Y-105698050D01*
X169214783Y-105692633D01*
X168612846Y-104899983D01*
X173024500Y-104899983D01*
X173024500Y-105500001D01*
X173024501Y-105500019D01*
X173035000Y-105602796D01*
X173035001Y-105602799D01*
X173083078Y-105747883D01*
X173090186Y-105769334D01*
X173182288Y-105918656D01*
X173306344Y-106042712D01*
X173309628Y-106044737D01*
X173309653Y-106044753D01*
X173311445Y-106046746D01*
X173312011Y-106047193D01*
X173311934Y-106047289D01*
X173356379Y-106096699D01*
X173367603Y-106165661D01*
X173339761Y-106229744D01*
X173309665Y-106255826D01*
X173306660Y-106257679D01*
X173306655Y-106257683D01*
X173182684Y-106381654D01*
X173090643Y-106530875D01*
X173090641Y-106530880D01*
X173035494Y-106697302D01*
X173035493Y-106697309D01*
X173025000Y-106800013D01*
X173025000Y-106850000D01*
X175474999Y-106850000D01*
X175474999Y-106800028D01*
X175474998Y-106800013D01*
X175464505Y-106697302D01*
X175409358Y-106530880D01*
X175409356Y-106530875D01*
X175317315Y-106381654D01*
X175193344Y-106257683D01*
X175193341Y-106257681D01*
X175190339Y-106255829D01*
X175188713Y-106254021D01*
X175187677Y-106253202D01*
X175187817Y-106253024D01*
X175167724Y-106230684D01*
X175144636Y-106205957D01*
X175144420Y-106204773D01*
X175143617Y-106203880D01*
X175138184Y-106170486D01*
X175132132Y-106137215D01*
X175132590Y-106136104D01*
X175132397Y-106134917D01*
X175145880Y-106103888D01*
X175158777Y-106072626D01*
X175159893Y-106071640D01*
X175160243Y-106070836D01*
X175184574Y-106048539D01*
X175187401Y-106046569D01*
X175193656Y-106042712D01*
X175195296Y-106041071D01*
X175202024Y-106036386D01*
X175231711Y-106026457D01*
X175260764Y-106014734D01*
X175264592Y-106015461D01*
X175268286Y-106014226D01*
X175298638Y-106021926D01*
X175329407Y-106027769D01*
X175332736Y-106030576D01*
X175336010Y-106031407D01*
X175344483Y-106040482D01*
X175359395Y-106053056D01*
X175361180Y-106051272D01*
X175367451Y-106057542D01*
X175367454Y-106057546D01*
X175367457Y-106057548D01*
X175482664Y-106143793D01*
X175482671Y-106143797D01*
X175617517Y-106194091D01*
X175617516Y-106194091D01*
X175624444Y-106194835D01*
X175677127Y-106200500D01*
X176772872Y-106200499D01*
X176832483Y-106194091D01*
X176967331Y-106143796D01*
X177082546Y-106057546D01*
X177144199Y-105975188D01*
X177200132Y-105933318D01*
X177243465Y-105925500D01*
X181206535Y-105925500D01*
X181273574Y-105945185D01*
X181305800Y-105975187D01*
X181367454Y-106057546D01*
X181413643Y-106092123D01*
X181482664Y-106143793D01*
X181482671Y-106143797D01*
X181617517Y-106194091D01*
X181617516Y-106194091D01*
X181624444Y-106194835D01*
X181677127Y-106200500D01*
X182772872Y-106200499D01*
X182832483Y-106194091D01*
X182967331Y-106143796D01*
X183082546Y-106057546D01*
X183168796Y-105942331D01*
X183219091Y-105807483D01*
X183225500Y-105747873D01*
X183225499Y-104902128D01*
X183219091Y-104842517D01*
X183202190Y-104797204D01*
X183168797Y-104707671D01*
X183168793Y-104707664D01*
X183082547Y-104592455D01*
X183082544Y-104592452D01*
X182967335Y-104506206D01*
X182967328Y-104506202D01*
X182832482Y-104455908D01*
X182832483Y-104455908D01*
X182772883Y-104449501D01*
X182772881Y-104449500D01*
X182772873Y-104449500D01*
X182772864Y-104449500D01*
X181677129Y-104449500D01*
X181677123Y-104449501D01*
X181617516Y-104455908D01*
X181482671Y-104506202D01*
X181482664Y-104506206D01*
X181367456Y-104592452D01*
X181367455Y-104592453D01*
X181367454Y-104592454D01*
X181338847Y-104630668D01*
X181305802Y-104674811D01*
X181249868Y-104716682D01*
X181206535Y-104724500D01*
X177243465Y-104724500D01*
X177176426Y-104704815D01*
X177144198Y-104674811D01*
X177082546Y-104592454D01*
X177059709Y-104575358D01*
X176967335Y-104506206D01*
X176967328Y-104506202D01*
X176832482Y-104455908D01*
X176832483Y-104455908D01*
X176772883Y-104449501D01*
X176772881Y-104449500D01*
X176772873Y-104449500D01*
X176772864Y-104449500D01*
X175677129Y-104449500D01*
X175677123Y-104449501D01*
X175617516Y-104455908D01*
X175482671Y-104506202D01*
X175474886Y-104510454D01*
X175473357Y-104507655D01*
X175422554Y-104526580D01*
X175354288Y-104511699D01*
X175323528Y-104485741D01*
X175322819Y-104486451D01*
X175193657Y-104357289D01*
X175193656Y-104357288D01*
X175044334Y-104265186D01*
X174983301Y-104244961D01*
X174935495Y-104229120D01*
X174878050Y-104189347D01*
X174851228Y-104124831D01*
X174850500Y-104111414D01*
X174850500Y-87401570D01*
X174870185Y-87334531D01*
X174886819Y-87313889D01*
X175737892Y-86462816D01*
X176666137Y-85534571D01*
X176727458Y-85501088D01*
X176729625Y-85500637D01*
X176730314Y-85500500D01*
X176730315Y-85500500D01*
X176884970Y-85469737D01*
X177030652Y-85409394D01*
X177161762Y-85321789D01*
X177273262Y-85210289D01*
X177360867Y-85079179D01*
X177421210Y-84933497D01*
X177451973Y-84778842D01*
X177451973Y-84621158D01*
X177451973Y-84621155D01*
X177451972Y-84621153D01*
X177423833Y-84479692D01*
X177421210Y-84466503D01*
X177399279Y-84413556D01*
X177360870Y-84320827D01*
X177360863Y-84320814D01*
X177273262Y-84189711D01*
X177273259Y-84189707D01*
X177161765Y-84078213D01*
X177161761Y-84078210D01*
X177030658Y-83990609D01*
X177030645Y-83990602D01*
X176884974Y-83930264D01*
X176884962Y-83930261D01*
X176730318Y-83899500D01*
X176730315Y-83899500D01*
X176572631Y-83899500D01*
X176572628Y-83899500D01*
X176417983Y-83930261D01*
X176417971Y-83930264D01*
X176272300Y-83990602D01*
X176272287Y-83990609D01*
X176141184Y-84078210D01*
X176141180Y-84078213D01*
X176029686Y-84189707D01*
X176029683Y-84189711D01*
X175942082Y-84320814D01*
X175942075Y-84320827D01*
X175881737Y-84466498D01*
X175881734Y-84466508D01*
X175850835Y-84621848D01*
X175818450Y-84683759D01*
X175816899Y-84685337D01*
X173881286Y-86620951D01*
X173769481Y-86732755D01*
X173769479Y-86732758D01*
X173720790Y-86817092D01*
X173720788Y-86817094D01*
X173690425Y-86869682D01*
X173690424Y-86869683D01*
X173678412Y-86914514D01*
X173649499Y-87022416D01*
X173649499Y-87022418D01*
X173649499Y-87190519D01*
X173649500Y-87190532D01*
X173649500Y-104111414D01*
X173629815Y-104178453D01*
X173577011Y-104224208D01*
X173564505Y-104229120D01*
X173455666Y-104265186D01*
X173455663Y-104265187D01*
X173306342Y-104357289D01*
X173182289Y-104481342D01*
X173090187Y-104630663D01*
X173090186Y-104630666D01*
X173035001Y-104797203D01*
X173035001Y-104797204D01*
X173035000Y-104797204D01*
X173024500Y-104899983D01*
X168612846Y-104899983D01*
X168342674Y-104544211D01*
X168338784Y-104538790D01*
X168320426Y-104511699D01*
X167537885Y-103356911D01*
X167534457Y-103351562D01*
X166802379Y-102141425D01*
X166799358Y-102136141D01*
X166799357Y-102136140D01*
X166378028Y-101355530D01*
X166133902Y-100903230D01*
X166131267Y-100898062D01*
X165530165Y-99647798D01*
X165527883Y-99642769D01*
X165452447Y-99466126D01*
X165337792Y-99197648D01*
X169199500Y-99197648D01*
X169199500Y-99402351D01*
X169231522Y-99604534D01*
X169294781Y-99799223D01*
X169387715Y-99981613D01*
X169508028Y-100147213D01*
X169652786Y-100291971D01*
X169803621Y-100401557D01*
X169818390Y-100412287D01*
X169925293Y-100466757D01*
X170000776Y-100505218D01*
X170000778Y-100505218D01*
X170000781Y-100505220D01*
X170105137Y-100539127D01*
X170195465Y-100568477D01*
X170296557Y-100584488D01*
X170397648Y-100600500D01*
X170397649Y-100600500D01*
X170602351Y-100600500D01*
X170602352Y-100600500D01*
X170804534Y-100568477D01*
X170999219Y-100505220D01*
X171181610Y-100412287D01*
X171274590Y-100344732D01*
X171347213Y-100291971D01*
X171347215Y-100291968D01*
X171347219Y-100291966D01*
X171491966Y-100147219D01*
X171491968Y-100147215D01*
X171491971Y-100147213D01*
X171577523Y-100029459D01*
X171612287Y-99981610D01*
X171705220Y-99799219D01*
X171768477Y-99604534D01*
X171800500Y-99402352D01*
X171800500Y-99197648D01*
X171768477Y-98995466D01*
X171705220Y-98800781D01*
X171705218Y-98800778D01*
X171705218Y-98800776D01*
X171647933Y-98688349D01*
X171612287Y-98618390D01*
X171599289Y-98600500D01*
X171491971Y-98452786D01*
X171347213Y-98308028D01*
X171181613Y-98187715D01*
X171181612Y-98187714D01*
X171181610Y-98187713D01*
X171124653Y-98158691D01*
X170999223Y-98094781D01*
X170804534Y-98031522D01*
X170629995Y-98003878D01*
X170602352Y-97999500D01*
X170397648Y-97999500D01*
X170373329Y-98003351D01*
X170195465Y-98031522D01*
X170000776Y-98094781D01*
X169818386Y-98187715D01*
X169652786Y-98308028D01*
X169508028Y-98452786D01*
X169387715Y-98618386D01*
X169294781Y-98800776D01*
X169231522Y-98995465D01*
X169199500Y-99197648D01*
X165337792Y-99197648D01*
X164991317Y-98386334D01*
X164988501Y-98379120D01*
X164984808Y-98368716D01*
X164085391Y-95834725D01*
X164082532Y-95825557D01*
X163402897Y-93306828D01*
X163400891Y-93298175D01*
X163368893Y-93133489D01*
X162923946Y-90843469D01*
X162922631Y-90835221D01*
X162629659Y-88489889D01*
X162628917Y-88481797D01*
X162500868Y-86291696D01*
X162500663Y-86283388D01*
X162517984Y-84301789D01*
X162518632Y-84290175D01*
X162785170Y-81708941D01*
X162785713Y-81704482D01*
X163131306Y-79239939D01*
X163132044Y-79235323D01*
X163144680Y-79164723D01*
X163549597Y-76902364D01*
X163550541Y-76897626D01*
X163860013Y-75488713D01*
X169099500Y-75488713D01*
X169099500Y-75701287D01*
X169100784Y-75709394D01*
X169132060Y-75906865D01*
X169132754Y-75911243D01*
X169196276Y-76106744D01*
X169198444Y-76113414D01*
X169294951Y-76302820D01*
X169419890Y-76474786D01*
X169570213Y-76625109D01*
X169742179Y-76750048D01*
X169742181Y-76750049D01*
X169742184Y-76750051D01*
X169751493Y-76754794D01*
X169802290Y-76802766D01*
X169819087Y-76870587D01*
X169796552Y-76936722D01*
X169751502Y-76975762D01*
X169742443Y-76980378D01*
X169570540Y-77105272D01*
X169570535Y-77105276D01*
X169420276Y-77255535D01*
X169420272Y-77255540D01*
X169295379Y-77427442D01*
X169198904Y-77616782D01*
X169133242Y-77818870D01*
X169133242Y-77818873D01*
X169122769Y-77885000D01*
X170016988Y-77885000D01*
X169984075Y-77942007D01*
X169950000Y-78069174D01*
X169950000Y-78200826D01*
X169984075Y-78327993D01*
X170016988Y-78385000D01*
X169122769Y-78385000D01*
X169133242Y-78451126D01*
X169133242Y-78451129D01*
X169198904Y-78653217D01*
X169295379Y-78842557D01*
X169420272Y-79014459D01*
X169420276Y-79014464D01*
X169570535Y-79164723D01*
X169570540Y-79164727D01*
X169742444Y-79289622D01*
X169751495Y-79294234D01*
X169802292Y-79342208D01*
X169819087Y-79410029D01*
X169796550Y-79476164D01*
X169751499Y-79515202D01*
X169742182Y-79519949D01*
X169570213Y-79644890D01*
X169419890Y-79795213D01*
X169294951Y-79967179D01*
X169198444Y-80156585D01*
X169132753Y-80358760D01*
X169129572Y-80378846D01*
X169099500Y-80568713D01*
X169099500Y-80781287D01*
X169109534Y-80844644D01*
X169129042Y-80967811D01*
X169132754Y-80991243D01*
X169183857Y-81148522D01*
X169198444Y-81193414D01*
X169294951Y-81382820D01*
X169419890Y-81554786D01*
X169570213Y-81705109D01*
X169742182Y-81830050D01*
X169750946Y-81834516D01*
X169801742Y-81882491D01*
X169818536Y-81950312D01*
X169795998Y-82016447D01*
X169750946Y-82055484D01*
X169742182Y-82059949D01*
X169570213Y-82184890D01*
X169419890Y-82335213D01*
X169294951Y-82507179D01*
X169198444Y-82696585D01*
X169132753Y-82898760D01*
X169116872Y-82999031D01*
X169099500Y-83108713D01*
X169099500Y-83321287D01*
X169132754Y-83531243D01*
X169189536Y-83706000D01*
X169198444Y-83733414D01*
X169294951Y-83922820D01*
X169419890Y-84094786D01*
X169570213Y-84245109D01*
X169742182Y-84370050D01*
X169750946Y-84374516D01*
X169801742Y-84422491D01*
X169818536Y-84490312D01*
X169795998Y-84556447D01*
X169750946Y-84595484D01*
X169742182Y-84599949D01*
X169570213Y-84724890D01*
X169419890Y-84875213D01*
X169294951Y-85047179D01*
X169198444Y-85236585D01*
X169132753Y-85438760D01*
X169122376Y-85504280D01*
X169099500Y-85648713D01*
X169099500Y-85861287D01*
X169132754Y-86071243D01*
X169158196Y-86149546D01*
X169198444Y-86273414D01*
X169294951Y-86462820D01*
X169419890Y-86634786D01*
X169570213Y-86785109D01*
X169742182Y-86910050D01*
X169750946Y-86914516D01*
X169801742Y-86962491D01*
X169818536Y-87030312D01*
X169795998Y-87096447D01*
X169750946Y-87135484D01*
X169742182Y-87139949D01*
X169570213Y-87264890D01*
X169419890Y-87415213D01*
X169294951Y-87587179D01*
X169198444Y-87776585D01*
X169132753Y-87978760D01*
X169114105Y-88096500D01*
X169099500Y-88188713D01*
X169099500Y-88401287D01*
X169100540Y-88407853D01*
X169128287Y-88583044D01*
X169132754Y-88611243D01*
X169181183Y-88760292D01*
X169198444Y-88813414D01*
X169294951Y-89002820D01*
X169419890Y-89174786D01*
X169533430Y-89288326D01*
X169566915Y-89349649D01*
X169561931Y-89419341D01*
X169520059Y-89475274D01*
X169489083Y-89492189D01*
X169357669Y-89541203D01*
X169357664Y-89541206D01*
X169242455Y-89627452D01*
X169242452Y-89627455D01*
X169156206Y-89742664D01*
X169156202Y-89742671D01*
X169105908Y-89877517D01*
X169100238Y-89930260D01*
X169099501Y-89937123D01*
X169099500Y-89937135D01*
X169099500Y-91732870D01*
X169099501Y-91732876D01*
X169105908Y-91792483D01*
X169156202Y-91927328D01*
X169156206Y-91927335D01*
X169242452Y-92042544D01*
X169242455Y-92042547D01*
X169357664Y-92128793D01*
X169357671Y-92128797D01*
X169492517Y-92179091D01*
X169492516Y-92179091D01*
X169499444Y-92179835D01*
X169552127Y-92185500D01*
X171347872Y-92185499D01*
X171407483Y-92179091D01*
X171542331Y-92128796D01*
X171657546Y-92042546D01*
X171743796Y-91927331D01*
X171794091Y-91792483D01*
X171800500Y-91732873D01*
X171800499Y-89937128D01*
X171794091Y-89877517D01*
X171790851Y-89868831D01*
X171743797Y-89742671D01*
X171743793Y-89742664D01*
X171657547Y-89627455D01*
X171657544Y-89627452D01*
X171542335Y-89541206D01*
X171542328Y-89541202D01*
X171410917Y-89492189D01*
X171354983Y-89450318D01*
X171330566Y-89384853D01*
X171345418Y-89316580D01*
X171366563Y-89288332D01*
X171480104Y-89174792D01*
X171605051Y-89002816D01*
X171701557Y-88813412D01*
X171767246Y-88611243D01*
X171800500Y-88401287D01*
X171800500Y-88188713D01*
X171767246Y-87978757D01*
X171701557Y-87776588D01*
X171605051Y-87587184D01*
X171605049Y-87587181D01*
X171605048Y-87587179D01*
X171480109Y-87415213D01*
X171329786Y-87264890D01*
X171157820Y-87139951D01*
X171157115Y-87139591D01*
X171149054Y-87135485D01*
X171098259Y-87087512D01*
X171081463Y-87019692D01*
X171103999Y-86953556D01*
X171149054Y-86914515D01*
X171157816Y-86910051D01*
X171213380Y-86869682D01*
X171329786Y-86785109D01*
X171329788Y-86785106D01*
X171329792Y-86785104D01*
X171480104Y-86634792D01*
X171480106Y-86634788D01*
X171480109Y-86634786D01*
X171605048Y-86462820D01*
X171605047Y-86462820D01*
X171605051Y-86462816D01*
X171701557Y-86273412D01*
X171767246Y-86071243D01*
X171800500Y-85861287D01*
X171800500Y-85648713D01*
X171767246Y-85438757D01*
X171701557Y-85236588D01*
X171605051Y-85047184D01*
X171605049Y-85047181D01*
X171605048Y-85047179D01*
X171480109Y-84875213D01*
X171329786Y-84724890D01*
X171157820Y-84599951D01*
X171157115Y-84599591D01*
X171149054Y-84595485D01*
X171098259Y-84547512D01*
X171081463Y-84479692D01*
X171103999Y-84413556D01*
X171149054Y-84374515D01*
X171157816Y-84370051D01*
X171179789Y-84354086D01*
X171329786Y-84245109D01*
X171329788Y-84245106D01*
X171329792Y-84245104D01*
X171480104Y-84094792D01*
X171480106Y-84094788D01*
X171480109Y-84094786D01*
X171605048Y-83922820D01*
X171605047Y-83922820D01*
X171605051Y-83922816D01*
X171701557Y-83733412D01*
X171767246Y-83531243D01*
X171800500Y-83321287D01*
X171800500Y-83108713D01*
X171767246Y-82898757D01*
X171701557Y-82696588D01*
X171605051Y-82507184D01*
X171605049Y-82507181D01*
X171605048Y-82507179D01*
X171480109Y-82335213D01*
X171329786Y-82184890D01*
X171157820Y-82059951D01*
X171157115Y-82059591D01*
X171149054Y-82055485D01*
X171098259Y-82007512D01*
X171081463Y-81939692D01*
X171103999Y-81873556D01*
X171149054Y-81834515D01*
X171157816Y-81830051D01*
X171179789Y-81814086D01*
X171329786Y-81705109D01*
X171329788Y-81705106D01*
X171329792Y-81705104D01*
X171480104Y-81554792D01*
X171480106Y-81554788D01*
X171480109Y-81554786D01*
X171605048Y-81382820D01*
X171605047Y-81382820D01*
X171605051Y-81382816D01*
X171701557Y-81193412D01*
X171767246Y-80991243D01*
X171800500Y-80781287D01*
X171800500Y-80568713D01*
X171767246Y-80358757D01*
X171701557Y-80156588D01*
X171605051Y-79967184D01*
X171605049Y-79967181D01*
X171605048Y-79967179D01*
X171480109Y-79795213D01*
X171329786Y-79644890D01*
X171157817Y-79519949D01*
X171148504Y-79515204D01*
X171097707Y-79467230D01*
X171080912Y-79399409D01*
X171103449Y-79333274D01*
X171148507Y-79294232D01*
X171157558Y-79289620D01*
X171329459Y-79164727D01*
X171329464Y-79164723D01*
X171479723Y-79014464D01*
X171479727Y-79014459D01*
X171604620Y-78842557D01*
X171701095Y-78653217D01*
X171766757Y-78451129D01*
X171766757Y-78451126D01*
X171777231Y-78385000D01*
X170883012Y-78385000D01*
X170915925Y-78327993D01*
X170950000Y-78200826D01*
X170950000Y-78069174D01*
X170915925Y-77942007D01*
X170883012Y-77885000D01*
X171777231Y-77885000D01*
X171766757Y-77818873D01*
X171766757Y-77818870D01*
X171701095Y-77616782D01*
X171604620Y-77427442D01*
X171479727Y-77255540D01*
X171479723Y-77255535D01*
X171329464Y-77105276D01*
X171329459Y-77105272D01*
X171157555Y-76980377D01*
X171148500Y-76975763D01*
X171097706Y-76927788D01*
X171080912Y-76859966D01*
X171103451Y-76793832D01*
X171148508Y-76754793D01*
X171157816Y-76750051D01*
X171271235Y-76667648D01*
X171329786Y-76625109D01*
X171329788Y-76625106D01*
X171329792Y-76625104D01*
X171480104Y-76474792D01*
X171480106Y-76474788D01*
X171480109Y-76474786D01*
X171589086Y-76324789D01*
X171605051Y-76302816D01*
X171701557Y-76113412D01*
X171767246Y-75911243D01*
X171800500Y-75701287D01*
X171800500Y-75488713D01*
X171767246Y-75278757D01*
X171701557Y-75076588D01*
X171605051Y-74887184D01*
X171605049Y-74887181D01*
X171605048Y-74887179D01*
X171480109Y-74715213D01*
X171329786Y-74564890D01*
X171157820Y-74439951D01*
X170968414Y-74343444D01*
X170968413Y-74343443D01*
X170968412Y-74343443D01*
X170766243Y-74277754D01*
X170766241Y-74277753D01*
X170766240Y-74277753D01*
X170604957Y-74252208D01*
X170556287Y-74244500D01*
X170343713Y-74244500D01*
X170295042Y-74252208D01*
X170133760Y-74277753D01*
X169931585Y-74343444D01*
X169742179Y-74439951D01*
X169570213Y-74564890D01*
X169419890Y-74715213D01*
X169294951Y-74887179D01*
X169198444Y-75076585D01*
X169132753Y-75278760D01*
X169110234Y-75420943D01*
X169099500Y-75488713D01*
X163860013Y-75488713D01*
X164034905Y-74692497D01*
X164036067Y-74687676D01*
X164166500Y-74190589D01*
X172100000Y-74190589D01*
X172100000Y-77495147D01*
X172100000Y-77495148D01*
X176329111Y-81519061D01*
X187182269Y-70665903D01*
X187243592Y-70632418D01*
X187313284Y-70637402D01*
X187369217Y-70679274D01*
X187393634Y-70744738D01*
X187393950Y-70753584D01*
X187393950Y-71025008D01*
X187374265Y-71092047D01*
X187357631Y-71112689D01*
X186519481Y-71950838D01*
X186519475Y-71950846D01*
X186482726Y-72014499D01*
X186482726Y-72014500D01*
X186440423Y-72087771D01*
X186399499Y-72240499D01*
X186399499Y-72240501D01*
X186399499Y-72408602D01*
X186399500Y-72408615D01*
X186399500Y-73085005D01*
X186399498Y-73085679D01*
X186399435Y-73097244D01*
X186398499Y-73100738D01*
X186398499Y-73258852D01*
X186398500Y-73258855D01*
X186398500Y-73269160D01*
X186398500Y-73923211D01*
X186398499Y-73923229D01*
X186398499Y-74089405D01*
X186399500Y-74104667D01*
X186399500Y-74420234D01*
X186379815Y-74487273D01*
X186378602Y-74489125D01*
X186290609Y-74620814D01*
X186290602Y-74620827D01*
X186230264Y-74766498D01*
X186230261Y-74766510D01*
X186199500Y-74921153D01*
X186199500Y-75078846D01*
X186230261Y-75233489D01*
X186230264Y-75233501D01*
X186290602Y-75379172D01*
X186290609Y-75379185D01*
X186378210Y-75510288D01*
X186378213Y-75510292D01*
X186489707Y-75621786D01*
X186489711Y-75621789D01*
X186620814Y-75709390D01*
X186620827Y-75709397D01*
X186766498Y-75769735D01*
X186766503Y-75769737D01*
X186921153Y-75800499D01*
X186921156Y-75800500D01*
X186921158Y-75800500D01*
X187078844Y-75800500D01*
X187078845Y-75800499D01*
X187233497Y-75769737D01*
X187379179Y-75709394D01*
X187510289Y-75621789D01*
X187621789Y-75510289D01*
X187709394Y-75379179D01*
X187717522Y-75359554D01*
X187761359Y-75305153D01*
X187807892Y-75285389D01*
X187827502Y-75281488D01*
X187945147Y-75258087D01*
X188090829Y-75197744D01*
X188221939Y-75110139D01*
X188333439Y-74998639D01*
X188369847Y-74944149D01*
X188423460Y-74899344D01*
X188492784Y-74890637D01*
X188555812Y-74920791D01*
X188592532Y-74980234D01*
X188596950Y-75013040D01*
X188596950Y-79437082D01*
X188633508Y-79620869D01*
X188633511Y-79620881D01*
X188646470Y-79652166D01*
X188646471Y-79652168D01*
X188705224Y-79794011D01*
X188705225Y-79794014D01*
X188809337Y-79949827D01*
X188809340Y-79949831D01*
X192407799Y-83548289D01*
X192423523Y-83577086D01*
X192440266Y-83605305D01*
X192440184Y-83607597D01*
X192441284Y-83609612D01*
X192438942Y-83642347D01*
X192437772Y-83675130D01*
X192436463Y-83677014D01*
X192436300Y-83679304D01*
X192416638Y-83705568D01*
X192397924Y-83732522D01*
X192395291Y-83734084D01*
X192394428Y-83735237D01*
X192367570Y-83750531D01*
X192313445Y-83772950D01*
X192243976Y-83780419D01*
X192207541Y-83767748D01*
X192204918Y-83766346D01*
X192204913Y-83766343D01*
X192166739Y-83750531D01*
X192059235Y-83706001D01*
X192059223Y-83705998D01*
X191904579Y-83675237D01*
X191904576Y-83675237D01*
X191746892Y-83675237D01*
X191746889Y-83675237D01*
X191592244Y-83705998D01*
X191592232Y-83706001D01*
X191446561Y-83766339D01*
X191446548Y-83766346D01*
X191315445Y-83853947D01*
X191315441Y-83853950D01*
X191203947Y-83965444D01*
X191203944Y-83965448D01*
X191116343Y-84096551D01*
X191116336Y-84096564D01*
X191055998Y-84242235D01*
X191055995Y-84242245D01*
X191025096Y-84397585D01*
X190992711Y-84459496D01*
X190991160Y-84461074D01*
X188019454Y-87432780D01*
X187958131Y-87466265D01*
X187888439Y-87461281D01*
X187844092Y-87432780D01*
X182678361Y-82267049D01*
X182599714Y-82214500D01*
X182555438Y-82184916D01*
X182555435Y-82184914D01*
X182555434Y-82184914D01*
X182418860Y-82128343D01*
X182418850Y-82128340D01*
X182273863Y-82099500D01*
X182273861Y-82099500D01*
X180304604Y-82099500D01*
X180257155Y-82090062D01*
X180233497Y-82080263D01*
X180233493Y-82080262D01*
X180233488Y-82080260D01*
X180078845Y-82049500D01*
X180078842Y-82049500D01*
X179921158Y-82049500D01*
X179921155Y-82049500D01*
X179766510Y-82080261D01*
X179766498Y-82080264D01*
X179620827Y-82140602D01*
X179620814Y-82140609D01*
X179489711Y-82228210D01*
X179489707Y-82228213D01*
X179378213Y-82339707D01*
X179378210Y-82339711D01*
X179290609Y-82470814D01*
X179290602Y-82470827D01*
X179230264Y-82616498D01*
X179230261Y-82616510D01*
X179199500Y-82771153D01*
X179199500Y-82928846D01*
X179230261Y-83083489D01*
X179230264Y-83083501D01*
X179290602Y-83229172D01*
X179290609Y-83229185D01*
X179378210Y-83360288D01*
X179378213Y-83360292D01*
X179489707Y-83471786D01*
X179489711Y-83471789D01*
X179620814Y-83559390D01*
X179620827Y-83559397D01*
X179737194Y-83607597D01*
X179766503Y-83619737D01*
X179921153Y-83650499D01*
X179921156Y-83650500D01*
X179921158Y-83650500D01*
X180078844Y-83650500D01*
X180078845Y-83650499D01*
X180155152Y-83635320D01*
X180233488Y-83619739D01*
X180233489Y-83619738D01*
X180233497Y-83619737D01*
X180257155Y-83609937D01*
X180304604Y-83600500D01*
X181837713Y-83600500D01*
X181904752Y-83620185D01*
X181925394Y-83636819D01*
X186714181Y-88425606D01*
X186747666Y-88486929D01*
X186750500Y-88513287D01*
X186750500Y-89936770D01*
X186730815Y-90003809D01*
X186714181Y-90024451D01*
X185924451Y-90814181D01*
X185863128Y-90847666D01*
X185836770Y-90850500D01*
X182225080Y-90850500D01*
X182080092Y-90879340D01*
X182080082Y-90879343D01*
X181943511Y-90935912D01*
X181943498Y-90935919D01*
X181820584Y-91018048D01*
X181820580Y-91018051D01*
X177485539Y-95353091D01*
X177424216Y-95386576D01*
X177354524Y-95381592D01*
X177341563Y-95375895D01*
X177308214Y-95358903D01*
X177308216Y-95358903D01*
X177106124Y-95293241D01*
X177040000Y-95282768D01*
X177040000Y-96176988D01*
X176982993Y-96144075D01*
X176855826Y-96110000D01*
X176724174Y-96110000D01*
X176597007Y-96144075D01*
X176540000Y-96176988D01*
X176540000Y-95282768D01*
X176539999Y-95282768D01*
X176473875Y-95293241D01*
X176271784Y-95358903D01*
X176082442Y-95455379D01*
X175910540Y-95580272D01*
X175910535Y-95580276D01*
X175760276Y-95730535D01*
X175760272Y-95730540D01*
X175635379Y-95902442D01*
X175538904Y-96091782D01*
X175473242Y-96293870D01*
X175473242Y-96293873D01*
X175462769Y-96360000D01*
X176356988Y-96360000D01*
X176324075Y-96417007D01*
X176290000Y-96544174D01*
X176290000Y-96675826D01*
X176324075Y-96802993D01*
X176356988Y-96860000D01*
X175462769Y-96860000D01*
X175473242Y-96926126D01*
X175473242Y-96926129D01*
X175538904Y-97128217D01*
X175635379Y-97317557D01*
X175760272Y-97489459D01*
X175760276Y-97489464D01*
X175910535Y-97639723D01*
X175910540Y-97639727D01*
X176082444Y-97764622D01*
X176092048Y-97769516D01*
X176142844Y-97817491D01*
X176159638Y-97885312D01*
X176137100Y-97951447D01*
X176092048Y-97990484D01*
X176082444Y-97995377D01*
X175910540Y-98120272D01*
X175910535Y-98120276D01*
X175760276Y-98270535D01*
X175760272Y-98270540D01*
X175635379Y-98442442D01*
X175538904Y-98631782D01*
X175473242Y-98833870D01*
X175473242Y-98833873D01*
X175462769Y-98900000D01*
X176356988Y-98900000D01*
X176324075Y-98957007D01*
X176290000Y-99084174D01*
X176290000Y-99215826D01*
X176324075Y-99342993D01*
X176356988Y-99400000D01*
X175462769Y-99400000D01*
X175473242Y-99466126D01*
X175473242Y-99466129D01*
X175538904Y-99668217D01*
X175635379Y-99857557D01*
X175760272Y-100029459D01*
X175760276Y-100029464D01*
X175910535Y-100179723D01*
X175910540Y-100179727D01*
X176082442Y-100304620D01*
X176271782Y-100401095D01*
X176473871Y-100466757D01*
X176540000Y-100477231D01*
X176540000Y-99583012D01*
X176597007Y-99615925D01*
X176724174Y-99650000D01*
X176855826Y-99650000D01*
X176982993Y-99615925D01*
X177040000Y-99583012D01*
X177040000Y-100477230D01*
X177106126Y-100466757D01*
X177106129Y-100466757D01*
X177308217Y-100401095D01*
X177497557Y-100304620D01*
X177669459Y-100179727D01*
X177669464Y-100179723D01*
X177819723Y-100029464D01*
X177819727Y-100029459D01*
X177944620Y-99857558D01*
X177949232Y-99848507D01*
X177997205Y-99797709D01*
X178065025Y-99780912D01*
X178131161Y-99803447D01*
X178170204Y-99848504D01*
X178174949Y-99857817D01*
X178299890Y-100029786D01*
X178450213Y-100180109D01*
X178622179Y-100305048D01*
X178622181Y-100305049D01*
X178622184Y-100305051D01*
X178811588Y-100401557D01*
X179013757Y-100467246D01*
X179223713Y-100500500D01*
X179223714Y-100500500D01*
X179436286Y-100500500D01*
X179436287Y-100500500D01*
X179646243Y-100467246D01*
X179848412Y-100401557D01*
X180037816Y-100305051D01*
X180059789Y-100289086D01*
X180209786Y-100180109D01*
X180209788Y-100180106D01*
X180209792Y-100180104D01*
X180228768Y-100161127D01*
X180290089Y-100127641D01*
X180359781Y-100132624D01*
X180404131Y-100161126D01*
X181309379Y-101066374D01*
X181309389Y-101066385D01*
X181313719Y-101070715D01*
X181313720Y-101070716D01*
X181425524Y-101182520D01*
X181425526Y-101182521D01*
X181425530Y-101182524D01*
X181510425Y-101231538D01*
X181510426Y-101231538D01*
X181562455Y-101261577D01*
X181715183Y-101302501D01*
X181715186Y-101302501D01*
X181880893Y-101302501D01*
X181880909Y-101302500D01*
X190046191Y-101302500D01*
X190046207Y-101302501D01*
X190053803Y-101302501D01*
X190211914Y-101302501D01*
X190211917Y-101302501D01*
X190364645Y-101261577D01*
X190416674Y-101231538D01*
X190416675Y-101231538D01*
X190501569Y-101182524D01*
X190501568Y-101182524D01*
X190501576Y-101182520D01*
X190613380Y-101070716D01*
X190613380Y-101070714D01*
X190623584Y-101060511D01*
X190623587Y-101060506D01*
X193580520Y-98103576D01*
X193659577Y-97966644D01*
X193700501Y-97813917D01*
X193700501Y-97655802D01*
X193700501Y-97648207D01*
X193700500Y-97648189D01*
X193700500Y-92700096D01*
X193720185Y-92633057D01*
X193736815Y-92612419D01*
X193995898Y-92353335D01*
X194057219Y-92319852D01*
X194126910Y-92324836D01*
X194171258Y-92353337D01*
X194239707Y-92421786D01*
X194239711Y-92421789D01*
X194370814Y-92509390D01*
X194370827Y-92509397D01*
X194500675Y-92563181D01*
X194516503Y-92569737D01*
X194581147Y-92582595D01*
X194671849Y-92600638D01*
X194733760Y-92633023D01*
X194735339Y-92634574D01*
X194963181Y-92862416D01*
X194996666Y-92923739D01*
X194999500Y-92950097D01*
X194999500Y-92978846D01*
X195030261Y-93133489D01*
X195030264Y-93133501D01*
X195090602Y-93279172D01*
X195090609Y-93279185D01*
X195178210Y-93410288D01*
X195178213Y-93410292D01*
X195289707Y-93521786D01*
X195289711Y-93521789D01*
X195420814Y-93609390D01*
X195420827Y-93609397D01*
X195566498Y-93669735D01*
X195566503Y-93669737D01*
X195721153Y-93700499D01*
X195721156Y-93700500D01*
X195721158Y-93700500D01*
X195878844Y-93700500D01*
X195878845Y-93700499D01*
X196033497Y-93669737D01*
X196179179Y-93609394D01*
X196310289Y-93521789D01*
X196421789Y-93410289D01*
X196422397Y-93409378D01*
X196422839Y-93409008D01*
X196425653Y-93405581D01*
X196426303Y-93406114D01*
X196476010Y-93364573D01*
X196545334Y-93355866D01*
X196608362Y-93386020D01*
X196645082Y-93445463D01*
X196649500Y-93478269D01*
X196649500Y-103688330D01*
X196649499Y-103688348D01*
X196649499Y-103854054D01*
X196649498Y-103854054D01*
X196690423Y-104006784D01*
X196690424Y-104006788D01*
X196697178Y-104018486D01*
X196697181Y-104018490D01*
X196769477Y-104143712D01*
X196769481Y-104143717D01*
X196888349Y-104262585D01*
X196888355Y-104262590D01*
X197638181Y-105012416D01*
X197671666Y-105073739D01*
X197674500Y-105100097D01*
X197674500Y-105622870D01*
X197674501Y-105622876D01*
X197680908Y-105682483D01*
X197731202Y-105817328D01*
X197731206Y-105817335D01*
X197817452Y-105932544D01*
X197817455Y-105932547D01*
X197932664Y-106018793D01*
X197932671Y-106018797D01*
X198067517Y-106069091D01*
X198067516Y-106069091D01*
X198074444Y-106069835D01*
X198127127Y-106075500D01*
X199222872Y-106075499D01*
X199282483Y-106069091D01*
X199417331Y-106018796D01*
X199532546Y-105932546D01*
X199594199Y-105850188D01*
X199650132Y-105808318D01*
X199693465Y-105800500D01*
X203656535Y-105800500D01*
X203723574Y-105820185D01*
X203755800Y-105850187D01*
X203817454Y-105932546D01*
X203834338Y-105945185D01*
X203932664Y-106018793D01*
X203932671Y-106018797D01*
X204067517Y-106069091D01*
X204067516Y-106069091D01*
X204074444Y-106069835D01*
X204127127Y-106075500D01*
X205222872Y-106075499D01*
X205282483Y-106069091D01*
X205417331Y-106018796D01*
X205532546Y-105932546D01*
X205618796Y-105817331D01*
X205669091Y-105682483D01*
X205675500Y-105622873D01*
X205675499Y-104777128D01*
X205669091Y-104717517D01*
X205664353Y-104704815D01*
X205618797Y-104582671D01*
X205618793Y-104582664D01*
X205532547Y-104467455D01*
X205532544Y-104467452D01*
X205417335Y-104381206D01*
X205417328Y-104381202D01*
X205282482Y-104330908D01*
X205282483Y-104330908D01*
X205222883Y-104324501D01*
X205222881Y-104324500D01*
X205222873Y-104324500D01*
X205222864Y-104324500D01*
X204127129Y-104324500D01*
X204127123Y-104324501D01*
X204067516Y-104330908D01*
X203932671Y-104381202D01*
X203932664Y-104381206D01*
X203817456Y-104467452D01*
X203817455Y-104467453D01*
X203817454Y-104467454D01*
X203755802Y-104549811D01*
X203699868Y-104591682D01*
X203656535Y-104599500D01*
X199693465Y-104599500D01*
X199626426Y-104579815D01*
X199594198Y-104549811D01*
X199532546Y-104467454D01*
X199508563Y-104449500D01*
X199417335Y-104381206D01*
X199417328Y-104381202D01*
X199282482Y-104330908D01*
X199282483Y-104330908D01*
X199222883Y-104324501D01*
X199222881Y-104324500D01*
X199222873Y-104324500D01*
X199222865Y-104324500D01*
X198700097Y-104324500D01*
X198633058Y-104304815D01*
X198612416Y-104288181D01*
X197886819Y-103562584D01*
X197853334Y-103501261D01*
X197850500Y-103474903D01*
X197850500Y-99197648D01*
X208699500Y-99197648D01*
X208699500Y-99402351D01*
X208731522Y-99604534D01*
X208794781Y-99799223D01*
X208887715Y-99981613D01*
X209008028Y-100147213D01*
X209152786Y-100291971D01*
X209303621Y-100401557D01*
X209318390Y-100412287D01*
X209425293Y-100466757D01*
X209500776Y-100505218D01*
X209500778Y-100505218D01*
X209500781Y-100505220D01*
X209605137Y-100539127D01*
X209695465Y-100568477D01*
X209796557Y-100584488D01*
X209897648Y-100600500D01*
X209897649Y-100600500D01*
X210102351Y-100600500D01*
X210102352Y-100600500D01*
X210304534Y-100568477D01*
X210499219Y-100505220D01*
X210681610Y-100412287D01*
X210774590Y-100344732D01*
X210847213Y-100291971D01*
X210847215Y-100291968D01*
X210847219Y-100291966D01*
X210991966Y-100147219D01*
X210991968Y-100147215D01*
X210991971Y-100147213D01*
X211077523Y-100029459D01*
X211112287Y-99981610D01*
X211205220Y-99799219D01*
X211268477Y-99604534D01*
X211300500Y-99402352D01*
X211300500Y-99197648D01*
X211268477Y-98995466D01*
X211205220Y-98800781D01*
X211205218Y-98800778D01*
X211205218Y-98800776D01*
X211147933Y-98688349D01*
X211112287Y-98618390D01*
X211099289Y-98600500D01*
X210991971Y-98452786D01*
X210847213Y-98308028D01*
X210681613Y-98187715D01*
X210681612Y-98187714D01*
X210681610Y-98187713D01*
X210624653Y-98158691D01*
X210499223Y-98094781D01*
X210304534Y-98031522D01*
X210129995Y-98003878D01*
X210102352Y-97999500D01*
X209897648Y-97999500D01*
X209873329Y-98003351D01*
X209695465Y-98031522D01*
X209500776Y-98094781D01*
X209318386Y-98187715D01*
X209152786Y-98308028D01*
X209008028Y-98452786D01*
X208887715Y-98618386D01*
X208794781Y-98800776D01*
X208731522Y-98995465D01*
X208699500Y-99197648D01*
X197850500Y-99197648D01*
X197850500Y-90567847D01*
X197870185Y-90500808D01*
X197922989Y-90455053D01*
X197950309Y-90446230D01*
X197966291Y-90443050D01*
X198083497Y-90419737D01*
X198229179Y-90359394D01*
X198360289Y-90271789D01*
X198471789Y-90160289D01*
X198559394Y-90029179D01*
X198619737Y-89883497D01*
X198624531Y-89859397D01*
X198626339Y-89850309D01*
X198658724Y-89788398D01*
X198719439Y-89753824D01*
X198747956Y-89750500D01*
X202520234Y-89750500D01*
X202587273Y-89770185D01*
X202589125Y-89771398D01*
X202720814Y-89859390D01*
X202720827Y-89859397D01*
X202852614Y-89913984D01*
X202866503Y-89919737D01*
X202990879Y-89944477D01*
X203021153Y-89950499D01*
X203021156Y-89950500D01*
X203021158Y-89950500D01*
X203178844Y-89950500D01*
X203178845Y-89950499D01*
X203333497Y-89919737D01*
X203479179Y-89859394D01*
X203610289Y-89771789D01*
X203721789Y-89660289D01*
X203809394Y-89529179D01*
X203869737Y-89383497D01*
X203900500Y-89228842D01*
X203900500Y-89071158D01*
X203894539Y-89041193D01*
X203900765Y-88971606D01*
X203943626Y-88916427D01*
X203947240Y-88913916D01*
X204010289Y-88871789D01*
X204121789Y-88760289D01*
X204209394Y-88629179D01*
X204269737Y-88483497D01*
X204300500Y-88328842D01*
X204300500Y-88171158D01*
X204300500Y-88171155D01*
X204300499Y-88171153D01*
X204289798Y-88117357D01*
X204269737Y-88016503D01*
X204258449Y-87989251D01*
X204209397Y-87870827D01*
X204209390Y-87870814D01*
X204121789Y-87739711D01*
X204121786Y-87739707D01*
X204010292Y-87628213D01*
X204010288Y-87628210D01*
X203879185Y-87540609D01*
X203879172Y-87540602D01*
X203733501Y-87480264D01*
X203733489Y-87480261D01*
X203578845Y-87449500D01*
X203578842Y-87449500D01*
X203421158Y-87449500D01*
X203421155Y-87449500D01*
X203266510Y-87480261D01*
X203266498Y-87480264D01*
X203120827Y-87540602D01*
X203120814Y-87540609D01*
X202989125Y-87628602D01*
X202922447Y-87649480D01*
X202920234Y-87649500D01*
X200404935Y-87649500D01*
X200337896Y-87629815D01*
X200336090Y-87628633D01*
X200279179Y-87590606D01*
X200279177Y-87590605D01*
X200279172Y-87590602D01*
X200133501Y-87530264D01*
X200133489Y-87530261D01*
X199978845Y-87499500D01*
X199978842Y-87499500D01*
X199821158Y-87499500D01*
X199821155Y-87499500D01*
X199666510Y-87530261D01*
X199666498Y-87530264D01*
X199520820Y-87590605D01*
X199518462Y-87591866D01*
X199517086Y-87592152D01*
X199515192Y-87592937D01*
X199515043Y-87592577D01*
X199450057Y-87606101D01*
X199384816Y-87581095D01*
X199343451Y-87524786D01*
X199339096Y-87455052D01*
X199340224Y-87450486D01*
X199356349Y-87390308D01*
X199356349Y-87232194D01*
X199356349Y-80044909D01*
X199356350Y-80044896D01*
X199356350Y-79876793D01*
X199356350Y-79876792D01*
X199315426Y-79724065D01*
X199307474Y-79710292D01*
X199236373Y-79587139D01*
X199236367Y-79587131D01*
X198961417Y-79312181D01*
X198927932Y-79250858D01*
X198932916Y-79181166D01*
X198974788Y-79125233D01*
X199040252Y-79100816D01*
X199049098Y-79100500D01*
X199128844Y-79100500D01*
X199128845Y-79100499D01*
X199283497Y-79069737D01*
X199429179Y-79009394D01*
X199560289Y-78921789D01*
X199595258Y-78886820D01*
X199656580Y-78853334D01*
X199682940Y-78850500D01*
X204127399Y-78850500D01*
X204127415Y-78850501D01*
X204135011Y-78850501D01*
X204293122Y-78850501D01*
X204293125Y-78850501D01*
X204445853Y-78809577D01*
X204459488Y-78801704D01*
X204496159Y-78780533D01*
X204496170Y-78780525D01*
X204496182Y-78780519D01*
X204582784Y-78730520D01*
X204694588Y-78618716D01*
X204694588Y-78618714D01*
X204704792Y-78608511D01*
X204704795Y-78608506D01*
X207708302Y-75605001D01*
X208402704Y-75605001D01*
X208402899Y-75607486D01*
X208448718Y-75765198D01*
X208532314Y-75906552D01*
X208532321Y-75906561D01*
X208648438Y-76022678D01*
X208648447Y-76022685D01*
X208789803Y-76106282D01*
X208789806Y-76106283D01*
X208947504Y-76152099D01*
X208947510Y-76152100D01*
X208984350Y-76154999D01*
X208984366Y-76155000D01*
X209625000Y-76155000D01*
X210125000Y-76155000D01*
X210765634Y-76155000D01*
X210765649Y-76154999D01*
X210802489Y-76152100D01*
X210802495Y-76152099D01*
X210960193Y-76106283D01*
X210960196Y-76106282D01*
X211101552Y-76022685D01*
X211101561Y-76022678D01*
X211217678Y-75906561D01*
X211217685Y-75906552D01*
X211301281Y-75765198D01*
X211347100Y-75607486D01*
X211347295Y-75605001D01*
X211347295Y-75605000D01*
X210125000Y-75605000D01*
X210125000Y-76155000D01*
X209625000Y-76155000D01*
X209625000Y-75605000D01*
X208402705Y-75605000D01*
X208402704Y-75605001D01*
X207708302Y-75605001D01*
X207990484Y-75322819D01*
X208051807Y-75289334D01*
X208078165Y-75286500D01*
X210804299Y-75286500D01*
X210804315Y-75286501D01*
X210811911Y-75286501D01*
X210970022Y-75286501D01*
X210970025Y-75286501D01*
X211122753Y-75245577D01*
X211172872Y-75216639D01*
X211259684Y-75166520D01*
X211292855Y-75133348D01*
X211302136Y-75126944D01*
X211325041Y-75119392D01*
X211343112Y-75109525D01*
X211356583Y-75094952D01*
X211356311Y-75094884D01*
X211356312Y-75094880D01*
X211360415Y-75087632D01*
X211364241Y-75069423D01*
X211364581Y-75068965D01*
X211364643Y-75068680D01*
X211384402Y-75042279D01*
X211385785Y-75040419D01*
X211388901Y-75037301D01*
X211388907Y-75037297D01*
X211388923Y-75037281D01*
X211388926Y-75037275D01*
X211631520Y-74794684D01*
X211710577Y-74657752D01*
X211751501Y-74505025D01*
X211751501Y-74346910D01*
X211751501Y-74339315D01*
X211751500Y-74339297D01*
X211751500Y-73833092D01*
X211751501Y-73833079D01*
X211751501Y-73664976D01*
X211728421Y-73578842D01*
X211710577Y-73512248D01*
X211694556Y-73484499D01*
X211631524Y-73375322D01*
X211631518Y-73375314D01*
X211386281Y-73130077D01*
X211352796Y-73068754D01*
X211350346Y-73032649D01*
X211350499Y-73030705D01*
X211350500Y-73030686D01*
X211350500Y-72599313D01*
X211350499Y-72599298D01*
X211349932Y-72592098D01*
X211347598Y-72562431D01*
X211301744Y-72404602D01*
X211218081Y-72263135D01*
X211218078Y-72263132D01*
X211213298Y-72256969D01*
X211215635Y-72255155D01*
X211188798Y-72206050D01*
X211193756Y-72136356D01*
X211214554Y-72103998D01*
X211212903Y-72102717D01*
X211217686Y-72096550D01*
X211301281Y-71955198D01*
X211347100Y-71797486D01*
X211347295Y-71795001D01*
X211347295Y-71795000D01*
X208402705Y-71795000D01*
X208402704Y-71795001D01*
X208402899Y-71797486D01*
X208448718Y-71955198D01*
X208532314Y-72096552D01*
X208537100Y-72102722D01*
X208534640Y-72104629D01*
X208561210Y-72153288D01*
X208556226Y-72222980D01*
X208535162Y-72255781D01*
X208536699Y-72256974D01*
X208531915Y-72263140D01*
X208448255Y-72404603D01*
X208448254Y-72404606D01*
X208402402Y-72562426D01*
X208402401Y-72562432D01*
X208399500Y-72599298D01*
X208399500Y-73030701D01*
X208402401Y-73067567D01*
X208402402Y-73067573D01*
X208448254Y-73225393D01*
X208448257Y-73225400D01*
X208490825Y-73297380D01*
X208508008Y-73365104D01*
X208485848Y-73431366D01*
X208431381Y-73475129D01*
X208384093Y-73484500D01*
X207898637Y-73484500D01*
X207898621Y-73484499D01*
X207891025Y-73484499D01*
X207732911Y-73484499D01*
X207629352Y-73512248D01*
X207580182Y-73525423D01*
X207541926Y-73547511D01*
X207541925Y-73547511D01*
X207443255Y-73604477D01*
X207443250Y-73604481D01*
X207331446Y-73716286D01*
X206608567Y-74439164D01*
X206547244Y-74472649D01*
X206477552Y-74467665D01*
X206421619Y-74425793D01*
X206397202Y-74360329D01*
X206397268Y-74341753D01*
X206397596Y-74337572D01*
X206397598Y-74337569D01*
X206400500Y-74300694D01*
X206400500Y-73869306D01*
X206397598Y-73832431D01*
X206394884Y-73823090D01*
X206351745Y-73674606D01*
X206351744Y-73674603D01*
X206351744Y-73674602D01*
X206268081Y-73533135D01*
X206268078Y-73533132D01*
X206263298Y-73526969D01*
X206265750Y-73525066D01*
X206239155Y-73476421D01*
X206244104Y-73406726D01*
X206264940Y-73374304D01*
X206263298Y-73373031D01*
X206268075Y-73366870D01*
X206268081Y-73366865D01*
X206351744Y-73225398D01*
X206397598Y-73067569D01*
X206400500Y-73030694D01*
X206400500Y-72599306D01*
X206397598Y-72562431D01*
X206351744Y-72404602D01*
X206268081Y-72263135D01*
X206268078Y-72263132D01*
X206263298Y-72256969D01*
X206265750Y-72255066D01*
X206239155Y-72206421D01*
X206244104Y-72136726D01*
X206264940Y-72104304D01*
X206263298Y-72103031D01*
X206268075Y-72096870D01*
X206268081Y-72096865D01*
X206351744Y-71955398D01*
X206397598Y-71797569D01*
X206400500Y-71760694D01*
X206400500Y-71329306D01*
X206397598Y-71292431D01*
X206382339Y-71239910D01*
X206382376Y-71226615D01*
X206377731Y-71214159D01*
X206382474Y-71192355D01*
X206382538Y-71170042D01*
X206390088Y-71157357D01*
X206392584Y-71145886D01*
X206413735Y-71117632D01*
X206444551Y-71086817D01*
X206505875Y-71053333D01*
X206532231Y-71050500D01*
X208308058Y-71050500D01*
X208375097Y-71070185D01*
X208420852Y-71122989D01*
X208430796Y-71192147D01*
X208427134Y-71209095D01*
X208402900Y-71292505D01*
X208402899Y-71292511D01*
X208402704Y-71294998D01*
X208402705Y-71295000D01*
X211382270Y-71295000D01*
X211449309Y-71314685D01*
X211469951Y-71331319D01*
X212013181Y-71874548D01*
X212046666Y-71935871D01*
X212049500Y-71962229D01*
X212049500Y-86637769D01*
X212029815Y-86704808D01*
X212013181Y-86725450D01*
X209175449Y-89563181D01*
X209114126Y-89596666D01*
X209087768Y-89599500D01*
X208402129Y-89599500D01*
X208402123Y-89599501D01*
X208342516Y-89605908D01*
X208207671Y-89656202D01*
X208207664Y-89656206D01*
X208092455Y-89742452D01*
X208092452Y-89742455D01*
X208006206Y-89857664D01*
X208006204Y-89857668D01*
X208006204Y-89857669D01*
X208002039Y-89868834D01*
X207988771Y-89886558D01*
X207979572Y-89906703D01*
X207968241Y-89913984D01*
X207960171Y-89924766D01*
X207939422Y-89932504D01*
X207920794Y-89944477D01*
X207898878Y-89947628D01*
X207894707Y-89949184D01*
X207885859Y-89949500D01*
X207704604Y-89949500D01*
X207657155Y-89940062D01*
X207633497Y-89930263D01*
X207633493Y-89930262D01*
X207633488Y-89930260D01*
X207478845Y-89899500D01*
X207478842Y-89899500D01*
X207321158Y-89899500D01*
X207321155Y-89899500D01*
X207166510Y-89930261D01*
X207166498Y-89930264D01*
X207020827Y-89990602D01*
X207020814Y-89990609D01*
X206889711Y-90078210D01*
X206889707Y-90078213D01*
X206778213Y-90189707D01*
X206778210Y-90189711D01*
X206690609Y-90320814D01*
X206690602Y-90320827D01*
X206630264Y-90466498D01*
X206630261Y-90466510D01*
X206599500Y-90621153D01*
X206599500Y-90778846D01*
X206630261Y-90933489D01*
X206630264Y-90933501D01*
X206690602Y-91079172D01*
X206690609Y-91079185D01*
X206778210Y-91210288D01*
X206778213Y-91210292D01*
X206889707Y-91321786D01*
X206889711Y-91321789D01*
X207020814Y-91409390D01*
X207020827Y-91409397D01*
X207132187Y-91455523D01*
X207166503Y-91469737D01*
X207321153Y-91500499D01*
X207321156Y-91500500D01*
X207321158Y-91500500D01*
X207478844Y-91500500D01*
X207478845Y-91500499D01*
X207555152Y-91485320D01*
X207633488Y-91469739D01*
X207633489Y-91469738D01*
X207633497Y-91469737D01*
X207657155Y-91459937D01*
X207665329Y-91458311D01*
X207669669Y-91455523D01*
X207704604Y-91450500D01*
X207825500Y-91450500D01*
X207892539Y-91470185D01*
X207938294Y-91522989D01*
X207949500Y-91574500D01*
X207949500Y-92249901D01*
X207929815Y-92316940D01*
X207913181Y-92337582D01*
X207549545Y-92701219D01*
X207488222Y-92734704D01*
X207418531Y-92729720D01*
X207392973Y-92716640D01*
X207279185Y-92640609D01*
X207279172Y-92640602D01*
X207133501Y-92580264D01*
X207133489Y-92580261D01*
X206978845Y-92549500D01*
X206978842Y-92549500D01*
X206821158Y-92549500D01*
X206821155Y-92549500D01*
X206666510Y-92580261D01*
X206666498Y-92580264D01*
X206520827Y-92640602D01*
X206520814Y-92640609D01*
X206389711Y-92728210D01*
X206389707Y-92728213D01*
X206278213Y-92839707D01*
X206278210Y-92839711D01*
X206190609Y-92970814D01*
X206190602Y-92970827D01*
X206130264Y-93116498D01*
X206130261Y-93116510D01*
X206099500Y-93271153D01*
X206099500Y-93428846D01*
X206130261Y-93583489D01*
X206130264Y-93583501D01*
X206190602Y-93729172D01*
X206190609Y-93729185D01*
X206278210Y-93860288D01*
X206278213Y-93860292D01*
X206389707Y-93971786D01*
X206389711Y-93971789D01*
X206520814Y-94059390D01*
X206520827Y-94059397D01*
X206666498Y-94119735D01*
X206666503Y-94119737D01*
X206821153Y-94150499D01*
X206821156Y-94150500D01*
X206821158Y-94150500D01*
X206978844Y-94150500D01*
X206978845Y-94150499D01*
X207133497Y-94119737D01*
X207279179Y-94059394D01*
X207279185Y-94059390D01*
X207410875Y-93971398D01*
X207428921Y-93965747D01*
X207444831Y-93955523D01*
X207475792Y-93951071D01*
X207477553Y-93950520D01*
X207479766Y-93950500D01*
X207663331Y-93950500D01*
X207663347Y-93950501D01*
X207670943Y-93950501D01*
X207829054Y-93950501D01*
X207829057Y-93950501D01*
X207981785Y-93909577D01*
X208054903Y-93867362D01*
X208118716Y-93830520D01*
X208230520Y-93718716D01*
X208230520Y-93718714D01*
X208240724Y-93708511D01*
X208240727Y-93708506D01*
X209012417Y-92936818D01*
X209073740Y-92903333D01*
X209100098Y-92900499D01*
X209997871Y-92900499D01*
X209997872Y-92900499D01*
X210057483Y-92894091D01*
X210192331Y-92843796D01*
X210307546Y-92757546D01*
X210393796Y-92642331D01*
X210444091Y-92507483D01*
X210450500Y-92447873D01*
X210450499Y-91352128D01*
X210444091Y-91292517D01*
X210444090Y-91292515D01*
X210444090Y-91292512D01*
X210442308Y-91284969D01*
X210443773Y-91284622D01*
X210439409Y-91223651D01*
X210443819Y-91208633D01*
X210444089Y-91207488D01*
X210444088Y-91207488D01*
X210444091Y-91207483D01*
X210450500Y-91147873D01*
X210450499Y-90462228D01*
X210470183Y-90395190D01*
X210486813Y-90374553D01*
X213382952Y-87478416D01*
X213450758Y-87376935D01*
X213465084Y-87355495D01*
X213521658Y-87218913D01*
X213538253Y-87135486D01*
X213550500Y-87073920D01*
X213550500Y-71526081D01*
X213550499Y-71526080D01*
X213539560Y-71471082D01*
X213521659Y-71381088D01*
X213488518Y-71301080D01*
X213484936Y-71292432D01*
X213465087Y-71244511D01*
X213465085Y-71244507D01*
X213465084Y-71244505D01*
X213410205Y-71162373D01*
X213382952Y-71121585D01*
X213054621Y-70793254D01*
X211978421Y-69717052D01*
X211978414Y-69717046D01*
X211904729Y-69667812D01*
X211904729Y-69667813D01*
X211855491Y-69634913D01*
X211718917Y-69578343D01*
X211718907Y-69578340D01*
X211573920Y-69549500D01*
X211573918Y-69549500D01*
X206096082Y-69549500D01*
X206096080Y-69549500D01*
X205951092Y-69578340D01*
X205951086Y-69578342D01*
X205814508Y-69634914D01*
X205814496Y-69634921D01*
X205765269Y-69667813D01*
X205691588Y-69717044D01*
X205691580Y-69717050D01*
X204700451Y-70708181D01*
X204639128Y-70741666D01*
X204612770Y-70744500D01*
X204034298Y-70744500D01*
X203997432Y-70747401D01*
X203997426Y-70747402D01*
X203839606Y-70793254D01*
X203839603Y-70793255D01*
X203698137Y-70876917D01*
X203698129Y-70876923D01*
X203581923Y-70993129D01*
X203581917Y-70993137D01*
X203498255Y-71134603D01*
X203498254Y-71134606D01*
X203452402Y-71292426D01*
X203452401Y-71292432D01*
X203449500Y-71329298D01*
X203449500Y-71337742D01*
X203429815Y-71404781D01*
X203413181Y-71425423D01*
X202612181Y-72226423D01*
X202550858Y-72259908D01*
X202481166Y-72254924D01*
X202425233Y-72213052D01*
X202400816Y-72147588D01*
X202400500Y-72138742D01*
X202400500Y-68053542D01*
X202400500Y-68040209D01*
X202400501Y-68040206D01*
X202400501Y-67882092D01*
X202388931Y-67838914D01*
X202388235Y-67825991D01*
X202388683Y-67824090D01*
X202388055Y-67819317D01*
X202388055Y-67379765D01*
X202407740Y-67312726D01*
X202408953Y-67310874D01*
X202484608Y-67197648D01*
X208699500Y-67197648D01*
X208699500Y-67402351D01*
X208731522Y-67604534D01*
X208794781Y-67799223D01*
X208887715Y-67981613D01*
X209008028Y-68147213D01*
X209152786Y-68291971D01*
X209267148Y-68375058D01*
X209318390Y-68412287D01*
X209434607Y-68471503D01*
X209500776Y-68505218D01*
X209500778Y-68505218D01*
X209500781Y-68505220D01*
X209605137Y-68539127D01*
X209695465Y-68568477D01*
X209796557Y-68584488D01*
X209897648Y-68600500D01*
X209897649Y-68600500D01*
X210102351Y-68600500D01*
X210102352Y-68600500D01*
X210304534Y-68568477D01*
X210499219Y-68505220D01*
X210681610Y-68412287D01*
X210774590Y-68344732D01*
X210847213Y-68291971D01*
X210847215Y-68291968D01*
X210847219Y-68291966D01*
X210991966Y-68147219D01*
X210991968Y-68147215D01*
X210991971Y-68147213D01*
X211060026Y-68053542D01*
X211112287Y-67981610D01*
X211205220Y-67799219D01*
X211268477Y-67604534D01*
X211300500Y-67402352D01*
X211300500Y-67197648D01*
X211278558Y-67059111D01*
X211268477Y-66995465D01*
X211230584Y-66878844D01*
X211205220Y-66800781D01*
X211205218Y-66800778D01*
X211205218Y-66800776D01*
X211159054Y-66710176D01*
X211112287Y-66618390D01*
X211103592Y-66606422D01*
X210991971Y-66452786D01*
X210847213Y-66308028D01*
X210681613Y-66187715D01*
X210681612Y-66187714D01*
X210681610Y-66187713D01*
X210624653Y-66158691D01*
X210499223Y-66094781D01*
X210304534Y-66031522D01*
X210129995Y-66003878D01*
X210102352Y-65999500D01*
X209897648Y-65999500D01*
X209873329Y-66003351D01*
X209695465Y-66031522D01*
X209500776Y-66094781D01*
X209318386Y-66187715D01*
X209152786Y-66308028D01*
X209008028Y-66452786D01*
X208887715Y-66618386D01*
X208794781Y-66800776D01*
X208731522Y-66995465D01*
X208699500Y-67197648D01*
X202484608Y-67197648D01*
X202496945Y-67179185D01*
X202496945Y-67179184D01*
X202496949Y-67179179D01*
X202557292Y-67033497D01*
X202588055Y-66878842D01*
X202588055Y-66721158D01*
X202588055Y-66721155D01*
X202588054Y-66721153D01*
X202587335Y-66717539D01*
X202557292Y-66566503D01*
X202518127Y-66471951D01*
X202510659Y-66402483D01*
X202541934Y-66340004D01*
X202602023Y-66304352D01*
X202632689Y-66300500D01*
X203082153Y-66300500D01*
X203111593Y-66309144D01*
X203141580Y-66315668D01*
X203146595Y-66319422D01*
X203149192Y-66320185D01*
X203169834Y-66336819D01*
X203197675Y-66364660D01*
X203231160Y-66425983D01*
X203231611Y-66428149D01*
X203262511Y-66583491D01*
X203262514Y-66583501D01*
X203322852Y-66729172D01*
X203322859Y-66729185D01*
X203410460Y-66860288D01*
X203410463Y-66860292D01*
X203521957Y-66971786D01*
X203521961Y-66971789D01*
X203653064Y-67059390D01*
X203653077Y-67059397D01*
X203798748Y-67119735D01*
X203798753Y-67119737D01*
X203932087Y-67146259D01*
X203953403Y-67150499D01*
X203953406Y-67150500D01*
X203953408Y-67150500D01*
X204111094Y-67150500D01*
X204111095Y-67150499D01*
X204265747Y-67119737D01*
X204305515Y-67103264D01*
X204365992Y-67078215D01*
X204411422Y-67059397D01*
X204411422Y-67059396D01*
X204411429Y-67059394D01*
X204542539Y-66971789D01*
X204654039Y-66860289D01*
X204741644Y-66729179D01*
X204744969Y-66721153D01*
X204765705Y-66671091D01*
X204801987Y-66583497D01*
X204801989Y-66583485D01*
X204802733Y-66581035D01*
X204803476Y-66579900D01*
X204804318Y-66577869D01*
X204804703Y-66578028D01*
X204841030Y-66522596D01*
X204904842Y-66494140D01*
X204945583Y-66495412D01*
X204971158Y-66500500D01*
X204971159Y-66500500D01*
X205128844Y-66500500D01*
X205128845Y-66500499D01*
X205283497Y-66469737D01*
X205429179Y-66409394D01*
X205560289Y-66321789D01*
X205671789Y-66210289D01*
X205759394Y-66079179D01*
X205819737Y-65933497D01*
X205850500Y-65778842D01*
X205850500Y-65621158D01*
X205850500Y-65621155D01*
X205850499Y-65621153D01*
X205840285Y-65569804D01*
X205819737Y-65466503D01*
X205762284Y-65327797D01*
X205759397Y-65320827D01*
X205759390Y-65320814D01*
X205671789Y-65189711D01*
X205671786Y-65189707D01*
X205560292Y-65078213D01*
X205560288Y-65078210D01*
X205429185Y-64990609D01*
X205429172Y-64990602D01*
X205283501Y-64930264D01*
X205283491Y-64930261D01*
X205128149Y-64899361D01*
X205111392Y-64890595D01*
X205092914Y-64886576D01*
X205067877Y-64867833D01*
X205066238Y-64866976D01*
X205064660Y-64865425D01*
X204937590Y-64738355D01*
X204937588Y-64738352D01*
X204818717Y-64619481D01*
X204818716Y-64619480D01*
X204714960Y-64559577D01*
X204714959Y-64559576D01*
X204681783Y-64540422D01*
X204625881Y-64525443D01*
X204529057Y-64499499D01*
X204370943Y-64499499D01*
X204363347Y-64499499D01*
X204363331Y-64499500D01*
X203714500Y-64499500D01*
X203647461Y-64479815D01*
X203601706Y-64427011D01*
X203590500Y-64375500D01*
X203590499Y-61857129D01*
X203590498Y-61857123D01*
X203590497Y-61857116D01*
X203584091Y-61797517D01*
X203533796Y-61662669D01*
X203533795Y-61662668D01*
X203533793Y-61662664D01*
X203447547Y-61547455D01*
X203447544Y-61547452D01*
X203332335Y-61461206D01*
X203332328Y-61461202D01*
X203197482Y-61410908D01*
X203197483Y-61410908D01*
X203137883Y-61404501D01*
X203137881Y-61404500D01*
X203137873Y-61404500D01*
X203137864Y-61404500D01*
X202042129Y-61404500D01*
X202042123Y-61404501D01*
X201982516Y-61410908D01*
X201847671Y-61461202D01*
X201847664Y-61461206D01*
X201732455Y-61547452D01*
X201732452Y-61547455D01*
X201646206Y-61662664D01*
X201646202Y-61662671D01*
X201595908Y-61797517D01*
X201589501Y-61857116D01*
X201589501Y-61857123D01*
X201589500Y-61857135D01*
X201589500Y-62435500D01*
X201569815Y-62502539D01*
X201517011Y-62548294D01*
X201465500Y-62559500D01*
X196976669Y-62559500D01*
X196976653Y-62559499D01*
X196969057Y-62559499D01*
X196810943Y-62559499D01*
X196696397Y-62590192D01*
X196658214Y-62600423D01*
X196622253Y-62621186D01*
X196622252Y-62621186D01*
X196521287Y-62679477D01*
X196521282Y-62679481D01*
X196409478Y-62791286D01*
X196056226Y-63144537D01*
X195994903Y-63178022D01*
X195955943Y-63180214D01*
X195900011Y-63174500D01*
X195099998Y-63174500D01*
X195099980Y-63174501D01*
X194997203Y-63185000D01*
X194997200Y-63185001D01*
X194830668Y-63240185D01*
X194830663Y-63240187D01*
X194681342Y-63332289D01*
X194557289Y-63456342D01*
X194517420Y-63520981D01*
X194465472Y-63567705D01*
X194396509Y-63578928D01*
X194332427Y-63551084D01*
X194324200Y-63543565D01*
X194216602Y-63435967D01*
X194076524Y-63334195D01*
X193922257Y-63255591D01*
X193757589Y-63202087D01*
X193757581Y-63202085D01*
X193750000Y-63200884D01*
X193750000Y-64269670D01*
X193730255Y-64249925D01*
X193644745Y-64200556D01*
X193549370Y-64175000D01*
X193450630Y-64175000D01*
X193355255Y-64200556D01*
X193269745Y-64249925D01*
X193250000Y-64269670D01*
X193250000Y-63200884D01*
X193249999Y-63200884D01*
X193242418Y-63202085D01*
X193242410Y-63202087D01*
X193077742Y-63255591D01*
X192923475Y-63334195D01*
X192783397Y-63435967D01*
X192660967Y-63558397D01*
X192559195Y-63698475D01*
X192480591Y-63852742D01*
X192427085Y-64017415D01*
X192400000Y-64188428D01*
X192400000Y-64300000D01*
X193219670Y-64300000D01*
X193199925Y-64319745D01*
X193150556Y-64405255D01*
X193125000Y-64500630D01*
X193125000Y-64599370D01*
X193150556Y-64694745D01*
X193199925Y-64780255D01*
X193219670Y-64800000D01*
X192400000Y-64800000D01*
X192400000Y-64911571D01*
X192427085Y-65082584D01*
X192480591Y-65247257D01*
X192559195Y-65401524D01*
X192660967Y-65541602D01*
X192783397Y-65664032D01*
X192923475Y-65765804D01*
X193077744Y-65844408D01*
X193242415Y-65897914D01*
X193242414Y-65897914D01*
X193249999Y-65899115D01*
X193250000Y-65899114D01*
X193250000Y-64830330D01*
X193269745Y-64850075D01*
X193355255Y-64899444D01*
X193450630Y-64925000D01*
X193549370Y-64925000D01*
X193644745Y-64899444D01*
X193730255Y-64850075D01*
X193750000Y-64830330D01*
X193750000Y-65899115D01*
X193757584Y-65897914D01*
X193922255Y-65844408D01*
X194076524Y-65765804D01*
X194216598Y-65664035D01*
X194324199Y-65556434D01*
X194385522Y-65522949D01*
X194455214Y-65527933D01*
X194511148Y-65569804D01*
X194517418Y-65579016D01*
X194557288Y-65643656D01*
X194681344Y-65767712D01*
X194830666Y-65859814D01*
X194997203Y-65914999D01*
X195099991Y-65925500D01*
X195900008Y-65925499D01*
X195900016Y-65925498D01*
X195900019Y-65925498D01*
X195956302Y-65919748D01*
X196002797Y-65914999D01*
X196154806Y-65864627D01*
X196224630Y-65862226D01*
X196284673Y-65897957D01*
X196296909Y-65913443D01*
X196328210Y-65960288D01*
X196328213Y-65960292D01*
X196439707Y-66071786D01*
X196439711Y-66071789D01*
X196570814Y-66159390D01*
X196570827Y-66159397D01*
X196716498Y-66219735D01*
X196716503Y-66219737D01*
X196871153Y-66250499D01*
X196871156Y-66250500D01*
X196871158Y-66250500D01*
X197028844Y-66250500D01*
X197028845Y-66250499D01*
X197183497Y-66219737D01*
X197329179Y-66159394D01*
X197460289Y-66071789D01*
X197571789Y-65960289D01*
X197659394Y-65829179D01*
X197680987Y-65777047D01*
X197724827Y-65722644D01*
X197791121Y-65700579D01*
X197795548Y-65700500D01*
X198675500Y-65700500D01*
X198742539Y-65720185D01*
X198788294Y-65772989D01*
X198799500Y-65824500D01*
X198799500Y-65928846D01*
X198830261Y-66083489D01*
X198830264Y-66083501D01*
X198890602Y-66229172D01*
X198890609Y-66229185D01*
X198978210Y-66360288D01*
X198978213Y-66360292D01*
X199089707Y-66471786D01*
X199089711Y-66471789D01*
X199220814Y-66559390D01*
X199220827Y-66559397D01*
X199356013Y-66615392D01*
X199366503Y-66619737D01*
X199478758Y-66642066D01*
X199521153Y-66650499D01*
X199521156Y-66650500D01*
X199521158Y-66650500D01*
X199678844Y-66650500D01*
X199678845Y-66650499D01*
X199833497Y-66619737D01*
X199979179Y-66559394D01*
X200110289Y-66471789D01*
X200221789Y-66360289D01*
X200224914Y-66355611D01*
X200278525Y-66310806D01*
X200328018Y-66300500D01*
X200942421Y-66300500D01*
X201009460Y-66320185D01*
X201055215Y-66372989D01*
X201065159Y-66442147D01*
X201056982Y-66471953D01*
X201017818Y-66566502D01*
X201017816Y-66566510D01*
X200987055Y-66721153D01*
X200987055Y-66878846D01*
X201017816Y-67033489D01*
X201017819Y-67033501D01*
X201078157Y-67179172D01*
X201078164Y-67179185D01*
X201166157Y-67310874D01*
X201187035Y-67377551D01*
X201187055Y-67379765D01*
X201187055Y-67869643D01*
X201187054Y-67869647D01*
X201187054Y-68027761D01*
X201198614Y-68070902D01*
X201199316Y-68083790D01*
X201198864Y-68085707D01*
X201199500Y-68090534D01*
X201199500Y-72592098D01*
X201179815Y-72659137D01*
X201127011Y-72704892D01*
X201099692Y-72713715D01*
X201016508Y-72730261D01*
X201016498Y-72730264D01*
X200870827Y-72790602D01*
X200870814Y-72790609D01*
X200739711Y-72878210D01*
X200739707Y-72878213D01*
X200628213Y-72989707D01*
X200628210Y-72989711D01*
X200540609Y-73120814D01*
X200540602Y-73120827D01*
X200480264Y-73266498D01*
X200480261Y-73266510D01*
X200449500Y-73421153D01*
X200449500Y-73578846D01*
X200480261Y-73733489D01*
X200480264Y-73733501D01*
X200540602Y-73879172D01*
X200540609Y-73879185D01*
X200625771Y-74006638D01*
X200646649Y-74073316D01*
X200628165Y-74140696D01*
X200576186Y-74187386D01*
X200522669Y-74199529D01*
X198126051Y-74199529D01*
X197981063Y-74228369D01*
X197981057Y-74228371D01*
X197844475Y-74284945D01*
X197837139Y-74289847D01*
X197815706Y-74301303D01*
X197720824Y-74340604D01*
X197720814Y-74340609D01*
X197589711Y-74428210D01*
X197589707Y-74428213D01*
X197478213Y-74539707D01*
X197478210Y-74539711D01*
X197390609Y-74670814D01*
X197390602Y-74670827D01*
X197330264Y-74816498D01*
X197330261Y-74816510D01*
X197299500Y-74971153D01*
X197299500Y-75128846D01*
X197330261Y-75283489D01*
X197330263Y-75283497D01*
X197390602Y-75429172D01*
X197390609Y-75429185D01*
X197443011Y-75507609D01*
X197463889Y-75574286D01*
X197445405Y-75641666D01*
X197393426Y-75688357D01*
X197339909Y-75700500D01*
X196651097Y-75700500D01*
X196584058Y-75680815D01*
X196563416Y-75664181D01*
X195686590Y-74787355D01*
X195686588Y-74787352D01*
X195567717Y-74668481D01*
X195567709Y-74668475D01*
X195454745Y-74603256D01*
X195454744Y-74603255D01*
X195437903Y-74593532D01*
X195430785Y-74589423D01*
X195278057Y-74548499D01*
X195119943Y-74548499D01*
X195112347Y-74548499D01*
X195112331Y-74548500D01*
X194137669Y-74548500D01*
X194137653Y-74548499D01*
X194130057Y-74548499D01*
X193971943Y-74548499D01*
X193819215Y-74589423D01*
X193819213Y-74589424D01*
X193795254Y-74603255D01*
X193795255Y-74603256D01*
X193682287Y-74668477D01*
X193682282Y-74668481D01*
X193219481Y-75131282D01*
X193219475Y-75131290D01*
X193181110Y-75197742D01*
X193181110Y-75197744D01*
X193140423Y-75268214D01*
X193140423Y-75268215D01*
X193099499Y-75420943D01*
X193099499Y-75420945D01*
X193099499Y-75589046D01*
X193099500Y-75589059D01*
X193099500Y-79690350D01*
X193079815Y-79757389D01*
X193027011Y-79803144D01*
X192957853Y-79813088D01*
X192894297Y-79784063D01*
X192887819Y-79778031D01*
X191687669Y-78577881D01*
X191654184Y-78516558D01*
X191651350Y-78490200D01*
X191651350Y-64256297D01*
X191651349Y-64256295D01*
X191641693Y-64207747D01*
X191614791Y-64072506D01*
X191614790Y-64072502D01*
X191614790Y-64072501D01*
X191543075Y-63899367D01*
X191543074Y-63899365D01*
X191543074Y-63899364D01*
X191438965Y-63743554D01*
X191438959Y-63743546D01*
X191306453Y-63611040D01*
X191306445Y-63611034D01*
X191150634Y-63506925D01*
X190977499Y-63435210D01*
X190977491Y-63435208D01*
X190793703Y-63398650D01*
X190793700Y-63398650D01*
X190606300Y-63398650D01*
X190606297Y-63398650D01*
X190422508Y-63435208D01*
X190422500Y-63435210D01*
X190249365Y-63506925D01*
X190249364Y-63506925D01*
X190093554Y-63611034D01*
X190093546Y-63611040D01*
X189961040Y-63743546D01*
X189961037Y-63743550D01*
X189875921Y-63870935D01*
X189822309Y-63915740D01*
X189752984Y-63924447D01*
X189689956Y-63894292D01*
X189685138Y-63889725D01*
X189406453Y-63611040D01*
X189406449Y-63611037D01*
X189250636Y-63506925D01*
X189250633Y-63506924D01*
X189077499Y-63435210D01*
X189077489Y-63435207D01*
X188893703Y-63398650D01*
X188893700Y-63398650D01*
X188706300Y-63398650D01*
X188706297Y-63398650D01*
X188522510Y-63435207D01*
X188522500Y-63435210D01*
X188349366Y-63506924D01*
X188349363Y-63506925D01*
X188193550Y-63611037D01*
X188193546Y-63611040D01*
X188061040Y-63743546D01*
X188061037Y-63743550D01*
X187956925Y-63899363D01*
X187956924Y-63899366D01*
X187885210Y-64072500D01*
X187885207Y-64072510D01*
X187848650Y-64256295D01*
X187848650Y-64443704D01*
X187885207Y-64627489D01*
X187885210Y-64627499D01*
X187956924Y-64800633D01*
X187956925Y-64800636D01*
X188061037Y-64956449D01*
X188061040Y-64956453D01*
X188560631Y-65456043D01*
X188594116Y-65517366D01*
X188596950Y-65543724D01*
X188596950Y-66548353D01*
X188577265Y-66615392D01*
X188524461Y-66661147D01*
X188455303Y-66671091D01*
X188391747Y-66642066D01*
X188385269Y-66636034D01*
X185187590Y-63438355D01*
X185187588Y-63438352D01*
X185068717Y-63319481D01*
X185068709Y-63319475D01*
X184963657Y-63258824D01*
X184963656Y-63258823D01*
X184963656Y-63258824D01*
X184931785Y-63240423D01*
X184894655Y-63230474D01*
X184779057Y-63199499D01*
X184620943Y-63199499D01*
X184613347Y-63199499D01*
X184613331Y-63199500D01*
X181707680Y-63199500D01*
X181640641Y-63179815D01*
X181594886Y-63127011D01*
X181593119Y-63122952D01*
X181538686Y-62991538D01*
X181538679Y-62991525D01*
X181451078Y-62860422D01*
X181451075Y-62860418D01*
X181339581Y-62748924D01*
X181339577Y-62748921D01*
X181208474Y-62661320D01*
X181208461Y-62661313D01*
X181062790Y-62600975D01*
X181062778Y-62600972D01*
X180908134Y-62570211D01*
X180908131Y-62570211D01*
X180750447Y-62570211D01*
X180750444Y-62570211D01*
X180595799Y-62600972D01*
X180595787Y-62600975D01*
X180450116Y-62661313D01*
X180450103Y-62661320D01*
X180319000Y-62748921D01*
X180318996Y-62748924D01*
X180207502Y-62860418D01*
X180207499Y-62860422D01*
X180119898Y-62991525D01*
X180119891Y-62991538D01*
X180059553Y-63137209D01*
X180059550Y-63137221D01*
X180027600Y-63297843D01*
X180025276Y-63297380D01*
X180003044Y-63352441D01*
X179946009Y-63392800D01*
X179905801Y-63399500D01*
X179264508Y-63399500D01*
X179197469Y-63379815D01*
X179151714Y-63327011D01*
X179149947Y-63322952D01*
X179111642Y-63230474D01*
X179111635Y-63230461D01*
X179024034Y-63099358D01*
X179024031Y-63099354D01*
X178912537Y-62987860D01*
X178912533Y-62987857D01*
X178781430Y-62900256D01*
X178781417Y-62900249D01*
X178635746Y-62839911D01*
X178635734Y-62839908D01*
X178481090Y-62809147D01*
X178481087Y-62809147D01*
X178323403Y-62809147D01*
X178323400Y-62809147D01*
X178168755Y-62839908D01*
X178168743Y-62839911D01*
X178023072Y-62900249D01*
X178023059Y-62900256D01*
X177891956Y-62987857D01*
X177891952Y-62987860D01*
X177780458Y-63099354D01*
X177780455Y-63099358D01*
X177692854Y-63230461D01*
X177692847Y-63230474D01*
X177632509Y-63376145D01*
X177632506Y-63376157D01*
X177601745Y-63530800D01*
X177601745Y-63675500D01*
X177582060Y-63742539D01*
X177529256Y-63788294D01*
X177477745Y-63799500D01*
X176700097Y-63799500D01*
X176670656Y-63790855D01*
X176640670Y-63784332D01*
X176635654Y-63780577D01*
X176633058Y-63779815D01*
X176612416Y-63763181D01*
X176534574Y-63685339D01*
X176501089Y-63624016D01*
X176500638Y-63621849D01*
X176474246Y-63489171D01*
X176469737Y-63466503D01*
X176441632Y-63398650D01*
X176409397Y-63320827D01*
X176409390Y-63320814D01*
X176321789Y-63189711D01*
X176321786Y-63189707D01*
X176210292Y-63078213D01*
X176210288Y-63078210D01*
X176079185Y-62990609D01*
X176079172Y-62990602D01*
X175933501Y-62930264D01*
X175933489Y-62930261D01*
X175778845Y-62899500D01*
X175778842Y-62899500D01*
X175621158Y-62899500D01*
X175621155Y-62899500D01*
X175466510Y-62930261D01*
X175466498Y-62930264D01*
X175320827Y-62990602D01*
X175320814Y-62990609D01*
X175189711Y-63078210D01*
X175189707Y-63078213D01*
X175078213Y-63189707D01*
X175078210Y-63189711D01*
X174990609Y-63320814D01*
X174990602Y-63320827D01*
X174930264Y-63466498D01*
X174930261Y-63466510D01*
X174899500Y-63621153D01*
X174899500Y-63778846D01*
X174930261Y-63933489D01*
X174930264Y-63933501D01*
X174990602Y-64079172D01*
X174990609Y-64079185D01*
X175078210Y-64210288D01*
X175078213Y-64210292D01*
X175189707Y-64321786D01*
X175189711Y-64321789D01*
X175320814Y-64409390D01*
X175320827Y-64409397D01*
X175466498Y-64469735D01*
X175466503Y-64469737D01*
X175531147Y-64482595D01*
X175621849Y-64500638D01*
X175683760Y-64533023D01*
X175685339Y-64534574D01*
X175915139Y-64764374D01*
X175915149Y-64764385D01*
X175919479Y-64768715D01*
X175919480Y-64768716D01*
X176031284Y-64880520D01*
X176031286Y-64880521D01*
X176031290Y-64880524D01*
X176142905Y-64944964D01*
X176168216Y-64959577D01*
X176280019Y-64989534D01*
X176320942Y-65000500D01*
X176320943Y-65000500D01*
X178439120Y-65000500D01*
X178454376Y-65001500D01*
X178454842Y-65001500D01*
X178454843Y-65001500D01*
X178787043Y-65001500D01*
X180217305Y-65001500D01*
X180284344Y-65021185D01*
X180330099Y-65073989D01*
X180340043Y-65143147D01*
X180311018Y-65206703D01*
X180308842Y-65209147D01*
X172344378Y-73923211D01*
X172100000Y-74190589D01*
X164166500Y-74190589D01*
X164582057Y-72606876D01*
X164583467Y-72601926D01*
X164645957Y-72398613D01*
X165185930Y-70641790D01*
X165187569Y-70636837D01*
X165841356Y-68793759D01*
X165843254Y-68788757D01*
X166487159Y-67197648D01*
X169199500Y-67197648D01*
X169199500Y-67402351D01*
X169231522Y-67604534D01*
X169294781Y-67799223D01*
X169387715Y-67981613D01*
X169508028Y-68147213D01*
X169652786Y-68291971D01*
X169767148Y-68375058D01*
X169818390Y-68412287D01*
X169934607Y-68471503D01*
X170000776Y-68505218D01*
X170000778Y-68505218D01*
X170000781Y-68505220D01*
X170105137Y-68539127D01*
X170195465Y-68568477D01*
X170296557Y-68584488D01*
X170397648Y-68600500D01*
X170397649Y-68600500D01*
X170602351Y-68600500D01*
X170602352Y-68600500D01*
X170804534Y-68568477D01*
X170999219Y-68505220D01*
X171181610Y-68412287D01*
X171274590Y-68344732D01*
X171347213Y-68291971D01*
X171347215Y-68291968D01*
X171347219Y-68291966D01*
X171491966Y-68147219D01*
X171491968Y-68147215D01*
X171491971Y-68147213D01*
X171560026Y-68053542D01*
X171612287Y-67981610D01*
X171705220Y-67799219D01*
X171768477Y-67604534D01*
X171800500Y-67402352D01*
X171800500Y-67197648D01*
X171778558Y-67059111D01*
X171768477Y-66995465D01*
X171730584Y-66878844D01*
X171705220Y-66800781D01*
X171705218Y-66800778D01*
X171705218Y-66800776D01*
X171659054Y-66710176D01*
X171612287Y-66618390D01*
X171603592Y-66606422D01*
X171491971Y-66452786D01*
X171347213Y-66308028D01*
X171181613Y-66187715D01*
X171181612Y-66187714D01*
X171181610Y-66187713D01*
X171124653Y-66158691D01*
X170999223Y-66094781D01*
X170804534Y-66031522D01*
X170629995Y-66003878D01*
X170602352Y-65999500D01*
X170397648Y-65999500D01*
X170373329Y-66003351D01*
X170195465Y-66031522D01*
X170000776Y-66094781D01*
X169818386Y-66187715D01*
X169652786Y-66308028D01*
X169508028Y-66452786D01*
X169387715Y-66618386D01*
X169294781Y-66800776D01*
X169231522Y-66995465D01*
X169199500Y-67197648D01*
X166487159Y-67197648D01*
X166543236Y-67059080D01*
X166545385Y-67054089D01*
X167286458Y-65434140D01*
X167288902Y-65429103D01*
X167344480Y-65320827D01*
X168065974Y-63915234D01*
X168068656Y-63910291D01*
X168876702Y-62498774D01*
X168879598Y-62493972D01*
X169713582Y-61181139D01*
X169716750Y-61176398D01*
X169733285Y-61152844D01*
X199050000Y-61152844D01*
X199056401Y-61212372D01*
X199056403Y-61212379D01*
X199106645Y-61347086D01*
X199106649Y-61347093D01*
X199192809Y-61462187D01*
X199192812Y-61462190D01*
X199307906Y-61548350D01*
X199307913Y-61548354D01*
X199442620Y-61598596D01*
X199442627Y-61598598D01*
X199502155Y-61604999D01*
X199502172Y-61605000D01*
X199800000Y-61605000D01*
X200300000Y-61605000D01*
X200597828Y-61605000D01*
X200597844Y-61604999D01*
X200657372Y-61598598D01*
X200657379Y-61598596D01*
X200792086Y-61548354D01*
X200792093Y-61548350D01*
X200907187Y-61462190D01*
X200907190Y-61462187D01*
X200993350Y-61347093D01*
X200993354Y-61347086D01*
X201043596Y-61212379D01*
X201043598Y-61212372D01*
X201049999Y-61152844D01*
X201050000Y-61152827D01*
X201050000Y-60100000D01*
X200300000Y-60100000D01*
X200300000Y-61605000D01*
X199800000Y-61605000D01*
X199800000Y-60100000D01*
X199050000Y-60100000D01*
X199050000Y-61152844D01*
X169733285Y-61152844D01*
X170066647Y-60677977D01*
X170571620Y-59958652D01*
X170574986Y-59954085D01*
X171102970Y-59271153D01*
X185249500Y-59271153D01*
X185249500Y-59428846D01*
X185280261Y-59583489D01*
X185280264Y-59583501D01*
X185340602Y-59729172D01*
X185340609Y-59729185D01*
X185428210Y-59860288D01*
X185428213Y-59860292D01*
X185539707Y-59971786D01*
X185539711Y-59971789D01*
X185670814Y-60059390D01*
X185670827Y-60059397D01*
X185768853Y-60100000D01*
X185816503Y-60119737D01*
X185971153Y-60150499D01*
X185971156Y-60150500D01*
X185971158Y-60150500D01*
X186128844Y-60150500D01*
X186128845Y-60150499D01*
X186283497Y-60119737D01*
X186429179Y-60059394D01*
X186560289Y-59971789D01*
X186560292Y-59971786D01*
X186571122Y-59960957D01*
X186671786Y-59860292D01*
X186671789Y-59860289D01*
X186741734Y-59755609D01*
X186795346Y-59710804D01*
X186844836Y-59700500D01*
X187595234Y-59700500D01*
X187662273Y-59720185D01*
X187664125Y-59721398D01*
X187795814Y-59809390D01*
X187795827Y-59809397D01*
X187941498Y-59869735D01*
X187941503Y-59869737D01*
X188096153Y-59900499D01*
X188096156Y-59900500D01*
X188096158Y-59900500D01*
X188253844Y-59900500D01*
X188253845Y-59900499D01*
X188408497Y-59869737D01*
X188554179Y-59809394D01*
X188685289Y-59721789D01*
X188796789Y-59610289D01*
X188884394Y-59479179D01*
X188944737Y-59333497D01*
X188975500Y-59178842D01*
X188975500Y-59021158D01*
X188975500Y-59021155D01*
X188975499Y-59021153D01*
X188944738Y-58866510D01*
X188944737Y-58866503D01*
X188944735Y-58866498D01*
X188884397Y-58720827D01*
X188884390Y-58720814D01*
X188812178Y-58612742D01*
X188812177Y-58612740D01*
X188796792Y-58589715D01*
X188796786Y-58589707D01*
X188754234Y-58547155D01*
X199050000Y-58547155D01*
X199050000Y-59600000D01*
X199800000Y-59600000D01*
X200300000Y-59600000D01*
X201050000Y-59600000D01*
X201050000Y-58547172D01*
X201049999Y-58547155D01*
X201043598Y-58487627D01*
X201043596Y-58487620D01*
X200993354Y-58352913D01*
X200993350Y-58352906D01*
X200907190Y-58237812D01*
X200907187Y-58237809D01*
X200792093Y-58151649D01*
X200792086Y-58151645D01*
X200657379Y-58101403D01*
X200657372Y-58101401D01*
X200597844Y-58095000D01*
X200300000Y-58095000D01*
X200300000Y-59600000D01*
X199800000Y-59600000D01*
X199800000Y-58095000D01*
X199502155Y-58095000D01*
X199442627Y-58101401D01*
X199442620Y-58101403D01*
X199307913Y-58151645D01*
X199307906Y-58151649D01*
X199192812Y-58237809D01*
X199192809Y-58237812D01*
X199106649Y-58352906D01*
X199106645Y-58352913D01*
X199056403Y-58487620D01*
X199056401Y-58487627D01*
X199050000Y-58547155D01*
X188754234Y-58547155D01*
X188685292Y-58478213D01*
X188685288Y-58478210D01*
X188554185Y-58390609D01*
X188554172Y-58390602D01*
X188408501Y-58330264D01*
X188408489Y-58330261D01*
X188253845Y-58299500D01*
X188253842Y-58299500D01*
X188096158Y-58299500D01*
X188096155Y-58299500D01*
X187941510Y-58330261D01*
X187941498Y-58330264D01*
X187795827Y-58390602D01*
X187795814Y-58390609D01*
X187664125Y-58478602D01*
X187597447Y-58499480D01*
X187595234Y-58499500D01*
X186220940Y-58499500D01*
X186180019Y-58510464D01*
X186180019Y-58510465D01*
X186068216Y-58540423D01*
X186068214Y-58540424D01*
X186060366Y-58542527D01*
X186060180Y-58541834D01*
X186021637Y-58549500D01*
X185971155Y-58549500D01*
X185816510Y-58580261D01*
X185816498Y-58580264D01*
X185670827Y-58640602D01*
X185670814Y-58640609D01*
X185539711Y-58728210D01*
X185539707Y-58728213D01*
X185428213Y-58839707D01*
X185428210Y-58839711D01*
X185340609Y-58970814D01*
X185340602Y-58970827D01*
X185280264Y-59116498D01*
X185280261Y-59116510D01*
X185249500Y-59271153D01*
X171102970Y-59271153D01*
X171441576Y-58833175D01*
X171446901Y-58826750D01*
X173221457Y-56828076D01*
X173229139Y-56820166D01*
X174971799Y-55178711D01*
X178649500Y-55178711D01*
X178649500Y-55421288D01*
X178681161Y-55661785D01*
X178743947Y-55896104D01*
X178825659Y-56093373D01*
X178836776Y-56120212D01*
X178958064Y-56330289D01*
X178958066Y-56330292D01*
X178958067Y-56330293D01*
X179105733Y-56522736D01*
X179105739Y-56522743D01*
X179277256Y-56694260D01*
X179277262Y-56694265D01*
X179469711Y-56841936D01*
X179679788Y-56963224D01*
X179903900Y-57056054D01*
X180138211Y-57118838D01*
X180318586Y-57142584D01*
X180378711Y-57150500D01*
X180378712Y-57150500D01*
X180621289Y-57150500D01*
X180669388Y-57144167D01*
X180861789Y-57118838D01*
X181096100Y-57056054D01*
X181320212Y-56963224D01*
X181530289Y-56841936D01*
X181722738Y-56694265D01*
X181722743Y-56694260D01*
X181861047Y-56555957D01*
X181894260Y-56522743D01*
X181894265Y-56522738D01*
X182041936Y-56330289D01*
X182163224Y-56120212D01*
X182256054Y-55896100D01*
X182282741Y-55796504D01*
X184655000Y-55796504D01*
X184655000Y-56195000D01*
X185355000Y-56195000D01*
X185355000Y-56695000D01*
X184655000Y-56695000D01*
X184655000Y-57093495D01*
X184693427Y-57286681D01*
X184693430Y-57286693D01*
X184768807Y-57468671D01*
X184768814Y-57468684D01*
X184878248Y-57632462D01*
X184878251Y-57632466D01*
X185017533Y-57771748D01*
X185017537Y-57771751D01*
X185181315Y-57881185D01*
X185181328Y-57881192D01*
X185363308Y-57956569D01*
X185405000Y-57964862D01*
X185405000Y-57161988D01*
X185414940Y-57179205D01*
X185470795Y-57235060D01*
X185539204Y-57274556D01*
X185615504Y-57295000D01*
X185694496Y-57295000D01*
X185770796Y-57274556D01*
X185839205Y-57235060D01*
X185895060Y-57179205D01*
X185905000Y-57161988D01*
X185905000Y-57964862D01*
X185946690Y-57956569D01*
X185946692Y-57956569D01*
X186128671Y-57881192D01*
X186128684Y-57881185D01*
X186292462Y-57771751D01*
X186292466Y-57771748D01*
X186431748Y-57632466D01*
X186431751Y-57632462D01*
X186541185Y-57468684D01*
X186541192Y-57468671D01*
X186616569Y-57286693D01*
X186616572Y-57286681D01*
X186654999Y-57093495D01*
X186655000Y-57093492D01*
X186655000Y-56695000D01*
X185955000Y-56695000D01*
X185955000Y-56195000D01*
X186493216Y-56195000D01*
X186560255Y-56214685D01*
X186600602Y-56256999D01*
X186624485Y-56298365D01*
X186731635Y-56405515D01*
X186862865Y-56481281D01*
X187009234Y-56520500D01*
X187009236Y-56520500D01*
X187160764Y-56520500D01*
X187160766Y-56520500D01*
X187307135Y-56481281D01*
X187438365Y-56405515D01*
X187545515Y-56298365D01*
X187621281Y-56167135D01*
X187660500Y-56020766D01*
X187660500Y-55869234D01*
X192289500Y-55869234D01*
X192289500Y-56020766D01*
X192305622Y-56080933D01*
X192328719Y-56167136D01*
X192333271Y-56175020D01*
X192404485Y-56298365D01*
X192511635Y-56405515D01*
X192642865Y-56481281D01*
X192789234Y-56520500D01*
X192789236Y-56520500D01*
X192940763Y-56520500D01*
X192940766Y-56520500D01*
X193087135Y-56481281D01*
X193218365Y-56405515D01*
X193325515Y-56298365D01*
X193349397Y-56256999D01*
X193399964Y-56208784D01*
X193456784Y-56195000D01*
X193995000Y-56195000D01*
X193995000Y-56695000D01*
X193295000Y-56695000D01*
X193295000Y-57093495D01*
X193333427Y-57286681D01*
X193333430Y-57286693D01*
X193408807Y-57468671D01*
X193408814Y-57468684D01*
X193518248Y-57632462D01*
X193518251Y-57632466D01*
X193657533Y-57771748D01*
X193657537Y-57771751D01*
X193821315Y-57881185D01*
X193821328Y-57881192D01*
X194003308Y-57956569D01*
X194045000Y-57964862D01*
X194045000Y-57161988D01*
X194054940Y-57179205D01*
X194110795Y-57235060D01*
X194179204Y-57274556D01*
X194255504Y-57295000D01*
X194334496Y-57295000D01*
X194410796Y-57274556D01*
X194479205Y-57235060D01*
X194535060Y-57179205D01*
X194545000Y-57161988D01*
X194545000Y-57964862D01*
X194586690Y-57956569D01*
X194586692Y-57956569D01*
X194768671Y-57881192D01*
X194768684Y-57881185D01*
X194932462Y-57771751D01*
X194932466Y-57771748D01*
X195071748Y-57632466D01*
X195071751Y-57632462D01*
X195181185Y-57468684D01*
X195181192Y-57468671D01*
X195256569Y-57286693D01*
X195256572Y-57286681D01*
X195294999Y-57093495D01*
X195295000Y-57093492D01*
X195295000Y-56695000D01*
X194595000Y-56695000D01*
X194595000Y-56195000D01*
X195295000Y-56195000D01*
X195295000Y-55796508D01*
X195294999Y-55796504D01*
X195256572Y-55603318D01*
X195256569Y-55603306D01*
X195181192Y-55421328D01*
X195181185Y-55421315D01*
X195071751Y-55257537D01*
X195071748Y-55257533D01*
X194932466Y-55118251D01*
X194932462Y-55118248D01*
X194768684Y-55008814D01*
X194768671Y-55008807D01*
X194586691Y-54933429D01*
X194586683Y-54933427D01*
X194545000Y-54925135D01*
X194545000Y-55728011D01*
X194535060Y-55710795D01*
X194479205Y-55654940D01*
X194410796Y-55615444D01*
X194334496Y-55595000D01*
X194255504Y-55595000D01*
X194179204Y-55615444D01*
X194110795Y-55654940D01*
X194054940Y-55710795D01*
X194045000Y-55728011D01*
X194045000Y-54925136D01*
X194044999Y-54925135D01*
X194003316Y-54933427D01*
X194003308Y-54933429D01*
X193821328Y-55008807D01*
X193821315Y-55008814D01*
X193657537Y-55118248D01*
X193657533Y-55118251D01*
X193518251Y-55257533D01*
X193518248Y-55257537D01*
X193408814Y-55421315D01*
X193408809Y-55421324D01*
X193404866Y-55430845D01*
X193361023Y-55485247D01*
X193294728Y-55507310D01*
X193227030Y-55490029D01*
X193221597Y-55486351D01*
X193087136Y-55408719D01*
X193013950Y-55389109D01*
X192940766Y-55369500D01*
X192789234Y-55369500D01*
X192642863Y-55408719D01*
X192511635Y-55484485D01*
X192511632Y-55484487D01*
X192404487Y-55591632D01*
X192404485Y-55591635D01*
X192328719Y-55722863D01*
X192293179Y-55855504D01*
X192289500Y-55869234D01*
X187660500Y-55869234D01*
X187621281Y-55722865D01*
X187545515Y-55591635D01*
X187438365Y-55484485D01*
X187368406Y-55444094D01*
X187307136Y-55408719D01*
X187233950Y-55389109D01*
X187160766Y-55369500D01*
X187009234Y-55369500D01*
X186862863Y-55408719D01*
X186771428Y-55461510D01*
X186731635Y-55484485D01*
X186731633Y-55484486D01*
X186724597Y-55488549D01*
X186723327Y-55486349D01*
X186669995Y-55506960D01*
X186601552Y-55492914D01*
X186551568Y-55444094D01*
X186545131Y-55430838D01*
X186541192Y-55421328D01*
X186541185Y-55421315D01*
X186431751Y-55257537D01*
X186431748Y-55257533D01*
X186292466Y-55118251D01*
X186292462Y-55118248D01*
X186128684Y-55008814D01*
X186128671Y-55008807D01*
X185946691Y-54933429D01*
X185946683Y-54933427D01*
X185905000Y-54925135D01*
X185905000Y-55728011D01*
X185895060Y-55710795D01*
X185839205Y-55654940D01*
X185770796Y-55615444D01*
X185694496Y-55595000D01*
X185615504Y-55595000D01*
X185539204Y-55615444D01*
X185470795Y-55654940D01*
X185414940Y-55710795D01*
X185405000Y-55728011D01*
X185405000Y-54925136D01*
X185404999Y-54925135D01*
X185363316Y-54933427D01*
X185363308Y-54933429D01*
X185181328Y-55008807D01*
X185181315Y-55008814D01*
X185017537Y-55118248D01*
X185017533Y-55118251D01*
X184878251Y-55257533D01*
X184878248Y-55257537D01*
X184768814Y-55421315D01*
X184768807Y-55421328D01*
X184693430Y-55603306D01*
X184693427Y-55603318D01*
X184655000Y-55796504D01*
X182282741Y-55796504D01*
X182318838Y-55661789D01*
X182350500Y-55421288D01*
X182350500Y-55178712D01*
X182318838Y-54938211D01*
X182256054Y-54703900D01*
X182163224Y-54479788D01*
X182041936Y-54269711D01*
X181894265Y-54077262D01*
X181894260Y-54077256D01*
X181722743Y-53905739D01*
X181722736Y-53905733D01*
X181530293Y-53758067D01*
X181530292Y-53758066D01*
X181530289Y-53758064D01*
X181320212Y-53636776D01*
X181301326Y-53628953D01*
X181096104Y-53543947D01*
X180861785Y-53481161D01*
X180621289Y-53449500D01*
X180621288Y-53449500D01*
X180378712Y-53449500D01*
X180378711Y-53449500D01*
X180138214Y-53481161D01*
X179903895Y-53543947D01*
X179679794Y-53636773D01*
X179679785Y-53636777D01*
X179469706Y-53758067D01*
X179277263Y-53905733D01*
X179277256Y-53905739D01*
X179105739Y-54077256D01*
X179105733Y-54077263D01*
X178958067Y-54269706D01*
X178836777Y-54479785D01*
X178836773Y-54479794D01*
X178743947Y-54703895D01*
X178681161Y-54938214D01*
X178649500Y-55178711D01*
X174971799Y-55178711D01*
X175003107Y-55149221D01*
X175011100Y-55142313D01*
X176749838Y-53765172D01*
X176757942Y-53759271D01*
X178421932Y-52647826D01*
X178429862Y-52642951D01*
X179807165Y-51866504D01*
X184655000Y-51866504D01*
X184655000Y-52015000D01*
X185355000Y-52015000D01*
X185355000Y-52515000D01*
X184655000Y-52515000D01*
X184655000Y-52663495D01*
X184693427Y-52856681D01*
X184693430Y-52856693D01*
X184768807Y-53038671D01*
X184768814Y-53038684D01*
X184878248Y-53202462D01*
X184878251Y-53202466D01*
X185017533Y-53341748D01*
X185017537Y-53341751D01*
X185181315Y-53451185D01*
X185181328Y-53451192D01*
X185363308Y-53526569D01*
X185405000Y-53534862D01*
X185405000Y-52731988D01*
X185414940Y-52749205D01*
X185470795Y-52805060D01*
X185539204Y-52844556D01*
X185615504Y-52865000D01*
X185694496Y-52865000D01*
X185770796Y-52844556D01*
X185839205Y-52805060D01*
X185895060Y-52749205D01*
X185905000Y-52731988D01*
X185905000Y-53534862D01*
X185946690Y-53526569D01*
X185946692Y-53526569D01*
X186128671Y-53451192D01*
X186128684Y-53451185D01*
X186292462Y-53341751D01*
X186292466Y-53341748D01*
X186431748Y-53202466D01*
X186431751Y-53202462D01*
X186541185Y-53038684D01*
X186541192Y-53038671D01*
X186616569Y-52856693D01*
X186616572Y-52856681D01*
X186654999Y-52663495D01*
X186655000Y-52663492D01*
X186655000Y-52515000D01*
X185955000Y-52515000D01*
X185955000Y-52015000D01*
X186655000Y-52015000D01*
X186655000Y-51866508D01*
X186654999Y-51866504D01*
X193295000Y-51866504D01*
X193295000Y-52015000D01*
X193995000Y-52015000D01*
X193995000Y-52515000D01*
X193295000Y-52515000D01*
X193295000Y-52663495D01*
X193333427Y-52856681D01*
X193333430Y-52856693D01*
X193408807Y-53038671D01*
X193408814Y-53038684D01*
X193518248Y-53202462D01*
X193518251Y-53202466D01*
X193657533Y-53341748D01*
X193657537Y-53341751D01*
X193821315Y-53451185D01*
X193821328Y-53451192D01*
X194003308Y-53526569D01*
X194045000Y-53534862D01*
X194045000Y-52731988D01*
X194054940Y-52749205D01*
X194110795Y-52805060D01*
X194179204Y-52844556D01*
X194255504Y-52865000D01*
X194334496Y-52865000D01*
X194410796Y-52844556D01*
X194479205Y-52805060D01*
X194535060Y-52749205D01*
X194545000Y-52731988D01*
X194545000Y-53534862D01*
X194586690Y-53526569D01*
X194586692Y-53526569D01*
X194768671Y-53451192D01*
X194768684Y-53451185D01*
X194932462Y-53341751D01*
X194932466Y-53341748D01*
X195071748Y-53202466D01*
X195071751Y-53202462D01*
X195181185Y-53038684D01*
X195181192Y-53038671D01*
X195256569Y-52856693D01*
X195256572Y-52856681D01*
X195294999Y-52663495D01*
X195295000Y-52663492D01*
X195295000Y-52515000D01*
X194595000Y-52515000D01*
X194595000Y-52015000D01*
X195295000Y-52015000D01*
X195295000Y-51866508D01*
X195294999Y-51866504D01*
X195256572Y-51673318D01*
X195256569Y-51673306D01*
X195181192Y-51491328D01*
X195181185Y-51491315D01*
X195071751Y-51327537D01*
X195071748Y-51327533D01*
X194932466Y-51188251D01*
X194932462Y-51188248D01*
X194768684Y-51078814D01*
X194768671Y-51078807D01*
X194586691Y-51003429D01*
X194586683Y-51003427D01*
X194545000Y-50995135D01*
X194545000Y-51798011D01*
X194535060Y-51780795D01*
X194479205Y-51724940D01*
X194410796Y-51685444D01*
X194334496Y-51665000D01*
X194255504Y-51665000D01*
X194179204Y-51685444D01*
X194110795Y-51724940D01*
X194054940Y-51780795D01*
X194045000Y-51798011D01*
X194045000Y-50995136D01*
X194044999Y-50995135D01*
X194003316Y-51003427D01*
X194003308Y-51003429D01*
X193821328Y-51078807D01*
X193821315Y-51078814D01*
X193657537Y-51188248D01*
X193657533Y-51188251D01*
X193518251Y-51327533D01*
X193518248Y-51327537D01*
X193408814Y-51491315D01*
X193408807Y-51491328D01*
X193333430Y-51673306D01*
X193333427Y-51673318D01*
X193295000Y-51866504D01*
X186654999Y-51866504D01*
X186616572Y-51673318D01*
X186616569Y-51673306D01*
X186541192Y-51491328D01*
X186541185Y-51491315D01*
X186431751Y-51327537D01*
X186431748Y-51327533D01*
X186292466Y-51188251D01*
X186292462Y-51188248D01*
X186128684Y-51078814D01*
X186128671Y-51078807D01*
X185946691Y-51003429D01*
X185946683Y-51003427D01*
X185905000Y-50995135D01*
X185905000Y-51798011D01*
X185895060Y-51780795D01*
X185839205Y-51724940D01*
X185770796Y-51685444D01*
X185694496Y-51665000D01*
X185615504Y-51665000D01*
X185539204Y-51685444D01*
X185470795Y-51724940D01*
X185414940Y-51780795D01*
X185405000Y-51798011D01*
X185405000Y-50995136D01*
X185404999Y-50995135D01*
X185363316Y-51003427D01*
X185363308Y-51003429D01*
X185181328Y-51078807D01*
X185181315Y-51078814D01*
X185017537Y-51188248D01*
X185017533Y-51188251D01*
X184878251Y-51327533D01*
X184878248Y-51327537D01*
X184768814Y-51491315D01*
X184768807Y-51491328D01*
X184693430Y-51673306D01*
X184693427Y-51673318D01*
X184655000Y-51866504D01*
X179807165Y-51866504D01*
X179979316Y-51769455D01*
X179986943Y-51765498D01*
X181381975Y-51102342D01*
X181389113Y-51099221D01*
X182584193Y-50621093D01*
X182592974Y-50617959D01*
X184194687Y-50113573D01*
X184231918Y-50107849D01*
X195882054Y-50107835D01*
X195913590Y-50111912D01*
G37*
%TD.AperFunction*%
%TD*%
M02*
