%TF.GenerationSoftware,KiCad,Pcbnew,9.0.0*%
%TF.CreationDate,2026-01-25T00:23:47-05:00*%
%TF.ProjectId,hackapet_v4,6861636b-6170-4657-945f-76342e6b6963,rev?*%
%TF.SameCoordinates,Original*%
%TF.FileFunction,Legend,Bot*%
%TF.FilePolarity,Positive*%
%FSLAX46Y46*%
G04 Gerber Fmt 4.6, Leading zero omitted, Abs format (unit mm)*
G04 Created by KiCad (PCBNEW 9.0.0) date 2026-01-25 00:23:47*
%MOMM*%
%LPD*%
G01*
G04 APERTURE LIST*
%ADD10C,0.050000*%
%ADD11C,0.100000*%
%ADD12C,0.150000*%
%ADD13C,0.120000*%
G04 APERTURE END LIST*
D10*
X184816209Y-93361941D02*
X184316209Y-93361941D01*
X184316209Y-93695274D02*
X184316209Y-93790512D01*
X184316209Y-93790512D02*
X184340019Y-93838131D01*
X184340019Y-93838131D02*
X184387638Y-93885750D01*
X184387638Y-93885750D02*
X184482876Y-93909560D01*
X184482876Y-93909560D02*
X184649542Y-93909560D01*
X184649542Y-93909560D02*
X184744780Y-93885750D01*
X184744780Y-93885750D02*
X184792400Y-93838131D01*
X184792400Y-93838131D02*
X184816209Y-93790512D01*
X184816209Y-93790512D02*
X184816209Y-93695274D01*
X184816209Y-93695274D02*
X184792400Y-93647655D01*
X184792400Y-93647655D02*
X184744780Y-93600036D01*
X184744780Y-93600036D02*
X184649542Y-93576227D01*
X184649542Y-93576227D02*
X184482876Y-93576227D01*
X184482876Y-93576227D02*
X184387638Y-93600036D01*
X184387638Y-93600036D02*
X184340019Y-93647655D01*
X184340019Y-93647655D02*
X184316209Y-93695274D01*
X184316209Y-94076227D02*
X184316209Y-94385751D01*
X184316209Y-94385751D02*
X184506685Y-94219084D01*
X184506685Y-94219084D02*
X184506685Y-94290513D01*
X184506685Y-94290513D02*
X184530495Y-94338132D01*
X184530495Y-94338132D02*
X184554304Y-94361941D01*
X184554304Y-94361941D02*
X184601923Y-94385751D01*
X184601923Y-94385751D02*
X184720971Y-94385751D01*
X184720971Y-94385751D02*
X184768590Y-94361941D01*
X184768590Y-94361941D02*
X184792400Y-94338132D01*
X184792400Y-94338132D02*
X184816209Y-94290513D01*
X184816209Y-94290513D02*
X184816209Y-94147656D01*
X184816209Y-94147656D02*
X184792400Y-94100037D01*
X184792400Y-94100037D02*
X184768590Y-94076227D01*
X184482876Y-94814322D02*
X184816209Y-94814322D01*
X184292400Y-94695274D02*
X184649542Y-94576227D01*
X184649542Y-94576227D02*
X184649542Y-94885750D01*
X212036153Y-71310019D02*
X212083772Y-71286209D01*
X212083772Y-71286209D02*
X212155201Y-71286209D01*
X212155201Y-71286209D02*
X212226629Y-71310019D01*
X212226629Y-71310019D02*
X212274248Y-71357638D01*
X212274248Y-71357638D02*
X212298058Y-71405257D01*
X212298058Y-71405257D02*
X212321867Y-71500495D01*
X212321867Y-71500495D02*
X212321867Y-71571923D01*
X212321867Y-71571923D02*
X212298058Y-71667161D01*
X212298058Y-71667161D02*
X212274248Y-71714780D01*
X212274248Y-71714780D02*
X212226629Y-71762400D01*
X212226629Y-71762400D02*
X212155201Y-71786209D01*
X212155201Y-71786209D02*
X212107582Y-71786209D01*
X212107582Y-71786209D02*
X212036153Y-71762400D01*
X212036153Y-71762400D02*
X212012344Y-71738590D01*
X212012344Y-71738590D02*
X212012344Y-71571923D01*
X212012344Y-71571923D02*
X212107582Y-71571923D01*
X211798058Y-71786209D02*
X211798058Y-71286209D01*
X211798058Y-71286209D02*
X211512344Y-71786209D01*
X211512344Y-71786209D02*
X211512344Y-71286209D01*
X211274248Y-71786209D02*
X211274248Y-71286209D01*
X211274248Y-71286209D02*
X211155200Y-71286209D01*
X211155200Y-71286209D02*
X211083772Y-71310019D01*
X211083772Y-71310019D02*
X211036153Y-71357638D01*
X211036153Y-71357638D02*
X211012343Y-71405257D01*
X211012343Y-71405257D02*
X210988534Y-71500495D01*
X210988534Y-71500495D02*
X210988534Y-71571923D01*
X210988534Y-71571923D02*
X211012343Y-71667161D01*
X211012343Y-71667161D02*
X211036153Y-71714780D01*
X211036153Y-71714780D02*
X211083772Y-71762400D01*
X211083772Y-71762400D02*
X211155200Y-71786209D01*
X211155200Y-71786209D02*
X211274248Y-71786209D01*
X182221209Y-101006941D02*
X181721209Y-101006941D01*
X181721209Y-101340274D02*
X181721209Y-101435512D01*
X181721209Y-101435512D02*
X181745019Y-101483131D01*
X181745019Y-101483131D02*
X181792638Y-101530750D01*
X181792638Y-101530750D02*
X181887876Y-101554560D01*
X181887876Y-101554560D02*
X182054542Y-101554560D01*
X182054542Y-101554560D02*
X182149780Y-101530750D01*
X182149780Y-101530750D02*
X182197400Y-101483131D01*
X182197400Y-101483131D02*
X182221209Y-101435512D01*
X182221209Y-101435512D02*
X182221209Y-101340274D01*
X182221209Y-101340274D02*
X182197400Y-101292655D01*
X182197400Y-101292655D02*
X182149780Y-101245036D01*
X182149780Y-101245036D02*
X182054542Y-101221227D01*
X182054542Y-101221227D02*
X181887876Y-101221227D01*
X181887876Y-101221227D02*
X181792638Y-101245036D01*
X181792638Y-101245036D02*
X181745019Y-101292655D01*
X181745019Y-101292655D02*
X181721209Y-101340274D01*
X181721209Y-101721227D02*
X181721209Y-102030751D01*
X181721209Y-102030751D02*
X181911685Y-101864084D01*
X181911685Y-101864084D02*
X181911685Y-101935513D01*
X181911685Y-101935513D02*
X181935495Y-101983132D01*
X181935495Y-101983132D02*
X181959304Y-102006941D01*
X181959304Y-102006941D02*
X182006923Y-102030751D01*
X182006923Y-102030751D02*
X182125971Y-102030751D01*
X182125971Y-102030751D02*
X182173590Y-102006941D01*
X182173590Y-102006941D02*
X182197400Y-101983132D01*
X182197400Y-101983132D02*
X182221209Y-101935513D01*
X182221209Y-101935513D02*
X182221209Y-101792656D01*
X182221209Y-101792656D02*
X182197400Y-101745037D01*
X182197400Y-101745037D02*
X182173590Y-101721227D01*
X181721209Y-102197417D02*
X181721209Y-102530750D01*
X181721209Y-102530750D02*
X182221209Y-102316465D01*
X203798058Y-71595733D02*
X203417106Y-71595733D01*
X203607582Y-71786209D02*
X203607582Y-71405257D01*
X203226629Y-71286209D02*
X202917105Y-71286209D01*
X202917105Y-71286209D02*
X203083772Y-71476685D01*
X203083772Y-71476685D02*
X203012343Y-71476685D01*
X203012343Y-71476685D02*
X202964724Y-71500495D01*
X202964724Y-71500495D02*
X202940915Y-71524304D01*
X202940915Y-71524304D02*
X202917105Y-71571923D01*
X202917105Y-71571923D02*
X202917105Y-71690971D01*
X202917105Y-71690971D02*
X202940915Y-71738590D01*
X202940915Y-71738590D02*
X202964724Y-71762400D01*
X202964724Y-71762400D02*
X203012343Y-71786209D01*
X203012343Y-71786209D02*
X203155200Y-71786209D01*
X203155200Y-71786209D02*
X203202819Y-71762400D01*
X203202819Y-71762400D02*
X203226629Y-71738590D01*
X202774248Y-71286209D02*
X202607582Y-71786209D01*
X202607582Y-71786209D02*
X202440915Y-71286209D01*
X202321868Y-71286209D02*
X202012344Y-71286209D01*
X202012344Y-71286209D02*
X202179011Y-71476685D01*
X202179011Y-71476685D02*
X202107582Y-71476685D01*
X202107582Y-71476685D02*
X202059963Y-71500495D01*
X202059963Y-71500495D02*
X202036154Y-71524304D01*
X202036154Y-71524304D02*
X202012344Y-71571923D01*
X202012344Y-71571923D02*
X202012344Y-71690971D01*
X202012344Y-71690971D02*
X202036154Y-71738590D01*
X202036154Y-71738590D02*
X202059963Y-71762400D01*
X202059963Y-71762400D02*
X202107582Y-71786209D01*
X202107582Y-71786209D02*
X202250439Y-71786209D01*
X202250439Y-71786209D02*
X202298058Y-71762400D01*
X202298058Y-71762400D02*
X202321868Y-71738590D01*
X179385733Y-101011941D02*
X179385733Y-101392894D01*
X179576209Y-101202417D02*
X179195257Y-101202417D01*
X179076209Y-101583370D02*
X179076209Y-101892894D01*
X179076209Y-101892894D02*
X179266685Y-101726227D01*
X179266685Y-101726227D02*
X179266685Y-101797656D01*
X179266685Y-101797656D02*
X179290495Y-101845275D01*
X179290495Y-101845275D02*
X179314304Y-101869084D01*
X179314304Y-101869084D02*
X179361923Y-101892894D01*
X179361923Y-101892894D02*
X179480971Y-101892894D01*
X179480971Y-101892894D02*
X179528590Y-101869084D01*
X179528590Y-101869084D02*
X179552400Y-101845275D01*
X179552400Y-101845275D02*
X179576209Y-101797656D01*
X179576209Y-101797656D02*
X179576209Y-101654799D01*
X179576209Y-101654799D02*
X179552400Y-101607180D01*
X179552400Y-101607180D02*
X179528590Y-101583370D01*
X179076209Y-102035751D02*
X179576209Y-102202417D01*
X179576209Y-102202417D02*
X179076209Y-102369084D01*
X179076209Y-102488131D02*
X179076209Y-102797655D01*
X179076209Y-102797655D02*
X179266685Y-102630988D01*
X179266685Y-102630988D02*
X179266685Y-102702417D01*
X179266685Y-102702417D02*
X179290495Y-102750036D01*
X179290495Y-102750036D02*
X179314304Y-102773845D01*
X179314304Y-102773845D02*
X179361923Y-102797655D01*
X179361923Y-102797655D02*
X179480971Y-102797655D01*
X179480971Y-102797655D02*
X179528590Y-102773845D01*
X179528590Y-102773845D02*
X179552400Y-102750036D01*
X179552400Y-102750036D02*
X179576209Y-102702417D01*
X179576209Y-102702417D02*
X179576209Y-102559560D01*
X179576209Y-102559560D02*
X179552400Y-102511941D01*
X179552400Y-102511941D02*
X179528590Y-102488131D01*
X179726209Y-93271941D02*
X179226209Y-93271941D01*
X179226209Y-93605274D02*
X179226209Y-93700512D01*
X179226209Y-93700512D02*
X179250019Y-93748131D01*
X179250019Y-93748131D02*
X179297638Y-93795750D01*
X179297638Y-93795750D02*
X179392876Y-93819560D01*
X179392876Y-93819560D02*
X179559542Y-93819560D01*
X179559542Y-93819560D02*
X179654780Y-93795750D01*
X179654780Y-93795750D02*
X179702400Y-93748131D01*
X179702400Y-93748131D02*
X179726209Y-93700512D01*
X179726209Y-93700512D02*
X179726209Y-93605274D01*
X179726209Y-93605274D02*
X179702400Y-93557655D01*
X179702400Y-93557655D02*
X179654780Y-93510036D01*
X179654780Y-93510036D02*
X179559542Y-93486227D01*
X179559542Y-93486227D02*
X179392876Y-93486227D01*
X179392876Y-93486227D02*
X179297638Y-93510036D01*
X179297638Y-93510036D02*
X179250019Y-93557655D01*
X179250019Y-93557655D02*
X179226209Y-93605274D01*
X179226209Y-93986227D02*
X179226209Y-94295751D01*
X179226209Y-94295751D02*
X179416685Y-94129084D01*
X179416685Y-94129084D02*
X179416685Y-94200513D01*
X179416685Y-94200513D02*
X179440495Y-94248132D01*
X179440495Y-94248132D02*
X179464304Y-94271941D01*
X179464304Y-94271941D02*
X179511923Y-94295751D01*
X179511923Y-94295751D02*
X179630971Y-94295751D01*
X179630971Y-94295751D02*
X179678590Y-94271941D01*
X179678590Y-94271941D02*
X179702400Y-94248132D01*
X179702400Y-94248132D02*
X179726209Y-94200513D01*
X179726209Y-94200513D02*
X179726209Y-94057656D01*
X179726209Y-94057656D02*
X179702400Y-94010037D01*
X179702400Y-94010037D02*
X179678590Y-93986227D01*
X179440495Y-94581465D02*
X179416685Y-94533846D01*
X179416685Y-94533846D02*
X179392876Y-94510036D01*
X179392876Y-94510036D02*
X179345257Y-94486227D01*
X179345257Y-94486227D02*
X179321447Y-94486227D01*
X179321447Y-94486227D02*
X179273828Y-94510036D01*
X179273828Y-94510036D02*
X179250019Y-94533846D01*
X179250019Y-94533846D02*
X179226209Y-94581465D01*
X179226209Y-94581465D02*
X179226209Y-94676703D01*
X179226209Y-94676703D02*
X179250019Y-94724322D01*
X179250019Y-94724322D02*
X179273828Y-94748131D01*
X179273828Y-94748131D02*
X179321447Y-94771941D01*
X179321447Y-94771941D02*
X179345257Y-94771941D01*
X179345257Y-94771941D02*
X179392876Y-94748131D01*
X179392876Y-94748131D02*
X179416685Y-94724322D01*
X179416685Y-94724322D02*
X179440495Y-94676703D01*
X179440495Y-94676703D02*
X179440495Y-94581465D01*
X179440495Y-94581465D02*
X179464304Y-94533846D01*
X179464304Y-94533846D02*
X179488114Y-94510036D01*
X179488114Y-94510036D02*
X179535733Y-94486227D01*
X179535733Y-94486227D02*
X179630971Y-94486227D01*
X179630971Y-94486227D02*
X179678590Y-94510036D01*
X179678590Y-94510036D02*
X179702400Y-94533846D01*
X179702400Y-94533846D02*
X179726209Y-94581465D01*
X179726209Y-94581465D02*
X179726209Y-94676703D01*
X179726209Y-94676703D02*
X179702400Y-94724322D01*
X179702400Y-94724322D02*
X179678590Y-94748131D01*
X179678590Y-94748131D02*
X179630971Y-94771941D01*
X179630971Y-94771941D02*
X179535733Y-94771941D01*
X179535733Y-94771941D02*
X179488114Y-94748131D01*
X179488114Y-94748131D02*
X179464304Y-94724322D01*
X179464304Y-94724322D02*
X179440495Y-94676703D01*
X176650019Y-101348846D02*
X176626209Y-101301227D01*
X176626209Y-101301227D02*
X176626209Y-101229798D01*
X176626209Y-101229798D02*
X176650019Y-101158370D01*
X176650019Y-101158370D02*
X176697638Y-101110751D01*
X176697638Y-101110751D02*
X176745257Y-101086941D01*
X176745257Y-101086941D02*
X176840495Y-101063132D01*
X176840495Y-101063132D02*
X176911923Y-101063132D01*
X176911923Y-101063132D02*
X177007161Y-101086941D01*
X177007161Y-101086941D02*
X177054780Y-101110751D01*
X177054780Y-101110751D02*
X177102400Y-101158370D01*
X177102400Y-101158370D02*
X177126209Y-101229798D01*
X177126209Y-101229798D02*
X177126209Y-101277417D01*
X177126209Y-101277417D02*
X177102400Y-101348846D01*
X177102400Y-101348846D02*
X177078590Y-101372655D01*
X177078590Y-101372655D02*
X176911923Y-101372655D01*
X176911923Y-101372655D02*
X176911923Y-101277417D01*
X177126209Y-101586941D02*
X176626209Y-101586941D01*
X176626209Y-101586941D02*
X177126209Y-101872655D01*
X177126209Y-101872655D02*
X176626209Y-101872655D01*
X177126209Y-102110751D02*
X176626209Y-102110751D01*
X176626209Y-102110751D02*
X176626209Y-102229799D01*
X176626209Y-102229799D02*
X176650019Y-102301227D01*
X176650019Y-102301227D02*
X176697638Y-102348846D01*
X176697638Y-102348846D02*
X176745257Y-102372656D01*
X176745257Y-102372656D02*
X176840495Y-102396465D01*
X176840495Y-102396465D02*
X176911923Y-102396465D01*
X176911923Y-102396465D02*
X177007161Y-102372656D01*
X177007161Y-102372656D02*
X177054780Y-102348846D01*
X177054780Y-102348846D02*
X177102400Y-102301227D01*
X177102400Y-102301227D02*
X177126209Y-102229799D01*
X177126209Y-102229799D02*
X177126209Y-102110751D01*
D11*
X209088095Y-70113561D02*
X209088095Y-70913561D01*
X209088095Y-70151657D02*
X209011905Y-70113561D01*
X209011905Y-70113561D02*
X208859524Y-70113561D01*
X208859524Y-70113561D02*
X208783333Y-70151657D01*
X208783333Y-70151657D02*
X208745238Y-70189752D01*
X208745238Y-70189752D02*
X208707143Y-70265942D01*
X208707143Y-70265942D02*
X208707143Y-70494514D01*
X208707143Y-70494514D02*
X208745238Y-70570704D01*
X208745238Y-70570704D02*
X208783333Y-70608800D01*
X208783333Y-70608800D02*
X208859524Y-70646895D01*
X208859524Y-70646895D02*
X209011905Y-70646895D01*
X209011905Y-70646895D02*
X209088095Y-70608800D01*
X208402381Y-70608800D02*
X208326190Y-70646895D01*
X208326190Y-70646895D02*
X208173809Y-70646895D01*
X208173809Y-70646895D02*
X208097619Y-70608800D01*
X208097619Y-70608800D02*
X208059523Y-70532609D01*
X208059523Y-70532609D02*
X208059523Y-70494514D01*
X208059523Y-70494514D02*
X208097619Y-70418323D01*
X208097619Y-70418323D02*
X208173809Y-70380228D01*
X208173809Y-70380228D02*
X208288095Y-70380228D01*
X208288095Y-70380228D02*
X208364285Y-70342133D01*
X208364285Y-70342133D02*
X208402381Y-70265942D01*
X208402381Y-70265942D02*
X208402381Y-70227847D01*
X208402381Y-70227847D02*
X208364285Y-70151657D01*
X208364285Y-70151657D02*
X208288095Y-70113561D01*
X208288095Y-70113561D02*
X208173809Y-70113561D01*
X208173809Y-70113561D02*
X208097619Y-70151657D01*
X207716666Y-70646895D02*
X207716666Y-70113561D01*
X207716666Y-70265942D02*
X207678571Y-70189752D01*
X207678571Y-70189752D02*
X207640476Y-70151657D01*
X207640476Y-70151657D02*
X207564285Y-70113561D01*
X207564285Y-70113561D02*
X207488095Y-70113561D01*
X206878571Y-70646895D02*
X206878571Y-70227847D01*
X206878571Y-70227847D02*
X206916666Y-70151657D01*
X206916666Y-70151657D02*
X206992857Y-70113561D01*
X206992857Y-70113561D02*
X207145238Y-70113561D01*
X207145238Y-70113561D02*
X207221428Y-70151657D01*
X206878571Y-70608800D02*
X206954762Y-70646895D01*
X206954762Y-70646895D02*
X207145238Y-70646895D01*
X207145238Y-70646895D02*
X207221428Y-70608800D01*
X207221428Y-70608800D02*
X207259524Y-70532609D01*
X207259524Y-70532609D02*
X207259524Y-70456419D01*
X207259524Y-70456419D02*
X207221428Y-70380228D01*
X207221428Y-70380228D02*
X207145238Y-70342133D01*
X207145238Y-70342133D02*
X206954762Y-70342133D01*
X206954762Y-70342133D02*
X206878571Y-70304038D01*
X206497618Y-70646895D02*
X206497618Y-70113561D01*
X206497618Y-70189752D02*
X206459523Y-70151657D01*
X206459523Y-70151657D02*
X206383333Y-70113561D01*
X206383333Y-70113561D02*
X206269047Y-70113561D01*
X206269047Y-70113561D02*
X206192856Y-70151657D01*
X206192856Y-70151657D02*
X206154761Y-70227847D01*
X206154761Y-70227847D02*
X206154761Y-70646895D01*
X206154761Y-70227847D02*
X206116666Y-70151657D01*
X206116666Y-70151657D02*
X206040475Y-70113561D01*
X206040475Y-70113561D02*
X205926190Y-70113561D01*
X205926190Y-70113561D02*
X205849999Y-70151657D01*
X205849999Y-70151657D02*
X205811904Y-70227847D01*
X205811904Y-70227847D02*
X205811904Y-70646895D01*
X189914835Y-108613583D02*
X190047138Y-107863253D01*
D10*
X187281209Y-101076941D02*
X186781209Y-101076941D01*
X186781209Y-101410274D02*
X186781209Y-101505512D01*
X186781209Y-101505512D02*
X186805019Y-101553131D01*
X186805019Y-101553131D02*
X186852638Y-101600750D01*
X186852638Y-101600750D02*
X186947876Y-101624560D01*
X186947876Y-101624560D02*
X187114542Y-101624560D01*
X187114542Y-101624560D02*
X187209780Y-101600750D01*
X187209780Y-101600750D02*
X187257400Y-101553131D01*
X187257400Y-101553131D02*
X187281209Y-101505512D01*
X187281209Y-101505512D02*
X187281209Y-101410274D01*
X187281209Y-101410274D02*
X187257400Y-101362655D01*
X187257400Y-101362655D02*
X187209780Y-101315036D01*
X187209780Y-101315036D02*
X187114542Y-101291227D01*
X187114542Y-101291227D02*
X186947876Y-101291227D01*
X186947876Y-101291227D02*
X186852638Y-101315036D01*
X186852638Y-101315036D02*
X186805019Y-101362655D01*
X186805019Y-101362655D02*
X186781209Y-101410274D01*
X186781209Y-101791227D02*
X186781209Y-102100751D01*
X186781209Y-102100751D02*
X186971685Y-101934084D01*
X186971685Y-101934084D02*
X186971685Y-102005513D01*
X186971685Y-102005513D02*
X186995495Y-102053132D01*
X186995495Y-102053132D02*
X187019304Y-102076941D01*
X187019304Y-102076941D02*
X187066923Y-102100751D01*
X187066923Y-102100751D02*
X187185971Y-102100751D01*
X187185971Y-102100751D02*
X187233590Y-102076941D01*
X187233590Y-102076941D02*
X187257400Y-102053132D01*
X187257400Y-102053132D02*
X187281209Y-102005513D01*
X187281209Y-102005513D02*
X187281209Y-101862656D01*
X187281209Y-101862656D02*
X187257400Y-101815037D01*
X187257400Y-101815037D02*
X187233590Y-101791227D01*
X186781209Y-102267417D02*
X186781209Y-102576941D01*
X186781209Y-102576941D02*
X186971685Y-102410274D01*
X186971685Y-102410274D02*
X186971685Y-102481703D01*
X186971685Y-102481703D02*
X186995495Y-102529322D01*
X186995495Y-102529322D02*
X187019304Y-102553131D01*
X187019304Y-102553131D02*
X187066923Y-102576941D01*
X187066923Y-102576941D02*
X187185971Y-102576941D01*
X187185971Y-102576941D02*
X187233590Y-102553131D01*
X187233590Y-102553131D02*
X187257400Y-102529322D01*
X187257400Y-102529322D02*
X187281209Y-102481703D01*
X187281209Y-102481703D02*
X187281209Y-102338846D01*
X187281209Y-102338846D02*
X187257400Y-102291227D01*
X187257400Y-102291227D02*
X187233590Y-102267417D01*
X189836209Y-93301941D02*
X189336209Y-93301941D01*
X189336209Y-93635274D02*
X189336209Y-93730512D01*
X189336209Y-93730512D02*
X189360019Y-93778131D01*
X189360019Y-93778131D02*
X189407638Y-93825750D01*
X189407638Y-93825750D02*
X189502876Y-93849560D01*
X189502876Y-93849560D02*
X189669542Y-93849560D01*
X189669542Y-93849560D02*
X189764780Y-93825750D01*
X189764780Y-93825750D02*
X189812400Y-93778131D01*
X189812400Y-93778131D02*
X189836209Y-93730512D01*
X189836209Y-93730512D02*
X189836209Y-93635274D01*
X189836209Y-93635274D02*
X189812400Y-93587655D01*
X189812400Y-93587655D02*
X189764780Y-93540036D01*
X189764780Y-93540036D02*
X189669542Y-93516227D01*
X189669542Y-93516227D02*
X189502876Y-93516227D01*
X189502876Y-93516227D02*
X189407638Y-93540036D01*
X189407638Y-93540036D02*
X189360019Y-93587655D01*
X189360019Y-93587655D02*
X189336209Y-93635274D01*
X189836209Y-94325751D02*
X189836209Y-94040037D01*
X189836209Y-94182894D02*
X189336209Y-94182894D01*
X189336209Y-94182894D02*
X189407638Y-94135275D01*
X189407638Y-94135275D02*
X189455257Y-94087656D01*
X189455257Y-94087656D02*
X189479066Y-94040037D01*
X189502876Y-94754322D02*
X189836209Y-94754322D01*
X189312400Y-94635274D02*
X189669542Y-94516227D01*
X189669542Y-94516227D02*
X189669542Y-94825750D01*
X184681209Y-101046941D02*
X184181209Y-101046941D01*
X184181209Y-101380274D02*
X184181209Y-101475512D01*
X184181209Y-101475512D02*
X184205019Y-101523131D01*
X184205019Y-101523131D02*
X184252638Y-101570750D01*
X184252638Y-101570750D02*
X184347876Y-101594560D01*
X184347876Y-101594560D02*
X184514542Y-101594560D01*
X184514542Y-101594560D02*
X184609780Y-101570750D01*
X184609780Y-101570750D02*
X184657400Y-101523131D01*
X184657400Y-101523131D02*
X184681209Y-101475512D01*
X184681209Y-101475512D02*
X184681209Y-101380274D01*
X184681209Y-101380274D02*
X184657400Y-101332655D01*
X184657400Y-101332655D02*
X184609780Y-101285036D01*
X184609780Y-101285036D02*
X184514542Y-101261227D01*
X184514542Y-101261227D02*
X184347876Y-101261227D01*
X184347876Y-101261227D02*
X184252638Y-101285036D01*
X184252638Y-101285036D02*
X184205019Y-101332655D01*
X184205019Y-101332655D02*
X184181209Y-101380274D01*
X184181209Y-101761227D02*
X184181209Y-102070751D01*
X184181209Y-102070751D02*
X184371685Y-101904084D01*
X184371685Y-101904084D02*
X184371685Y-101975513D01*
X184371685Y-101975513D02*
X184395495Y-102023132D01*
X184395495Y-102023132D02*
X184419304Y-102046941D01*
X184419304Y-102046941D02*
X184466923Y-102070751D01*
X184466923Y-102070751D02*
X184585971Y-102070751D01*
X184585971Y-102070751D02*
X184633590Y-102046941D01*
X184633590Y-102046941D02*
X184657400Y-102023132D01*
X184657400Y-102023132D02*
X184681209Y-101975513D01*
X184681209Y-101975513D02*
X184681209Y-101832656D01*
X184681209Y-101832656D02*
X184657400Y-101785037D01*
X184657400Y-101785037D02*
X184633590Y-101761227D01*
X184181209Y-102523131D02*
X184181209Y-102285036D01*
X184181209Y-102285036D02*
X184419304Y-102261227D01*
X184419304Y-102261227D02*
X184395495Y-102285036D01*
X184395495Y-102285036D02*
X184371685Y-102332655D01*
X184371685Y-102332655D02*
X184371685Y-102451703D01*
X184371685Y-102451703D02*
X184395495Y-102499322D01*
X184395495Y-102499322D02*
X184419304Y-102523131D01*
X184419304Y-102523131D02*
X184466923Y-102546941D01*
X184466923Y-102546941D02*
X184585971Y-102546941D01*
X184585971Y-102546941D02*
X184633590Y-102523131D01*
X184633590Y-102523131D02*
X184657400Y-102499322D01*
X184657400Y-102499322D02*
X184681209Y-102451703D01*
X184681209Y-102451703D02*
X184681209Y-102332655D01*
X184681209Y-102332655D02*
X184657400Y-102285036D01*
X184657400Y-102285036D02*
X184633590Y-102261227D01*
X182196209Y-93271941D02*
X181696209Y-93271941D01*
X181696209Y-93605274D02*
X181696209Y-93700512D01*
X181696209Y-93700512D02*
X181720019Y-93748131D01*
X181720019Y-93748131D02*
X181767638Y-93795750D01*
X181767638Y-93795750D02*
X181862876Y-93819560D01*
X181862876Y-93819560D02*
X182029542Y-93819560D01*
X182029542Y-93819560D02*
X182124780Y-93795750D01*
X182124780Y-93795750D02*
X182172400Y-93748131D01*
X182172400Y-93748131D02*
X182196209Y-93700512D01*
X182196209Y-93700512D02*
X182196209Y-93605274D01*
X182196209Y-93605274D02*
X182172400Y-93557655D01*
X182172400Y-93557655D02*
X182124780Y-93510036D01*
X182124780Y-93510036D02*
X182029542Y-93486227D01*
X182029542Y-93486227D02*
X181862876Y-93486227D01*
X181862876Y-93486227D02*
X181767638Y-93510036D01*
X181767638Y-93510036D02*
X181720019Y-93557655D01*
X181720019Y-93557655D02*
X181696209Y-93605274D01*
X181696209Y-93986227D02*
X181696209Y-94295751D01*
X181696209Y-94295751D02*
X181886685Y-94129084D01*
X181886685Y-94129084D02*
X181886685Y-94200513D01*
X181886685Y-94200513D02*
X181910495Y-94248132D01*
X181910495Y-94248132D02*
X181934304Y-94271941D01*
X181934304Y-94271941D02*
X181981923Y-94295751D01*
X181981923Y-94295751D02*
X182100971Y-94295751D01*
X182100971Y-94295751D02*
X182148590Y-94271941D01*
X182148590Y-94271941D02*
X182172400Y-94248132D01*
X182172400Y-94248132D02*
X182196209Y-94200513D01*
X182196209Y-94200513D02*
X182196209Y-94057656D01*
X182196209Y-94057656D02*
X182172400Y-94010037D01*
X182172400Y-94010037D02*
X182148590Y-93986227D01*
X181696209Y-94724322D02*
X181696209Y-94629084D01*
X181696209Y-94629084D02*
X181720019Y-94581465D01*
X181720019Y-94581465D02*
X181743828Y-94557655D01*
X181743828Y-94557655D02*
X181815257Y-94510036D01*
X181815257Y-94510036D02*
X181910495Y-94486227D01*
X181910495Y-94486227D02*
X182100971Y-94486227D01*
X182100971Y-94486227D02*
X182148590Y-94510036D01*
X182148590Y-94510036D02*
X182172400Y-94533846D01*
X182172400Y-94533846D02*
X182196209Y-94581465D01*
X182196209Y-94581465D02*
X182196209Y-94676703D01*
X182196209Y-94676703D02*
X182172400Y-94724322D01*
X182172400Y-94724322D02*
X182148590Y-94748131D01*
X182148590Y-94748131D02*
X182100971Y-94771941D01*
X182100971Y-94771941D02*
X181981923Y-94771941D01*
X181981923Y-94771941D02*
X181934304Y-94748131D01*
X181934304Y-94748131D02*
X181910495Y-94724322D01*
X181910495Y-94724322D02*
X181886685Y-94676703D01*
X181886685Y-94676703D02*
X181886685Y-94581465D01*
X181886685Y-94581465D02*
X181910495Y-94533846D01*
X181910495Y-94533846D02*
X181934304Y-94510036D01*
X181934304Y-94510036D02*
X181981923Y-94486227D01*
X189741209Y-101076941D02*
X189241209Y-101076941D01*
X189241209Y-101410274D02*
X189241209Y-101505512D01*
X189241209Y-101505512D02*
X189265019Y-101553131D01*
X189265019Y-101553131D02*
X189312638Y-101600750D01*
X189312638Y-101600750D02*
X189407876Y-101624560D01*
X189407876Y-101624560D02*
X189574542Y-101624560D01*
X189574542Y-101624560D02*
X189669780Y-101600750D01*
X189669780Y-101600750D02*
X189717400Y-101553131D01*
X189717400Y-101553131D02*
X189741209Y-101505512D01*
X189741209Y-101505512D02*
X189741209Y-101410274D01*
X189741209Y-101410274D02*
X189717400Y-101362655D01*
X189717400Y-101362655D02*
X189669780Y-101315036D01*
X189669780Y-101315036D02*
X189574542Y-101291227D01*
X189574542Y-101291227D02*
X189407876Y-101291227D01*
X189407876Y-101291227D02*
X189312638Y-101315036D01*
X189312638Y-101315036D02*
X189265019Y-101362655D01*
X189265019Y-101362655D02*
X189241209Y-101410274D01*
X189741209Y-102100751D02*
X189741209Y-101815037D01*
X189741209Y-101957894D02*
X189241209Y-101957894D01*
X189241209Y-101957894D02*
X189312638Y-101910275D01*
X189312638Y-101910275D02*
X189360257Y-101862656D01*
X189360257Y-101862656D02*
X189384066Y-101815037D01*
X189241209Y-102553131D02*
X189241209Y-102315036D01*
X189241209Y-102315036D02*
X189479304Y-102291227D01*
X189479304Y-102291227D02*
X189455495Y-102315036D01*
X189455495Y-102315036D02*
X189431685Y-102362655D01*
X189431685Y-102362655D02*
X189431685Y-102481703D01*
X189431685Y-102481703D02*
X189455495Y-102529322D01*
X189455495Y-102529322D02*
X189479304Y-102553131D01*
X189479304Y-102553131D02*
X189526923Y-102576941D01*
X189526923Y-102576941D02*
X189645971Y-102576941D01*
X189645971Y-102576941D02*
X189693590Y-102553131D01*
X189693590Y-102553131D02*
X189717400Y-102529322D01*
X189717400Y-102529322D02*
X189741209Y-102481703D01*
X189741209Y-102481703D02*
X189741209Y-102362655D01*
X189741209Y-102362655D02*
X189717400Y-102315036D01*
X189717400Y-102315036D02*
X189693590Y-102291227D01*
X176660019Y-93748846D02*
X176636209Y-93701227D01*
X176636209Y-93701227D02*
X176636209Y-93629798D01*
X176636209Y-93629798D02*
X176660019Y-93558370D01*
X176660019Y-93558370D02*
X176707638Y-93510751D01*
X176707638Y-93510751D02*
X176755257Y-93486941D01*
X176755257Y-93486941D02*
X176850495Y-93463132D01*
X176850495Y-93463132D02*
X176921923Y-93463132D01*
X176921923Y-93463132D02*
X177017161Y-93486941D01*
X177017161Y-93486941D02*
X177064780Y-93510751D01*
X177064780Y-93510751D02*
X177112400Y-93558370D01*
X177112400Y-93558370D02*
X177136209Y-93629798D01*
X177136209Y-93629798D02*
X177136209Y-93677417D01*
X177136209Y-93677417D02*
X177112400Y-93748846D01*
X177112400Y-93748846D02*
X177088590Y-93772655D01*
X177088590Y-93772655D02*
X176921923Y-93772655D01*
X176921923Y-93772655D02*
X176921923Y-93677417D01*
X177136209Y-93986941D02*
X176636209Y-93986941D01*
X176636209Y-93986941D02*
X177136209Y-94272655D01*
X177136209Y-94272655D02*
X176636209Y-94272655D01*
X177136209Y-94510751D02*
X176636209Y-94510751D01*
X176636209Y-94510751D02*
X176636209Y-94629799D01*
X176636209Y-94629799D02*
X176660019Y-94701227D01*
X176660019Y-94701227D02*
X176707638Y-94748846D01*
X176707638Y-94748846D02*
X176755257Y-94772656D01*
X176755257Y-94772656D02*
X176850495Y-94796465D01*
X176850495Y-94796465D02*
X176921923Y-94796465D01*
X176921923Y-94796465D02*
X177017161Y-94772656D01*
X177017161Y-94772656D02*
X177064780Y-94748846D01*
X177064780Y-94748846D02*
X177112400Y-94701227D01*
X177112400Y-94701227D02*
X177136209Y-94629799D01*
X177136209Y-94629799D02*
X177136209Y-94510751D01*
X187306209Y-93361941D02*
X186806209Y-93361941D01*
X186806209Y-93695274D02*
X186806209Y-93790512D01*
X186806209Y-93790512D02*
X186830019Y-93838131D01*
X186830019Y-93838131D02*
X186877638Y-93885750D01*
X186877638Y-93885750D02*
X186972876Y-93909560D01*
X186972876Y-93909560D02*
X187139542Y-93909560D01*
X187139542Y-93909560D02*
X187234780Y-93885750D01*
X187234780Y-93885750D02*
X187282400Y-93838131D01*
X187282400Y-93838131D02*
X187306209Y-93790512D01*
X187306209Y-93790512D02*
X187306209Y-93695274D01*
X187306209Y-93695274D02*
X187282400Y-93647655D01*
X187282400Y-93647655D02*
X187234780Y-93600036D01*
X187234780Y-93600036D02*
X187139542Y-93576227D01*
X187139542Y-93576227D02*
X186972876Y-93576227D01*
X186972876Y-93576227D02*
X186877638Y-93600036D01*
X186877638Y-93600036D02*
X186830019Y-93647655D01*
X186830019Y-93647655D02*
X186806209Y-93695274D01*
X186853828Y-94100037D02*
X186830019Y-94123846D01*
X186830019Y-94123846D02*
X186806209Y-94171465D01*
X186806209Y-94171465D02*
X186806209Y-94290513D01*
X186806209Y-94290513D02*
X186830019Y-94338132D01*
X186830019Y-94338132D02*
X186853828Y-94361941D01*
X186853828Y-94361941D02*
X186901447Y-94385751D01*
X186901447Y-94385751D02*
X186949066Y-94385751D01*
X186949066Y-94385751D02*
X187020495Y-94361941D01*
X187020495Y-94361941D02*
X187306209Y-94076227D01*
X187306209Y-94076227D02*
X187306209Y-94385751D01*
X187306209Y-94861941D02*
X187306209Y-94576227D01*
X187306209Y-94719084D02*
X186806209Y-94719084D01*
X186806209Y-94719084D02*
X186877638Y-94671465D01*
X186877638Y-94671465D02*
X186925257Y-94623846D01*
X186925257Y-94623846D02*
X186949066Y-94576227D01*
D11*
X212033333Y-88463561D02*
X212033333Y-89263561D01*
X212033333Y-88501657D02*
X211957143Y-88463561D01*
X211957143Y-88463561D02*
X211804762Y-88463561D01*
X211804762Y-88463561D02*
X211728571Y-88501657D01*
X211728571Y-88501657D02*
X211690476Y-88539752D01*
X211690476Y-88539752D02*
X211652381Y-88615942D01*
X211652381Y-88615942D02*
X211652381Y-88844514D01*
X211652381Y-88844514D02*
X211690476Y-88920704D01*
X211690476Y-88920704D02*
X211728571Y-88958800D01*
X211728571Y-88958800D02*
X211804762Y-88996895D01*
X211804762Y-88996895D02*
X211957143Y-88996895D01*
X211957143Y-88996895D02*
X212033333Y-88958800D01*
X211195238Y-88996895D02*
X211271428Y-88958800D01*
X211271428Y-88958800D02*
X211309523Y-88920704D01*
X211309523Y-88920704D02*
X211347619Y-88844514D01*
X211347619Y-88844514D02*
X211347619Y-88615942D01*
X211347619Y-88615942D02*
X211309523Y-88539752D01*
X211309523Y-88539752D02*
X211271428Y-88501657D01*
X211271428Y-88501657D02*
X211195238Y-88463561D01*
X211195238Y-88463561D02*
X211080952Y-88463561D01*
X211080952Y-88463561D02*
X211004761Y-88501657D01*
X211004761Y-88501657D02*
X210966666Y-88539752D01*
X210966666Y-88539752D02*
X210928571Y-88615942D01*
X210928571Y-88615942D02*
X210928571Y-88844514D01*
X210928571Y-88844514D02*
X210966666Y-88920704D01*
X210966666Y-88920704D02*
X211004761Y-88958800D01*
X211004761Y-88958800D02*
X211080952Y-88996895D01*
X211080952Y-88996895D02*
X211195238Y-88996895D01*
X210661904Y-88463561D02*
X210509523Y-88996895D01*
X210509523Y-88996895D02*
X210357142Y-88615942D01*
X210357142Y-88615942D02*
X210204761Y-88996895D01*
X210204761Y-88996895D02*
X210052380Y-88463561D01*
X209442856Y-88958800D02*
X209519047Y-88996895D01*
X209519047Y-88996895D02*
X209671428Y-88996895D01*
X209671428Y-88996895D02*
X209747618Y-88958800D01*
X209747618Y-88958800D02*
X209785714Y-88882609D01*
X209785714Y-88882609D02*
X209785714Y-88577847D01*
X209785714Y-88577847D02*
X209747618Y-88501657D01*
X209747618Y-88501657D02*
X209671428Y-88463561D01*
X209671428Y-88463561D02*
X209519047Y-88463561D01*
X209519047Y-88463561D02*
X209442856Y-88501657D01*
X209442856Y-88501657D02*
X209404761Y-88577847D01*
X209404761Y-88577847D02*
X209404761Y-88654038D01*
X209404761Y-88654038D02*
X209785714Y-88730228D01*
X209061904Y-88996895D02*
X209061904Y-88463561D01*
X209061904Y-88615942D02*
X209023809Y-88539752D01*
X209023809Y-88539752D02*
X208985714Y-88501657D01*
X208985714Y-88501657D02*
X208909523Y-88463561D01*
X208909523Y-88463561D02*
X208833333Y-88463561D01*
X207576190Y-88996895D02*
X207957142Y-88996895D01*
X207957142Y-88996895D02*
X207957142Y-88196895D01*
X207309523Y-88577847D02*
X207042857Y-88577847D01*
X206928571Y-88996895D02*
X207309523Y-88996895D01*
X207309523Y-88996895D02*
X207309523Y-88196895D01*
X207309523Y-88196895D02*
X206928571Y-88196895D01*
X206585713Y-88996895D02*
X206585713Y-88196895D01*
X206585713Y-88196895D02*
X206395237Y-88196895D01*
X206395237Y-88196895D02*
X206280951Y-88234990D01*
X206280951Y-88234990D02*
X206204761Y-88311180D01*
X206204761Y-88311180D02*
X206166666Y-88387371D01*
X206166666Y-88387371D02*
X206128570Y-88539752D01*
X206128570Y-88539752D02*
X206128570Y-88654038D01*
X206128570Y-88654038D02*
X206166666Y-88806419D01*
X206166666Y-88806419D02*
X206204761Y-88882609D01*
X206204761Y-88882609D02*
X206280951Y-88958800D01*
X206280951Y-88958800D02*
X206395237Y-88996895D01*
X206395237Y-88996895D02*
X206585713Y-88996895D01*
D12*
X204374819Y-61171666D02*
X205089104Y-61171666D01*
X205089104Y-61171666D02*
X205231961Y-61124047D01*
X205231961Y-61124047D02*
X205327200Y-61028809D01*
X205327200Y-61028809D02*
X205374819Y-60885952D01*
X205374819Y-60885952D02*
X205374819Y-60790714D01*
X204470057Y-61600238D02*
X204422438Y-61647857D01*
X204422438Y-61647857D02*
X204374819Y-61743095D01*
X204374819Y-61743095D02*
X204374819Y-61981190D01*
X204374819Y-61981190D02*
X204422438Y-62076428D01*
X204422438Y-62076428D02*
X204470057Y-62124047D01*
X204470057Y-62124047D02*
X204565295Y-62171666D01*
X204565295Y-62171666D02*
X204660533Y-62171666D01*
X204660533Y-62171666D02*
X204803390Y-62124047D01*
X204803390Y-62124047D02*
X205374819Y-61552619D01*
X205374819Y-61552619D02*
X205374819Y-62171666D01*
X181058333Y-103631009D02*
X180915476Y-103678628D01*
X180915476Y-103678628D02*
X180867857Y-103726247D01*
X180867857Y-103726247D02*
X180820238Y-103821485D01*
X180820238Y-103821485D02*
X180820238Y-103964342D01*
X180820238Y-103964342D02*
X180867857Y-104059580D01*
X180867857Y-104059580D02*
X180915476Y-104107200D01*
X180915476Y-104107200D02*
X181010714Y-104154819D01*
X181010714Y-104154819D02*
X181391666Y-104154819D01*
X181391666Y-104154819D02*
X181391666Y-103154819D01*
X181391666Y-103154819D02*
X181058333Y-103154819D01*
X181058333Y-103154819D02*
X180963095Y-103202438D01*
X180963095Y-103202438D02*
X180915476Y-103250057D01*
X180915476Y-103250057D02*
X180867857Y-103345295D01*
X180867857Y-103345295D02*
X180867857Y-103440533D01*
X180867857Y-103440533D02*
X180915476Y-103535771D01*
X180915476Y-103535771D02*
X180963095Y-103583390D01*
X180963095Y-103583390D02*
X181058333Y-103631009D01*
X181058333Y-103631009D02*
X181391666Y-103631009D01*
X180201190Y-103154819D02*
X180010714Y-103154819D01*
X180010714Y-103154819D02*
X179915476Y-103202438D01*
X179915476Y-103202438D02*
X179820238Y-103297676D01*
X179820238Y-103297676D02*
X179772619Y-103488152D01*
X179772619Y-103488152D02*
X179772619Y-103821485D01*
X179772619Y-103821485D02*
X179820238Y-104011961D01*
X179820238Y-104011961D02*
X179915476Y-104107200D01*
X179915476Y-104107200D02*
X180010714Y-104154819D01*
X180010714Y-104154819D02*
X180201190Y-104154819D01*
X180201190Y-104154819D02*
X180296428Y-104107200D01*
X180296428Y-104107200D02*
X180391666Y-104011961D01*
X180391666Y-104011961D02*
X180439285Y-103821485D01*
X180439285Y-103821485D02*
X180439285Y-103488152D01*
X180439285Y-103488152D02*
X180391666Y-103297676D01*
X180391666Y-103297676D02*
X180296428Y-103202438D01*
X180296428Y-103202438D02*
X180201190Y-103154819D01*
X179153571Y-103154819D02*
X178963095Y-103154819D01*
X178963095Y-103154819D02*
X178867857Y-103202438D01*
X178867857Y-103202438D02*
X178772619Y-103297676D01*
X178772619Y-103297676D02*
X178725000Y-103488152D01*
X178725000Y-103488152D02*
X178725000Y-103821485D01*
X178725000Y-103821485D02*
X178772619Y-104011961D01*
X178772619Y-104011961D02*
X178867857Y-104107200D01*
X178867857Y-104107200D02*
X178963095Y-104154819D01*
X178963095Y-104154819D02*
X179153571Y-104154819D01*
X179153571Y-104154819D02*
X179248809Y-104107200D01*
X179248809Y-104107200D02*
X179344047Y-104011961D01*
X179344047Y-104011961D02*
X179391666Y-103821485D01*
X179391666Y-103821485D02*
X179391666Y-103488152D01*
X179391666Y-103488152D02*
X179344047Y-103297676D01*
X179344047Y-103297676D02*
X179248809Y-103202438D01*
X179248809Y-103202438D02*
X179153571Y-103154819D01*
X178439285Y-103154819D02*
X177867857Y-103154819D01*
X178153571Y-104154819D02*
X178153571Y-103154819D01*
X177010714Y-104154819D02*
X177582142Y-104154819D01*
X177296428Y-104154819D02*
X177296428Y-103154819D01*
X177296428Y-103154819D02*
X177391666Y-103297676D01*
X177391666Y-103297676D02*
X177486904Y-103392914D01*
X177486904Y-103392914D02*
X177582142Y-103440533D01*
X206854819Y-90916666D02*
X207569104Y-90916666D01*
X207569104Y-90916666D02*
X207711961Y-90869047D01*
X207711961Y-90869047D02*
X207807200Y-90773809D01*
X207807200Y-90773809D02*
X207854819Y-90630952D01*
X207854819Y-90630952D02*
X207854819Y-90535714D01*
X207854819Y-91916666D02*
X207854819Y-91345238D01*
X207854819Y-91630952D02*
X206854819Y-91630952D01*
X206854819Y-91630952D02*
X206997676Y-91535714D01*
X206997676Y-91535714D02*
X207092914Y-91440476D01*
X207092914Y-91440476D02*
X207140533Y-91345238D01*
X208191904Y-72699819D02*
X208191904Y-73509342D01*
X208191904Y-73509342D02*
X208144285Y-73604580D01*
X208144285Y-73604580D02*
X208096666Y-73652200D01*
X208096666Y-73652200D02*
X208001428Y-73699819D01*
X208001428Y-73699819D02*
X207810952Y-73699819D01*
X207810952Y-73699819D02*
X207715714Y-73652200D01*
X207715714Y-73652200D02*
X207668095Y-73604580D01*
X207668095Y-73604580D02*
X207620476Y-73509342D01*
X207620476Y-73509342D02*
X207620476Y-72699819D01*
X207191904Y-72795057D02*
X207144285Y-72747438D01*
X207144285Y-72747438D02*
X207049047Y-72699819D01*
X207049047Y-72699819D02*
X206810952Y-72699819D01*
X206810952Y-72699819D02*
X206715714Y-72747438D01*
X206715714Y-72747438D02*
X206668095Y-72795057D01*
X206668095Y-72795057D02*
X206620476Y-72890295D01*
X206620476Y-72890295D02*
X206620476Y-72985533D01*
X206620476Y-72985533D02*
X206668095Y-73128390D01*
X206668095Y-73128390D02*
X207239523Y-73699819D01*
X207239523Y-73699819D02*
X206620476Y-73699819D01*
X176064580Y-106333333D02*
X176112200Y-106285714D01*
X176112200Y-106285714D02*
X176159819Y-106142857D01*
X176159819Y-106142857D02*
X176159819Y-106047619D01*
X176159819Y-106047619D02*
X176112200Y-105904762D01*
X176112200Y-105904762D02*
X176016961Y-105809524D01*
X176016961Y-105809524D02*
X175921723Y-105761905D01*
X175921723Y-105761905D02*
X175731247Y-105714286D01*
X175731247Y-105714286D02*
X175588390Y-105714286D01*
X175588390Y-105714286D02*
X175397914Y-105761905D01*
X175397914Y-105761905D02*
X175302676Y-105809524D01*
X175302676Y-105809524D02*
X175207438Y-105904762D01*
X175207438Y-105904762D02*
X175159819Y-106047619D01*
X175159819Y-106047619D02*
X175159819Y-106142857D01*
X175159819Y-106142857D02*
X175207438Y-106285714D01*
X175207438Y-106285714D02*
X175255057Y-106333333D01*
X176159819Y-106809524D02*
X176159819Y-107000000D01*
X176159819Y-107000000D02*
X176112200Y-107095238D01*
X176112200Y-107095238D02*
X176064580Y-107142857D01*
X176064580Y-107142857D02*
X175921723Y-107238095D01*
X175921723Y-107238095D02*
X175731247Y-107285714D01*
X175731247Y-107285714D02*
X175350295Y-107285714D01*
X175350295Y-107285714D02*
X175255057Y-107238095D01*
X175255057Y-107238095D02*
X175207438Y-107190476D01*
X175207438Y-107190476D02*
X175159819Y-107095238D01*
X175159819Y-107095238D02*
X175159819Y-106904762D01*
X175159819Y-106904762D02*
X175207438Y-106809524D01*
X175207438Y-106809524D02*
X175255057Y-106761905D01*
X175255057Y-106761905D02*
X175350295Y-106714286D01*
X175350295Y-106714286D02*
X175588390Y-106714286D01*
X175588390Y-106714286D02*
X175683628Y-106761905D01*
X175683628Y-106761905D02*
X175731247Y-106809524D01*
X175731247Y-106809524D02*
X175778866Y-106904762D01*
X175778866Y-106904762D02*
X175778866Y-107095238D01*
X175778866Y-107095238D02*
X175731247Y-107190476D01*
X175731247Y-107190476D02*
X175683628Y-107238095D01*
X175683628Y-107238095D02*
X175588390Y-107285714D01*
X194833333Y-61104819D02*
X194833333Y-61819104D01*
X194833333Y-61819104D02*
X194880952Y-61961961D01*
X194880952Y-61961961D02*
X194976190Y-62057200D01*
X194976190Y-62057200D02*
X195119047Y-62104819D01*
X195119047Y-62104819D02*
X195214285Y-62104819D01*
X194452380Y-61104819D02*
X193785714Y-61104819D01*
X193785714Y-61104819D02*
X194214285Y-62104819D01*
X203603571Y-103779819D02*
X203936904Y-103303628D01*
X204174999Y-103779819D02*
X204174999Y-102779819D01*
X204174999Y-102779819D02*
X203794047Y-102779819D01*
X203794047Y-102779819D02*
X203698809Y-102827438D01*
X203698809Y-102827438D02*
X203651190Y-102875057D01*
X203651190Y-102875057D02*
X203603571Y-102970295D01*
X203603571Y-102970295D02*
X203603571Y-103113152D01*
X203603571Y-103113152D02*
X203651190Y-103208390D01*
X203651190Y-103208390D02*
X203698809Y-103256009D01*
X203698809Y-103256009D02*
X203794047Y-103303628D01*
X203794047Y-103303628D02*
X204174999Y-103303628D01*
X203174999Y-103256009D02*
X202841666Y-103256009D01*
X202698809Y-103779819D02*
X203174999Y-103779819D01*
X203174999Y-103779819D02*
X203174999Y-102779819D01*
X203174999Y-102779819D02*
X202698809Y-102779819D01*
X202317856Y-103732200D02*
X202174999Y-103779819D01*
X202174999Y-103779819D02*
X201936904Y-103779819D01*
X201936904Y-103779819D02*
X201841666Y-103732200D01*
X201841666Y-103732200D02*
X201794047Y-103684580D01*
X201794047Y-103684580D02*
X201746428Y-103589342D01*
X201746428Y-103589342D02*
X201746428Y-103494104D01*
X201746428Y-103494104D02*
X201794047Y-103398866D01*
X201794047Y-103398866D02*
X201841666Y-103351247D01*
X201841666Y-103351247D02*
X201936904Y-103303628D01*
X201936904Y-103303628D02*
X202127380Y-103256009D01*
X202127380Y-103256009D02*
X202222618Y-103208390D01*
X202222618Y-103208390D02*
X202270237Y-103160771D01*
X202270237Y-103160771D02*
X202317856Y-103065533D01*
X202317856Y-103065533D02*
X202317856Y-102970295D01*
X202317856Y-102970295D02*
X202270237Y-102875057D01*
X202270237Y-102875057D02*
X202222618Y-102827438D01*
X202222618Y-102827438D02*
X202127380Y-102779819D01*
X202127380Y-102779819D02*
X201889285Y-102779819D01*
X201889285Y-102779819D02*
X201746428Y-102827438D01*
X201317856Y-103256009D02*
X200984523Y-103256009D01*
X200841666Y-103779819D02*
X201317856Y-103779819D01*
X201317856Y-103779819D02*
X201317856Y-102779819D01*
X201317856Y-102779819D02*
X200841666Y-102779819D01*
X200555951Y-102779819D02*
X199984523Y-102779819D01*
X200270237Y-103779819D02*
X200270237Y-102779819D01*
X199127380Y-103779819D02*
X199698808Y-103779819D01*
X199413094Y-103779819D02*
X199413094Y-102779819D01*
X199413094Y-102779819D02*
X199508332Y-102922676D01*
X199508332Y-102922676D02*
X199603570Y-103017914D01*
X199603570Y-103017914D02*
X199698808Y-103065533D01*
D13*
%TO.C,J2*%
X203920000Y-62835000D02*
X203350000Y-62835000D01*
X203920000Y-62835000D02*
X203920000Y-60175000D01*
X203350000Y-62835000D02*
X203350000Y-64355000D01*
X201830000Y-62835000D02*
X198720000Y-62835000D01*
X198720000Y-62835000D02*
X198720000Y-60175000D01*
X203920000Y-60175000D02*
X200810000Y-60175000D01*
X199290000Y-60175000D02*
X198720000Y-60175000D01*
%TO.C,BOOT1*%
X176475000Y-108200000D02*
X176475000Y-106200000D01*
X177475000Y-104900000D02*
X177925000Y-104450000D01*
X177475000Y-109500000D02*
X177925000Y-109950000D01*
X177925000Y-104450000D02*
X180525000Y-104450000D01*
X177925000Y-109950000D02*
X180525000Y-109950000D01*
X180975000Y-104900000D02*
X180525000Y-104450000D01*
X180975000Y-109500000D02*
X180525000Y-109950000D01*
X181975000Y-108200000D02*
X181975000Y-106200000D01*
%TO.C,J1*%
X208200000Y-89850000D02*
X208200000Y-92650000D01*
X208200000Y-92650000D02*
X210200000Y-92650000D01*
X210200000Y-89850000D02*
X208200000Y-89850000D01*
X210200000Y-92650000D02*
X210200000Y-89850000D01*
%TO.C,U2*%
X205450000Y-70890000D02*
X207400000Y-70890000D01*
X205450000Y-76010000D02*
X207400000Y-76010000D01*
X209350000Y-70890000D02*
X207400000Y-70890000D01*
X209350000Y-76010000D02*
X207400000Y-76010000D01*
X210100000Y-70985000D02*
X209860000Y-70655000D01*
X210340000Y-70655000D01*
X210100000Y-70985000D01*
G36*
X210100000Y-70985000D02*
G01*
X209860000Y-70655000D01*
X210340000Y-70655000D01*
X210100000Y-70985000D01*
G37*
%TO.C,C9*%
X173515000Y-105888748D02*
X173515000Y-106411252D01*
X174985000Y-105888748D02*
X174985000Y-106411252D01*
%TO.C,J7*%
X191440000Y-62740000D02*
X197560000Y-62740000D01*
X191440000Y-64050000D02*
X192050000Y-64050000D01*
X191440000Y-65350000D02*
X192050000Y-65350000D01*
X191440000Y-67460000D02*
X191440000Y-62740000D01*
X192050000Y-63350000D02*
X194000000Y-63350000D01*
X192050000Y-66850000D02*
X192050000Y-63350000D01*
X194000000Y-63350000D02*
X194000000Y-62740000D01*
X194400000Y-66350000D02*
X194400000Y-66850000D01*
X194500000Y-66850000D02*
X194500000Y-66350000D01*
X194600000Y-66350000D02*
X194400000Y-66350000D01*
X194600000Y-66850000D02*
X194600000Y-66350000D01*
X195000000Y-62740000D02*
X195000000Y-63350000D01*
X195000000Y-63350000D02*
X196950000Y-63350000D01*
X195800000Y-62540000D02*
X196100000Y-62540000D01*
X195800000Y-62640000D02*
X196100000Y-62640000D01*
X195800000Y-62740000D02*
X195800000Y-62540000D01*
X196100000Y-62540000D02*
X196100000Y-62740000D01*
X196610000Y-62440000D02*
X197860000Y-62440000D01*
X196950000Y-63350000D02*
X196950000Y-66850000D01*
X196950000Y-66850000D02*
X192050000Y-66850000D01*
X197560000Y-62740000D02*
X197560000Y-67460000D01*
X197560000Y-64050000D02*
X196950000Y-64050000D01*
X197560000Y-65350000D02*
X196950000Y-65350000D01*
X197560000Y-67460000D02*
X191440000Y-67460000D01*
X197860000Y-62440000D02*
X197860000Y-63690000D01*
%TO.C,RESET1*%
X198925000Y-108075000D02*
X198925000Y-106075000D01*
X199925000Y-104775000D02*
X200375000Y-104325000D01*
X199925000Y-109375000D02*
X200375000Y-109825000D01*
X200375000Y-104325000D02*
X202975000Y-104325000D01*
X200375000Y-109825000D02*
X202975000Y-109825000D01*
X203425000Y-104775000D02*
X202975000Y-104325000D01*
X203425000Y-109375000D02*
X202975000Y-109825000D01*
X204425000Y-108075000D02*
X204425000Y-106075000D01*
%TD*%
M02*
